<?xml version="1.0" encoding="UTF-8" standalone="no"?>
<!DOCTYPE svg PUBLIC "-//W3C//DTD SVG 1.1//EN" "http://www.w3.org/Graphics/SVG/1.1/DTD/svg11.dtd">
<svg width="100%" height="100%" viewBox="0 0 24 24" version="1.1" xmlns="http://www.w3.org/2000/svg" xmlns:xlink="http://www.w3.org/1999/xlink" xml:space="preserve" xmlns:serif="http://www.serif.com/" style="fill-rule:evenodd;clip-rule:evenodd;stroke-linejoin:round;stroke-miterlimit:2;">
    <g id="main">
        <g id="icon">
            <path d="M2.734,0.095L2.353,0.353L2.095,0.734L2,1.2L2,20.8L2.095,21.27L2.353,21.65L2.734,21.91L3.2,22L14.61,22L14.37,21.48L14.17,20.85L14.04,20.19L14,19.5L14.03,18.94L14.11,18.39L14.25,17.87L14.43,17.36L14.66,16.88L14.94,16.43L15.26,16L15.61,15.61L16,15.26L16.43,14.94L16.88,14.66L17.36,14.43L17.87,14.25L18.39,14.11L18.94,14.03L19.5,14L20,14.03L20,1.2L19.91,0.734L19.65,0.353L19.27,0.095L18.8,0L3.2,0L2.734,0.095Z" style="fill:rgb(230,233,238);fill-rule:nonzero;"/>
            <path d="M5.183,9.113L5.01,9.402L5.059,9.735L5.308,9.962L5.5,10L16.5,10L16.82,9.887L16.99,9.598L16.94,9.265L16.69,9.038L16.5,9L5.5,9L5.183,9.113ZM5.183,12.11L5.01,12.4L5.059,12.73L5.308,12.96L5.5,13L16.5,13L16.82,12.89L16.99,12.6L16.94,12.27L16.69,12.04L16.5,12L5.5,12L5.183,12.11ZM5.183,15.11L5.01,15.4L5.059,15.73L5.308,15.96L5.5,16L15.26,16L15.61,15.61L16,15.26L16.35,15L5.5,15L5.183,15.11ZM5.183,18.11L5.01,18.4L5.059,18.73L5.308,18.96L5.5,19L14.03,19L14.03,18.94L14.11,18.39L14.21,18L5.5,18L5.183,18.11Z" style="fill:rgb(83,104,128);fill-opacity:0.7;fill-rule:nonzero;"/>
            <path d="M9.588,22L14.61,22L14.37,21.48L14.17,20.85L14.04,20.19L14,19.5L14.03,18.94L14.11,18.39L14.25,17.87L14.43,17.36L14.66,16.88L14.94,16.43L15.26,16L15.61,15.61L16,15.26L16.43,14.94L16.88,14.66L17.36,14.43L17.87,14.25L18.39,14.11L18.94,14.03L19.5,14L20,14.03L20,1.1L19.92,0.65L19.7,0.303L19.35,0.079L18.9,0L17.13,0L9.588,22Z" style="fill:rgb(35,31,32);fill-opacity:0.06;fill-rule:nonzero;"/>
        </g>
        <g id="overlay">
            <circle cx="19.5" cy="19.5" r="4.49" style="fill:rgb(72,207,174);"/>
            <path d="M22.675,16.325C22.669,16.319 22.663,16.313 22.656,16.307L16.307,22.656C16.313,22.662 16.319,22.669 16.325,22.675C18.079,24.428 20.922,24.428 22.675,22.675C24.428,20.921 24.428,18.079 22.675,16.325Z" style="fill:rgb(54,188,155);fill-opacity:0.7;fill-rule:nonzero;"/>
            <path d="M21.859,17.651L19.066,20.444L17.451,18.83C17.374,18.752 17.248,18.752 17.171,18.83L16.75,19.251C16.672,19.328 16.672,19.454 16.75,19.531L18.925,21.707C19.002,21.784 19.129,21.784 19.206,21.707L22.56,18.353C22.638,18.275 22.638,18.149 22.56,18.072L22.139,17.651C22.062,17.573 21.936,17.573 21.859,17.651Z" style="fill:white;fill-rule:nonzero;"/>
        </g>
        <g id="CorelEMF" serif:id="CorelEMF" transform="matrix(0.0349055,0,0,0.0349055,5.58278,1.5476)">
            <g transform="matrix(0.0283465,0,0,0.0283465,0,0)">
                <path d="M390,3023L3132,1375C3175,1353 3220,1341 3271,1341C3346,1341 3411,1368 3465,1422C3519,1476 3546,1541 3546,1616C3546,1715 3499,1796 3405,1857L1048,3271L3405,4683C3499,4744 3546,4825 3546,4924C3546,4999 3519,5064 3465,5118C3411,5172 3346,5199 3271,5199C3220,5199 3175,5188 3132,5165L390,3519C289,3454 238,3372 238,3271C238,3170 289,3086 390,3023Z" style="fill:rgb(75,136,218);fill-rule:nonzero;stroke:rgb(75,136,218);stroke-width:404.27px;"/>
            </g>
            <g transform="matrix(0.0283465,0,0,0.0283465,0,0)">
                <path d="M6385,318C6438,265 6501,238 6578,238C6653,238 6718,265 6772,319C6826,373 6853,438 6853,514C6853,555 6845,594 6829,631L4624,6144C4610,6171 4591,6197 4569,6219C4514,6274 4448,6302 4373,6302C4296,6302 4232,6275 4177,6221C4123,6167 4096,6102 4096,6026C4096,5985 4105,5946 4121,5910L6326,397C6340,369 6359,342 6385,318Z" style="fill:rgb(75,136,218);fill-rule:nonzero;stroke:rgb(75,136,218);stroke-width:404.27px;"/>
            </g>
            <g transform="matrix(0.0283465,0,0,0.0283465,0,0)">
                <path d="M10712,3271C10712,3372 10662,3454 10561,3519L7818,5165C7777,5188 7731,5199 7681,5199C7604,5199 7539,5172 7485,5118C7431,5064 7404,4999 7404,4924C7404,4825 7451,4744 7545,4683L9902,3271L7545,1857C7451,1796 7404,1715 7404,1616C7404,1541 7431,1476 7485,1422C7539,1368 7604,1341 7681,1341C7731,1341 7777,1353 7818,1375L10561,3023C10662,3086 10712,3170 10712,3271Z" style="fill:rgb(75,136,218);fill-rule:nonzero;stroke:rgb(75,136,218);stroke-width:404.27px;"/>
            </g>
        </g>
    </g>
</svg>
