<?xml version="1.0" encoding="UTF-8" standalone="no"?>
<!DOCTYPE svg PUBLIC "-//W3C//DTD SVG 1.1//EN" "http://www.w3.org/Graphics/SVG/1.1/DTD/svg11.dtd">
<svg width="100%" height="100%" viewBox="0 0 24 24" version="1.1" xmlns="http://www.w3.org/2000/svg" xmlns:xlink="http://www.w3.org/1999/xlink" xml:space="preserve" xmlns:serif="http://www.serif.com/" style="fill-rule:evenodd;clip-rule:evenodd;stroke-linejoin:round;stroke-miterlimit:2;">
    <g id="icon">
        <path d="M17,5L15,1L4.2,1C3.54,1 3,1.54 3,2.2L3,21.8C3,22.46 3.54,23 4.2,23L19.8,23C20.46,23 21,22.46 21,21.8L21,7L17,5Z" style="fill:rgb(230,233,238);fill-rule:nonzero;"/>
        <g transform="matrix(0.522915,0,0,0.522915,5.64658,5.27125)">
            <path d="M19.416,6.133L9.764,15.785L4.885,10.906C4.651,10.672 4.269,10.672 4.036,10.906L2.763,12.178C2.53,12.412 2.53,12.794 2.763,13.027L9.339,19.603C9.573,19.836 9.955,19.836 10.188,19.603L11.461,18.33L21.537,8.254C21.77,8.021 21.77,7.639 21.537,7.405L20.264,6.133C20.031,5.899 19.649,5.899 19.416,6.133Z" style="fill:rgb(54,188,155);fill-rule:nonzero;"/>
        </g>
        <g transform="matrix(0.522915,0,0,0.522915,5.64658,10.2712)">
            <path d="M19.416,6.133L9.764,15.785L4.885,10.906C4.651,10.672 4.269,10.672 4.036,10.906L2.763,12.178C2.53,12.412 2.53,12.794 2.763,13.027L9.339,19.603C9.573,19.836 9.955,19.836 10.188,19.603L11.461,18.33L21.537,8.254C21.77,8.021 21.77,7.639 21.537,7.405L20.264,6.133C20.031,5.899 19.649,5.899 19.416,6.133Z" style="fill:rgb(54,188,155);fill-rule:nonzero;"/>
        </g>
        <path d="M21,21.8L21,7L17.663,5.332L7.596,22.769C7.794,22.913 8.037,23 8.3,23L19.8,23C20.46,23 21,22.46 21,21.8Z" style="fill-opacity:0.06;fill-rule:nonzero;"/>
        <path d="M15,1L15,5.8C15,6.46 15.54,7 16.2,7L21,7L15,1Z" style="fill:rgb(170,178,189);fill-rule:nonzero;"/>
    </g>
    <g id="icon1" serif:id="icon">
    </g>
    <g id="icon2" serif:id="icon">
    </g>
</svg>
