<?xml version="1.0" encoding="UTF-8"?>
<!DOCTYPE svg PUBLIC "-//W3C//DTD SVG 1.1//EN" "http://www.w3.org/Graphics/SVG/1.1/DTD/svg11.dtd">
<svg version="1.1" id="Layer_1" xmlns="http://www.w3.org/2000/svg" xmlns:xlink="http://www.w3.org/1999/xlink" x="0px" y="0px" width="24px" height="24px" viewBox="0 0 24 24" enable-background="new 0 0 24 24" xml:space="preserve">
  <g id="main">
    <g id="icon">
      <path d="M2.734,0.09473L2.353,0.3525L2.095,0.734L2,1.2L2,20.8L2.095,21.27L2.353,21.65L2.734,21.91L3.2,22L14.61,22L14.37,21.48L14.17,20.85L14.04,20.19L14,19.5L14.03,18.94L14.11,18.39L14.25,17.87L14.43,17.36L14.66,16.88L14.94,16.43L15.26,16L15.61,15.61L16,15.26L16.43,14.94L16.88,14.66L17.36,14.43L17.87,14.25L18.39,14.11L18.94,14.03L19.5,14L20,14.03L20,6L16,4L14,0L3.2,0zz" fill="#E6E9EE"/>
      <path d="M6.596,21.77L6.924,21.94L7.3,22L14.61,22L14.37,21.48L14.17,20.85L14.04,20.19L14,19.5L14.03,18.94L14.11,18.39L14.25,17.87L14.43,17.36L14.66,16.88L14.94,16.43L15.26,16L15.61,15.61L16,15.26L16.43,14.94L16.88,14.66L17.36,14.43L17.87,14.25L18.39,14.11L18.94,14.03L19.5,14L20,14.03L20,6L16.66,4.331zz" fill="#CCD0D9" opacity="0.5"/>
      <path d="M14,4.8L14.09,5.266L14.35,5.647L14.73,5.905L15.2,6L20,6L14,0zz" fill="#AAB2BD"/>
      <path d="M5.683,5.113L5.51,5.402L5.559,5.735L5.808,5.962L6,6L10.5,6L10.82,5.887L10.99,5.598L10.94,5.265L10.69,5.038L10.5,5L6,5zM5.683,8.113L5.51,8.402L5.559,8.735L5.808,8.962L6,9L16,9L16.32,8.887L16.49,8.598L16.44,8.265L16.19,8.038L16,8L6,8zM5.683,11.11L5.51,11.4L5.559,11.73L5.808,11.96L6,12L16,12L16.32,11.89L16.49,11.6L16.44,11.27L16.19,11.04L16,11L6,11zM5.683,14.11L5.51,14.4L5.559,14.73L5.808,14.96L6,15L16,15L16.32,14.89L16.49,14.6L16.44,14.27L16.19,14.04L16,14L6,14zM5.683,17.11L5.51,17.4L5.559,17.73L5.808,17.96L6,18L14.21,18L14.25,17.87L14.43,17.36L14.61,17L6,17zz" fill="#536880" opacity="0.7"/>
    </g>
    <g id="overlay">
      <circle cx="19.5" cy="19.5" r="4.4899" fill="#ED5564"/>
      <path d="M22.6749,16.3251c-0.0061,-0.0061,-0.0124,-0.0121,-0.0186,-0.0182l-6.3493,6.3493c0.0061,0.0062,0.012,0.0125,0.0182,0.0186c1.7534,1.7534,4.5963,1.7534,6.3497,0S24.4283,18.0786,22.6749,16.3251z" fill="#DB4453"/>
      <path d="M19.8,20h-0.6c-0.1105,0,-0.2,-0.0895,-0.2,-0.2v-2.9c0,-0.1105,0.0895,-0.2,0.2,-0.2h0.6c0.1105,0,0.2,0.0895,0.2,0.2v2.9C20,19.9105,19.9105,20,19.8,20zM20,22.1v-0.9c0,-0.1105,-0.0895,-0.2,-0.2,-0.2h-0.6c-0.1105,0,-0.2,0.0895,-0.2,0.2v0.9c0,0.1105,0.0895,0.2,0.2,0.2h0.6C19.9105,22.3,20,22.2105,20,22.1z" fill="#FFFFFF"/>
    </g>
  </g>
</svg>
