<?xml version="1.0" encoding="UTF-8" standalone="no"?>
<!DOCTYPE svg PUBLIC "-//W3C//DTD SVG 1.1//EN" "http://www.w3.org/Graphics/SVG/1.1/DTD/svg11.dtd">
<svg width="100%" height="100%" viewBox="0 0 24 24" version="1.1" xmlns="http://www.w3.org/2000/svg" xmlns:xlink="http://www.w3.org/1999/xlink" xml:space="preserve" xmlns:serif="http://www.serif.com/" style="fill-rule:evenodd;clip-rule:evenodd;stroke-linejoin:round;stroke-miterlimit:2;">
    <g>
        <g id="curve6" transform="matrix(0.0429688,0,0,0.0429688,1,1.34375)">
            <path d="M96,96C103.5,96 114.5,103 120.5,107L177.5,143C191.5,152 194,165 178,172C166.5,177.5 158,179 148,170L109,136C99.5,128 92.5,132 86.5,142.5C81,153 67,190 64,212L32,288L9,276.5C3.5,273.5 0,268.5 0,262L0,240C16,176 64,96 96,96Z" style="fill:rgb(76,119,176);"/>
        </g>
        <g id="curve5" transform="matrix(0.0429688,0,0,0.0429688,1,1.34375)">
            <path d="M416,96C409,96 397.5,103 391.5,107L334.5,143C320.5,152 318,165 334,172C345.5,177.5 354,179 364,170L403,136C412.5,128 419.5,132 425.5,142.5C431,153 445,190 448,212L480,288L503,276.5C509,273.5 512,268.5 512,262L512,240C496,176 448,96 416,96Z" style="fill:rgb(76,119,176);"/>
        </g>
        <g id="curve4" transform="matrix(0.0429688,0,0,0.0429688,1,1.34375)">
            <path d="M238.5,240L273.5,240C278,240 282,238 285.5,235C296,223.5 311.5,216.5 329.5,212C340.5,209.5 352.5,208 364,208L463,208C489.5,208 512,229 512,256C512,272.5 510.5,289 508.5,305C506.5,320.5 504,338 498.5,352.5C487.5,380.5 460,400 430,400L364,400C339,400 317.5,386 303,367C279.5,337 282,304 256,304C230,304 232.5,337 209,367C194.5,386 173,400 148,400L82,400C52,400 24.5,380.5 13.5,352.5C8,338 5.5,320.5 3.5,305C1.5,289 0,272.5 0,256C0,229 22.5,208 49,208L148,208C159.5,208 171.5,209.5 182.5,212C200.5,216.5 216,223.5 226.5,235C230,238 234,240 238.5,240Z" style="fill:rgb(84,132,195);"/>
        </g>
        <g id="curve3" transform="matrix(0.0429688,0,0,0.0429688,1,1.34375)">
            <path d="M179,228C169,225.5 158.5,224 148,224L49,224C31,224 16,238.5 16,256C16,271.5 17.5,288 19.5,303C21.5,316.5 24,334.5 28.5,347C37,368 58.5,384 82,384L148,384C167.5,384 184.5,372.5 196.5,357C211,338.5 224,295 224,272.5C224,251 213.5,236 179,228Z" style="fill:url(#_Linear1);"/>
        </g>
        <g id="curve2" transform="matrix(0.0429688,0,0,0.0429688,1,1.34375)">
            <path d="M333,228C343,225.5 353.5,224 364,224L463,224C481,224 496,238.5 496,256C496,271.5 494.5,288 492.5,303C490.5,316.5 488,334.5 483.5,347C475,368 453.5,384 430,384L364,384C344.5,384 327.5,372.5 315.5,357C301,338.5 288,295 288,272.5C288,251 298.5,236 333,228Z" style="fill:url(#_Linear2);"/>
        </g>
        <g id="curve1" transform="matrix(0.0429688,0,0,0.0429688,1,1.34375)">
            <path d="M179,228C169,225.5 158.5,224 148,224L49,224C31,224 16,238.5 16,256L16,262C17,245 31.5,232 49,232L148,232C158.5,232 169,233.5 179,236C211,243.5 222.5,257 224,276.5L224,272.5C224,251 213.5,236 179,228Z" style="fill:rgb(84,132,195);fill-opacity:0.5;"/>
        </g>
        <g id="curve0" transform="matrix(0.0429688,0,0,0.0429688,1,1.34375)">
            <path d="M333,228C343,225.5 353.5,224 364,224L463,224C481,224 496,238.5 496,256L496,262C495,245 480.5,232 463,232L364,232C353.5,232 343,233.5 333,236C301,243.5 289.5,257 288,276.5L288,272.5C288,251 298.5,236 333,228Z" style="fill:rgb(84,132,195);fill-opacity:0.5;"/>
        </g>
    </g>
    <defs>
        <linearGradient id="_Linear1" x1="0" y1="0" x2="1" y2="0" gradientUnits="userSpaceOnUse" gradientTransform="matrix(9.79724e-15,160.001,-160.001,9.79724e-15,16,224)"><stop offset="0" style="stop-color:rgb(217,228,242);stop-opacity:1"/><stop offset="1" style="stop-color:rgb(179,201,229);stop-opacity:1"/></linearGradient>
        <linearGradient id="_Linear2" x1="0" y1="0" x2="1" y2="0" gradientUnits="userSpaceOnUse" gradientTransform="matrix(-0.0005,160,-160,-0.0005,496,224)"><stop offset="0" style="stop-color:rgb(217,228,242);stop-opacity:1"/><stop offset="1" style="stop-color:rgb(179,201,229);stop-opacity:1"/></linearGradient>
    </defs>
</svg>
