<?xml version="1.0" encoding="UTF-8" standalone="no"?>
<!DOCTYPE svg PUBLIC "-//W3C//DTD SVG 1.1//EN" "http://www.w3.org/Graphics/SVG/1.1/DTD/svg11.dtd">
<svg width="100%" height="100%" viewBox="0 0 24 24" version="1.1" xmlns="http://www.w3.org/2000/svg" xmlns:xlink="http://www.w3.org/1999/xlink" xml:space="preserve" xmlns:serif="http://www.serif.com/" style="fill-rule:evenodd;clip-rule:evenodd;stroke-linejoin:round;stroke-miterlimit:2;">
    <g id="icon">
        <path d="M22.326,10.279C22.725,10.412 23,10.785 23,11.206L23,12.794C23,13.215 22.725,13.588 22.326,13.721L19.992,14.497L19.417,15.885L20.515,18.081C20.703,18.457 20.629,18.911 20.332,19.209L19.209,20.332C18.911,20.63 18.457,20.704 18.081,20.516L15.885,19.418L14.497,19.995L13.721,22.326C13.588,22.725 13.215,23 12.794,23L11.206,23C10.785,23 10.412,22.725 10.279,22.326L9.503,19.992L8.115,19.417L5.919,20.515C5.543,20.703 5.089,20.629 4.791,20.332L3.668,19.209C3.37,18.911 3.296,18.457 3.484,18.081L4.582,15.885L4.005,14.497L1.674,13.721C1.275,13.588 1,13.215 1,12.794L1,11.206C1,10.785 1.275,10.412 1.674,10.279L4.008,9.503L4.583,8.115L3.485,5.919C3.297,5.543 3.371,5.089 3.668,4.791L4.791,3.668C5.089,3.37 5.543,3.296 5.919,3.484L8.115,4.582L9.503,4.005L10.279,1.674C10.412,1.275 10.785,1 11.206,1L12.794,1C13.215,1 13.588,1.275 13.721,1.674L14.498,4.008L15.885,4.583L18.081,3.485C18.457,3.297 18.912,3.371 19.209,3.668L20.332,4.791C20.63,5.089 20.704,5.543 20.516,5.919L19.419,8.115L19.995,9.503L22.326,10.279ZM12,5.6C8.465,5.6 5.6,8.465 5.6,12C5.6,15.535 8.465,18.4 12,18.4C15.535,18.4 18.4,15.535 18.4,12C18.4,8.465 15.535,5.6 12,5.6Z" style="fill:rgb(170,178,189);fill-rule:nonzero;"/>
        <path d="M16.525,7.474L19.77,4.23L20.332,4.791C20.63,5.089 20.704,5.543 20.516,5.919L19.419,8.115L19.995,9.503L22.326,10.279C22.725,10.412 23,10.785 23,11.206L23,12.794C23,13.215 22.725,13.588 22.326,13.721L19.992,14.497L19.417,15.885L20.515,18.081C20.703,18.457 20.629,18.911 20.332,19.209L19.209,20.332C18.911,20.629 18.457,20.704 18.081,20.515L15.885,19.418L14.497,19.995L13.721,22.326C13.588,22.725 13.215,23 12.794,23L11.206,23C10.785,23 10.412,22.725 10.279,22.326L9.503,19.992L8.115,19.417L5.919,20.515C5.543,20.703 5.088,20.629 4.791,20.332L4.23,19.77L7.475,16.525C8.633,17.684 10.233,18.4 12,18.4C15.535,18.4 18.4,15.535 18.4,12C18.4,10.233 17.684,8.633 16.525,7.474Z" style="fill:rgb(35,31,32);fill-opacity:0.1;fill-rule:nonzero;"/>
        <g transform="matrix(0.608894,-0.608893,0.607306,0.607305,-2.60297,11.5573)">
            <path d="M16,8.402L16,15.76C16,15.901 15.915,16.028 15.785,16.082C15.655,16.136 15.505,16.107 15.406,16.007C14.589,15.19 13.22,13.821 13.22,13.821L9.154,17.897C8.999,18.052 8.751,18.052 8.596,17.897L6.129,15.422C5.973,15.266 5.975,15.011 6.13,14.855L10.199,10.792C10.199,10.792 8.833,9.416 8.019,8.596C7.92,8.496 7.891,8.346 7.945,8.215C7.999,8.085 8.125,8 8.266,8C10.356,8 15.628,8 15.628,8C15.848,8 16,8.182 16,8.402Z" style="fill:rgb(54,188,155);fill-rule:nonzero;"/>
        </g>
    </g>
</svg>
