<?xml version="1.0" encoding="UTF-8" standalone="no"?>
<!DOCTYPE svg PUBLIC "-//W3C//DTD SVG 1.1//EN" "http://www.w3.org/Graphics/SVG/1.1/DTD/svg11.dtd">
<svg width="100%" height="100%" viewBox="0 0 24 24" version="1.1" xmlns="http://www.w3.org/2000/svg" xmlns:xlink="http://www.w3.org/1999/xlink" xml:space="preserve" xmlns:serif="http://www.serif.com/" style="fill-rule:evenodd;clip-rule:evenodd;stroke-linejoin:round;stroke-miterlimit:2;">
    <g transform="matrix(1,0,0,1,-271.886,-76.5503)">
        <g id="CorelEMF" serif:id="CorelEMF">
            <g transform="matrix(0.909924,0,0,0.909924,25.5712,6.9762)">
                <g transform="matrix(1,0,0,1,271.886,76.5503)">
                    <circle cx="12" cy="12" r="10.99" style="fill:rgb(237,85,100);"/>
                </g>
                <g transform="matrix(1,0,0,1,271.886,76.5503)">
                    <path d="M19.771,4.229C19.756,4.214 19.741,4.199 19.726,4.185L4.185,19.726C4.199,19.741 4.214,19.756 4.229,19.771C8.521,24.063 15.479,24.063 19.771,19.771C24.063,15.479 24.063,8.521 19.771,4.229Z" style="fill:rgb(219,68,83);fill-rule:nonzero;"/>
                </g>
                <g transform="matrix(1,0,0,1,271.886,76.5503)">
                    <path d="M12.6,14.6L11.4,14.6C11.18,14.6 11,14.42 11,14.2L11,6.4C11,6.18 11.18,6 11.4,6L12.6,6C12.82,6 13,6.18 13,6.4L13,14.2C13,14.42 12.82,14.6 12.6,14.6ZM13,17.6L13,16.4C13,16.18 12.82,16 12.6,16L11.4,16C11.18,16 11,16.18 11,16.4L11,17.6C11,17.82 11.18,18 11.4,18L12.6,18C12.82,18 13,17.82 13,17.6Z" style="fill:white;fill-rule:nonzero;"/>
                </g>
            </g>
            <g transform="matrix(0.00110256,0,0,0.00110256,272.844,92.7038)">
                <path d="M6618.71,820.908C8410.89,843.07 10049.6,931.123 12949.5,277.481C15136.5,-215.467 17338,1052 19810,3099C19996,3254 20046,3513 19928,3726C19574,4367 18767,5440 18138,6063C17984,6216 17759,6253 17564,6156C15576,5172 14211,5943 12120,6124C9715.12,6332.17 8034,6065 5892,5084C4421.97,4410.75 1082,1839 791,1669C-409.374,967.751 246.056,-301.292 2244,655C3648.78,1327.38 4788.56,2489.63 5908.43,2883.01C8415.58,3763.71 10205,3709.92 12110,3527C12749.3,3465.61 12843.6,2536.5 12008.5,2600.43C10273.7,2733.24 8887.48,2870.84 6198.03,2298.57C5085,2061.74 5165.08,802.932 6618.71,820.908Z" style="fill:rgb(206,171,147);"/>
            </g>
        </g>
    </g>
</svg>
