<?xml version="1.0" encoding="UTF-8" standalone="no"?>
<!DOCTYPE svg PUBLIC "-//W3C//DTD SVG 1.1//EN" "http://www.w3.org/Graphics/SVG/1.1/DTD/svg11.dtd">
<svg width="100%" height="100%" viewBox="0 0 24 24" version="1.1" xmlns="http://www.w3.org/2000/svg" xmlns:xlink="http://www.w3.org/1999/xlink" xml:space="preserve" xmlns:serif="http://www.serif.com/" style="fill-rule:evenodd;clip-rule:evenodd;stroke-linejoin:round;stroke-miterlimit:2;">
    <g id="icon">
        <ellipse cx="12.45" cy="12.5" rx="10.35" ry="10.4" style="fill:rgb(185,155,122);fill-opacity:0.25;"/>
        <g transform="matrix(0.965517,0,0,1.04716,1.12931,-0.413121)">
            <path d="M12.45,6.315C12.45,5.946 12.125,5.647 11.725,5.647C11.325,5.647 11,5.946 11,6.315L11,12.332C11,12.7 11.325,13 11.725,13C12.125,13 12.45,12.7 12.45,12.332L12.45,6.315Z" style="fill:rgb(83,104,128);"/>
        </g>
        <g transform="matrix(0.682724,-0.682724,0.740456,0.740456,-0.231256,15.8301)">
            <path d="M12.45,6.315C12.45,5.946 12.125,5.647 11.725,5.647C11.325,5.647 11,5.946 11,6.315L11,12.332C11,12.7 11.325,13 11.725,13C12.125,13 12.45,12.7 12.45,12.332L12.45,6.315Z" style="fill:rgb(83,104,128);"/>
        </g>
        <path d="M5.089,19.921C7.075,21.906 9.711,23 12.513,23L12.514,23C15.371,23 18.045,21.869 20.044,19.814C23.969,15.778 23.969,9.212 20.044,5.176C18.047,3.123 15.373,1.993 12.514,1.993C9.712,1.993 7.078,3.083 5.095,5.061L4,6.107L4,2.702C4,2.59 3.903,2.5 3.789,2.5L2.222,2.5C2.102,2.5 2,2.593 2,2.702L2,9.792C2,9.884 2.148,10 2.294,10L9.246,10C9.359,10 9.5,9.857 9.5,9.74L9.5,8.273C9.5,8.14 9.4,8.014 9.303,8.014L5.3,8L6.894,6.514C8.421,5.078 10.419,4.287 12.515,4.287C14.779,4.287 16.889,5.191 18.454,6.831C19.908,8.355 20.709,10.365 20.709,12.492C20.709,14.618 19.908,16.629 18.454,18.153C16.889,19.794 14.779,20.698 12.514,20.698C10.322,20.698 8.261,19.844 6.711,18.294C5.425,17.008 4.619,15.378 4.38,13.579C4.364,13.46 4.265,13.37 4.148,13.37C4.14,13.37 4.131,13.37 4.122,13.372L2.307,13.581C2.245,13.588 2.188,13.62 2.149,13.67C2.11,13.72 2.093,13.78 2.101,13.843C2.401,16.164 3.434,18.266 5.089,19.921Z" style="fill:rgb(185,155,122);fill-rule:nonzero;"/>
        <path d="M12.513,23L12.514,23C15.371,23 18.045,21.869 20.044,19.814C23.969,15.778 23.969,9.212 20.044,5.176C19.89,5.018 19.728,4.861 19.56,4.709L17.936,6.333C18.12,6.495 6.472,18.047 6.355,17.914L4.729,19.54C4.854,19.679 4.973,19.804 5.089,19.921C7.075,21.906 9.711,23 12.513,23Z" style="fill:rgb(35,31,32);fill-opacity:0.1;fill-rule:nonzero;"/>
    </g>
</svg>
