<?xml version="1.0" encoding="UTF-8" standalone="no"?>
<!DOCTYPE svg PUBLIC "-//W3C//DTD SVG 1.1//EN" "http://www.w3.org/Graphics/SVG/1.1/DTD/svg11.dtd">
<svg width="100%" height="100%" viewBox="0 0 24 24" version="1.1" xmlns="http://www.w3.org/2000/svg" xmlns:xlink="http://www.w3.org/1999/xlink" xml:space="preserve" xmlns:serif="http://www.serif.com/" style="fill-rule:evenodd;clip-rule:evenodd;stroke-linejoin:round;stroke-miterlimit:2;">
    <g transform="matrix(1.47196,0,0,1.47196,-1.94393,-2.29559)">
        <circle cx="6.756" cy="6.994" r="4.756" style="fill:rgb(225,38,38);"/>
    </g>
    <g transform="matrix(1.23165,0,0,1.23165,-2.23108,-2.73894)">
        <g id="path3770" transform="matrix(0.0692679,0,0,0.0692679,-17.6901,-21.2274)">
            <path d="M376.037,370.807C372.264,396.646 369.6,428.795 361.608,443.194L376.272,465.19L390.43,442.562C380.451,416.411 379.501,394.286 376.037,370.807Z" style="fill-rule:nonzero;"/>
        </g>
        <g id="path3772" transform="matrix(0.0692679,0,0,0.0692679,-17.6901,-21.2274)">
            <path d="M333.102,482.129C332.034,467.915 339.77,458.37 347.913,453.752C352.01,451.428 357.278,448.279 358.321,447.682L372.227,468.666C355.09,465.917 344.288,473.41 333.102,482.129Z" style="fill-rule:nonzero;"/>
        </g>
        <g id="path3774" transform="matrix(0.0692679,0,0,0.0692679,-17.6901,-21.2274)">
            <path d="M393.78,447.555C393.78,447.555 384.617,461.929 379.432,470.057C392.68,478.016 415.739,470.875 426.774,464.115C408.856,460.602 399.669,454.203 393.78,447.555Z" style="fill-rule:nonzero;"/>
        </g>
    </g>
    <g id="icon">
    </g>
    <g transform="matrix(1.0606,0,0,1.0606,3.00774,5.65917)">
        <g transform="matrix(1.20001,0,0,1.20001,-3.12773,-5.25012)">
            <circle cx="12.815" cy="12.5" r="5.5" style="fill:white;"/>
        </g>
        <g id="rect5260" transform="matrix(1.25715,0,0,1.25715,-5.66441,-12.5645)">
            <clipPath id="_clip1">
                <circle cx="14.25" cy="17.75" r="5.25"/>
            </clipPath>
            <g clip-path="url(#_clip1)">
                <path d="M7.54,12.5L12.5,12.5L12.5,15.476L7.54,12.5ZM16,12.5L20.96,12.5L16,15.476L16,12.5ZM23,13.725L23,16L19.208,16L22.442,14.06L23,13.725ZM23,19.5L23,21.775L19.208,19.5L23,19.5ZM20.96,23L16,23L16,20.024L20.96,23ZM12.5,23L7.54,23L12.5,20.024L12.5,23ZM5.5,21.775L5.5,19.5L9.292,19.5L5.5,21.775ZM5.5,16L5.5,13.725L9.292,16L5.5,16Z" style="fill:rgb(0,116,255);fill-rule:nonzero;"/>
            </g>
        </g>
        <g id="rect10396-3" transform="matrix(1.54625,0,0,1.54625,-6.3051,-8.80511)">
            <clipPath id="_clip2">
                <circle cx="12" cy="12" r="4.268"/>
            </clipPath>
            <g clip-path="url(#_clip2)">
                <path d="M11.146,12.854L4.886,12.854L4.886,11.146L11.146,11.146L11.146,7.732L12.854,7.732L12.854,11.146L19.114,11.146L19.114,12.854L12.854,12.854L12.854,16.268L11.146,16.268L11.146,12.854ZM19.114,16.268L14.37,13.423L15.477,13.423L19.114,15.605L19.114,16.268ZM4.886,7.732L9.629,10.577L8.523,10.577L4.886,8.395L4.886,7.732ZM13.423,10.577L13.423,10.483L18.009,7.732L19.114,7.732L14.372,10.577L13.423,10.577ZM10.577,13.423L10.577,13.517L5.991,16.268L4.887,16.268L9.629,13.423L10.577,13.423Z" style="fill:rgb(216,74,74);"/>
            </g>
        </g>
    </g>
</svg>
