<?xml version="1.0" encoding="UTF-8" standalone="no"?>
<!DOCTYPE svg PUBLIC "-//W3C//DTD SVG 1.1//EN" "http://www.w3.org/Graphics/SVG/1.1/DTD/svg11.dtd">
<svg width="100%" height="100%" viewBox="0 0 24 24" version="1.1" xmlns="http://www.w3.org/2000/svg" xmlns:xlink="http://www.w3.org/1999/xlink" xml:space="preserve" xmlns:serif="http://www.serif.com/" style="fill-rule:evenodd;clip-rule:evenodd;stroke-linejoin:round;stroke-miterlimit:2;">
    <g id="icon">
        <path d="M19.071,19.071C15.178,22.965 8.823,22.965 4.929,19.071C1.036,15.178 1.035,8.823 4.929,4.929C8.823,1.035 15.178,1.035 19.071,4.929C22.965,8.823 22.965,15.177 19.071,19.071Z" style="fill:rgb(61,115,173);fill-opacity:0.25;"/>
        <path d="M12,1C5.935,1 1,5.935 1,12C1,18.066 5.935,23 12,23C18.066,23 23,18.066 23,12C23,5.935 18.066,1 12,1ZM16.85,9.897L16.841,9.8L20.941,9.8L20.958,9.869C21.095,10.431 21.187,11.333 21.187,12.106C21.187,12.761 21.121,13.356 20.959,14.128L20.944,14.2L16.847,14.2L16.855,14.1C16.917,13.335 16.944,12.71 16.944,12.096C16.944,11.367 16.905,10.458 16.85,9.897ZM15.741,20.498L15.528,20.592L15.601,20.367C16.015,19.106 16.373,17.522 16.608,16.057L16.622,16L20.301,16L20.227,16.118C19.249,18.011 17.614,19.659 15.741,20.498ZM16.568,8C16.33,6.6 15.985,5.147 15.516,3.774L15.442,3.569L15.654,3.65C17.625,4.508 19.235,6.1 20.195,8L16.568,8ZM15.131,12.106C15.131,12.732 15.104,13.322 15.037,14.116L15.03,14.2L8.975,14.2L8.968,14.117C8.899,13.334 8.869,12.727 8.869,12.101C8.869,11.367 8.913,10.446 8.976,9.881L8.985,9.8L15.02,9.8L15.028,9.883C15.089,10.45 15.131,11.37 15.131,12.106ZM7.387,16L7.4,16.053C7.65,17.523 8.033,19.167 8.452,20.404L8.525,20.614L8.313,20.517C6.424,19.686 4.769,18.03 3.772,16.118L3.698,16L7.387,16ZM8.389,3.628L8.605,3.546L8.527,3.757C8.051,5.122 7.687,6.6 7.445,8L3.803,8C4.736,6.1 6.32,4.515 8.389,3.628ZM9.29,8C9.75,5.6 10.458,3.635 10.771,2.969L10.794,2.93L10.852,2.929C11.622,2.832 12.424,2.837 13.198,2.938L13.254,2.947L13.278,2.981C13.586,3.645 14.278,5.6 14.726,8L9.29,8ZM7.147,14.106L7.154,14.2L3.056,14.2L3.042,14.13C2.882,13.364 2.813,12.752 2.813,12.095C2.813,11.331 2.905,10.428 3.041,9.87L3.058,9.8L7.164,9.8L7.153,9.904C7.096,10.464 7.056,11.38 7.056,12.116C7.056,12.731 7.082,13.315 7.147,14.106ZM14.789,16L14.77,16.088C14.334,18.599 13.657,20.5 13.362,21.106L13.339,21.147L13.283,21.152C12.462,21.267 11.612,21.27 10.768,21.156L10.714,21.148L10.689,21.099C10.385,20.488 9.692,18.589 9.244,16.088L9.224,16L14.789,16Z" style="fill:rgb(61,115,173);fill-rule:nonzero;"/>
        <path d="M19.796,4.254L4.254,19.796C8.535,24.077 15.521,24.079 19.8,19.8C24.079,15.521 24.077,8.535 19.796,4.254Z" style="fill:rgb(35,31,32);fill-opacity:0.06;"/>
    </g>
</svg>
