<svg width="64" height="64" xmlns="http://www.w3.org/2000/svg">
  <!-- Define the linear gradient -->
  <defs>
    <linearGradient id="grad1" x1="0%" y1="100%" x2="100%" y2="0%">
      <stop offset="0%" stop-color="#6C78EF" />
      <stop offset="100%" stop-color="#4F14BE" />
    </linearGradient>
  </defs>

  <!-- Draw the background rectangle with rounded corners -->
  <rect width="64" height="64" rx="6" ry="6" fill="url(#grad1)" />

  <!-- Group to position and scale the SVG icon -->
  <g transform="translate(8,8) scale(2)">
    <title>LM Studio</title>
    <!-- First path with 30% opacity -->
    <path d="M2.84 2a1.273 1.273 0 100 2.547h14.107a1.273 1.273 0 100-2.547H2.84zM7.935 5.33a1.273 1.273 0 000 2.548H22.04a1.274 1.274 0 000-2.547H7.935zM3.624 9.935c0-.704.57-1.274 1.274-1.274h14.106a1.274 1.274 0 010 2.547H4.898c-.703 0-1.274-.57-1.274-1.273zM1.273 12.188a1.273 1.273 0 100 2.547H15.38a1.274 1.274 0 000-2.547H1.273zM3.624 16.792c0-.704.57-1.274 1.274-1.274h14.106a1.273 1.273 0 110 2.547H4.898c-.703 0-1.274-.57-1.274-1.273zM13.029 18.849a1.273 1.273 0 100 2.547h9.698a1.273 1.273 0 100-2.547h-9.698z" fill="#FFFFFF" fill-opacity=".3" />
    <!-- Second path with full opacity -->
    <path d="M2.84 2a1.273 1.273 0 100 2.547h10.287a1.274 1.274 0 000-2.547H2.84zM7.935 5.33a1.273 1.273 0 000 2.548H18.22a1.274 1.274 0 000-2.547H7.935zM3.624 9.935c0-.704.57-1.274 1.274-1.274h10.286a1.273 1.273 0 010 2.547H4.898c-.703 0-1.274-.57-1.274-1.273zM1.273 12.188a1.273 1.273 0 100 2.547H11.56a1.274 1.274 0 000-2.547H1.273zM3.624 16.792c0-.704.57-1.274 1.274-1.274h10.286a1.273 1.273 0 110 2.547H4.898c-.703 0-1.274-.57-1.274-1.273zM13.029 18.849a1.273 1.273 0 100 2.547h5.78a1.273 1.273 0 100-2.547h-5.78z" fill="#FFFFFF" />
  </g>
</svg>