<?xml version="1.0" encoding="UTF-8"?>
<!DOCTYPE svg PUBLIC "-//W3C//DTD SVG 1.1//EN" "http://www.w3.org/Graphics/SVG/1.1/DTD/svg11.dtd">
<svg version="1.1" id="Layer_1" xmlns="http://www.w3.org/2000/svg" xmlns:xlink="http://www.w3.org/1999/xlink" x="0px" y="0px" width="24px" height="24px" viewBox="0 0 24 24" enable-background="new 0 0 24 24" xml:space="preserve">
  <g id="icon">
    <path d="M19.8,23H4.2c-0.66,0,-1.2,-0.54,-1.2,-1.2V2.2c0,-0.66,0.54,-1.2,1.2,-1.2h15.6c0.66,0,1.2,0.54,1.2,1.2v19.6C21,22.46,20.46,23,19.8,23z" fill="#536880"/>
    <path d="M17,11H7V2h10V11zM17,13H7v9h10V13z" fill="#4FC0E8"/>
    <path d="M9.9948,23H19.8c0.66,0,1.2,-0.54,1.2,-1.2V2.2c0,-0.66,-0.54,-1.2,-1.2,-1.2h-3.0171L9.9948,23z" fill="#231F20" opacity="0.1"/>
    <path d="M6,5H4V3h2V5zM6,7H4v2h2V7zM6,11H4v2h2V11zM6,15H4v2h2V15zM6,19H4v2h2V19zM20,3h-2v2h2V3zM20,7h-2v2h2V7zM20,11h-2v2h2V11zM20,15h-2v2h2V15zM20,19h-2v2h2V19z" fill="#CCD0D9"/>
  </g>
</svg>
