<?xml version="1.0" encoding="UTF-8"?>
<!DOCTYPE svg PUBLIC "-//W3C//DTD SVG 1.1//EN" "http://www.w3.org/Graphics/SVG/1.1/DTD/svg11.dtd">
<svg version="1.1" id="Layer_1" xmlns="http://www.w3.org/2000/svg" xmlns:xlink="http://www.w3.org/1999/xlink" x="0px" y="0px" width="24px" height="24px" viewBox="0 0 24 24" enable-background="new 0 0 24 24" xml:space="preserve">
  <g id="main">
    <g id="icon">
      <path d="M0.734,4.095L0.3525,4.353L0.09473,4.734L0,5.2L0,20.8L0.09473,21.27L0.3525,21.65L0.734,21.91L1.2,22L12.62,22L12.61,21.99L12.43,21.69L12.35,21.36L12.37,21.02L12.48,20.71L12.69,20.43L18,15.14L18,5.2L17.91,4.734L17.65,4.353L17.27,4.095L16.8,4L1.2,4zz" fill="#E6E9EE"/>
      <path d="M11.84,14.38L11.69,14.42L5.523,16.72L5.426,16.79L5.427,16.9L5.579,16.95L11.79,16.86L12.15,16.82L17.44,15.7L18,15.14L18,13.08zz" fill="#231F20" opacity="0.15"/>
      <path d="M19.24,0.03965L19.09,0.1412L18.05,1.177L20.78,3.902L21.81,2.866L21.91,2.713L21.95,2.539L21.91,2.365L21.81,2.212L19.74,0.1412L19.59,0.03965L19.41,0.005859zz" fill="#DB4453"/>
      <path d="M17.14,2.085L17.78,2.721L18.69,1.813L18.05,1.177zz" fill="#CCD0D9"/>
      <path d="M17.78,2.721L19.14,4.084L20.05,3.175L18.69,1.813zz" fill="#E6E9EE"/>
      <path d="M19.14,4.084L19.87,4.811L20.78,3.902L20.05,3.175zz" fill="#CCD0D9"/>
      <path d="M5.334,16.44L5.516,16.62L9.967,14.71L7.242,11.99zz" fill="#FFDDB0"/>
      <path d="M5.334,16.44L5.516,16.62L6.661,16.13L5.825,15.29zz" fill="#656D78"/>
      <path d="M7.342,11.89L7.25,12.03L7.244,12.18L7.304,12.33L7.413,12.45L7.706,12.6L7.854,12.59L7.978,12.52L17.78,2.721L17.14,2.085zz" fill="#FFCE55"/>
      <path d="M9.352,13.9L9.274,14.04L9.282,14.19L9.357,14.34L9.48,14.48L9.793,14.66L9.945,14.67L10.07,14.61L19.87,4.81L19.14,4.084zz" fill="#F6BB43"/>
      <path d="M7.978,12.52L7.925,12.69L7.993,12.93L8.154,13.21L8.379,13.48L8.638,13.73L8.904,13.9L9.148,13.96L9.341,13.88L19.14,4.084L17.78,2.721zz" fill="#FFD576"/>
    </g>
    <g id="overlay">
      <path d="M21.6911,13.5417l2.1232,2.103c0.1904,0.1886,0.1908,0.4943,0.001,0.6834l-7.6337,7.6391c-0.1063,0.106,-0.2889,0.0313,-0.2889,-0.1181l0.0798,-2.2748c0,-0.072,-0.0589,-0.1304,-0.1316,-0.1304h-2.3725c-0.1495,0,-0.2246,-0.1789,-0.1192,-0.284l7.6501,-7.6174C21.19,13.3528,21.5,13.3524,21.6911,13.5417z" fill-rule="evenodd" fill="#ED5564"/>
      <path d="M23.8143,15.6447l-1.0344,-1.0246l-6.8556,6.8556c0.0288,0.0239,0.0482,0.0585,0.0482,0.0987l-0.0798,2.2748c0,0.1494,0.1825,0.224,0.2889,0.1181l7.6337,-7.6391C24.0051,16.139,24.0047,15.8333,23.8143,15.6447z" fill-rule="evenodd" fill="#DB4453" opacity="0.7"/>
    </g>
  </g>
</svg>
