<?xml version="1.0" encoding="UTF-8"?>
<!DOCTYPE svg PUBLIC "-//W3C//DTD SVG 1.1//EN" "http://www.w3.org/Graphics/SVG/1.1/DTD/svg11.dtd">
<svg version="1.1" id="Layer_1" xmlns="http://www.w3.org/2000/svg" xmlns:xlink="http://www.w3.org/1999/xlink" x="0px" y="0px" width="24px" height="24px" viewBox="0 0 24 24" enable-background="new 0 0 24 24" xml:space="preserve">
  <g id="main">
    <g id="icon">
      <path d="M0.734,4.095L0.3525,4.353L0.09473,4.734L0,5.2L0,20.8L0.09473,21.27L0.3525,21.65L0.734,21.91L1.2,22L11,22L11,15.78L11.03,15.48L11.1,15.21L11.37,14.72L11.79,14.36L12.31,14.15L12.52,13.9L12.77,13.72L13.07,13.6L13.4,13.56L14.96,13.56L15.44,13.65L15.7,13.38L16,13.17L16.34,13.04L16.72,13L18,13L18,5.2L17.91,4.734L17.65,4.353L17.27,4.095L16.8,4L1.2,4zz" fill="#E6E9EE"/>
      <path d="M15.38,13.64L15.44,13.65L15.47,13.62zM11.69,14.42L5.523,16.72L5.426,16.79L5.427,16.9L5.579,16.95L11,16.87L11,15.78L11.03,15.48L11.1,15.21L11.37,14.72L11.73,14.41zz" fill="#231F20" opacity="0.15"/>
      <path d="M19.24,0.03965L19.09,0.1412L18.05,1.177L20.78,3.902L21.81,2.866L21.91,2.713L21.95,2.539L21.91,2.365L21.81,2.212L19.74,0.1412L19.59,0.03965L19.41,0.005859zz" fill="#DB4453"/>
      <path d="M17.14,2.085L17.78,2.721L18.69,1.813L18.05,1.177zz" fill="#CCD0D9"/>
      <path d="M17.78,2.721L19.14,4.084L20.05,3.175L18.69,1.813zz" fill="#E6E9EE"/>
      <path d="M19.14,4.084L19.87,4.811L20.78,3.902L20.05,3.175zz" fill="#CCD0D9"/>
      <path d="M5.334,16.44L5.516,16.62L9.967,14.71L7.242,11.99zz" fill="#FFDDB0"/>
      <path d="M5.334,16.44L5.516,16.62L6.661,16.13L5.825,15.29zz" fill="#656D78"/>
      <path d="M7.342,11.89L7.25,12.03L7.244,12.18L7.304,12.33L7.413,12.45L7.706,12.6L7.854,12.59L7.978,12.52L17.78,2.721L17.14,2.085zz" fill="#FFCE55"/>
      <path d="M9.352,13.9L9.274,14.04L9.282,14.19L9.357,14.34L9.48,14.48L9.793,14.66L9.945,14.67L10.07,14.61L19.87,4.81L19.14,4.084zz" fill="#F6BB43"/>
      <path d="M7.978,12.52L7.925,12.69L7.993,12.93L8.154,13.21L8.379,13.48L8.638,13.73L8.904,13.9L9.148,13.96L9.341,13.88L19.14,4.084L17.78,2.721zz" fill="#FFD576"/>
    </g>
    <g id="overlay">
      <path d="M23.3455,24H12.6545c-0.36,0,-0.6545,-0.3,-0.6545,-0.6667v-7.5556c0,-0.3667,0.2945,-0.6667,0.6545,-0.6667h3.15l0.3976,-0.7903c0.0991,-0.197,0.2981,-0.3209,0.5154,-0.3209h2.5648c0.2173,0,0.4163,0.1239,0.5154,0.3208l0.3976,0.7903h3.15c0.36,0,0.6545,0.3,0.6545,0.6667v7.5556C24,23.7,23.7055,24,23.3455,24z" fill="#CCD0D9"/>
      <rect x="12" y="17.3333" width="12" height="4.4444" fill="#656D78"/>
      <path d="M24,17.3333H12v-0.5556h12V17.3333zM24,21.7778H12v0.5556h12V21.7778z" fill="#8E949C"/>
      <path d="M18.0815,24h5.2639c0.36,0,0.6545,-0.3,0.6545,-0.6667v-7.5556c0,-0.3667,-0.2945,-0.6667,-0.6545,-0.6667h-1.6213L18.0815,24z" fill="#231F20" opacity="0.1"/>
      <path d="M14.9975,23.4444h-1.6313c-0.1514,0,-0.2752,-0.1239,-0.2752,-0.2752v-0.0051c0,-0.1514,0.1239,-0.2752,0.2752,-0.2752h1.6313c0.1514,0,0.2752,0.1239,0.2752,0.2752v0.0051C15.2727,23.3206,15.1489,23.4444,14.9975,23.4444z" fill="#AAB2BD"/>
      <path d="M19.0884,15.1111h-2.1768c-0.1514,0,-0.2752,-0.1239,-0.2752,-0.2752v-0.0051c0,-0.1514,0.1239,-0.2752,0.2752,-0.2752h2.1768c0.1514,0,0.2752,0.1239,0.2752,0.2752v0.0051C19.3636,14.9873,19.2398,15.1111,19.0884,15.1111z" fill="#8E949C"/>
      <circle cx="18.0111" cy="19.5556" r="3.7778" fill="#F6F7FB"/>
      <circle cx="18.0111" cy="19.5556" r="2.9593" fill="#5D9CEC"/>
      <circle cx="18.0111" cy="19.5556" r="1.5741" fill="#3D73AD"/>
      <circle cx="17.3815" cy="18.9259" r="0.4407" fill="#F6F7FB"/>
      <path d="M22.6339,16.2222h-0.5404c-0.152,0,-0.2752,-0.1232,-0.2752,-0.2752v-0.0051c0,-0.152,0.1232,-0.2752,0.2752,-0.2752h0.5404c0.152,0,0.2752,0.1232,0.2752,0.2752v0.0051C22.9091,16.099,22.7859,16.2222,22.6339,16.2222z" fill="#ED5564"/>
      <path d="M15.2727,15.1111v-0.2361c0,-0.1757,-0.1411,-0.3194,-0.3136,-0.3194h-1.5545c-0.1725,0,-0.3136,0.1437,-0.3136,0.3194v0.2361H15.2727z" fill="#656D78"/>
    </g>
  </g>
</svg>
