<?xml version="1.0" encoding="UTF-8"?>
<!DOCTYPE svg PUBLIC "-//W3C//DTD SVG 1.1//EN" "http://www.w3.org/Graphics/SVG/1.1/DTD/svg11.dtd">
<svg version="1.1" id="Layer_1" xmlns="http://www.w3.org/2000/svg" xmlns:xlink="http://www.w3.org/1999/xlink" x="0px" y="0px" width="24px" height="24px" viewBox="0 0 24 24" enable-background="new 0 0 24 24" xml:space="preserve">
  <g id="main">
    <g id="icon">
      <path d="M0.734,4.095L0.3525,4.353L0.09473,4.734L0,5.2L0,20.8L0.09473,21.27L0.3525,21.65L0.734,21.91L1.2,22L8.9,22L8.9,16L8.932,15.71L9.024,15.45L9.17,15.21L9.365,15L9.604,14.83L9.88,14.71L10.19,14.63L10.52,14.6L18,14.6L18,5.2L17.91,4.734L17.65,4.353L17.27,4.095L16.8,4L1.2,4zz" fill="#E6E9EE"/>
      <path d="M11.84,14.38L11.69,14.42L11.21,14.6L18,14.6L18,13.08zM5.523,16.72L5.426,16.79L5.427,16.9L5.579,16.95L8.9,16.9L8.9,16L8.932,15.71L9.024,15.45L9.046,15.41zz" fill="#231F20" opacity="0.15"/>
      <path d="M19.24,0.03965L19.09,0.1412L18.05,1.177L20.78,3.902L21.81,2.866L21.91,2.713L21.95,2.539L21.91,2.365L21.81,2.212L19.74,0.1412L19.59,0.03965L19.41,0.005859zz" fill="#DB4453"/>
      <path d="M17.14,2.085L17.78,2.721L18.69,1.813L18.05,1.177zz" fill="#CCD0D9"/>
      <path d="M17.78,2.721L19.14,4.084L20.05,3.175L18.69,1.813zz" fill="#E6E9EE"/>
      <path d="M19.14,4.084L19.87,4.811L20.78,3.902L20.05,3.175zz" fill="#CCD0D9"/>
      <path d="M5.334,16.44L5.516,16.62L9.478,14.92L9.604,14.83L9.88,14.71L9.945,14.69L7.242,11.99zz" fill="#FFDDB0"/>
      <path d="M5.334,16.44L5.516,16.62L6.661,16.13L5.825,15.29zz" fill="#656D78"/>
      <path d="M7.342,11.89L7.25,12.03L7.244,12.18L7.304,12.33L7.413,12.45L7.706,12.6L7.854,12.59L7.978,12.52L17.78,2.721L17.14,2.085zz" fill="#FFCE55"/>
      <path d="M9.352,13.9L9.274,14.04L9.282,14.19L9.357,14.34L9.48,14.48L9.793,14.66L9.945,14.67L10.07,14.61L19.87,4.81L19.14,4.084zz" fill="#F6BB43"/>
      <path d="M7.978,12.52L7.925,12.69L7.993,12.93L8.154,13.21L8.379,13.48L8.638,13.73L8.904,13.9L9.148,13.96L9.341,13.88L19.14,4.084L17.78,2.721zz" fill="#FFD576"/>
    </g>
    <g id="overlay">
      <path d="M23.475,24h-12.95c-0.2899,0,-0.525,-0.2154,-0.525,-0.4923v-7.5062c0,-0.2769,0.2351,-0.5014,0.525,-0.5014h12.95c0.2899,0,0.525,0.2245,0.525,0.5014v7.5062C24,23.7846,23.7649,24,23.475,24z" fill="#36BC9B"/>
      <path d="M23.3,21.4779v-3.5687c-0.9,-0.1333,-1.6829,-0.9092,-1.8225,-1.7092h-8.9321c0,0.9,-0.8455,1.7312,-1.8455,1.7312v3.5687c0.9,0.1333,1.6829,0.9001,1.8225,1.8001h8.9321C21.4545,22.3,22.3,21.4779,23.3,21.4779z" fill="#FFFFFF"/>
      <path d="M23.3,21.4779v-3.5687c-0.9,-0.1333,-1.6829,-0.9092,-1.8225,-1.7092h-8.9321c0,0.9,-0.8455,1.7312,-1.8455,1.7312v3.5687c0.9,0.1333,1.6829,0.9001,1.8225,1.8001h8.9321C21.4545,22.3,22.3,21.4779,23.3,21.4779z" fill="#48CFAE" opacity="0.2"/>
      <path d="M23.475,15.5h-3.7259l-2.6473,8.5h6.3732c0.2899,0,0.525,-0.2154,0.525,-0.4923v-7.5062C24,15.7245,23.7649,15.5,23.475,15.5z" fill="#298970" opacity="0.1"/>
      <path d="M19.2273,19.7545c0,1.5163,-0.9901,2.7455,-2.2114,2.7455c-1.2213,0,-2.2114,-1.2292,-2.2114,-2.7455c0,-1.5163,0.9901,-2.7455,2.2114,-2.7455C18.2372,17.0091,19.2273,18.2383,19.2273,19.7545z" fill-rule="evenodd" fill="#36BC9B"/>
      <path d="M17.3,21.8v-0.3526c0.3,-0.0132,0.5712,-0.1407,0.7998,-0.3235c0.2286,-0.1827,0.339,-0.4107,0.339,-0.684c0,-0.1243,-0.0283,-0.2397,-0.083,-0.3464c-0.0547,-0.1067,-0.1293,-0.1988,-0.2311,-0.2762c-0.1018,-0.0775,-0.2395,-0.1828,-0.3899,-0.2332c-0.0788,-0.0259,-0.2347,-0.0629,-0.4347,-0.1111v-1.0591c0.2,0.0247,0.2338,0.076,0.3239,0.1536c0.0901,0.0777,0.1425,0.1893,0.1711,0.3351l0.5613,-0.1121c-0.046,-0.2506,-0.1791,-0.4478,-0.4051,-0.5914c-0.1763,-0.1128,-0.3512,-0.1803,-0.6512,-0.2023V17.7h-0.532l-0.0136,0.3157c-0.354,0.027,-0.5793,0.0866,-0.7592,0.2067c-0.269,0.1787,-0.4034,0.4125,-0.4034,0.7009c0,0.1622,0.0462,0.3072,0.1385,0.4349c0.0924,0.1277,0.2241,0.2276,0.3949,0.2997c0.2304,0.0977,0.3923,0.1677,0.6092,0.2101l0.0138,1.1559c-0.2041,-0.016,-0.3172,-0.0942,-0.4635,-0.2345c-0.1021,-0.0993,-0.1727,-0.255,-0.2132,-0.4669l-0.567,0.157c0.0191,0.2045,0.0901,0.3777,0.2083,0.5194c0.1182,0.1417,0.2835,0.2443,0.4459,0.3079c0.1623,0.0636,0.3746,0.1196,0.6413,0.1444V21.8H17.3zM17.3,19.9774c0.2,0.0487,0.3698,0.1114,0.4503,0.1882c0.0804,0.0768,0.1144,0.1785,0.1144,0.305c0,0.1484,-0.0576,0.273,-0.1736,0.3736c-0.1159,0.1007,-0.1912,0.1594,-0.3912,0.1762V19.9774zM16.8,19.3818c-0.2667,-0.0408,-0.3564,-0.1015,-0.4456,-0.1822c-0.0892,-0.0807,-0.1537,-0.181,-0.1537,-0.3008c0,-0.121,0.0785,-0.2259,0.1821,-0.3144c0.1035,-0.0885,0.1505,-0.1432,0.4172,-0.164V19.3818z" fill-rule="evenodd" fill="#FFFFFF"/>
    </g>
  </g>
</svg>
