<?xml version="1.0" encoding="UTF-8"?>
<!DOCTYPE svg PUBLIC "-//W3C//DTD SVG 1.1//EN" "http://www.w3.org/Graphics/SVG/1.1/DTD/svg11.dtd">
<svg version="1.1" id="Layer_1" xmlns="http://www.w3.org/2000/svg" xmlns:xlink="http://www.w3.org/1999/xlink" x="0px" y="0px" width="24px" height="24px" viewBox="0 0 24 24" enable-background="new 0 0 24 24" xml:space="preserve">
  <g id="main">
    <g id="icon">
      <path d="M0.734,4.095L0.3525,4.353L0.09473,4.734L0,5.2L0,20.8L0.09473,21.27L0.3525,21.65L0.734,21.91L1.2,22L12.26,22L12.45,21.58L12.71,21.22L13.02,20.93L13.41,20.69L13.85,20.48L14.97,20.1L15.76,19.84L15.45,19.24L15.13,18.48L14.89,17.58L14.82,17.07L14.8,16.53L14.86,15.73L15.04,15.02L15.33,14.42L15.75,13.91L16.27,13.52L16.9,13.23L17.63,13.06L18,13.03L18,5.2L17.91,4.734L17.65,4.353L17.27,4.095L16.8,4L1.2,4zz" fill="#E6E9EE"/>
      <path d="M11.84,14.38L11.69,14.42L5.523,16.72L5.426,16.79L5.427,16.9L5.579,16.95L11.79,16.86L12.15,16.82L14.82,16.26L14.86,15.73L15.04,15.02L15.33,14.42L15.75,13.91L16.27,13.52L16.54,13.39zz" fill="#231F20" opacity="0.15"/>
      <path d="M19.24,0.03965L19.09,0.1412L18.05,1.177L20.78,3.902L21.81,2.866L21.91,2.713L21.95,2.539L21.91,2.365L21.81,2.212L19.74,0.1412L19.59,0.03965L19.41,0.005859zz" fill="#DB4453"/>
      <path d="M17.14,2.085L17.78,2.721L18.69,1.813L18.05,1.177zz" fill="#CCD0D9"/>
      <path d="M17.78,2.721L19.14,4.084L20.05,3.175L18.69,1.813zz" fill="#E6E9EE"/>
      <path d="M19.14,4.084L19.87,4.811L20.78,3.902L20.05,3.175zz" fill="#CCD0D9"/>
      <path d="M5.334,16.44L5.516,16.62L9.967,14.71L7.242,11.99zz" fill="#FFDDB0"/>
      <path d="M5.334,16.44L5.516,16.62L6.661,16.13L5.825,15.29zz" fill="#656D78"/>
      <path d="M7.342,11.89L7.25,12.03L7.244,12.18L7.304,12.33L7.413,12.45L7.706,12.6L7.854,12.59L7.978,12.52L17.78,2.721L17.14,2.085zz" fill="#FFCE55"/>
      <path d="M9.352,13.9L9.274,14.04L9.282,14.19L9.357,14.34L9.48,14.48L9.793,14.66L9.945,14.67L10.07,14.61L19.87,4.81L19.14,4.084zz" fill="#F6BB43"/>
      <path d="M7.978,12.52L7.925,12.69L7.993,12.93L8.154,13.21L8.379,13.48L8.638,13.73L8.904,13.9L9.148,13.96L9.341,13.88L19.14,4.084L17.78,2.721zz" fill="#FFD576"/>
    </g>
    <g id="overlay">
      <path d="M23.334,24c0.375,0,0.676,-0.31,0.665,-0.684c-0.004,-0.147,-0.025,-0.302,-0.055,-0.499c-0.277,-1.364,-0.769,-1.242,-3.459,-2.17c-0.393,-0.144,-0.505,-0.353,-0.475,-0.649c0,-0.275,1.164,-1.579,1.164,-3.463c0,-1.552,-0.679,-2.535,-2.668,-2.535c-0.007,0,-0.014,0,-0.021,0c-0.007,0,-0.014,0,-0.021,0c-1.975,0,-2.668,0.983,-2.668,2.535c0,1.885,1.164,3.189,1.164,3.463c0.029,0.296,-0.082,0.505,-0.475,0.649c-2.69,0.928,-3.142,0.806,-3.419,2.17c-0.037,0.244,-0.06,0.425,-0.055,0.604c0.009,0.324,0.282,0.579,0.606,0.579H23.334z" fill-rule="evenodd" fill="#4B89DC"/>
      <path d="M23.429,24c0.304,0,0.554,-0.24,0.569,-0.544c0.01,-0.191,-0.014,-0.38,-0.054,-0.639c-0.277,-1.364,-0.769,-1.242,-3.459,-2.17c-0.393,-0.144,-0.505,-0.353,-0.475,-0.649c0,-0.275,1.164,-1.579,1.164,-3.463c0,-1.555,-0.682,-2.539,-2.681,-2.535c0,0,0,0,0,0l0,10H23.429z" fill="#3E74AE" opacity="0.4"/>
    </g>
  </g>
</svg>
