<?xml version="1.0" encoding="UTF-8"?>
<!DOCTYPE svg PUBLIC "-//W3C//DTD SVG 1.1//EN" "http://www.w3.org/Graphics/SVG/1.1/DTD/svg11.dtd">
<svg version="1.1" id="Layer_1" xmlns="http://www.w3.org/2000/svg" xmlns:xlink="http://www.w3.org/1999/xlink" x="0px" y="0px" width="24px" height="24px" viewBox="0 0 24 24" enable-background="new 0 0 24 24" xml:space="preserve">
  <g id="main">
    <g id="icon">
      <path d="M0.734,4.095L0.3525,4.353L0.09473,4.734L0,5.2L0,20.8L0.09473,21.27L0.3525,21.65L0.734,21.91L1.2,22L14.05,22L13.94,21.87L13.78,21.59L13.7,21.28L13.69,20.96L13.76,20.65L13.99,20.25L14.3,19.96L14.3,16.62L14,16.33L13.78,15.94L13.71,15.63L13.72,15.31L13.81,15L13.97,14.72L14.25,14.38L14.64,14.05L15.17,13.8L15.48,13.73L15.84,13.7L18,13.7L18,5.2L17.91,4.734L17.65,4.353L17.27,4.095L16.8,4L1.2,4zz" fill="#E6E9EE"/>
      <path d="M11.84,14.38L11.69,14.42L5.523,16.72L5.426,16.79L5.427,16.9L5.579,16.95L11.79,16.86L12.15,16.82L14.09,16.41L14,16.33L13.78,15.94L13.71,15.63L13.72,15.31L13.81,15L13.97,14.72L14.25,14.38L14.64,14.05L15.17,13.8L15.48,13.73L15.84,13.7L18,13.7L18,13.08zz" fill="#231F20" opacity="0.15"/>
      <path d="M19.24,0.03965L19.09,0.1412L18.05,1.177L20.78,3.902L21.81,2.866L21.91,2.713L21.95,2.539L21.91,2.365L21.81,2.212L19.74,0.1412L19.59,0.03965L19.41,0.005859zz" fill="#DB4453"/>
      <path d="M17.14,2.085L17.78,2.721L18.69,1.813L18.05,1.177zz" fill="#CCD0D9"/>
      <path d="M17.78,2.721L19.14,4.084L20.05,3.175L18.69,1.813zz" fill="#E6E9EE"/>
      <path d="M19.14,4.084L19.87,4.811L20.78,3.902L20.05,3.175zz" fill="#CCD0D9"/>
      <path d="M5.334,16.44L5.516,16.62L9.967,14.71L7.242,11.99zz" fill="#FFDDB0"/>
      <path d="M5.334,16.44L5.516,16.62L6.661,16.13L5.825,15.29zz" fill="#656D78"/>
      <path d="M7.342,11.89L7.25,12.03L7.244,12.18L7.304,12.33L7.413,12.45L7.706,12.6L7.854,12.59L7.978,12.52L17.78,2.721L17.14,2.085zz" fill="#FFCE55"/>
      <path d="M9.352,13.9L9.274,14.04L9.282,14.19L9.357,14.34L9.48,14.48L9.793,14.66L9.945,14.67L10.07,14.61L19.87,4.81L19.14,4.084zz" fill="#F6BB43"/>
      <path d="M7.978,12.52L7.925,12.69L7.993,12.93L8.154,13.21L8.379,13.48L8.638,13.73L8.904,13.9L9.148,13.96L9.341,13.88L19.14,4.084L17.78,2.721zz" fill="#FFD576"/>
    </g>
    <g id="overlay">
      <path d="M19.1386,16.3746v3.8308c0,0.1269,-0.1064,0.2437,-0.2377,0.2437h-3.3273c-0.1313,0,-0.2377,-0.1168,-0.2377,-0.2437v-3.8308c0,-0.1269,0.1064,-0.2298,0.2377,-0.2298h3.3273C19.0322,16.1448,19.1386,16.2477,19.1386,16.3746z" fill="#FFCE55"/>
      <path d="M19.1386,16.3746v3.8308c0,0.1269,-0.1064,0.2437,-0.2377,0.2437h-2.0027l0.93,-4.3043h1.0727C19.0322,16.1448,19.1386,16.2477,19.1386,16.3746z" fill="#F6BB43"/>
      <rect x="20.6182" y="15.9682" width="1.2682" height="6.9116" fill="#AAB2BD"/>
      <g>
        <polygon points="21.9,16.4508 20.6,17.4379 20.6,18.0736 21.9,17.0865" fill="#656D78" stroke-linejoin="miter"/>
        <polygon points="21.9,21.9547 20.888,22.8 21.7046,22.8 21.9,22.5904" fill="#656D78" stroke-linejoin="miter"/>
        <polygon points="21.9,17.533 20.6,18.5201 20.6,19.1558 21.9,18.1686" fill="#656D78" stroke-linejoin="miter"/>
        <polygon points="20.6,16.3 20.6,16.9914 21.5526,16.3" fill="#656D78" stroke-linejoin="miter"/>
        <path d="M21.9,21.449v-0.6357l-1.3,0.9871v0.5509c0,0.026,0.0219,0.0504,0.0317,0.0724L21.9,21.449z" fill="#656D78"/>
        <path d="M21.9,19.2508v-0.6357l-1.3,0.9871v0.5509c0,0.026,0.0219,0.0504,0.0317,0.0724L21.9,19.2508z" fill="#656D78"/>
        <path d="M21.9,20.3499v-0.6357l-1.3,0.9871v0.5509c0,0.026,0.0219,0.0504,0.0317,0.0724L21.9,20.3499z" fill="#656D78"/>
      </g>
      <path d="M19.35,14.7c0.2776,0,0.5192,0.0489,0.7271,0.2214c0.1956,0.1622,0.411,0.2214,0.6664,0.213c0.459,-0.0151,1.2242,-0.0054,1.7022,-0.0039c0.2237,0.0007,0.2862,0.0687,0.2862,0.2882c0,0.1758,0,0.3251,0,0.5073c0,0.216,-0.1241,0.3382,-0.3382,0.3382c-0.4148,0,-1.3325,0,-1.9445,0c-0.1591,0,-0.3197,-0.1063,-0.4563,-0.2052c-0.2096,-0.1516,-0.4637,-0.2176,-0.7273,-0.2176c-1.3598,0,-2.3602,0,-3.8468,0c-0.0863,0,-0.3666,0.0008,-0.4487,-0.0214c-0.2228,-0.0604,-0.3224,-0.3259,-0.1892,-0.5104c0.2574,-0.3566,0.5385,-0.6096,1.0607,-0.6096C16.437,14.7,18.8075,14.7,19.35,14.7z" fill="#8E949C"/>
      <path d="M19.3293,21.8864c0.2776,0,0.5192,-0.0489,0.7271,-0.2214c0.1956,-0.1622,0.411,-0.2214,0.6664,-0.213c0.459,0.0151,1.2449,0.0054,1.7229,0.0039c0.2237,-0.0007,0.2862,-0.0687,0.2862,-0.2882c0,-0.1758,0,-0.3251,0,-0.5073c0,-0.216,-0.1241,-0.3382,-0.3382,-0.3382c-0.4148,0,-1.3532,0,-1.9652,0c-0.1591,0,-0.3197,0.1063,-0.4563,0.2052c-0.2096,0.1516,-0.4637,0.2176,-0.7273,0.2176c-1.3598,0,-2.3602,0,-3.8468,0c-0.0863,0,-0.3665,-0.0008,-0.4487,0.0214c-0.2228,0.0604,-0.3224,0.3259,-0.1892,0.5104c0.2574,0.3566,0.5385,0.6096,1.0607,0.6096C16.4163,21.8864,18.7868,21.8864,19.3293,21.8864z" fill="#8E949C"/>
      <path d="M22.7318,22.5205L22.7318,22.5205c0,0.1167,-0.0946,0.2114,-0.2114,0.2114h-2.5364c-0.1167,0,-0.2114,-0.0946,-0.2114,-0.2114l0,0c0,-0.1167,-0.0946,-0.2114,-0.2114,-0.2114h-0.8455c-0.1167,0,-0.2114,0.0946,-0.2114,0.2114v1.2682c0,0.1167,0.0946,0.2114,0.2114,0.2114h0.8455c0.1167,0,0.2114,-0.0946,0.2114,-0.2114l0,0c0,-0.1167,0.0946,-0.2114,0.2114,-0.2114h2.5364c0.1167,0,0.2114,0.0946,0.2114,0.2114l0,0c0,0.1167,0.0946,0.2114,0.2114,0.2114h0.8455c0.1167,0,0.2114,-0.0946,0.2114,-0.2114v-1.2682c0,-0.1167,-0.0946,-0.2114,-0.2114,-0.2114h-0.8455C22.8264,22.3091,22.7318,22.4037,22.7318,22.5205z" fill="#8E949C"/>
    </g>
  </g>
</svg>
