<?xml version="1.0" encoding="UTF-8"?>
<!DOCTYPE svg PUBLIC "-//W3C//DTD SVG 1.1//EN" "http://www.w3.org/Graphics/SVG/1.1/DTD/svg11.dtd">
<svg version="1.1" id="Layer_1" xmlns="http://www.w3.org/2000/svg" xmlns:xlink="http://www.w3.org/1999/xlink" x="0px" y="0px" width="24px" height="24px" viewBox="0 0 24 24" enable-background="new 0 0 24 24" xml:space="preserve">
  <g id="main">
    <g id="icon">
      <path d="M0.734,4.095L0.3525,4.353L0.09473,4.734L0,5.2L0,20.8L0.09473,21.27L0.3525,21.65L0.734,21.91L1.2,22L14.61,22L14.37,21.48L14.17,20.85L14.04,20.19L14,19.5L14.03,18.94L14.11,18.39L14.25,17.87L14.43,17.36L14.66,16.88L14.94,16.43L15.26,16L15.61,15.61L16,15.26L16.43,14.94L16.88,14.66L17.36,14.43L17.87,14.25L18,14.21L18,5.2L17.91,4.734L17.65,4.353L17.27,4.095L16.8,4L1.2,4zz" fill="#E6E9EE"/>
      <path d="M11.84,14.38L11.69,14.42L5.523,16.72L5.426,16.79L5.427,16.9L5.579,16.95L11.79,16.86L12.15,16.82L15.11,16.2L15.26,16L15.61,15.61L16,15.26L16.43,14.94L16.88,14.66L17.36,14.43L17.87,14.25L18,14.21L18,13.08zz" fill="#231F20" opacity="0.15"/>
      <path d="M19.24,0.03965L19.09,0.1412L18.05,1.177L20.78,3.902L21.81,2.866L21.91,2.713L21.95,2.539L21.91,2.365L21.81,2.212L19.74,0.1412L19.59,0.03965L19.41,0.005859zz" fill="#DB4453"/>
      <path d="M17.14,2.085L17.78,2.721L18.69,1.813L18.05,1.177zz" fill="#CCD0D9"/>
      <path d="M17.78,2.721L19.14,4.084L20.05,3.175L18.69,1.813zz" fill="#E6E9EE"/>
      <path d="M19.14,4.084L19.87,4.811L20.78,3.902L20.05,3.175zz" fill="#CCD0D9"/>
      <path d="M5.334,16.44L5.516,16.62L9.967,14.71L7.242,11.99zz" fill="#FFDDB0"/>
      <path d="M5.334,16.44L5.516,16.62L6.661,16.13L5.825,15.29zz" fill="#656D78"/>
      <path d="M7.342,11.89L7.25,12.03L7.244,12.18L7.304,12.33L7.413,12.45L7.706,12.6L7.854,12.59L7.978,12.52L17.78,2.721L17.14,2.085zz" fill="#FFCE55"/>
      <path d="M9.352,13.9L9.274,14.04L9.282,14.19L9.357,14.34L9.48,14.48L9.793,14.66L9.945,14.67L10.07,14.61L19.87,4.81L19.14,4.084zz" fill="#F6BB43"/>
      <path d="M7.978,12.52L7.925,12.69L7.993,12.93L8.154,13.21L8.379,13.48L8.638,13.73L8.904,13.9L9.148,13.96L9.341,13.88L19.14,4.084L17.78,2.721zz" fill="#FFD576"/>
    </g>
    <g id="overlay">
      <circle cx="19.5067" cy="19.5067" r="4.4967" fill="#FFCE55"/>
      <path d="M22.71,16.3508c-0.0062,-0.0062,0.0051,0.0055,-0.0239,-0.0234l-6.3588,6.3588c0.0289,0.029,0.0173,0.0178,0.0234,0.0239c1.7561,1.7561,4.5743,1.7271,6.3303,-0.0289S24.4661,18.1068,22.71,16.3508z" fill="#F6BB43" opacity="0.8"/>
      <path d="M22.369,20.2967c-0.2758,0.9221,-1.4262,1.8759,-2.8739,1.8759c-1.5577,0,-2.5995,-1.0099,-2.789,-1.9602c-0.0118,-0.0591,0.0043,-0.1191,0.0454,-0.1691c0.0468,-0.0571,0.1197,-0.0926,0.1901,-0.0926c0.0714,0,0.1315,0.0353,0.1651,0.0969c0.1462,0.2684,0.7505,1.144,2.3884,1.144c1.0801,0,1.9142,-0.3635,2.479,-1.0804c0.0409,-0.0519,0.1033,-0.0816,0.1711,-0.0816c0.0756,0,0.1496,0.0361,0.1929,0.0943C22.3755,20.1742,22.3868,20.2372,22.369,20.2967zM20.8204,18.7629c0.2691,0,0.4721,-0.3891,0.4721,-0.9051s-0.2029,-0.905,-0.4721,-0.905s-0.4721,0.3891,-0.4721,0.905S20.5512,18.7629,20.8204,18.7629zM18.1685,18.7629c0.2691,0,0.4721,-0.3891,0.4721,-0.9051s-0.2029,-0.905,-0.4721,-0.905s-0.4721,0.3891,-0.4721,0.905S17.8994,18.7629,18.1685,18.7629z" fill="#434A54"/>
    </g>
  </g>
</svg>
