<?xml version="1.0" encoding="UTF-8"?>
<!DOCTYPE svg PUBLIC "-//W3C//DTD SVG 1.1//EN" "http://www.w3.org/Graphics/SVG/1.1/DTD/svg11.dtd">
<svg version="1.1" id="Layer_1" xmlns="http://www.w3.org/2000/svg" xmlns:xlink="http://www.w3.org/1999/xlink" x="0px" y="0px" width="24px" height="24px" viewBox="0 0 24 24" enable-background="new 0 0 24 24" xml:space="preserve">
  <g id="main">
    <g id="icon">
      <path d="M0.734,4.095L0.3525,4.353L0.09473,4.734L0,5.2L0,20.8L0.09473,21.27L0.3525,21.65L0.734,21.91L1.2,22L12.75,22L12.91,21.43L13.12,20.97L13.4,20.59L13.75,20.29L14.18,20.03L14.7,19.8L16.04,19.33L16.33,19.23L16.07,18.65L15.89,18.36L15.76,17.94L15.76,17.92L15.63,17.35L15.58,17.13L15.52,16.71L15.61,16.32L15.57,15.86L15.57,15.46L15.58,15.31L15.64,14.91L15.78,14.5L15.97,14.13L16.16,13.85L16.63,13.38L17.23,13.03L17.93,12.8L18,12.79L18,5.2L17.91,4.734L17.65,4.353L17.27,4.095L16.8,4L1.2,4zz" fill="#E6E9EE"/>
      <path d="M11.84,14.38L11.69,14.42L5.523,16.72L5.426,16.79L5.427,16.9L5.579,16.95L11.79,16.86L12.15,16.82L15.59,16.09L15.57,15.86L15.57,15.46L15.58,15.31L15.64,14.91L15.78,14.5L15.97,14.13L16.16,13.85L16.63,13.38L16.66,13.37zz" fill="#231F20" opacity="0.15"/>
      <path d="M19.24,0.03965L19.09,0.1412L18.05,1.177L20.78,3.902L21.81,2.866L21.91,2.713L21.95,2.539L21.91,2.365L21.81,2.212L19.74,0.1412L19.59,0.03965L19.41,0.005859zz" fill="#DB4453"/>
      <path d="M17.14,2.085L17.78,2.721L18.69,1.813L18.05,1.177zz" fill="#CCD0D9"/>
      <path d="M17.78,2.721L19.14,4.084L20.05,3.175L18.69,1.813zz" fill="#E6E9EE"/>
      <path d="M19.14,4.084L19.87,4.811L20.78,3.902L20.05,3.175zz" fill="#CCD0D9"/>
      <path d="M5.334,16.44L5.516,16.62L9.967,14.71L7.242,11.99zz" fill="#FFDDB0"/>
      <path d="M5.334,16.44L5.516,16.62L6.661,16.13L5.825,15.29zz" fill="#656D78"/>
      <path d="M7.342,11.89L7.25,12.03L7.244,12.18L7.304,12.33L7.413,12.45L7.706,12.6L7.854,12.59L7.978,12.52L17.78,2.721L17.14,2.085zz" fill="#FFCE55"/>
      <path d="M9.352,13.9L9.274,14.04L9.282,14.19L9.357,14.34L9.48,14.48L9.793,14.66L9.945,14.67L10.07,14.61L19.87,4.81L19.14,4.084zz" fill="#F6BB43"/>
      <path d="M7.978,12.52L7.925,12.69L7.993,12.93L8.154,13.21L8.379,13.48L8.638,13.73L8.904,13.9L9.148,13.96L9.341,13.88L19.14,4.084L17.78,2.721zz" fill="#FFD576"/>
    </g>
    <g id="overlay">
      <path d="M21.9,20.5026c-0.1,-0.0249,-0.1824,-0.0492,-0.2822,-0.0727c-0.4067,-0.0957,-0.772,-0.24,-1.1303,-0.4275c-0.0671,-0.0351,-0.1151,-0.1094,-0.1429,-0.16c-0.1239,-0.2642,-0.0544,-0.7719,0.0203,-1.1501c0.0004,-0.0179,0.0047,-0.0364,0.0117,-0.0545c-0.1131,0.1447,-0.379,0.3658,-0.3942,0.376c-0.1126,0.0752,-0.2239,0.1557,-0.3438,0.2213c-0.2024,0.1106,-0.4059,0.2332,-0.6488,0.2713c-0.0603,0.0095,-0.1034,0.0133,-0.2024,0.0125c-0.0668,0.0008,-0.1325,-0.003,-0.1928,-0.0125c-0.243,-0.0382,-0.4416,-0.1608,-0.644,-0.2713c-0.12,-0.0655,-0.2289,-0.146,-0.3415,-0.2213c-0.0152,-0.0102,-0.28,-0.2312,-0.3931,-0.376c0.0071,0.0182,0.0117,0.0367,0.0121,0.0545c0.0747,0.3782,0.1441,0.8859,0.0201,1.1501c-0.0278,0.0506,-0.0766,0.1249,-0.1437,0.16c-0.3583,0.1876,-0.7686,0.3319,-1.1754,0.4275c-0.0998,0.0235,-0.2291,0.0478,-0.3291,0.0727v0.5014l3.1568,1.3921l0.0186,-0.0008l0.0102,0.0008l0.08,-0.0362l0.1393,-0.0599h-0.0061L21.9,21.004V20.5026z" fill="#D6B1A3"/>
      <path d="M21.0372,16.6819c-0.0983,-0.0276,-0.1319,0.0746,-0.1607,0.1431c-0.0489,0.1165,-0.0448,0.2352,-0.0968,0.3715c-0.0118,-0.0485,-0.022,-0.077,-0.0254,-0.1061c-0.0314,-0.2665,-0.0047,-0.5339,-0.045,-0.7993c-0.0449,-0.2958,-0.1631,-0.6253,-0.3629,-0.8732c-0.128,-0.1588,-0.3021,-0.2268,-0.5234,-0.1946c-0.2716,0.0396,-0.5705,0.0744,-0.8429,0.1091c-0.0632,0.0081,-0.1456,0.0141,-0.191,0.0161c-0.0454,-0.002,-0.1209,-0.008,-0.1841,-0.0161c-0.2723,-0.0347,-0.5678,-0.0695,-0.8393,-0.1091c-0.2212,-0.0322,-0.3936,0.0358,-0.5216,0.1946c-0.1998,0.2479,-0.3171,0.5774,-0.362,0.8732c-0.0403,0.2654,-0.0131,0.5329,-0.0445,0.7993c-0.0034,0.0291,-0.0383,-0.0051,-0.0383,-0.0051s-0.081,-0.1438,-0.1299,-0.2603c-0.0288,-0.0686,-0.0623,-0.1707,-0.1606,-0.1431c-0.1103,0.031,-0.0522,0.1298,-0.0352,0.2035c0.0624,0.2697,0.1206,0.5401,0.1881,0.8088c0.0175,0.0697,0.0399,0.283,0.0995,0.289c0.0596,0.006,0.0738,-0.1351,0.1155,-0.1657c0.0202,0.1174,0.0507,0.2218,0.054,0.3269c0.0088,0.2779,0.1401,0.5158,0.2932,0.7492c0.0089,0.0135,0.0173,0.0281,0.0244,0.0432c0.1592,0.1456,0.4272,0.3945,0.792,0.5875c0.2163,0.1129,0.4316,0.1943,0.6814,0.2119c0.025,0.0018,0.0675,0.0026,0.0675,0.0031c0,-0.0004,0.0494,-0.0013,0.0743,-0.0031c0.2498,-0.0175,0.4719,-0.099,0.6883,-0.2119c0.3649,-0.1931,0.6329,-0.4419,0.7921,-0.5875c0.0071,-0.0151,0.0156,-0.0297,0.0244,-0.0432c0.1531,-0.2334,0.2845,-0.4713,0.2932,-0.7492c0.0033,-0.1051,0.0337,-0.2095,0.054,-0.3269c0.0417,0.0306,0.0559,0.1717,0.1155,0.1657c0.0596,-0.006,0.082,-0.2193,0.0995,-0.289c0.0675,-0.2687,0.0794,-0.5391,0.1418,-0.8088C21.0895,16.8117,21.1476,16.7129,21.0372,16.6819z" fill="#E6CBBF"/>
      <path d="M20.3,19.0014c-0.2,0.1476,-0.4191,0.3559,-0.7346,0.5229c-0.2164,0.1129,-0.4452,0.1943,-0.695,0.2119c-0.025,0.0018,-0.0777,0.0026,-0.0777,0.0031c0,-0.0004,-0.0442,-0.0013,-0.0692,-0.0031c-0.2498,-0.0175,-0.4666,-0.099,-0.683,-0.2119c-0.3275,-0.1733,-0.6405,-0.3909,-0.7405,-0.5391v0.0915c0.1,0.1482,0.4122,0.5031,0.7397,0.6764c0.2163,0.1129,0.432,0.1943,0.6817,0.2119c0.025,0.0018,0.0677,0.0026,0.0677,0.0031c0,-0.0004,0.0495,-0.0013,0.0744,-0.0031c0.2498,-0.0175,0.4854,-0.099,0.7018,-0.2119c0.3155,-0.167,0.5347,-0.5126,0.7347,-0.6602V19.0014z" fill="#8E725E" opacity="0.2"/>
      <path d="M23.9312,22.2015c-0.3181,-1.5309,-0.7298,-1.3768,-3.2532,-2.1318c-1.3953,1.9415,-2.3717,1.9307,-3.7822,0c-2.8918,0.9443,-2.9745,0.7765,-3.2688,2.131c-0.0785,0.4989,-0.0915,0.7081,0.1174,1.261c0.2034,0.538,4.3234,0.5434,4.3234,0.5434s0.4827,-0.2366,0.6718,-0.2366c0.0473,0,0,0,0,0c0.2364,0,0.7465,0.2369,0.7465,0.2369s4.1213,-0.0111,4.3225,-0.5433C24.0176,22.9093,24.0097,22.7005,23.9312,22.2015z" fill-rule="evenodd" fill="#E6E9EE"/>
      <polygon points="20.8671,20.1166 18.8106,21.0798 16.754,20.1166 17.9359,22.4109 18.8106,21.226 19.6687,22.4109" fill="#24282D" stroke-linejoin="miter" opacity="0.15"/>
      <polygon points="20.8198,20.1166 20.2998,19.6952 18.8106,21.0283 17.274,19.6484 16.754,20.0698 17.961,22.0429 18.8106,21.1915 19.6128,22.0897" fill="#FFFFFF" stroke-linejoin="miter"/>
      <path d="M21.0482,15.3326c-0.0058,-0.2578,-0.2597,-0.733,-0.3721,-0.8552c-0.3891,-0.5045,-1.1464,-0.7601,-1.8868,-0.774c-0.755,0.0139,-1.5082,0.2695,-1.8973,0.774c-0.1124,0.1222,-0.3715,0.5974,-0.3773,0.8552c-0.0076,0.3373,-0.0481,0.6781,0.0596,1.0131c0.0418,0.1299,0.0403,0.2696,0.074,0.4019c0.0379,0.1487,0.1178,0.4213,0.1512,0.4233c0.0334,0.002,0.0443,-0.0666,0.0463,-0.0855c0.0248,-0.2338,0.0265,-0.4237,0.0584,-0.6567c0.0536,-0.3924,0.0596,-0.5023,0.2982,-0.8603c0.0916,-0.1375,0.1924,-0.284,0.4003,-0.2868c0.2065,-0.0029,0.4142,0.0241,0.6202,0.0461c0.1572,0.0168,0.3126,0.0657,0.4687,0.0655c0.0326,0,0.0652,-0.0009,0.0978,-0.002c0,0.0012,0.0547,0.002,0.0873,0.002c0.1561,0.0002,0.3011,-0.0487,0.4583,-0.0655c0.206,-0.022,0.4137,-0.049,0.6202,-0.0461c0.2079,0.0029,0.3087,0.1494,0.4003,0.2868c0.2386,0.358,0.2446,0.4679,0.2983,0.8603c0.0318,0.2331,0.0338,0.4229,0.0585,0.6567c0.002,0.0189,0.0132,0.0875,0.0466,0.0855c0.0334,-0.002,0.1139,-0.2746,0.1518,-0.4233c0.0338,-0.1323,0.0336,-0.272,0.0753,-0.4019C21.0937,16.0107,21.0558,15.6699,21.0482,15.3326z" fill="#434A54"/>
      <polygon points="18.2669,24 18.5505,21.9881 18.3141,21.7079 18.7869,21.1932 19.2597,21.7084 19.0233,21.988 19.307,24" fill="#5D9CEC" stroke-linejoin="miter"/>
      <path d="M23.9312,22.2414c-0.1447,-1.282,-0.5584,-1.4869,-2.9223,-2.078c-0.1673,-0.0663,-0.3007,-0.1314,-0.4728,-0.2341c-0.012,-0.0072,-0.1182,-0.0878,-0.1907,-0.1405c-0.0964,-0.2054,-0.0759,-0.5043,-0.027,-0.8287c0.0084,-0.0076,0.0177,-0.0161,0.0255,-0.0233c0.0071,-0.0151,0.0156,-0.0297,0.0244,-0.0432c0.1531,-0.2334,0.2845,-0.4713,0.2932,-0.7492c0.0033,-0.1051,0.0337,-0.2095,0.054,-0.3269c0.0417,0.0306,0.0559,0.1717,0.1155,0.1657c0.0596,-0.006,0.082,-0.2193,0.0995,-0.289c0.0675,-0.2687,0.0794,-0.5391,0.1418,-0.8088c0.017,-0.0737,0.0751,-0.1725,-0.0352,-0.2035c-0.0648,-0.0182,-0.1014,0.02,-0.1271,0.0678c0.0002,-0.0007,0.0004,-0.0015,0.0006,-0.0021c0.0338,-0.1323,0.0336,-0.272,0.0753,-0.4019c0.1077,-0.335,0.0698,-0.6758,0.0622,-1.0131c-0.0058,-0.2578,-0.2597,-0.7348,-0.3721,-0.8569c-0.3891,-0.5045,-1.1464,-0.7757,-1.8868,-0.7757c-0.0008,0,-0.0893,0,-0.0893,0v10.2996c1.6,0.0009,4.8364,0.0725,5.0701,-0.5032C23.9791,22.9819,24.0097,22.7058,23.9312,22.2414zM20.8196,17.053c-0.0094,0.046,-0.0208,0.0936,-0.0399,0.1436c-0.0032,-0.0131,-0.0062,-0.0245,-0.0091,-0.0351C20.7841,17.1444,20.8014,17.1042,20.8196,17.053z" fill-rule="evenodd" fill="#44372E" opacity="0.1"/>
    </g>
  </g>
</svg>
