<?xml version="1.0" encoding="UTF-8"?>
<!DOCTYPE svg PUBLIC "-//W3C//DTD SVG 1.1//EN" "http://www.w3.org/Graphics/SVG/1.1/DTD/svg11.dtd">
<svg version="1.1" id="Layer_1" xmlns="http://www.w3.org/2000/svg" xmlns:xlink="http://www.w3.org/1999/xlink" x="0px" y="0px" width="24px" height="24px" viewBox="0 0 24 24" enable-background="new 0 0 24 24" xml:space="preserve">
  <g id="main">
    <g id="icon">
      <path d="M0.734,4.095L0.3525,4.353L0.09473,4.734L0,5.2L0,20.8L0.09473,21.27L0.3525,21.65L0.734,21.91L1.2,22L14,22L14,15.63L14.03,15.3L14.13,15L14.28,14.72L14.48,14.48L14.72,14.28L15,14.13L15.3,14.03L15.63,14L18,14L18,5.2L17.91,4.734L17.65,4.353L17.27,4.095L16.8,4L1.2,4zz" fill="#E6E9EE"/>
      <path d="M11.84,14.38L11.69,14.42L5.523,16.72L5.426,16.79L5.427,16.9L5.579,16.95L11.79,16.86L12.15,16.82L14,16.43L14,15.63L14.03,15.3L14.13,15L14.28,14.72L14.48,14.48L14.72,14.28L15,14.13L15.3,14.03L15.63,14L18,14L18,13.08zz" fill="#231F20" opacity="0.15"/>
      <path d="M19.24,0.03965L19.09,0.1412L18.05,1.177L20.78,3.902L21.81,2.866L21.91,2.713L21.95,2.539L21.91,2.365L21.81,2.212L19.74,0.1412L19.59,0.03965L19.41,0.005859zz" fill="#DB4453"/>
      <path d="M17.14,2.085L17.78,2.721L18.69,1.813L18.05,1.177zz" fill="#CCD0D9"/>
      <path d="M17.78,2.721L19.14,4.084L20.05,3.175L18.69,1.813zz" fill="#E6E9EE"/>
      <path d="M19.14,4.084L19.87,4.811L20.78,3.902L20.05,3.175zz" fill="#CCD0D9"/>
      <path d="M5.334,16.44L5.516,16.62L9.967,14.71L7.242,11.99zz" fill="#FFDDB0"/>
      <path d="M5.334,16.44L5.516,16.62L6.661,16.13L5.825,15.29zz" fill="#656D78"/>
      <path d="M7.342,11.89L7.25,12.03L7.244,12.18L7.304,12.33L7.413,12.45L7.706,12.6L7.854,12.59L7.978,12.52L17.78,2.721L17.14,2.085zz" fill="#FFCE55"/>
      <path d="M9.352,13.9L9.274,14.04L9.282,14.19L9.357,14.34L9.48,14.48L9.793,14.66L9.945,14.67L10.07,14.61L19.87,4.81L19.14,4.084zz" fill="#F6BB43"/>
      <path d="M7.978,12.52L7.925,12.69L7.993,12.93L8.154,13.21L8.379,13.48L8.638,13.73L8.904,13.9L9.148,13.96L9.341,13.88L19.14,4.084L17.78,2.721zz" fill="#FFD576"/>
    </g>
    <g id="overlay">
      <path d="M23.37,24h-7.74c-0.3465,0,-0.63,-0.2835,-0.63,-0.63v-7.74c0,-0.3465,0.2835,-0.63,0.63,-0.63h7.74c0.3465,0,0.63,0.2835,0.63,0.63v7.74C24,23.7165,23.7165,24,23.37,24z" fill="#AAB2BD"/>
      <path d="M19.7946,24H23.36c0.352,0,0.64,-0.288,0.64,-0.64v-7.82c0,-0.297,-0.243,-0.54,-0.54,-0.54h-1.1839L19.7946,24z" fill="#231F20" opacity="0.08"/>
      <rect x="16" y="16" width="7" height="6" fill="#FFFFFF"/>
      <polygon points="16.6,21.6 22.4051,21.6 20.339,18.8207 19.5125,19.9345 18.2629,18.2776 16.6,20.4828" fill="#36BC9B" stroke-linejoin="miter"/>
      <ellipse cx="21.5787" cy="17.4483" rx="0.8265" ry="0.8276" fill="#FFCE55"/>
    </g>
  </g>
</svg>
