<?xml version="1.0" encoding="UTF-8"?>
<!DOCTYPE svg PUBLIC "-//W3C//DTD SVG 1.1//EN" "http://www.w3.org/Graphics/SVG/1.1/DTD/svg11.dtd">
<svg version="1.1" id="Layer_1" xmlns="http://www.w3.org/2000/svg" xmlns:xlink="http://www.w3.org/1999/xlink" x="0px" y="0px" width="24px" height="24px" viewBox="0 0 24 24" enable-background="new 0 0 24 24" xml:space="preserve">
  <g id="main">
    <g id="icon">
      <path d="M2.734,0.09473L2.353,0.3525L2.095,0.734L2,1.2L2,20.8L2.095,21.27L2.353,21.65L2.734,21.91L3.2,22L14.61,22L14.37,21.48L14.17,20.85L14.04,20.19L14,19.5L14.03,18.94L14.11,18.39L14.25,17.87L14.43,17.36L14.66,16.88L14.94,16.43L15.26,16L15.61,15.61L16,15.26L16.43,14.94L16.88,14.66L17.36,14.43L17.87,14.25L18.39,14.11L18.94,14.03L19.5,14L20,14.03L20,1.2L19.91,0.734L19.65,0.3525L19.27,0.09473L18.8,0L3.2,0zz" fill="#E6E9EE"/>
      <path d="M5.183,3.113L5.01,3.402L5.059,3.735L5.308,3.962L5.5,4L16.5,4L16.82,3.887L16.99,3.598L16.94,3.265L16.69,3.038L16.5,3L5.5,3zM5.183,6.113L5.01,6.402L5.059,6.735L5.308,6.962L5.5,7L16.5,7L16.82,6.887L16.99,6.598L16.94,6.265L16.69,6.038L16.5,6L5.5,6zM5.183,9.113L5.01,9.402L5.059,9.735L5.308,9.962L5.5,10L16.5,10L16.82,9.887L16.99,9.598L16.94,9.265L16.69,9.038L16.5,9L5.5,9zM5.183,12.11L5.01,12.4L5.059,12.73L5.308,12.96L5.5,13L16.5,13L16.82,12.89L16.99,12.6L16.94,12.27L16.69,12.04L16.5,12L5.5,12zM5.183,15.11L5.01,15.4L5.059,15.73L5.308,15.96L5.5,16L15.26,16L15.61,15.61L16,15.26L16.35,15L5.5,15zM5.183,18.11L5.01,18.4L5.059,18.73L5.308,18.96L5.5,19L14.03,19L14.03,18.94L14.11,18.39L14.21,18L5.5,18zz" fill="#536880" opacity="0.7"/>
      <path d="M9.588,22L14.61,22L14.37,21.48L14.17,20.85L14.04,20.19L14,19.5L14.03,18.94L14.11,18.39L14.25,17.87L14.43,17.36L14.66,16.88L14.94,16.43L15.26,16L15.61,15.61L16,15.26L16.43,14.94L16.88,14.66L17.36,14.43L17.87,14.25L18.39,14.11L18.94,14.03L19.5,14L20,14.03L20,1.1L19.92,0.6496L19.7,0.3025L19.35,0.0791L18.9,0L17.13,0zz" fill="#231F20" opacity="0.06"/>
    </g>
    <g id="overlay">
      <circle cx="19.5" cy="19.5" r="4.4899" fill="#48CFAE"/>
      <path d="M22.6749,16.3251c-0.0061,-0.0061,-0.0124,-0.0121,-0.0186,-0.0182l-6.3493,6.3493c0.0061,0.0062,0.012,0.0125,0.0182,0.0186c1.7534,1.7534,4.5963,1.7534,6.3497,0S24.4283,18.0786,22.6749,16.3251z" fill="#36BC9B" opacity="0.7"/>
      <path d="M21.8587,17.6505l-2.7932,2.7932l-1.6141,-1.6141c-0.0772,-0.0772,-0.2035,-0.0772,-0.2807,0l-0.4211,0.4211c-0.0772,0.0772,-0.0772,0.2035,0,0.2807l2.1756,2.1756c0.0772,0.0772,0.2035,0.0772,0.2807,0l0.1754,-0.1754l0.2456,-0.2456l2.9335,-2.9335c0.0772,-0.0772,0.0772,-0.2035,0,-0.2807l-0.4211,-0.4211C22.0622,17.5733,21.9359,17.5733,21.8587,17.6505z" fill="#FFFFFF"/>
    </g>
  </g>
</svg>
