<?xml version="1.0" encoding="UTF-8" standalone="no"?>
<!DOCTYPE svg PUBLIC "-//W3C//DTD SVG 1.1//EN" "http://www.w3.org/Graphics/SVG/1.1/DTD/svg11.dtd">
<svg width="100%" height="100%" viewBox="0 0 24 24" version="1.1" xmlns="http://www.w3.org/2000/svg" xmlns:xlink="http://www.w3.org/1999/xlink" xml:space="preserve" xmlns:serif="http://www.serif.com/" style="fill-rule:evenodd;clip-rule:evenodd;stroke-linejoin:round;stroke-miterlimit:2;">
    <g transform="matrix(1.06066,0,0,1.06066,-1.16923,0.776829)">
        <g transform="matrix(0.00138323,0.00138323,-0.0013565,0.0013565,15.2435,0.577702)">
            <path d="M2594,11506C2594,11506 2558.01,11506 2505.13,11506C2264.47,11505.8 2060.85,11324.6 2028.08,11081.5C1792.55,9301.2 1493.95,7944.34 266.194,6981.53C129.412,6874.83 59.803,6701.12 84.161,6527.28C199.109,5664.56 549.2,3165.64 549.2,3165.64L4638.8,3165.64C4638.8,3165.64 4988.89,5664.56 5109.64,6526.43C5134.1,6702.35 5063.53,6878.03 4925.09,6985.92C3694.05,7944.34 3395.45,9301.2 3159.67,11081.4C3126.9,11324.3 2923.33,11505.3 2682.87,11505.3C2629.99,11506 2594,11506 2594,11506Z" style="fill:rgb(203,207,216);"/>
        </g>
        <g transform="matrix(0.00138323,0.00138323,-0.0013565,0.0013565,15.2435,0.577702)">
            <path d="M131.534,610.26C108.241,467.758 147.616,322.024 239.192,211.792C330.768,101.56 465.269,37.998 606.945,38C1590.49,38 3597.51,38 4581.06,38C4722.73,37.998 4857.23,101.56 4948.81,211.792C5040.38,322.024 5079.76,467.758 5056.47,610.26C4908.94,1512.88 4638.8,3165.64 4638.8,3165.64L549.2,3165.64C549.2,3165.64 279.063,1512.88 131.534,610.26Z" style="fill:rgb(84,132,195);"/>
        </g>
        <g transform="matrix(0.707107,0.707107,-0.707107,0.707107,10.2947,-5.68215)">
            <path d="M13.473,13.938L13.2,23L12.8,23L12.527,13.938C12.087,13.756 11.777,13.33 11.777,12.833C11.777,12.173 12.327,11.634 13,11.634C13.673,11.634 14.223,12.173 14.223,12.833C14.223,13.33 13.913,13.756 13.473,13.938Z" style="fill:rgb(122,128,138);"/>
        </g>
        <g transform="matrix(0.707107,0.707107,-0.707107,0.707107,11.709,-4.26794)">
            <path d="M15,7L15.917,13.416C15.967,13.773 15.822,14.129 15.537,14.349C13.159,16.176 12.572,18.757 12.113,22.137C12.045,22.631 11.623,22.998 11.124,22.998C11.049,23 11,23 11,23L11.006,1L14.82,1C15.113,1 15.393,1.129 15.583,1.354C15.773,1.578 15.854,1.874 15.806,2.164L15,7Z" style="fill-opacity:0.1;"/>
        </g>
    </g>
</svg>
