<?xml version="1.0" encoding="UTF-8" standalone="no"?>
<!DOCTYPE svg PUBLIC "-//W3C//DTD SVG 1.1//EN" "http://www.w3.org/Graphics/SVG/1.1/DTD/svg11.dtd">
<svg width="100%" height="100%" viewBox="0 0 24 24" version="1.1" xmlns="http://www.w3.org/2000/svg" xmlns:xlink="http://www.w3.org/1999/xlink" xml:space="preserve" xmlns:serif="http://www.serif.com/" style="fill-rule:evenodd;clip-rule:evenodd;stroke-linejoin:round;stroke-miterlimit:2;">
    <g id="icon">
        <path d="M9,8L9,2C9,1.735 9.105,1.48 9.293,1.293C9.48,1.105 9.735,1 10,1L15,1C15.265,1 15.52,1.105 15.707,1.293C15.895,1.48 16,1.735 16,2L16,8L22,8C22.265,8 22.52,8.105 22.707,8.293C22.895,8.48 23,8.735 23,9C23,10.537 23,13.463 23,15C23,15.265 22.895,15.52 22.707,15.707C22.52,15.895 22.265,16 22,16C20.066,16 16,16 16,16L16,22C16,22.265 15.895,22.52 15.707,22.707C15.52,22.895 15.265,23 15,23L10,23C9.735,23 9.48,22.895 9.293,22.707C9.105,22.52 9,22.265 9,22L9,16L2,16C1.448,16 1,15.552 1,15L1,9C1,8.448 1.448,8 2,8L9,8Z" style="fill:rgb(212,78,91);"/>
        <path d="M8,8L8,2C8,1.735 8.105,1.48 8.293,1.293C8.48,1.105 8.735,1 9,1C10.185,1 12,1 12,1L12,23C12,23 10.185,23 9,23C8.735,23 8.48,22.895 8.293,22.707C8.105,22.52 8,22.265 8,22C8,20.066 8,16 8,16L2,16C1.735,16 1.48,15.895 1.293,15.707C1.105,15.52 1,15.265 1,15C1,13.463 1,10.537 1,9C1,8.735 1.105,8.48 1.293,8.293C1.48,8.105 1.735,8 2,8C3.934,8 8,8 8,8Z" style="fill:rgb(235,85,100);"/>
    </g>
</svg>
