<svg version="1.1"
    xmlns="http://www.w3.org/2000/svg"
    xmlns:xlink="http://www.w3.org/1999/xlink" width="512" height="512" viewBox="0 0 512 512">
    <title>senior citizen icon</title>
    <desc>senior citizen icon from the IconExperience.com G-Collection. Copyright by INCORS GmbH (www.incors.com).</desc>
    <defs>
        <linearGradient x1="167.06245" y1="288" x2="346.09545" y2="392.405" gradientUnits="userSpaceOnUse" id="color-1">
            <stop offset="0" stop-color="#d8e0e8"/>
            <stop offset="1" stop-color="#c5cfda"/>
        </linearGradient>
        <linearGradient x1="328.5" y1="366.5" x2="328.0285" y2="309.9335" gradientUnits="userSpaceOnUse" id="color-2">
            <stop offset="0" stop-color="#b3c0cd"/>
            <stop offset="1" stop-color="#a8b6c3"/>
        </linearGradient>
        <linearGradient x1="64" y1="298.5" x2="400.936" y2="511.883" gradientUnits="userSpaceOnUse" id="color-3">
            <stop offset="0" stop-color="#cf8630"/>
            <stop offset="1" stop-color="#ae6d28"/>
        </linearGradient>
        <linearGradient x1="208" y1="316" x2="296.6345" y2="316.6685" gradientUnits="userSpaceOnUse" id="color-4">
            <stop offset="0" stop-color="#45ade9"/>
            <stop offset="1" stop-color="#0e76b2"/>
        </linearGradient>
        <linearGradient x1="225" y1="316" x2="286.631" y2="342.9715" gradientUnits="userSpaceOnUse" id="color-5">
            <stop offset="0" stop-color="#1197e3"/>
            <stop offset="1" stop-color="#0d6a9f"/>
        </linearGradient>
        <linearGradient x1="144" y1="312" x2="260.7085" y2="512.041" gradientUnits="userSpaceOnUse" id="color-6">
            <stop offset="0" stop-color="#b16f29"/>
            <stop offset="0.38824" stop-color="#a86827"/>
            <stop offset="1" stop-color="#9e6024"/>
        </linearGradient>
        <linearGradient x1="144" y1="298.5" x2="343.974" y2="511.883" gradientUnits="userSpaceOnUse" id="color-7">
            <stop offset="0" stop-color="#db9f5f"/>
            <stop offset="1" stop-color="#d08831"/>
        </linearGradient>
        <radialGradient cx="207.58415" cy="176.18709" r="225.73659" fx="207.58415" fy="176.18709" gradientUnits="userSpaceOnUse" id="color-8">
            <stop offset="0" stop-color="#f5b673"/>
            <stop offset="1" stop-color="#f5a557"/>
        </radialGradient>
        <linearGradient x1="150.97213" y1="128" x2="291.09613" y2="207.9995" gradientUnits="userSpaceOnUse" id="color-9">
            <stop offset="0" stop-color="#b8752a"/>
            <stop offset="1" stop-color="#a36526"/>
        </linearGradient>
        <linearGradient x1="167" y1="144" x2="167" y2="192" gradientUnits="userSpaceOnUse" id="color-10">
            <stop offset="0" stop-color="#ccd5de"/>
            <stop offset="1" stop-color="#f2f4f7"/>
        </linearGradient>
        <linearGradient x1="192" y1="240" x2="318.4695" y2="349.234" gradientUnits="userSpaceOnUse" id="color-11">
            <stop offset="0" stop-color="#fefefe"/>
            <stop offset="1" stop-color="#e7ecf1"/>
        </linearGradient>
        <linearGradient x1="112" y1="48" x2="188.3595" y2="125.04335" gradientUnits="userSpaceOnUse" id="color-12">
            <stop offset="0" stop-color="#fafbfc"/>
            <stop offset="1" stop-color="#e5eaef"/>
        </linearGradient>
        <linearGradient x1="324" y1="48" x2="400.3595" y2="132.39435" gradientUnits="userSpaceOnUse" id="color-13">
            <stop offset="0" stop-color="#feffff"/>
            <stop offset="1" stop-color="#e6ebf0"/>
        </linearGradient>
    </defs>
    <g fill="none" fill-rule="evenodd" stroke="none" stroke-width="1" stroke-linecap="butt" stroke-linejoin="miter" stroke-miterlimit="10" stroke-dasharray="" stroke-dashoffset="0" font-family="none" font-weight="none" font-size="none" text-anchor="none" style="mix-blend-mode: normal">
        <path d="M256,344.5c-36,0 -72,-15 -72,-31l-0.5,-46.5c48.5,0 96.5,0 145,0l-0.5,46.5c0,16 -36,31 -72,31z" id="curve13" fill="#f5a557"/>
        <path d="M337.5,299c13.5,25.5 10.5,22 -17.5,77.5l-64,127.5l-64,-127.5c-28,-55.5 -30.5,-52.5 -17,-78c3,-4.5 6,-8.5 8.5,-10.5c2,12.5 37,28 72.5,28c35.5,0 70.5,-15.5 72.5,-28c2.5,2 6,6.5 9,11z" id="curve12" fill="url(#color-1)"/>
        <path d="M256,311l-36,55.5c-17.5,-5.5 -28,-16 -36.5,-26c7.5,8 19.5,12 29,12.5l43.5,-42l36.5,55.5c17.5,-5.5 28,-16 36,-26c-7,8 -19,12 -29,12.5z" id="curve11" fill="url(#color-2)"/>
        <path d="M337.5,299c4,6.5 7.5,14 9.5,18c85,44.5 101,74.5 101,134.5c0,45.5 -112,60.5 -192,60.5c-50,0 -192,-8.5 -192,-60.5c0,-60 16,-90 101,-134.5c2,-4.5 6,-12 10,-18.5c-13.5,25.5 -12.5,23 17,78l64,119.5l64,-119.5c29.5,-55 31,-52 17.5,-77.5z" id="curve10" fill="url(#color-3)"/>
        <path d="M256,512l-48,-45l27.5,-112.5c-5,-4 -8.5,-9 -10.5,-15l31,-23.5l18.5,14l12.5,9.5c-2,6 -5.5,11 -10.5,15l27.5,112.5z" id="curve9" fill="url(#color-4)"/>
        <path d="M231,350c-2.5,-3 -4.5,-6 -5.5,-9.5l0.5,-0.5c-0.5,0 -0.5,-0.5 -1,-0.5l7,-5l17.5,-13.5l0,0l6.5,-5l18.5,14l7,5.5l0,0l5.5,4c-0.5,0 -0.5,0.5 -0.5,0.5l0,0c-1,3.5 -3,7 -5,9.5l-0.5,-0.5c-8,3.5 -16,5 -25,5c-8.5,0 -17,-1.5 -24.5,-5z" id="curve8" fill="url(#color-5)"/>
        <path d="M153,332.5c1,-2 5,-6.5 10,-12.5c3,-3 6,-7.5 12,-8c-5.5,14 6.5,30.5 18.5,55.5l62.5,129.5l62.5,-129.5c12,-25 24.5,-41 19,-55c6,1 8.5,5.5 11.5,8.5c9.5,10.5 9,9.5 10,11.5l8,58l-37,3l38,19.5l-96,99c-5.5,0 -10.5,0 -16,0c-5.5,0 -10.5,0 -16,0l-96,-99l38,-19.5l-37,-3z" id="curve7" fill="url(#color-6)"/>
        <path d="M153,320.5c1,-2 5,-6.5 10,-13c3,-3.5 6,-8 12,-9c-5.5,15 6.5,33 18.5,59.5l62.5,138l62.5,-138c12,-26.5 24.5,-43.5 19,-59c6,1 8.5,6 11.5,9c9.5,11.5 9,10.5 10,12.5l8,61.5l-37,3.5l38,21l-96,105.5c-5.5,0 -10.5,0 -16,0c-5.5,0 -10.5,0 -16,0l-96,-105.5l38,-21l-37,-3.5z" id="curve6" fill="url(#color-7)"/>
        <path d="M256,32c96,0 128,67.5 128,134.5c0,84 -64,153.5 -128,153.5c-64,0 -128,-69.5 -128,-153.5c0,-67 32,-134.5 128,-134.5z" id="curve5" fill="url(#color-8)"/>
        <path d="M256,162c-5.5,0 -6.5,4 -8,8l-5,16c-4.5,13 -16.5,22 -30.5,22l-25,0c-31,0 -37,-24.5 -36.5,-50.5c0.5,-5.5 1.5,-11.5 5,-16.5c6.5,-8.5 15.5,-13 26,-13l36,0c7.5,0 15,2.5 20.5,7.5c3,2.5 6.5,4 10.5,4l14,0c4,0 7.5,-1.5 10.5,-4c5.5,-5 13,-7.5 20.5,-7.5l36,0c10.5,0 19.5,4.5 26,13c3.5,5 4.5,11 5,16.5c1,26 -5.5,50.5 -36.5,50.5l-25,0c-14,0 -26,-9 -30.5,-22l-5,-16c-1.5,-4 -2.5,-8 -8,-8z" id="curve4" fill="url(#color-9)"/>
        <path d="M324.5,192l-25,0c-7,0 -13,-4.5 -15,-11l-5.5,-16c-1.5,-5 -1,-10 2,-14.5c3.5,-4.5 8,-6.5 13,-6.5l10,0l26,0c5,0 9.5,2 12.5,6.5c2,2.5 2,5 2.5,7.5c0,8.5 0,22.5 -6,29c-3.5,4 -9.5,5 -14.5,5z M187.5,192l25,0c7,0 13,-4.5 15,-11l5.5,-16c1.5,-5 1,-10 -2,-14.5c-3.5,-4.5 -8,-6.5 -13,-6.5l-10,0l-26,0c-5,0 -9.5,2 -13,6.5c-1.5,2.5 -2,5 -2,7.5c0,8.5 0,22.5 6,29c3.5,4 9.5,5 14.5,5z" id="curve3" fill="url(#color-10)"/>
        <path d="M256,349c35.5,0 64,-29 64,-65.5c0,-24 -19,-43.5 -42.5,-43.5l-43,0c-23.5,0 -42.5,19.5 -42.5,43.5c0,36.5 28.5,65.5 64,65.5z M232,256l48,0c4.5,0 8,3.5 8,8c0,4.5 -3.5,8 -8,8l-48,0c-4.5,0 -8,-3.5 -8,-8c0,-4.5 3.5,-8 8,-8z" id="curve2" fill="url(#color-11)"/>
        <path d="M134.5,140c-14,-1 -22.5,-9 -22.5,-28c6,-32 33.5,-64 76.5,-64c-16.5,11 -20.5,19 -20.5,27.5c0,6.5 3.5,11 7,19.5c6.5,16.5 -11.5,47 -40.5,45z" id="curve1" fill="url(#color-12)"/>
        <path d="M377.5,140c14.5,-1 22.5,-9 22.5,-28c-6,-32 -33.5,-64 -76,-64c16,11 20.5,19 20.5,27.5c0,6.5 -4,11 -7.5,19.5c-6.5,16.5 12,47 40.5,45z" id="curve0" fill="url(#color-13)"/>
    </g>
</svg>