<?xml version="1.0" encoding="UTF-8"?>
<!DOCTYPE svg PUBLIC "-//W3C//DTD SVG 1.1//EN" "http://www.w3.org/Graphics/SVG/1.1/DTD/svg11.dtd">
<svg version="1.1" id="Layer_1" xmlns="http://www.w3.org/2000/svg" xmlns:xlink="http://www.w3.org/1999/xlink" x="0px" y="0px" width="24px" height="24px" viewBox="0 0 24 24" enable-background="new 0 0 24 24" xml:space="preserve">
  <g id="icon">
    <path d="M21.7006,5.5265c-0.4945,-1.9248,-2.1095,-3.6679,-3.9273,-4.2389c-0.2664,-0.0838,-0.5388,-0.1353,-0.8044,-0.1856c-0.1185,-0.0224,-0.2369,-0.0447,-0.3544,-0.07l-0.9757,-0.0065l-0.073,0.0138c-0.0157,0.005,-0.0312,0.0108,-0.047,0.0169c-0.0031,0.0012,-0.0063,0.0024,-0.0093,0.0036c-1.3364,0.1453,-2.4847,0.7198,-3.5102,1.7561C9.9849,4.8514,7.9295,6.9149,5.9417,8.9104l-0.0361,0.0361c-0.7938,0.7969,-1.5877,1.5938,-2.3802,2.3902l-0.0381,0.0378c-0.0342,0.0338,-0.0684,0.0676,-0.1006,0.1028c-0.3571,0.3888,-0.3518,0.9577,0.0123,1.3233c0.1786,0.1792,0.4129,0.2779,0.6596,0.2779c0.2399,0,0.4746,-0.0942,0.6608,-0.2655c0.0423,-0.039,0.0826,-0.0802,0.1213,-0.12l2.5057,-2.5195c1.996,-2.0068,4.06,-4.0819,6.0929,-6.1197c0.9455,-0.9479,2.0994,-1.3052,3.4108,-1.0576c1.6154,0.3051,3.0496,1.9974,3.1319,3.6955c0.0557,1.1464,-0.3179,2.1061,-1.1421,2.9338c-2.4635,2.4741,-4.9263,4.9493,-7.389,7.4244l-2.9847,2.9998c-0.0271,0.0272,-0.0539,0.0547,-0.0808,0.0823c-0.0599,0.0616,-0.1218,0.1253,-0.1843,0.1814c-0.8195,0.7378,-1.7141,0.9298,-2.6558,0.5693c-0.7694,-0.2949,-1.3095,-0.9226,-1.482,-1.7222c-0.1797,-0.8332,0.0842,-1.7059,0.7062,-2.3345c2.6179,-2.646,5.4505,-5.4903,8.9145,-8.9513c0.1611,-0.161,0.3841,-0.2988,0.6117,-0.3781c0.1436,-0.05,0.2883,-0.0753,0.4302,-0.0753c0.0576,0,0.1121,-0.0013,0.1638,-0.0026c0.0441,-0.001,0.086,-0.0021,0.1263,-0.0021c0.1837,0,0.3811,0.1167,0.4964,0.2393c0.1875,0.1994,0.1136,0.2926,0.0922,0.6412c-0.0233,0.3775,-0.1859,0.713,-0.4972,1.0253c-1.7498,1.7554,-3.4979,3.5122,-5.2515,5.2748l-1.5488,1.5567l-0.0379,0.0375c-0.0427,0.0419,-0.091,0.0895,-0.1367,0.1442c-0.2005,0.2402,-0.2708,0.562,-0.1879,0.8611c0.0837,0.3018,0.3025,0.5344,0.6002,0.6378c0.1055,0.0368,0.2113,0.0554,0.3145,0.0554c0.2611,0,0.5023,-0.115,0.7371,-0.3515c2.6487,-2.6666,4.823,-4.8517,6.8426,-6.8769c0.5953,-0.5971,0.9352,-1.2893,1.0392,-2.1163c0.1057,-0.84,-0.0773,-1.5351,-0.5593,-2.1251c-0.5604,-0.686,-1.2778,-0.8272,-1.9058,-0.8747c-1.0391,-0.0787,-1.954,0.2664,-2.7044,1.0205l-8.7967,8.8393c-0.0702,0.0705,-0.1396,0.1419,-0.2071,0.2152c-1.0785,1.1738,-1.4485,2.7728,-0.9895,4.2774c0.4504,1.4764,1.6195,2.5739,3.1274,2.9357c0.109,0.0261,0.2188,0.0494,0.3293,0.073l0.1509,0.0323l0.9335,0.0067l0.0519,-0.0203c0.0106,-0.0042,0.0212,-0.0089,0.0322,-0.014c0.9673,-0.1206,1.8763,-0.6225,2.7777,-1.5337c0.8309,-0.8399,1.6836,-1.6713,2.5081,-2.4754c0.7333,-0.7152,1.4915,-1.4545,2.2246,-2.1905l0.2917,-0.2928c0.5901,-0.5924,1.1802,-1.1848,1.7699,-1.7777c0.3775,-0.3794,0.7566,-0.7571,1.1358,-1.1348l0.0316,-0.0314c0.8747,-0.8713,1.7792,-1.7722,2.6485,-2.6804C21.6741,9.3889,22.1869,7.4196,21.7006,5.5265z" fill="#AAB2BD"/>
    <path d="M15.5927,8.4073l1.5938,-1.5938c0.2788,0.5006,0.375,1.0712,0.2919,1.7316c-0.104,0.827,-0.4439,1.5192,-1.0392,2.1163c-2.0195,2.0251,-4.1939,4.2102,-6.8426,6.8769c-0.2349,0.2366,-0.476,0.3515,-0.7371,0.3515c-0.1032,0,-0.209,-0.0187,-0.3145,-0.0554c-0.2977,-0.1034,-0.5165,-0.336,-0.6002,-0.6378c-0.0829,-0.299,-0.0126,-0.6208,0.1879,-0.8611c0.0457,-0.0547,0.094,-0.1023,0.1367,-0.1442l0.0379,-0.0375l1.5488,-1.5567c1.7537,-1.7625,3.5017,-3.5194,5.2515,-5.2748C15.3881,9.0409,15.5468,8.7403,15.5927,8.4073zM20.6298,3.3702l-1.3423,1.3423c0.4031,0.5965,0.6611,1.2873,0.6946,1.9791c0.0557,1.1464,-0.3179,2.1061,-1.1421,2.9338c-2.4635,2.4741,-4.9263,4.9493,-7.389,7.4244l-2.9847,2.9998c-0.0271,0.0272,-0.0539,0.0547,-0.0808,0.0823c-0.0599,0.0616,-0.1219,0.1253,-0.1843,0.1814c-0.8195,0.7378,-1.7141,0.9298,-2.6558,0.5693c-0.5734,-0.2198,-1.0192,-0.6246,-1.2806,-1.1474L2.898,21.102c0.5932,0.8579,1.4846,1.4771,2.545,1.7316c0.1091,0.0261,0.2188,0.0494,0.3293,0.0729l0.1509,0.0323l0.9335,0.0067l0.0519,-0.0203c0.0106,-0.0042,0.0212,-0.0089,0.0322,-0.014c0.9673,-0.1206,1.8763,-0.6225,2.7777,-1.5337c0.8309,-0.8399,1.6836,-1.6713,2.5082,-2.4754c0.7333,-0.7152,1.4915,-1.4545,2.2246,-2.1905l0.2917,-0.2928c0.5901,-0.5924,1.1802,-1.1848,1.7699,-1.7777c0.3775,-0.3794,0.7566,-0.7571,1.1358,-1.1348l0.0316,-0.0314c0.8747,-0.8713,1.7792,-1.7722,2.6485,-2.6804c1.3454,-1.4055,1.8583,-3.3748,1.372,-5.2679C21.5031,4.7576,21.1264,4.018,20.6298,3.3702z" fill="#8E949C"/>
  </g>
</svg>
