<svg version="1.1"
    xmlns="http://www.w3.org/2000/svg"
    xmlns:xlink="http://www.w3.org/1999/xlink" width="512" height="512" viewBox="0 0 512 512">
    <title>blackboard icon</title>
    <desc>blackboard icon from the IconExperience.com G-Collection. Copyright by INCORS GmbH (www.incors.com).</desc>
    <defs>
        <linearGradient x1="0" y1="64" x2="143.059" y2="448" gradientUnits="userSpaceOnUse" id="color-1">
            <stop offset="0" stop-color="#e89953"/>
            <stop offset="1" stop-color="#cb6b16"/>
        </linearGradient>
        <linearGradient x1="32" y1="96" x2="477.2183" y2="416.001" gradientUnits="userSpaceOnUse" id="color-2">
            <stop offset="0" stop-color="#51616f"/>
            <stop offset="1" stop-color="#3a454f"/>
        </linearGradient>
        <linearGradient x1="32" y1="96" x2="480.0003" y2="106.6665" gradientUnits="userSpaceOnUse" id="color-3">
            <stop offset="0" stop-color="#4a5965"/>
            <stop offset="1" stop-color="#38434d"/>
        </linearGradient>
        <linearGradient x1="60.32897" y1="129.43922" x2="199.61297" y2="223.95322" gradientUnits="userSpaceOnUse" id="color-4">
            <stop offset="0" stop-color="#fefeff"/>
            <stop offset="1" stop-color="#f2f4f8"/>
        </linearGradient>
    </defs>
    <g fill="none" fill-rule="evenodd" stroke="none" stroke-width="1" stroke-linecap="butt" stroke-linejoin="miter" stroke-miterlimit="10" stroke-dasharray="" stroke-dashoffset="0" font-family="none" font-weight="none" font-size="none" text-anchor="none" style="mix-blend-mode: normal">
        <path d="M16,64l480,0c9,0 16,7 16,16l0,352c0,9 -7,16 -16,16l-480,0c-9,0 -16,-7 -16,-16l0,-352c0,-9 7,-16 16,-16z" id="curve3" fill="url(#color-1)"/>
        <path d="M32,96l448,0l0,320l-448,0z" id="curve2" fill="url(#color-2)"/>
        <path d="M480,96l0,16l-448,0l0,-16z" id="curve1" fill="url(#color-3)"/>
        <path d="M63,202c-1.5,-1.5 -2.5,-3 -2.5,-5c-1,-5.5 2.5,-10.5 8,-11.5c2.5,-7 5.5,-14.5 9.5,-21.5c5,-10.5 14,-26 24,-33c4.5,-3 10.5,-1.5 13.5,3c1,1 1.5,2.5 1.5,4c0.5,3 1,5.5 1.5,8c2,9.5 3.5,19.5 5.5,29c2.5,11 5.5,24.5 11,34.5c2.5,5 0.5,11 -4.5,13.5c-4.5,2.5 -10.5,0.5 -13,-4.5c-3.5,-6 -5.5,-12.5 -7.5,-18.5l-27,3.5c-1.5,4 -2.5,8.5 -3,12.5c-1,5.5 -6.5,9 -12,8c-5,-1 -8.5,-6.5 -7.5,-12c0.5,-3 1.5,-6.5 2.5,-10z M287,188.5c4,-4 10,-4 14,0c4,3.5 4,10 0,14c-6,6 -13.5,11.5 -21.5,15.5c-7,3.5 -15.5,6.5 -23,6c-7.5,-0.5 -14.5,-3 -20,-8.5c-5,-5 -8,-12.5 -8.5,-20c0,-17 8.5,-35.5 20,-47.5c12.5,-12.5 28.5,-18 46,-18.5c5.5,0 10,4.5 10,9.5c0,5.5 -4.5,10 -9.5,10.5c-12.5,0 -23.5,4 -32,12.5c-8.5,8.5 -14.5,21.5 -14.5,33.5c0,2 1,4.5 2.5,6c2,2 4.5,2.5 6.5,2.5c4.5,0.5 10,-1.5 14,-3.5c6,-3 11.5,-7.5 16,-12z M202.5,177c5.5,4.5 8,10 8,17c0,0.5 0,1 0,1.5c0,13 -6,21.5 -18.5,25.5c-9,3 -19.5,3 -28.5,3c-5.5,0 -10,-4.5 -10,-10l0,-74.5c0,-5.5 4.5,-10 10,-10c10,0 22,2 31,6.5c8.5,4.5 16,11.5 16,22c0,0.5 0,1 0,2c0,6.5 -3,12.5 -8,17z M91,182.5l14,-2c-1.5,-6 -2.5,-12.5 -3.5,-18.5c-2.5,3.5 -4,7 -6,10.5c-1.5,3.5 -3,6.5 -4.5,10z M173.5,204c4,0 8.5,-0.5 12.5,-1.5c3.5,-1.5 5,-3.5 5,-7.5l0,0c0,-2.5 -2,-4 -4,-5c-4,-2 -9,-3 -13.5,-3z M173.5,167c4.5,-0.5 10,-1 14,-3.5c2,-1 3.5,-2.5 3.5,-4.5c0,-0.5 0,-0.5 0,-0.5c0,-2 -4,-4 -5.5,-5c-3.5,-1.5 -8,-3 -12,-3.5z" id="curve0" fill="url(#color-4)"/>
    </g>
</svg>