<svg version="1.1"
    xmlns="http://www.w3.org/2000/svg"
    xmlns:xlink="http://www.w3.org/1999/xlink" width="512" height="512" viewBox="0 0 512 512">
    <title>brain icon</title>
    <desc>brain icon from the IconExperience.com G-Collection. Copyright by INCORS GmbH (www.incors.com).</desc>
    <defs>
        <radialGradient cx="162.61876" cy="164.08598" r="441.8777" fx="162.61876" fy="164.08598" gradientUnits="userSpaceOnUse" id="color-1">
            <stop offset="0" stop-color="#717f8f"/>
            <stop offset="1" stop-color="#51616f"/>
        </radialGradient>
        <radialGradient cx="161.35493" cy="160.58662" r="449.79855" fx="161.35493" fy="160.58662" gradientUnits="userSpaceOnUse" id="color-2">
            <stop offset="0" stop-color="#b3c0cd"/>
            <stop offset="1" stop-color="#91a0af"/>
        </radialGradient>
        <radialGradient cx="163.15104" cy="160.75215" r="432.25376" fx="163.15104" fy="160.75215" gradientUnits="userSpaceOnUse" id="color-3">
            <stop offset="0" stop-color="#d8e0e8"/>
            <stop offset="1" stop-color="#b3c0cd"/>
        </radialGradient>
    </defs>
    <g fill="none" fill-rule="evenodd" stroke="none" stroke-width="1" stroke-linecap="butt" stroke-linejoin="miter" stroke-miterlimit="10" stroke-dasharray="" stroke-dashoffset="0" font-family="none" font-weight="none" font-size="none" text-anchor="none" style="mix-blend-mode: normal">
        <path d="M255,501.5c-20,17.5 -64.5,13.5 -74.5,-10.5c-1.5,-3.5 -2.5,-6.5 -3.5,-9.5c-15.5,3.5 -34,-2 -46.5,-11c-10,-7 -20.5,-17 -29.5,-25.5c-7,-6 -14,-13 -20,-20c-2.5,-2.5 -5.5,-6 -7.5,-9c-3.5,-6 -5,-13 -2.5,-19c-3,-2 -6,-4 -9,-6.5c-16.5,-14 -24,-40.5 -12.5,-58.5c-4.5,-3 -8,-6.5 -10.5,-10.5c-8.5,-13 -6,-31.5 -6,-46c0,-9.5 4.5,-18 11,-23.5c-7.5,-16 -7,-38.5 -2.5,-53c1.5,-5 3.5,-10.5 5,-15.5c6.5,-22 17.5,-62.5 37,-75.5c3,-2.5 6.5,-4 10,-5c-0.5,-17.5 15,-36 25.5,-47c11,-11.5 29.5,-27 46,-27.5c3.5,0 7.5,0.5 10.5,1c1.5,-18.5 23,-25.5 38.5,-25.5c16,0 30.5,6 41,17c13.5,-19.5 42,-28 64,-13.5c2.5,1.5 4.5,4 6.5,6.5c7.5,-2.5 15.5,0 22.5,4.5c10,6 18.5,14 23,24c14,3 27.5,14.5 31.5,27.5c2.5,0.5 4.5,1.5 6.5,2.5c9,4 15.5,11 20.5,18.5c4,6.5 7,13.5 11,19c5.5,8.5 10.5,20.5 14,30c4,11 11,30 6.5,43c2.5,1.5 4.5,3 6.5,5.5c15,15.5 9.5,40 9,59.5c0,2.5 -1,4.5 -1.5,6.5c4,5 5.5,12 5.5,19c0,15.5 -0.5,31 -4.5,46.5c-0.5,2 -1,4 -1.5,5.5c-2,6 -4,11.5 -8,15.5c8,19.5 -3.5,40 -19,53.5c-1,1 -2,1.5 -3,2.5c-0.5,13 -10,26 -18,34.5c-6.5,6 -13.5,10.5 -21.5,13c-4.5,11 -13.5,20.5 -22.5,26.5c-9.5,6 -21.5,9.5 -33,10c-1,0 -2,0 -3,0c-2,9.5 -11.5,15.5 -19.5,20c-19.5,10.5 -53.5,17 -72,0.5z" id="curve2" fill="url(#color-1)"/>
        <path d="M414.5,318c-7.5,-8.5 -21.5,-12.5 -32,-12c-3,0 -6,0.5 -8.5,2c-0.5,0.5 -2,1.5 -2.5,2.5c-0.5,2 4,4.5 5.5,5.5c3,1.5 7,4 8,8c1,3.5 0,12 -0.5,16c-0.5,3 -0.5,7 -0.5,10c0.5,4 2.5,9 4,13c1.5,4 3.5,7.5 5,11.5c1,1.5 3,5.5 3,7c0,1 0,2 -1,3.5c-2,4 -8,4 -12.5,4c-3,0 -6.5,-0.5 -9.5,-1.5c-8.5,-2.5 -14.5,-8.5 -15.5,-17.5l0,-0.5l-0.5,0c-3,7.5 -8.5,13.5 -16.5,15c-9.5,1 -19.5,-6 -26,-12.5c-3,-3 -6,-6.5 -8,-10.5c-0.5,0 -0.5,0 -0.5,0l0,0.5c4.5,8 6.5,16 6,25.5c0,2.5 -0.5,5.5 -0.5,8c-0.5,1.5 -0.5,3.5 0.5,4.5c2,2 7.5,-1 9.5,-1.5c16,-7.5 37.5,-2.5 54,0.5c11,2 22,2 32.5,-2.5c1,-1 2.5,-2 4,-3c3,-2 7.5,-5.5 11.5,-4c1,0.5 2,1.5 3,3c2.5,5 -1.5,12 -4.5,16.5c-2,3 -5,7.5 -8,10c-6,6 -14.5,11.5 -23.5,10c0,0 0,0 0,0.5c2,12.5 -10.5,22.5 -20.5,27.5c-8,4.5 -27,11.5 -34.5,2.5c-0.5,-0.5 -1,-1 -1.5,-2c-2.5,-5.5 4.5,-13 8.5,-16.5l0,0l-0.5,-0.5l0,0c-8.5,3 -19,6.5 -26.5,11.5c-2,1.5 -6.5,4.5 -6.5,8c0.5,3.5 7,7.5 10,9c2,1 3.5,2 5.5,3c2,1.5 3.5,3 3.5,5.5c0,2.5 -2,4 -4,5.5c-2,1 -4,2 -6,3c-9.5,5 -20.5,8.5 -31,8.5c-8.5,0 -21.5,-2 -23,-12.5c-1.5,-14 -2,-34.5 3.5,-47.5c1,-3 5,-4 8,-5c3.5,-0.5 7.5,-1 11,-1.5c3,-0.5 6,-1 9,-1.5c1.5,0 3.5,-0.5 5.5,-1l0,-0.5c-9.5,-2.5 -23,-5 -31,-11c-7,-6 -7.5,-14 -6.5,-22.5c0,-5 1.5,-12.5 6.5,-15.5c0,0 1,-0.5 1.5,-1l-1,-0.5l-0.5,-0.5c-4.5,-5 -6.5,-15 -7,-21c-0.5,-7.5 0,-15.5 5.5,-21c7,-7 18,-5 26.5,-1.5c6.5,3 13,6 20,8.5c14.5,5 23.5,4 37,-2.5c0.5,-0.5 0,-0.5 0,-0.5c-7,-1 -15.5,-2.5 -20.5,-7.5c-9,-9 -6,-27.5 -3.5,-38.5c2,-8 5,-18.5 13.5,-21.5c2,-1 6.5,-1 8.5,-1.5c4,0 8.5,-0.5 13,-0.5c6.5,-0.5 13,-1 19.5,-1c7.5,0 19,1 24,7c1.5,1.5 2.5,5.5 3.5,7.5c1.5,-2 3,-4 3,-7c0,-7 -7.5,-16 -12,-21.5c-3.5,-5 -7.5,-11 -8.5,-17l0,0c0,-0.5 -0.5,-0.5 -0.5,0l0,0c-0.5,2.5 -1,4.5 -2.5,6.5c-4.5,8 -16,11 -25,12c-6.5,0.5 -21.5,0.5 -27.5,-3c-3.5,-2.5 -3.5,-9 -3,-13c0,0 0,0 0,-0.5c-0.5,0 -0.5,0 -0.5,0c0,0 0,0 0,0.5c-1.5,4 -4.5,13.5 -9.5,14.5c-1.5,0.5 -4,0.5 -6,0c-2,0 -4.5,-0.5 -6.5,-0.5c-2,0 -4,0 -6,0.5l0,0l0,0l0,0.5c4,0.5 11,2 12.5,6c1,2 0.5,4.5 0,6.5c-0.5,2 -1.5,4.5 -2.5,6.5c-2.5,8.5 -3.5,16.5 -2.5,25c0.5,3 0.5,6.5 0.5,9.5c0,3.5 0.5,9.5 -2.5,12l-0.5,0.5l-1,0.5c-3,1 -8,-1.5 -10.5,-3c-2.5,-1 -5,-2 -7,-3.5c-2.5,-1 -6,-1.5 -9,-2.5c-5,-1 -12,-2.5 -14.5,-7.5c-1.5,-2 -1.5,-4 -1.5,-6.5c2,-14.5 2.5,-26.5 -1,-40.5c-1.5,-6.5 -1.5,-13.5 3.5,-18.5c3,-3 6.5,-4.5 10,-6c2.5,-1 6,-2.5 8,-4.5c0,0 0,-0.5 -0.5,-0.5c-10,-1.5 -16.5,-12.5 -19,-21.5c-2.5,-8.5 -4.5,-22.5 3,-29.5l0,0c-5,-9.5 -13,-23 -9.5,-33.5c3,-10 13,-14.5 21.5,-17c23.5,-7.5 49,-6.5 57.5,21l0.5,0c8.5,-9.5 -12.5,-33.5 -3,-49.5l0,-0.5l-0.5,0l0,0c-15,16.5 -27.5,17 -48,17.5c-5.5,0 -10.5,-1.5 -15,-5.5c-9.5,-8 -10.5,-24.5 -10.5,-36.5c-0.5,-10 0.5,-20 1,-30.5c0,-20 29,-28.5 44,-18.5c3,2 5,5 6.5,8c4.5,12 -4,27.5 -12,35.5c-0.5,0.5 -0.5,0.5 -1,0.5c-0.5,1 -3.5,5 -3,6.5c0.5,0 2,0.5 2.5,0.5c16.5,1.5 26,-3.5 27,-21c0,-5.5 -1,-12 -0.5,-17.5l1,-5l4.5,1.5c12,4.5 24.5,17 23,30.5c0,0.5 0.5,0.5 0.5,0c9.5,-8 26.5,5.5 29,15.5l1,3l-3,1.5c-1.5,0.5 -4.5,1.5 -5,3c-1,1.5 2.5,4.5 3.5,5c1.5,1.5 5,3.5 7,3c1,0 2,-2 2.5,-3l1,-3l3.5,0.5c1,0 2,0.5 3.5,1c7.5,2.5 12.5,10 16.5,16.5c3.5,5 6,11 9.5,16c7.5,11 18.5,40 19,53l0,7.5l-6,-3.5c-1.5,-1 -2.5,-1.5 -4,-1c-0.5,0.5 -0.5,0.5 -1,1c-2,1.5 -3.5,6.5 -4.5,9c-4,10 -11.5,13 -22.5,11.5l0,0c-0.5,0 -0.5,0 -0.5,0.5c0,0 0,0 0.5,0c3,1.5 5.5,3 7,6.5c1,2 1,5 1.5,7.5c0,0 0.5,1 0.5,1.5c1.5,-0.5 3.5,-3 4,-4c7.5,-10 15.5,-18 29,-13c12,4.5 11.5,22 11,32.5c-0.5,3.5 0,7 -0.5,11c-0.5,6 -2.5,14.5 -10,15l-1.5,0.5l-1.5,-1c-3,-3 -3,-11.5 -3,-15.5c0,-0.5 -0.5,-0.5 -0.5,0c-4,3.5 -5,11.5 -5,16.5c0,4.5 0.5,9 2,13c0.5,1.5 2,5 3.5,5.5c0.5,0 0.5,0 0.5,0c2,0 4.5,-2 6,-3c2,-1.5 4,-3.5 6.5,-5l5,-2.5l1,5.5c0,1.5 0.5,3 0.5,4.5c0,13.5 -1.5,43 -8.5,54l-3,4.5l-3.5,-4c-2.5,-3 -6,-11.5 -7.5,-16l0,0l-0.5,0l0,0c-0.5,11 1.5,22 7.5,31c9.5,14 -2,29.5 -12,38.5c-1.5,1.5 -3,2 -4.5,2.5c-11.5,3 -26,-13 -30,-22c-3.5,-7.5 -5.5,-15.5 -5,-24c1,-6.5 4,-15.5 10.5,-18.5c1.5,-1 5,-1 7.5,-1.5z M215.5,209c-0.5,-0.5 -1.5,-1 -2,-1.5c-9.5,-3.5 -17,-10 -17.5,-21.5c0,-3 1,-6 1.5,-9.5c0.5,-0.5 1,-3 1,-4.5c-0.5,0.5 -0.5,0.5 -0.5,0.5c-8,7 -18,11 -28.5,12c-8.5,1 -17.5,0.5 -26,-1.5c-13,-3.5 -16.5,-11 -17,-24c0,-5.5 0.5,-11 0.5,-16.5c0,-6.5 -0.5,-15 -4,-20.5c-1.5,-2 -3,-4 -4.5,-6c-2.5,-3 -4.5,-6 -6.5,-9.5c-2.5,-5 0.5,-12.5 3,-17c7,-13.5 22,-28.5 35,-37c4,-3 10.5,-6.5 15.5,-6.5c12.5,-0.5 17.5,4 19.5,16.5c2.5,15.5 6,20 22.5,17c2.5,-0.5 9,-1.5 10,-5c1,-4 -8,-12.5 -10.5,-15.5c-6.5,-8.5 -12,-17 -14,-27.5l0,-0.5l0,-0.5c0,-5 6.5,-7 11,-8c2.5,-1 6,-1.5 9,-1.5c13.5,-0.5 25.5,6 32,18.5c9,17 9,50 -3,65c-3.5,4.5 -10,6.5 -15,8c-16,3.5 -44,2.5 -56,-10c-1,-0.5 -4.5,-4.5 -5.5,-4c-1.5,2 2,14.5 2.5,17c1.5,13 0,21 -6.5,32c-1,1 0,0.5 1,0c3,-3 6.5,-6.5 10,-9.5c10,-8 21,-14 34,-13c10,0.5 32,-0.5 38,7.5c8.5,10 1.5,30.5 -6.5,38.5c0,0.5 0,0.5 0,0.5c1,0 2,0 3,0.5c7,2 9,14 9.5,20.5c0.5,5.5 1,11.5 1,17c0,13.5 -0.5,34.5 -15.5,40c-4,1 -8.5,1.5 -13,1.5c-8,-0.5 -17.5,0 -25.5,-2c-4.5,-1 -9,-3 -13.5,-4c-2.5,-1 -7,-2 -9.5,-0.5c-3,2.5 -5,6 -8.5,7.5c-5,1.5 -10,-3.5 -13,-6.5c-3,-2.5 -8,-9.5 -12,-8c-6,2 -6,16 -6,21c0.5,4 1,7.5 1.5,11.5c0.5,2.5 2.5,9 5.5,9c3,0.5 5,-4.5 6,-6.5l0,-0.5l0.5,0c4,-6 21,-8 28,-8.5c5,-1 10,-1.5 15,-1.5c3.5,-0.5 7,-0.5 10.5,-0.5c13.5,0 33,1.5 45,9c5,3 4,14.5 3.5,19.5c0,3 -0.5,6 -0.5,8.5c-0.5,2 -0.5,4 -0.5,6c-0.5,12.5 0.5,24.5 0.5,37c0,9 -0.5,19 -4.5,27c-4.5,8 -12,12.5 -20.5,15.5c-4,1.5 -9,2.5 -13,3c-5,1 -14.5,2 -17.5,-3.5c-1.5,-2 -1,-4.5 0,-6.5c4.5,-10.5 9.5,-20.5 13,-31c3,-8.5 7,-16 8,-25c1.5,-12 -3,-22 -10.5,-31l0,0c0,-0.5 -0.5,0 -0.5,0l0,0c2,5 4,10.5 2.5,16c-1,4 -3.5,7 -7,9c-11,6 -29,5.5 -41,6c-9.5,0.5 -23,1 -31,-4.5c-2.5,-2 -4,-4 -5.5,-7c-1.5,-2.5 -5,-9.5 -9,-9c-5.5,1 -6.5,17 -6.5,21.5c0,4 0,8 0.5,12c0,2 1.5,9.5 4,10c1,0 4,-2 5,-3c1.5,-1 3,-2.5 5,-4c4,-2.5 8.5,-4.5 13,-5c6,-0.5 13.5,0 17,5.5c3,5 0,12 -3,16.5c0,0 0,0 0,0.5l0.5,0l0,0c3.5,-3 6,-6 9,-9.5c6,-8.5 7.5,-12 18.5,-14c5,-0.5 15.5,-2.5 19,2c2.5,4 0,10.5 -1.5,14.5c-1.5,3 -3,6 -5,9c-7.5,14 -12,24 -11,40c0.5,5 -2.5,11.5 -4.5,15.5c-1.5,4.5 -4,10 -4.5,14.5l0,0.5l0.5,0l0,0c4,-11.5 20,-20.5 31,-24c11,-3.5 25,-5.5 35.5,1c6,3.5 9.5,9 11.5,15.5c6,20 5,45 -1,65.5c-2.5,9 -18,10.5 -26,10c-7.5,-0.5 -21,-3 -24,-11c-2,-5 -4.5,-10.5 -4,-16c0.5,-8.5 7.5,-13.5 15,-16c-1.5,-1.5 -5,-3 -6.5,-3c-7,-1 -13,5.5 -17,10c-10.5,11.5 -32.5,5 -43.5,-2.5c-9.5,-7 -19,-16 -28,-24c-7.5,-7 -15.5,-14.5 -22,-22.5l-6,-8l10,1.5c7,1 14.5,-0.5 21.5,-1.5c4.5,-1 13,-3 17,0.5c1.5,1.5 4.5,4 7,3c4.5,-2 4,-12.5 4,-16c0,-3 -0.5,-6.5 -1,-9.5c-0.5,-1.5 -2,-7 -4.5,-6.5c-1,0.5 -2,1 -3,1.5c-0.5,1 -1.5,2 -2.5,3.5c-1,1.5 -2,3 -3.5,4.5c-4.5,4 -9.5,5.5 -15.5,5.5c-6,0 -12,0 -18.5,-1c-18.5,-3.5 -40,-21.5 -33.5,-42.5c1.5,-4.5 4.5,-8 8.5,-10c2.5,-1.5 5.5,-6.5 5,-9.5c-0.5,-3.5 -5,-4.5 -8,-5c-5,-0.5 -11.5,-4 -14,-8.5c-3,-4 -3.5,-10.5 -3.5,-15.5c0,-7 0,-14 0,-21c0,-15 30,-25.5 35,-2.5c0.5,1.5 1.5,5.5 3,5.5c0.5,0 0.5,0 0.5,0c2,-0.5 3.5,-6.5 4,-8c1,-3.5 1.5,-7 1.5,-10.5c0.5,-3.5 1,-7.5 0.5,-11c0,-2 -0.5,-8 -3,-9c-0.5,0 -1,0 -1,0c-2.5,0.5 -5,4 -6.5,5.5c-4,4.5 -8.5,10 -15,8c-8.5,-2 -11.5,-13 -12.5,-20c-1,-5.5 -1.5,-12.5 -1,-18c0.5,-5 2,-10.5 3.5,-15.5c1.5,-6.5 3.5,-13 6,-19.5c3.5,-11 7.5,-22.5 11.5,-33c3.5,-8 9,-20.5 16.5,-25.5c3,-2 6.5,-3.5 10.5,-2c4,2 6,6.5 7,10.5c4,11 4.5,27 3.5,38.5c-1,12.5 -8.5,23 -20,28l-0.5,0l-1,0c-2.5,0 -5.5,0.5 -8,1c-1,0.5 -3,1.5 -3,2c-0.5,1.5 2,4 3,4.5c2.5,2.5 6.5,4.5 9.5,6c2,0.5 9,3.5 10.5,2c0.5,-0.5 0.5,-1.5 0.5,-2c0,-4.5 4.5,-7.5 8,-9c8.5,-4 20,-5.5 29,-6.5c12,-1 27,-5 38.5,0.5c6.5,3 10.5,8.5 12.5,15.5c1,3 9,2.5 11.5,2c1.5,0 2.5,0 4,-0.5c1.5,-0.5 6,-2 7,-3.5z M409.5,153.5l0,0c-11,-1.5 -16.5,-8 -22.5,-16.5c-3,-4 -6,-8 -10,-12l0,0l-0.5,0.5l0,0c1,1.5 1.5,3 2,4.5c2,9 0,18 -4,26c-9.5,16 -32,24.5 -50,25.5c-4.5,0 -9.5,0 -13,-3.5c-3,-2.5 -4,-7 -3.5,-11l0,0l-0.5,0l0,0c-1.5,4.5 -1.5,9 -1,13.5c0.5,6 4,19 11.5,20c7,0.5 15,-18 30.5,-14.5c11,2.5 15.5,17.5 17,27c0,0.5 0.5,0.5 0.5,0c2,-4 2.5,-9.5 3.5,-14c4,-14 11,-31.5 23.5,-40c5,-3.5 10.5,-5 16.5,-5l0,0c0,0 0,0 0,-0.5z" id="curve1" fill="url(#color-2)"/>
        <path d="M449.5,303.5c1,-6.5 1,-13 1.5,-18.5c-3.5,1.5 -7.5,2 -11.5,0c-10,-4.5 -13,-19.5 -13,-29.5c0,-8.5 2,-19 8.5,-25.5c4,-3.5 9.5,-4 13.5,-2c0,-4 0.5,-7.5 0,-11.5c0,-2 -1,-8 -3,-8.5c-2,-1 -4,-1 -6,-0.5c-3.5,1.5 -7,6.5 -9,9.5c-1,1 -1.5,2 -2.5,2.5c-4,4 -9,7 -14,5.5c-5.5,-1 -8.5,-5.5 -9.5,-10.5c-0.5,-1 -0.5,-2.5 -1,-4c0,-0.5 0,-0.5 0,-1c-0.5,-0.5 -1,-0.5 -1,-0.5c-4.5,-2 -7.5,-6 -7.5,-11c0,-7.5 6.5,-13.5 14,-12.5c3,0.5 7,1 8.5,-1.5c1,-1 1,-2 1.5,-3c3,-6.5 4.5,-13 12,-16c0.5,0 0.5,0 1,-0.5c-3.5,-12.5 -11,-30.5 -15.5,-38c-3.5,-5 -6.5,-11 -9.5,-16c-2,-3 -4.5,-7.5 -8,-10c-1.5,1.5 -3.5,2.5 -6,3.5c-6.5,1.5 -12.5,-1.5 -17,-5c-6,-5 -11,-11.5 -8,-19.5c0.5,-2 2,-3.5 3.5,-5c-2.5,-2 -5,-3.5 -6.5,-3.5c-8.5,6 -20.5,-0.5 -19.5,-11c0,-3.5 -2,-7.5 -4.5,-10.5c0,1 0,2 0,2.5c-1,24.5 -17,34.5 -40,32.5c-5.5,-0.5 -10.5,-3 -12.5,-8c-3,-7 1.5,-15 6.5,-20c3,-2.5 5,-6 7,-9.5c2,-4 5,-12 0.5,-15.5c-3.5,-2 -8.5,-2.5 -13,-1.5c-5,0.5 -12.5,4 -13,10.5c0,10 -1,20 -0.5,30c0,4.5 0,9 1,13.5c0.5,4.5 2,11 5.5,14c2,2 4.5,2.5 7,2.5c17,-0.5 27,0 39,-13.5c3,-3.5 7.5,-5 12,-3.5c8,2 11.5,10.5 7.5,18c0,0 0,0.5 0,1c-1.5,4 1,12 2.5,16.5c3.5,11 8,24 -0.5,34c-6.5,7 -18,4.5 -21,-4.5c-2,-6 -5,-11.5 -11.5,-14.5c-9,-4 -21.5,-1.5 -30.5,1c-4,1.5 -12.5,4.5 -14,9.5c-2,6 5.5,19 8.5,24c2.5,5 1.5,11 -2.5,15c-1,1 -1,4 -1.5,5c0,4 0.5,8 2,12c1,4 5,12.5 9.5,13c9.5,2 13.5,13 7.5,20.5c-3.5,3.5 -7.5,5.5 -12,7.5c-6.5,3 -8.5,3 -7,10.5c4,15.5 3.5,28.5 1.5,44c2,1 5.5,1.5 7,2c3.5,1 7.5,1.5 11,3.5c1.5,0.5 3,1.5 4.5,2c0,-2.5 -0.5,-5 -0.5,-6c-1,-10.5 0,-20.5 3.5,-30c0,-1.5 0.5,-2.5 1,-3.5c-1,0 -2,-0.5 -2.5,-0.5c-13,-3 -12.5,-21.5 0.5,-24c3,-0.5 5.5,-0.5 8.5,-0.5c2,0 4.5,0.5 6.5,0.5c0.5,0 0.5,0 1,0c1,-2 2,-5 2.5,-6.5c4.5,-13.5 25,-9.5 23.5,5c0,0.5 0,1.5 0,2.5c2,0 4,0.5 5,0.5c4.5,0.5 8.5,0.5 13,0c4,-0.5 16,-2.5 16.5,-8c1.5,-14 22,-14.5 24,-0.5c1,3.5 4.5,8.5 7,11.5c2,3.5 4.5,6.5 7,10c7,11 10.5,23 1,34c-3,3.5 -7,5.5 -11.5,4.5c-4.5,-1.5 -7.5,-5 -9,-9c-0.5,-1 -1,-2.5 -1.5,-3.5c-3,-2 -12,-2.5 -14.5,-2.5c-6.5,0 -13,0.5 -19,1c-4,0 -8,0.5 -11.5,0.5c-2,0 -4.5,0.5 -6.5,0.5c-3,2 -5,10 -5.5,13c-1.5,5.5 -5,22.5 0,27c2.5,3 10,4 13.5,4.5c12,1.5 14.5,17.5 4,23c-16.5,8.5 -29,9.5 -46.5,3.5c-7,-2.5 -14,-6 -21,-8.5c-2.5,-1.5 -10.5,-4.5 -13,-1.5c-2.5,2.5 -2.5,8.5 -2,11.5c0,3 1,9.5 3,12.5c2.5,2 5,4.5 5.5,7.5c1,6 -2.5,11 -7,14c-0.5,1.5 -1,5 -1.5,6.5c0,4 -0.5,9.5 3,12c5,4.5 19,7 25.5,9c12,2.5 12.5,19 1.5,23c-5,2 -12,2.5 -17,3c-2,0.5 -7.5,1 -10.5,2c-3.5,11 -3,28 -1.5,39c1.5,1.5 9,2 11,2c7,0 15,-2 22,-5.5c-6,-3.5 -11,-9 -12,-16c-0.5,-8.5 5.5,-15 12,-19c8.5,-5.5 19.5,-9.5 29,-13c12.5,-4 22,12 12.5,21c-0.5,0.5 -1.5,1 -2,2c1,0 2,-0.5 2.5,-0.5c4.5,-1 9.5,-2.5 13.5,-5c4,-2 15,-9.5 14,-15c-1,-8.5 6,-15.5 14,-14.5c4.5,1 10.5,-3.5 13.5,-6.5c0,-0.5 0.5,-0.5 0.5,-1c-10.5,3.5 -22,3.5 -33,1.5c-13.5,-2.5 -34.5,-7.5 -47.5,-2c-7,3.5 -15.5,6 -22,0c-4.5,-4 -5,-9 -4.5,-14.5c0,-2.5 0.5,-5 0.5,-7.5c0,-7 -1,-13 -4.5,-19c-3.5,-6 -1.5,-13 4,-16.5c5.5,-3.5 13,-2 16.5,3.5c2.5,3 4.5,6 7,8.5c3.5,3.5 11,9.5 16,9c3.5,-0.5 6,-5 7,-7.5c5,-11.5 22.5,-9 23.5,3.5c0.5,4.5 3.5,6.5 7,7.5c1,0.5 3,0.5 4.5,1c-4,-8.5 -8,-18 -9,-25.5c0,-4 0,-8.5 0.5,-12.5c0,-3 0.5,-5.5 0.5,-8c0.5,-1 0.5,-2 0.5,-3c-1,-1 -2,-1.5 -2.5,-1.5c-6.5,-4 -12.5,-10 -11,-18c1.5,-10 13,-14 22,-14.5c14.5,-0.5 32,5 41.5,16c3,4 5,8.5 2.5,13c-2,4.5 -6,6 -10.5,7c-1.5,0 -2.5,0 -4,0.5c-1.5,1.5 -2.5,7 -3,9c-0.5,6 1.5,12 4,17c1.5,3.5 5,7.5 7.5,10c1.5,1.5 6,5.5 8.5,6c5,-4.5 14.5,-15.5 9.5,-22.5c-7.5,-11 -10,-25 -9.5,-38.5c0.5,-11.5 14,-15 21,-8z M320,169.5c1,0 3,0 4,0c13.5,-1 33,-7 40,-19.5c2.5,-5 4,-11 3,-17c-0.5,-0.5 -1,-1.5 -1,-2.5c-2,-4.5 -1.5,-9.5 1.5,-13c4.5,-5.5 13,-6 18,-1c4,4 7.5,8.5 11,13.5c4,5 7.5,11 14.5,11.5c4.5,1 8.5,3.5 10,8c3,8 -3,16.5 -11.5,16.5c-3.5,0 -6.5,1 -9.5,3c-10,6.5 -15.5,22.5 -18.5,33.5c-1.5,5 -2.5,10.5 -4.5,15.5c-4.5,11 -21,9 -23.5,-3c-0.5,-3.5 -3,-16 -7.5,-17c-1.5,-0.5 -2,-0.5 -3.5,0c-1.5,0.5 -3.5,2.5 -5,3.5c-6,5.5 -12,11.5 -21,11c-14,-1.5 -20.5,-18.5 -22,-30.5c-0.5,-6 -0.5,-13 1.5,-18.5c4.5,-14 25,-9.5 24,4.5c0,0.5 0,1 0,1.5z M111.5,415c3,3 6,6 9.5,8.5c8.5,8 17,16.5 26.5,23c3.5,2.5 8.5,4.5 12.5,5.5c4,1 12,2.5 15,-1c7,-8 16,-15.5 27.5,-14c2.5,0.5 5.5,1.5 7.5,2.5c5.5,2.5 11,7.5 10,13.5c0,5 -4,8.5 -8,10c-2.5,1 -7.5,3 -7.5,6c-0.5,2.5 2,7.5 3,10.5c2,2 11,3.5 14,3.5c2.5,0 11,0 14,-2c4.5,-18 6,-40.5 0.5,-58c-1,-4 -3,-7 -6,-9c-7.5,-4 -18.5,-2 -26,0.5c-6.5,2 -20.5,9 -23,16c-5,13.5 -25,9.5 -24,-5c0.5,-6 3,-12 5.5,-18c1,-2 3.5,-8 3.5,-10c-1,-18.5 3.5,-31 12.5,-47c1,-1.5 3,-5 4.5,-8c-2,0 -3.5,0.5 -4.5,0.5c-7,1.5 -7,3 -11,9c-3,4 -6.5,8 -10.5,11.5c-2,2 -5,3 -7.5,3c5,6 6,15.5 6.5,22c0.5,10 -1,23.5 -11.5,28c-7,2.5 -13.5,0 -18.5,-4c-2.5,0 -6,0.5 -7.5,1c-2.5,0.5 -5,1 -7,1.5z M139,361.5c-3,-4 -3.5,-9 -0.5,-13.5c0.5,-1 1.5,-2.5 2,-4c-1.5,-0.5 -4,0 -5,0c-2.5,0 -5,1.5 -7.5,3c-1,1 -2.5,2.5 -4,3.5c-4,3.5 -9,6 -14.5,5.5c-14.5,-2.5 -15,-23 -14.5,-34.5c0.5,-11.5 2.5,-30 16,-32.5c11,-2.5 18,7 22,15c0.5,1 1.5,2 2,2.5c5,3.5 17.5,3 23.5,3c9,-0.5 27.5,-0.5 35.5,-5c0.5,0 1.5,-1 1.5,-1.5c0.5,-1.5 -1.5,-7 -2.5,-9c-4,-13 13,-22.5 21.5,-11.5c9.5,11.5 15,25 13,40c-1,10 -5.5,18 -8.5,27c-3,9 -7,17.5 -11,26c5,-0.5 11,-2 13,-3c5.5,-2 11,-4.5 14,-10c3,-5.5 3,-14.5 3,-21c0,-12.5 -1,-25 -0.5,-37.5c0,-4.5 2,-19 1.5,-24.5c-10,-5 -27,-6 -37,-6c-8,0 -16.5,1 -24,1.5c-4,0.5 -16,2 -20,4c-0.5,1.5 -1,2.5 -2,4c-3.5,5 -8.5,9 -15.5,8c-14,-1.5 -17,-20.5 -17.5,-32c-0.5,-11.5 1,-28.5 14,-33c3,-1 6,-1 9,-0.5c7,2 10.5,7 15.5,11.5c0.5,0.5 1,1 1.5,2c1.5,-1.5 3,-3 4.5,-4.5c6,-4 13,-3 20,-1c4,1 8.5,2.5 13,4c6.5,1.5 16,1 23,1.5c2.5,0 6,0 8.5,-1c7.5,-2.5 7.5,-21.5 7.5,-28c0,-5.5 -0.5,-11 -1,-16.5c0,-2 -1,-7.5 -2,-10c-9.5,-1.5 -14.5,-13.5 -7,-21c2.5,-2.5 4.5,-7 5.5,-10.5c1,-2.5 2.5,-9.5 0.5,-12c-4,-2.5 -24.5,-3 -29.5,-3c-14,-1.5 -26,10 -35.5,19c-11,11 -27,-2 -19.5,-15c5.5,-8.5 6,-14 5,-24c-0.5,-2.5 -1.5,-5.5 -2,-8.5c-1,-7 -2,-16 5.5,-20c2,-1.5 5,-2 7.5,-2c5.5,0.5 9,4 12.5,8c8.5,8.5 33.5,8.5 44.5,6c2,-0.5 7,-2 8.5,-3.5c9,-11.5 8.5,-39.5 2,-52c-4.5,-8.5 -12,-12.5 -21.5,-12c-1,0 -4.5,0.5 -7,1c2,6.5 6,12 10.5,17c6,7.5 15,16 12.5,26.5c-2.5,9.5 -11.5,12.5 -19.5,14c-9,1.5 -18.5,2 -26,-4c-6.5,-5.5 -9,-15 -10.5,-23c0,-1 -1,-5 -1.5,-6c-1,-0.5 -5,-0.5 -6,-0.5c-2,0 -7.5,3 -9,4.5c-11,7.5 -24.5,21 -31,32.5c-0.5,1.5 -2,4.5 -2.5,6.5c1.5,2.5 3,5 5,7c1.5,2.5 3.5,4.5 5,6.5c5.5,8 5.5,18 6,27.5c0,5.5 -0.5,11 -0.5,16.5c0,7.5 0.5,10.5 8,12.5c7,1.5 15,2 21.5,1c8,-1 16,-3.5 22,-9c3.5,-3 8.5,-5 13.5,-3c7.5,3.5 8,13 5.5,19.5c-0.5,2 -1,4 -1,6c0.5,6 5,8.5 10,10.5c5,2 10,6 10,12c0,10.5 -14,16 -22.5,16.5c-9,1 -20.5,-0.5 -24,-10.5c-1,-3.5 -2.5,-6.5 -6,-8.5c-8,-3.5 -24,0.5 -32.5,1c-7.5,0.5 -18,2 -25,5c0,0.5 -0.5,0.5 -1,1c-0.5,3 -2,6.5 -4.5,8.5c-6.5,5.5 -16,3 -23,0c-4.5,-2 -9.5,-5 -13,-8c-3,-2.5 -5.5,-5.5 -6.5,-8.5c-1,3.5 -2,8 -2.5,11.5c-0.5,4.5 0,10.5 1,15c0,1.5 1.5,7.5 3,10c1,-1 3,-3 3.5,-4c3.5,-4 7,-8 13,-9.5c2.5,-0.5 5,0 7.5,0.5c12.5,4.5 12,22 10.5,32.5c-1,10.5 -4,30 -18,29.5c-9,0 -13,-7.5 -14.5,-15c-0.5,-1.5 -1,-3.5 -2.5,-4c-1.5,0 -3,0 -4.5,0.5c-1,0.5 -4,2 -4.5,3.5c0,7 0,14 0,21c0,2 0.5,7.5 1.5,9c0.5,1.5 4,3 5,3c9,1 17,5 19,14.5c1.5,8 -4,18 -11,22c-1.5,1 -2.5,2 -3,3.5c-4,13.5 13,25 24.5,27.5c5,0.5 10.5,0.5 16,0.5c8.5,0 8,-4.5 13.5,-10c2.5,-2.5 5.5,-4 8.5,-4.5c1,-0.5 2,-0.5 3,-0.5z M74.5,190c4,-3.5 10.5,-5 16.5,-5c6,-3 10.5,-9.5 11,-17c1,-10 0.5,-24 -2.5,-33.5c-0.5,-0.5 -0.5,-1 -0.5,-1.5c-4.5,4 -9,14 -11,19c-4.5,10.5 -8.5,21.5 -12,32c-0.5,2 -1,4 -1.5,6z" id="curve0" fill="url(#color-3)"/>
    </g>
</svg>