<svg version="1.1"
    xmlns="http://www.w3.org/2000/svg"
    xmlns:xlink="http://www.w3.org/1999/xlink" width="512" height="512" viewBox="0 0 512 512">
    <title>businessman icon</title>
    <desc>businessman icon from the IconExperience.com G-Collection. Copyright by INCORS GmbH (www.incors.com).</desc>
    <defs>
        <linearGradient x1="183.5" y1="240" x2="242.801" y2="241.9365" gradientUnits="userSpaceOnUse" id="color-1">
            <stop offset="0" stop-color="#f5a557"/>
            <stop offset="1" stop-color="#ec923a"/>
        </linearGradient>
        <linearGradient x1="64" y1="274.5" x2="448" y2="490.1085" gradientUnits="userSpaceOnUse" id="color-2">
            <stop offset="0" stop-color="#fcfcfd"/>
            <stop offset="1" stop-color="#d9e1e9"/>
        </linearGradient>
        <linearGradient x1="184" y1="349.5" x2="192.1925" y2="315.043" gradientUnits="userSpaceOnUse" id="color-3">
            <stop offset="0" stop-color="#d7dfe7"/>
            <stop offset="1" stop-color="#b3c0cd"/>
        </linearGradient>
        <linearGradient x1="208" y1="304" x2="296.622" y2="304" gradientUnits="userSpaceOnUse" id="color-4">
            <stop offset="0" stop-color="#89cff7"/>
            <stop offset="1" stop-color="#129eee"/>
        </linearGradient>
        <linearGradient x1="225" y1="337.5" x2="282.153" y2="303.9205" gradientUnits="userSpaceOnUse" id="color-5">
            <stop offset="0" stop-color="#45ade9"/>
            <stop offset="1" stop-color="#1e86c2"/>
        </linearGradient>
        <linearGradient x1="48" y1="286" x2="400" y2="462" gradientUnits="userSpaceOnUse" id="color-6">
            <stop offset="0" stop-color="#717f8f"/>
            <stop offset="1" stop-color="#51616f"/>
        </linearGradient>
        <linearGradient x1="145.5" y1="310" x2="366.364" y2="475.741" gradientUnits="userSpaceOnUse" id="color-7">
            <stop offset="0" stop-color="#5c6876"/>
            <stop offset="0.74118" stop-color="#4f5b67"/>
            <stop offset="1" stop-color="#424d57"/>
        </linearGradient>
        <linearGradient x1="144" y1="286" x2="368" y2="471.9915" gradientUnits="userSpaceOnUse" id="color-8">
            <stop offset="0" stop-color="#8e9dac"/>
            <stop offset="1" stop-color="#758393"/>
        </linearGradient>
        <radialGradient cx="213.01288" cy="152.03022" r="229.77689" fx="213.01288" fy="152.03022" gradientUnits="userSpaceOnUse" id="color-9">
            <stop offset="0" stop-color="#f5b673"/>
            <stop offset="1" stop-color="#f5a557"/>
        </radialGradient>
        <linearGradient x1="143" y1="16" x2="368.7055" y2="142.4772" gradientUnits="userSpaceOnUse" id="color-10">
            <stop offset="0" stop-color="#f0a355"/>
            <stop offset="1" stop-color="#ed953f"/>
        </linearGradient>
        <radialGradient cx="423.14939" cy="59.09702" r="164.57969" fx="423.14939" fy="59.09702" gradientUnits="userSpaceOnUse" id="color-11">
            <stop offset="0" stop-color="#d08730"/>
            <stop offset="1" stop-color="#9c5f24"/>
        </radialGradient>
        <radialGradient cx="199.08885" cy="64.59732" r="168.42065" fx="199.08885" fy="64.59732" gradientUnits="userSpaceOnUse" id="color-12">
            <stop offset="0" stop-color="#d08730"/>
            <stop offset="1" stop-color="#9c5f24"/>
        </radialGradient>
    </defs>
    <g fill="none" fill-rule="evenodd" stroke="none" stroke-width="1" stroke-linecap="butt" stroke-linejoin="miter" stroke-miterlimit="10" stroke-dasharray="" stroke-dashoffset="0" font-family="none" font-weight="none" font-size="none" text-anchor="none" style="mix-blend-mode: normal">
        <path d="M256,332.5c-36,0 -72,-17.5 -72,-31l-0.5,-61.5c48.5,0 96.5,0 145,0l-0.5,61.5c0,13.5 -36,31 -72,31z" id="curve11" fill="url(#color-1)"/>
        <path d="M256,506c-80,0 -192,-10 -192,-58c0,-80 16,-96 101,-143c3.5,-8 12,-25.5 19,-30.5c1.5,13 36.5,29.5 72,29.5c35.5,0 70.5,-16.5 72,-29.5c7,4.5 15.5,22.5 19,30.5c85,47 101,63 101,143c0,48 -112,58 -192,58z" id="curve10" fill="url(#color-2)"/>
        <path d="M298.5,338l-42.5,-34l-36,45.5c-17.5,-4.5 -28,-13.5 -36,-21.5c7,6.5 19.5,10 29.5,10l42.5,-34l36,45.5c17.5,-4.5 28,-13.5 36,-21.5c-7,6.5 -19.5,10 -29.5,10z" id="curve9" fill="url(#color-3)"/>
        <path d="M256,512l-48,-48l27.5,-119.5c-5,-4 -8.5,-9.5 -10.5,-16l31,-24.5l31,24.5c-2,6.5 -5.5,12 -10.5,16l27.5,119.5z" id="curve8" fill="url(#color-4)"/>
        <path d="M229.5,337.5c-2,-2.5 -3.5,-5.5 -4.5,-9l31,-24.5z M256,304l31,24.5c-1,3.5 -2.5,6.5 -4.5,9z" id="curve7" fill="url(#color-5)"/>
        <path d="M177.5,508.5c-65.5,-7.5 -127,-25 -129.5,-58c0,-0.5 0,-1.5 0,-2c0,-80.5 1.5,-83 105,-139.5c1,-2.5 2.5,-1.5 12,-14c2.5,-3.5 3.5,-8 9.5,-9c-13.5,27 -12,23.5 17.5,82l64,127l64,-127c29.5,-58.5 31,-55 17.5,-82c6,1 7,5.5 9.5,9c9.5,12.5 11,11.5 12,14c103.5,56.5 105,59 105,139.5c0,0.5 0,1.5 0,2c-2.5,33 -64,50.5 -129.5,58c-26,2.5 -53,3.5 -78.5,3.5c-25.5,0 -52.5,-1 -78.5,-3.5z" id="curve6" fill="url(#color-6)"/>
        <path d="M154.5,330.5c1,-2 2,-1.5 11.5,-12.5c2.5,-3 4,-7 9.5,-8c-5.5,14.5 7,30.5 19,56l61.5,130.5l61.5,-130.5c12,-25.5 24.5,-41.5 19,-56c5.5,1 7,5 9.5,8c9.5,11 10.5,10.5 11.5,12.5l7.5,58.5l-36,3l37.5,20l-94.5,100c-5.5,0 -11,0 -16,0c-5,0 -10.5,0 -16,0l-94.5,-100l37.5,-20l-36,-3z" id="curve5" fill="url(#color-7)"/>
        <path d="M153,309c1,-2.5 2.5,-1.5 12,-14c2.5,-3.5 3.5,-8 9.5,-9c-5.5,16 7,34 19,62.5l62.5,146.5l62.5,-146.5c12,-28.5 24.5,-46.5 19,-62.5c6,1 7,5.5 9.5,9c9.5,12.5 11,11.5 12,14l8,65l-37,3.5l38,22.5l-96,112c-5.5,0 -10.5,0 -16,0c-5.5,0 -10.5,0 -16,0l-96,-112l38,-22.5l-37,-3.5z" id="curve4" fill="url(#color-8)"/>
        <path d="M256,16c84.5,0 113,60.5 113,121c0,75.5 -56.5,151 -113,151c-56.5,0 -113,-75.5 -113,-151c0,-60.5 28.5,-121 113,-121z" id="curve3" fill="url(#color-9)"/>
        <path d="M256,16l16,0c34.5,0 52.5,8.5 59.5,24.5c27,23.5 37.5,60 37.5,96.5c0,8 -1,16 -2,24.5l0,0.5c-30,-21.5 -9,-68.5 -38.5,-79.5c-15,13.5 -48.5,13.5 -72.5,13.5c-32,0 -48.5,-10 -65.5,-9.5c-57.5,1.5 -14.5,46.5 -45.5,75.5c-1,-8.5 -2,-17 -2,-25c0,-72.5 37.5,-120 113,-121z" id="curve2" fill="url(#color-10)"/>
        <path d="M318.5,69.5c60,-1.5 17.5,58.5 48.5,92.5c5,-17.5 8.5,-30.5 10,-41l0,0c17.5,-96.5 -34.5,-110 -57,-105c-20,4.5 -44.5,54.5 -1.5,53.5z" id="curve1" fill="url(#color-11)"/>
        <path d="M190.5,73c-57.5,2 -14.5,55 -45.5,89c-5,-17.5 -8.5,-30.5 -10,-41l0,0c-17.5,-96.5 38,-121 137,-121c48,0 64,16 64,48c0,32 -48,32 -80,32c-32,0 -48.5,-8 -65.5,-7z" id="curve0" fill="url(#color-12)"/>
    </g>
</svg>