<?xml version="1.0" encoding="UTF-8"?>
<!DOCTYPE svg PUBLIC "-//W3C//DTD SVG 1.1//EN" "http://www.w3.org/Graphics/SVG/1.1/DTD/svg11.dtd">
<svg version="1.1" id="Layer_1" xmlns="http://www.w3.org/2000/svg" xmlns:xlink="http://www.w3.org/1999/xlink" x="0px" y="0px" width="24px" height="24px" viewBox="0 0 24 24" enable-background="new 0 0 24 24" xml:space="preserve">
  <g id="icon">
    <circle cx="12" cy="12" r="10.9899" fill="#32B5E4"/>
    <path d="M19.7711,4.2289c-0.015,-0.015,-0.0305,-0.0295,-0.0456,-0.0444l-15.541,15.541c0.0149,0.0151,0.0294,0.0305,0.0444,0.0456c4.2918,4.2918,11.2503,4.2918,15.5421,0S24.0629,8.5208,19.7711,4.2289z" fill="#1BA5D6"/>
    <path d="M16,8.4016v8.2c0,0.22,-0.1519,0.3984,-0.3719,0.3984h-1.2c-0.22,0,-0.4281,-0.1784,-0.4281,-0.3984v-5.1889l-5.6566,5.6707c-0.1556,0.1556,-0.4031,0.1556,-0.5587,0l-0.845,-0.8485c-0.1556,-0.1556,-0.1538,-0.4109,0.0018,-0.5665L12.6107,10H7.4281c-0.22,0,-0.4281,-0.1784,-0.4281,-0.3984v-1.2c0,-0.22,0.2081,-0.4016,0.4281,-0.4016h7h1.2C15.8481,8,16,8.1816,16,8.4016z" fill="#FFFFFF"/>
  </g>
</svg>
