<?xml version="1.0" encoding="UTF-8" standalone="no"?>
<!DOCTYPE svg PUBLIC "-//W3C//DTD SVG 1.1//EN" "http://www.w3.org/Graphics/SVG/1.1/DTD/svg11.dtd">
<svg width="100%" height="100%" viewBox="0 0 24 24" version="1.1" xmlns="http://www.w3.org/2000/svg" xmlns:xlink="http://www.w3.org/1999/xlink" xml:space="preserve" xmlns:serif="http://www.serif.com/" style="fill-rule:evenodd;clip-rule:evenodd;stroke-linejoin:round;stroke-miterlimit:2;">
    <g id="icon">
        <g>
            <path d="M15.912,22.272C14.696,22.736 13.378,22.99 12,22.99C5.935,22.99 1.01,18.065 1.01,12C1.01,5.935 5.935,1.01 12,1.01C18.065,1.01 22.99,5.935 22.99,12C22.99,13.378 22.736,14.696 22.272,15.912C21.451,15.043 20.289,14.5 19,14.5C16.516,14.5 14.5,16.516 14.5,19C14.5,20.289 15.043,21.451 15.912,22.272Z" style="fill:rgb(72,207,174);"/>
        </g>
        <g>
            <path d="M15.913,22.273C11.991,23.764 7.388,22.93 4.229,19.771C4.214,19.756 4.199,19.741 4.185,19.726L19.726,4.185C19.741,4.199 19.756,4.214 19.771,4.229C22.93,7.388 23.764,11.991 22.273,15.913C21.452,15.043 20.289,14.5 19,14.5C16.516,14.5 14.5,16.516 14.5,19C14.5,20.289 15.043,21.452 15.913,22.273Z" style="fill:rgb(54,188,155);"/>
        </g>
        <path id="b" d="M17.394,8.278L10.959,14.712L7.706,11.46C7.551,11.304 7.296,11.304 7.141,11.46L6.292,12.308C6.137,12.464 6.137,12.718 6.292,12.874L10.676,17.258C10.832,17.414 11.086,17.414 11.242,17.258L18.808,9.692C18.964,9.536 18.964,9.282 18.808,9.126L17.959,8.278C17.804,8.122 17.549,8.122 17.394,8.278Z" style="fill:white;fill-rule:nonzero;"/>
        <g transform="matrix(0.363769,0,0,0.363769,14.6326,14.6326)">
            <circle cx="12" cy="12" r="10.99" style="fill:rgb(100,210,183);"/>
        </g>
        <g transform="matrix(0.363769,0,0,0.363769,14.6326,14.6326)">
            <path d="M19.771,4.229C19.756,4.214 19.741,4.199 19.726,4.185L4.185,19.726C4.199,19.741 4.214,19.756 4.229,19.771C8.521,24.063 15.479,24.063 19.771,19.771C24.063,15.479 24.063,8.521 19.771,4.229Z" style="fill:rgb(73,203,171);fill-rule:nonzero;"/>
        </g>
        <g id="b1" serif:id="b" transform="matrix(0.363769,0,0,0.363769,14.6326,14.6326)">
            <path d="M12.4,9.275L12.4,10.321C12.4,10.562 12.572,10.7 12.825,10.7L17.508,10.7C17.741,10.7 18,10.552 18,10.295L18,5.761C18,5.517 17.798,5.3 17.549,5.3L16.502,5.3C16.256,5.3 16.1,5.513 16.1,5.761L16.1,7.591C14.9,6.491 13.414,5.887 11.811,5.887C10.123,5.887 8.534,6.554 7.356,7.765C5.039,10.148 5.034,14.025 7.351,16.408C8.53,17.619 10.106,18.286 11.795,18.286C13.451,18.286 15.007,17.641 16.178,16.47C17.155,15.493 17.765,14.254 17.942,12.886C17.957,12.763 17.924,12.642 17.848,12.544C17.771,12.447 17.662,12.386 17.539,12.371L16.525,12.255C16.275,12.226 16.05,12.409 16.018,12.654C15.893,13.589 15.475,14.458 14.807,15.126C14.002,15.931 12.931,16.4 11.793,16.4L11.792,16.4C10.616,16.4 9.52,15.905 8.707,15.052C7.134,13.404 7.134,10.804 8.707,9.155C9.52,8.303 10.615,7.829 11.791,7.829C12.795,7.829 13.755,8.176 14.52,8.814L12.843,8.804C12.602,8.804 12.4,9.023 12.4,9.275Z" style="fill:white;fill-rule:nonzero;"/>
        </g>
    </g>
</svg>
