<?xml version="1.0" encoding="UTF-8"?>
<!DOCTYPE svg PUBLIC "-//W3C//DTD SVG 1.1//EN" "http://www.w3.org/Graphics/SVG/1.1/DTD/svg11.dtd">
<svg version="1.1" id="Layer_1" xmlns="http://www.w3.org/2000/svg" xmlns:xlink="http://www.w3.org/1999/xlink" x="0px" y="0px" width="24px" height="24px" viewBox="0 0 24 24" enable-background="new 0 0 24 24" xml:space="preserve">
  <g id="icon">
    <circle cx="12" cy="12" r="10.9899" fill="#48CFAE"/>
    <path d="M19.7711,4.2289c-0.015,-0.015,-0.0305,-0.0295,-0.0456,-0.0444l-15.541,15.541c0.0149,0.0151,0.0294,0.0305,0.0444,0.0456c4.2918,4.2918,11.2503,4.2918,15.5421,0S24.0629,8.5208,19.7711,4.2289z" fill="#36BC9B"/>
    <path d="M17.3937,8.2776l-6.4347,6.4347l-3.2527,-3.2527c-0.1556,-0.1556,-0.4101,-0.1556,-0.5657,0l-0.8485,0.8485c-0.1556,0.1556,-0.1556,0.4101,0,0.5657l4.3841,4.3841c0.1556,0.1556,0.4101,0.1556,0.5657,0l0.3536,-0.3536l0.495,-0.495l6.7175,-6.7175c0.1556,-0.1556,0.1556,-0.4101,0,-0.5657l-0.8485,-0.8485C17.8038,8.1221,17.5492,8.1221,17.3937,8.2776z" id="b" fill="#FFFFFF"/>
  </g>
</svg>
