<?xml version="1.0" encoding="UTF-8"?>
<!DOCTYPE svg PUBLIC "-//W3C//DTD SVG 1.1//EN" "http://www.w3.org/Graphics/SVG/1.1/DTD/svg11.dtd">
<svg version="1.1" id="Layer_1" xmlns="http://www.w3.org/2000/svg" xmlns:xlink="http://www.w3.org/1999/xlink" x="0px" y="0px" width="24px" height="24px" viewBox="0 0 24 24" enable-background="new 0 0 24 24" xml:space="preserve">
  <g id="icon">
    <circle cx="12" cy="12" r="10.9899" fill="#ED5564"/>
    <path d="M19.7711,4.2289c-0.015,-0.015,-0.0305,-0.0295,-0.0456,-0.0444l-15.541,15.541c0.0149,0.0151,0.0294,0.0305,0.0444,0.0456c4.2918,4.2918,11.2503,4.2918,15.5421,0S24.0629,8.5208,19.7711,4.2289z" fill="#DB4453"/>
    <path d="M13.4142,12l3.2527,-3.2527c0.1556,-0.1556,0.1556,-0.4101,0,-0.5657l-0.8485,-0.8485c-0.1556,-0.1556,-0.4101,-0.1556,-0.5657,0L12,10.5858L8.7473,7.3331c-0.1556,-0.1556,-0.4101,-0.1556,-0.5657,0l-0.8485,0.8485c-0.1556,0.1556,-0.1556,0.4101,0,0.5657L10.5858,12l-3.2527,3.2527c-0.1556,0.1556,-0.1556,0.4101,0,0.5657l0.8485,0.8485c0.1556,0.1556,0.4101,0.1556,0.5657,0L12,13.4142l3.2527,3.2527c0.1556,0.1556,0.4101,0.1556,0.5657,0l0.8485,-0.8485c0.1556,-0.1556,0.1556,-0.4101,0,-0.5657L13.4142,12z" id="b" fill="#FFFFFF"/>
  </g>
</svg>
