<?xml version="1.0" encoding="UTF-8"?>
<!DOCTYPE svg PUBLIC "-//W3C//DTD SVG 1.1//EN" "http://www.w3.org/Graphics/SVG/1.1/DTD/svg11.dtd">
<svg version="1.1" id="Layer_1" xmlns="http://www.w3.org/2000/svg" xmlns:xlink="http://www.w3.org/1999/xlink" x="0px" y="0px" width="24px" height="24px" viewBox="0 0 24 24" enable-background="new 0 0 24 24" xml:space="preserve">
  <g id="icon">
    <path d="M19.3539,17.2326L14.1213,12l5.2326,-5.2326c0.2333,-0.2333,0.2333,-0.6152,0,-0.8485l-1.2728,-1.2728c-0.2333,-0.2333,-0.6152,-0.2333,-0.8485,0L12,9.8787L6.7674,4.6461c-0.2333,-0.2333,-0.6152,-0.2333,-0.8485,0L4.6461,5.9189c-0.2333,0.2333,-0.2333,0.6152,0,0.8485L9.8787,12l-5.2326,5.2326c-0.2333,0.2333,-0.2333,0.6152,0,0.8485l1.2728,1.2728c0.2333,0.2333,0.6152,0.2333,0.8485,0L12,14.1213l5.2326,5.2326c0.2333,0.2333,0.6152,0.2333,0.8485,0l1.2728,-1.2728C19.5873,17.8478,19.5873,17.4659,19.3539,17.2326z" fill="#797979"/>
  </g>
</svg>
