<svg version="1.1"
    xmlns="http://www.w3.org/2000/svg"
    xmlns:xlink="http://www.w3.org/1999/xlink" width="512" height="512" viewBox="0 0 512 512">
    <title>chart radar icon</title>
    <desc>chart radar icon from the IconExperience.com G-Collection. Copyright by INCORS GmbH (www.incors.com).</desc>
    <defs>
        <linearGradient x1="32" y1="32" x2="431.5678" y2="480.00035" gradientUnits="userSpaceOnUse" id="color-1">
            <stop offset="0" stop-color="#6d7b8b"/>
            <stop offset="1" stop-color="#556473"/>
        </linearGradient>
        <linearGradient x1="32" y1="32" x2="464.0002" y2="480" gradientUnits="userSpaceOnUse" id="color-2">
            <stop offset="0" stop-color="#51616f"/>
            <stop offset="1" stop-color="#36414a"/>
        </linearGradient>
        <linearGradient x1="119.92081" y1="56.01472" x2="439.86831" y2="261.69472" gradientUnits="userSpaceOnUse" id="color-3">
            <stop offset="0" stop-color="#ffcf3c"/>
            <stop offset="1" stop-color="#ffc30e"/>
        </linearGradient>
        <linearGradient x1="88.17157" y1="136.00198" x2="392.12957" y2="249.36998" gradientUnits="userSpaceOnUse" id="color-4">
            <stop offset="0" stop-color="#3fb0f1"/>
            <stop offset="1" stop-color="#24a5ef"/>
        </linearGradient>
    </defs>
    <g fill="none" fill-rule="none" stroke="none" stroke-width="1" stroke-linecap="butt" stroke-linejoin="miter" stroke-miterlimit="10" stroke-dasharray="" stroke-dashoffset="0" font-family="none" font-weight="none" font-size="none" text-anchor="none" style="mix-blend-mode: normal">
        <path d="M64,32l384,0c17.5,0 32,14.5 32,32l0,384c0,17.5 -14.5,32 -32,32l-384,0c-17.5,0 -32,-14.5 -32,-32l0,-384c0,-17.5 14.5,-32 32,-32z" id="curve3" fill="url(#color-1)" fill-rule="evenodd"/>
        <path d="M32,248l10.5,0l57,-137l-63,-63c2.5,-5 6.5,-9 11.5,-11.5l63,63l137,-57l0,-10.5l16,0l0,10.5l137,57l63,-63c5,2.5 9,6.5 11.5,11.5l-63,63l57,137l10.5,0l0,16l-10.5,0l-57,137l63,63c-2.5,5 -6.5,9 -11.5,11.5l-63,-63l-137,57l0,10.5l-16,0l0,-10.5l-137,-57l-63,63c-5,-2.5 -9,-6.5 -11.5,-11.5l63,-63l-57,-137l-10.5,0z M264,138.5l69.5,29l55.5,-56l-125,-51.5z M344.5,178.5l29,69.5l78.5,0l-51.5,-125z M373.5,264l-29,69.5l56,55.5l51.5,-125z M333.5,344.5l-69.5,29l0,78.5l125,-51.5z M248,373.5l-69.5,-29l-55.5,56l125,51.5z M167.5,333.5l-29,-69.5l-78.5,0l51.5,125z M138.5,248l29,-69.5l-56,-55.5l-51.5,125z M178.5,167.5l69.5,-29l0,-78.5l-125,51.5z M321,179.5l-57,-23.5l0,80.5z M248,156l-57,23.5l57,57z M179.5,191l-23.5,57l80.5,0z M156,264l23.5,57l57,-57z M191,332.5l57,23.5l0,-80.5z M264,356l57,-23.5l-57,-57z M332.5,321l23.5,-57l-80.5,0z M356,248l-23.5,-57l-57,57z" id="curve2" fill="url(#color-2)" fill-rule="evenodd"/>
        <path d="M260,57l127.5,64c2,1 3.5,2.5 4,4l0,0l48,128c1,3 0.5,6 -1.5,8.5l-80,95.5c-1,1.5 -2,2 -3.5,2.5l-96,32c-3.5,1.5 -7.5,-0.5 -9.5,-3.5l0,0l-47,-78l-78,-47c-3.5,-2 -5,-6.5 -3.5,-10l32,-95.5c0.5,-1 1,-2.5 2,-3l0,0l96,-96c2.5,-3 6.5,-3 9.5,-1.5z M377.5,133.5l-120,-60l-90.5,91l-29.5,88l74.5,44.5c1,1 2,1.5 3,3l44.5,74.5l88,-29.5l75.5,-90.5z" id="curve1" fill="url(#color-3)" fill-rule="evenodd"/>
        <path d="M256.5,168l94,-16c4.5,-0.5 8,2 9,6l32,95.5c1,2.5 0.5,4.5 -0.5,6.5l0,0l-48,80c-0.5,0.5 -1,1 -1.5,1.5l0,0l-80,80c-2,2.5 -5,3 -8,2l-127.5,-32c-3,-0.5 -5,-3 -6,-5.5l-31.5,-128c-0.5,-2 -0.5,-4 0.5,-5.5l47.5,-111.5c1.5,-4 6,-6 9.5,-4.5l0,0z M346.5,169l-89,15c-1,0 -2.5,0 -3.5,-0.5l-105.5,-30l-44,103l30,121l119,29.5l76,-76l46,-76z" id="curve0" fill="url(#color-4)" fill-rule="nonzero"/>
    </g>
</svg>