<?xml version="1.0" encoding="UTF-8"?>
<!DOCTYPE svg PUBLIC "-//W3C//DTD SVG 1.1//EN" "http://www.w3.org/Graphics/SVG/1.1/DTD/svg11.dtd">
<svg version="1.1" id="Layer_1" xmlns="http://www.w3.org/2000/svg" xmlns:xlink="http://www.w3.org/1999/xlink" x="0px" y="0px" width="24px" height="24px" viewBox="0 0 24 24" enable-background="new 0 0 24 24" xml:space="preserve">
  <g id="icon">
    <path d="M21.3636,6H20v8.3363C20,15.8051,18.8174,17,17.3637,17h-8.481l-3.0389,1.7865c0.2353,0.1351,0.5054,0.2135,0.7926,0.2135h8.7531l5.4833,3.2221c0.1899,0.1187,0.4361,-0.0246,0.4361,-0.2485L20.7096,19h0.654c0.9,0,1.6364,-0.7636,1.6364,-1.6636v-9.7C23,6.7364,22.2636,6,21.3636,6z" fill="#AAB2BD"/>
    <path d="M17.3636,3H2.6364C1.7364,3,1,3.7364,1,4.6364v9.7c0,0.9,0.7364,1.6636,1.6364,1.6636h0.654l-0.5993,2.9736c0,0.2239,0.2463,0.3672,0.4361,0.2485L8.6106,16h8.7531c0.9,0,1.6364,-0.7636,1.6364,-1.6636v-9.7C19,3.7364,18.2636,3,17.3636,3z" fill="#5D9CEC"/>
    <path d="M17.3636,3h-2.815l-4.458,13h7.273c0.9,0,1.6364,-0.7636,1.6364,-1.6636v-9.7C19,3.7364,18.2636,3,17.3636,3z" fill="#4B89DC" opacity="0.65"/>
    <path d="M6.5558,9.5006c0,0.7133,-0.5783,1.2916,-1.2916,1.2916s-1.2916,-0.5783,-1.2916,-1.2916s0.5783,-1.2916,1.2916,-1.2916S6.5558,8.7873,6.5558,9.5006zM14.7357,8.2091c-0.7133,0,-1.2916,0.5783,-1.2916,1.2916s0.5783,1.2916,1.2916,1.2916c0.7133,0,1.2916,-0.5783,1.2916,-1.2916S15.449,8.2091,14.7357,8.2091zM10,8.2091c-0.7133,0,-1.2916,0.5783,-1.2916,1.2916s0.5783,1.2916,1.2916,1.2916s1.2916,-0.5783,1.2916,-1.2916S10.7133,8.2091,10,8.2091z" fill="#FFFFFF"/>
  </g>
</svg>
