<?xml version="1.0" encoding="UTF-8" standalone="no"?>
<!DOCTYPE svg PUBLIC "-//W3C//DTD SVG 1.1//EN" "http://www.w3.org/Graphics/SVG/1.1/DTD/svg11.dtd">
<svg width="100%" height="100%" viewBox="0 0 512 512" version="1.1" xmlns="http://www.w3.org/2000/svg" xmlns:xlink="http://www.w3.org/1999/xlink" xml:space="preserve" xmlns:serif="http://www.serif.com/" style="fill-rule:evenodd;clip-rule:evenodd;stroke-linejoin:round;stroke-miterlimit:2;">
    <g>
        <path id="curve1" d="M48,32L464,32C473,32 480,39 480,48L480,464C480,473 473,480 464,480L48,480C39,480 32,473 32,464L32,48C32,39 39,32 48,32Z" style="fill:url(#_Linear1);"/>
        <rect id="curve0" x="96" y="96" width="320" height="320" style="fill:url(#_Linear2);"/>
        <g id="curve01" serif:id="curve0" transform="matrix(0.787265,0,0,0.790123,51.9016,51.9506)">
            <path d="M378,116.5L432,171L203,400L86.5,284L141,229.5L203,291.5L378,116.5Z" style="fill:rgb(64,64,64);"/>
        </g>
    </g>
    <defs>
        <linearGradient id="_Linear1" x1="0" y1="0" x2="1" y2="0" gradientUnits="userSpaceOnUse" gradientTransform="matrix(416,416.001,-416.001,416,32,32)"><stop offset="0" style="stop-color:rgb(119,218,38);stop-opacity:1"/><stop offset="1" style="stop-color:rgb(89,163,29);stop-opacity:1"/></linearGradient>
        <linearGradient id="_Linear2" x1="0" y1="0" x2="1" y2="0" gradientUnits="userSpaceOnUse" gradientTransform="matrix(290.909,320,-320,290.909,96,96)"><stop offset="0" style="stop-color:white;stop-opacity:1"/><stop offset="1" style="stop-color:rgb(237,241,245);stop-opacity:1"/></linearGradient>
    </defs>
</svg>
