<svg version="1.1"
    xmlns="http://www.w3.org/2000/svg"
    xmlns:xlink="http://www.w3.org/1999/xlink" width="512" height="512" viewBox="0 0 512 512">
    <title>clipboard check edit icon</title>
    <desc>clipboard check edit icon from the IconExperience.com G-Collection. Copyright by INCORS GmbH (www.incors.com).</desc>
    <defs>
        <linearGradient x1="64" y1="64" x2="397.1275" y2="512" gradientUnits="userSpaceOnUse" id="color-1">
            <stop offset="0" stop-color="#d99b57"/>
            <stop offset="0.5098" stop-color="#d08730"/>
            <stop offset="1" stop-color="#d08730"/>
        </linearGradient>
        <linearGradient x1="416" y1="179.5" x2="447.9995" y2="221.5475" gradientUnits="userSpaceOnUse" id="color-2">
            <stop offset="0" stop-color="#c17b2d"/>
            <stop offset="1" stop-color="#bc772c"/>
        </linearGradient>
        <linearGradient x1="96" y1="96" x2="382.174" y2="462.3025" gradientUnits="userSpaceOnUse" id="color-3">
            <stop offset="0" stop-color="#ffffff"/>
            <stop offset="1" stop-color="#f0f3f6"/>
        </linearGradient>
        <linearGradient x1="225.08307" y1="211.5" x2="415.97957" y2="450.1275" gradientUnits="userSpaceOnUse" id="color-4">
            <stop offset="0" stop-color="#e3e9ef"/>
            <stop offset="1" stop-color="#d9e1e9"/>
        </linearGradient>
        <linearGradient x1="128" y1="80" x2="383.999" y2="144" gradientUnits="userSpaceOnUse" id="color-5">
            <stop offset="0" stop-color="#eef2f5"/>
            <stop offset="1" stop-color="#dbe2ea"/>
        </linearGradient>
        <linearGradient x1="128" y1="0" x2="128" y2="128.00009" gradientUnits="userSpaceOnUse" id="color-6">
            <stop offset="0" stop-color="#b3c0cd"/>
            <stop offset="0.36863" stop-color="#b3c0cd"/>
            <stop offset="0.58039" stop-color="#91a0af"/>
            <stop offset="1" stop-color="#717f8f"/>
        </linearGradient>
        <linearGradient x1="169" y1="141.5" x2="344.6855" y2="276.6425" gradientUnits="userSpaceOnUse" id="color-7">
            <stop offset="0" stop-color="#72d125"/>
            <stop offset="1" stop-color="#59a31d"/>
        </linearGradient>
        <linearGradient x1="252.5" y1="183" x2="307.042" y2="240.6665" gradientUnits="userSpaceOnUse" id="color-8">
            <stop offset="0" stop-color="#4eb6f2"/>
            <stop offset="1" stop-color="#129eee"/>
        </linearGradient>
        <linearGradient x1="209.13702" y1="343" x2="267.01402" y2="403.502" gradientUnits="userSpaceOnUse" id="color-9">
            <stop offset="0" stop-color="#f4e0cc"/>
            <stop offset="0.52157" stop-color="#e8c098"/>
            <stop offset="1" stop-color="#dca264"/>
        </linearGradient>
        <linearGradient x1="209.13702" y1="402.5" x2="231.13752" y2="424.75" gradientUnits="userSpaceOnUse" id="color-10">
            <stop offset="0" stop-color="#717f8f"/>
            <stop offset="1" stop-color="#36414a"/>
        </linearGradient>
        <linearGradient x1="411.5" y1="145.25" x2="494.817" y2="228.5675" gradientUnits="userSpaceOnUse" id="color-11">
            <stop offset="0" stop-color="#ef5c51"/>
            <stop offset="0.34902" stop-color="#cf3c31"/>
            <stop offset="1" stop-color="#af1c11"/>
        </linearGradient>
    </defs>
    <g fill="none" fill-rule="evenodd" stroke="none" stroke-width="1" stroke-linecap="butt" stroke-linejoin="miter" stroke-miterlimit="10" stroke-dasharray="" stroke-dashoffset="0" font-family="none" font-weight="none" font-size="none" text-anchor="none" style="mix-blend-mode: normal">
        <path d="M80,64l352,0c9,0 16,7 16,16l0,416c0,9 -7,16 -16,16l-352,0c-9,0 -16,-7 -16,-16l0,-416c0,-9 7,-16 16,-16z" id="curve10" fill="url(#color-1)"/>
        <path d="M448,179.5l0,123.5l-32,32l0,-123.5z" id="curve9" fill="url(#color-2)"/>
        <path d="M96,96l320,0l0,384l-320,0z" id="curve8" fill="url(#color-3)"/>
        <path d="M416,211.5l0,123.5l-85.5,85.5l0,0l-87.5,42.5c-4.5,2 -10,1 -13.5,-2l0,0l-0.5,-0.5l0,0l0,0l0,0l0,0l0,0l-0.5,-0.5l0,0l0,0l0,-0.5l0,0l-0.5,0l0,0c-3,-4 -4,-9 -1.5,-13.5l42,-87z" id="curve7" fill="url(#color-4)"/>
        <path d="M128,144l0,-64l256,0l0,64z" id="curve6" fill="url(#color-5)"/>
        <path d="M256,0c28.5,0 54,12.5 71.5,32l40.5,0c9,0 16,7 16,16l0,80l-256,0l0,-80c0,-9 7,-16 16,-16l40.5,0c17.5,-19.5 43,-32 71.5,-32z M256,16c9,0 16,7 16,16c0,9 -7,16 -16,16c-9,0 -16,-7 -16,-16c0,-9 7,-16 16,-16z" id="curve5" fill="url(#color-6)"/>
        <path d="M327.5,141.5l34,34l-124.5,124.5l-68,-68l34,-34l34,34z" id="curve4" fill="url(#color-7)"/>
        <path d="M412,183l62,62l-159.5,159.5l-62,-61.5z" id="curve3" fill="url(#color-8)"/>
        <path d="M314.5,404.5l-87.5,42.5c-5,2 -10.5,1 -14,-2.5c-4,-4 -5,-9.5 -2.5,-14.5l42,-87z" id="curve2" fill="url(#color-9)"/>
        <path d="M255,433.5l-28,13.5c-5,2 -10.5,1 -14,-2.5c-4,-4 -5,-9.5 -2.5,-14.5l13.5,-27.5z" id="curve1" fill="url(#color-10)"/>
        <path d="M508.5,210.5l-35.5,35.5l-61.5,-62l35,-35c5,-5 13,-5 17.5,0l44.5,44c4.5,4.5 4.5,12.5 0,17.5z" id="curve0" fill="url(#color-11)"/>
    </g>
</svg>