<?xml version="1.0" encoding="UTF-8"?>
<!DOCTYPE svg PUBLIC "-//W3C//DTD SVG 1.1//EN" "http://www.w3.org/Graphics/SVG/1.1/DTD/svg11.dtd">
<svg version="1.1" id="Layer_1" xmlns="http://www.w3.org/2000/svg" xmlns:xlink="http://www.w3.org/1999/xlink" x="0px" y="0px" width="24px" height="24px" viewBox="0 0 24 24" enable-background="new 0 0 24 24" xml:space="preserve">
  <g id="icon">
    <path d="M19.8,3h-6.5c0,0.718,-0.582,1.3,-1.3,1.3s-1.3,-0.582,-1.3,-1.3H4.2c-0.66,0,-1.2,0.54,-1.2,1.2v17.6c0,0.66,0.54,1.2,1.2,1.2h15.6c0.66,0,1.2,-0.54,1.2,-1.2V4.2C21,3.54,20.46,3,19.8,3z" fill="#BABABA"/>
    <rect x="5" y="5" width="14" height="16" fill="#F4F4F4"/>
    <path d="M19.8,3h-2.2348L10,23h9.8c0.66,0,1.2,-0.54,1.2,-1.2V4.2C21,3.54,20.46,3,19.8,3z" fill="#868686" opacity="0.06"/>
    <path d="M15.225,2h-1.4947c-0.346,-0.5972,-0.9904,-1,-1.7303,-1s-1.3843,0.4028,-1.7303,1H8.775C8.3487,2,8,2.3487,8,2.775v2.45c0,0.4263,0.3487,0.775,0.775,0.775h6.45c0.4263,0,0.775,-0.3487,0.775,-0.775v-2.45C16,2.3487,15.6513,2,15.225,2zM12,4c-0.5523,0,-1,-0.4477,-1,-1c0,-0.5523,0.4477,-1,1,-1s1,0.4477,1,1C13,3.5523,12.5523,4,12,4z" fill="#CACACA"/>
    <path d="M8,4v1.225c0,0.4263,0.3487,0.775,0.775,0.775h6.45c0.4263,0,0.775,-0.3487,0.775,-0.775V4H8z" fill="#C3C3C3"/>
    <line x1="7.5" y1="8.5" x2="16.5" y2="8.5" fill="none" stroke="#C0C0C0" stroke-width="1" stroke-linecap="round" stroke-miterlimit="10"/>
    <line x1="7.5" y1="11.5" x2="16.5" y2="11.5" fill="none" stroke="#C0C0C0" stroke-width="1" stroke-linecap="round" stroke-miterlimit="10"/>
    <line x1="7.5" y1="14.5" x2="16.5" y2="14.5" fill="none" stroke="#C0C0C0" stroke-width="1" stroke-linecap="round" stroke-miterlimit="10"/>
    <line x1="7.5" y1="17.5" x2="16.5" y2="17.5" fill="none" stroke="#C0C0C0" stroke-width="1" stroke-linecap="round" stroke-miterlimit="10"/>
  </g>
</svg>
