<svg version="1.1"
    xmlns="http://www.w3.org/2000/svg"
    xmlns:xlink="http://www.w3.org/1999/xlink" width="512" height="512" viewBox="0 0 512 512">
    <title>clipboard checks icon</title>
    <desc>clipboard checks icon from the IconExperience.com G-Collection. Copyright by INCORS GmbH (www.incors.com).</desc>
    <defs>
        <linearGradient x1="64" y1="64" x2="397.1275" y2="512" gradientUnits="userSpaceOnUse" id="color-1">
            <stop offset="0" stop-color="#d99b57"/>
            <stop offset="0.5098" stop-color="#d08730"/>
            <stop offset="1" stop-color="#d08730"/>
        </linearGradient>
        <linearGradient x1="96" y1="96" x2="382.174" y2="462.3025" gradientUnits="userSpaceOnUse" id="color-2">
            <stop offset="0" stop-color="#ffffff"/>
            <stop offset="1" stop-color="#f0f3f6"/>
        </linearGradient>
        <linearGradient x1="128" y1="80" x2="383.999" y2="144" gradientUnits="userSpaceOnUse" id="color-3">
            <stop offset="0" stop-color="#eef2f5"/>
            <stop offset="1" stop-color="#dbe2ea"/>
        </linearGradient>
        <linearGradient x1="128" y1="0" x2="128" y2="128.00009" gradientUnits="userSpaceOnUse" id="color-4">
            <stop offset="0" stop-color="#b3c0cd"/>
            <stop offset="0.36863" stop-color="#b3c0cd"/>
            <stop offset="0.58039" stop-color="#91a0af"/>
            <stop offset="1" stop-color="#717f8f"/>
        </linearGradient>
        <linearGradient x1="169" y1="300.5" x2="344.83797" y2="435.30813" gradientUnits="userSpaceOnUse" id="color-5">
            <stop offset="0" stop-color="#72d125"/>
            <stop offset="1" stop-color="#59a31d"/>
        </linearGradient>
        <linearGradient x1="169" y1="141.5" x2="344.83797" y2="276.73474" gradientUnits="userSpaceOnUse" id="color-6">
            <stop offset="0" stop-color="#72d125"/>
            <stop offset="1" stop-color="#59a31d"/>
        </linearGradient>
    </defs>
    <g fill="none" fill-rule="evenodd" stroke="none" stroke-width="1" stroke-linecap="butt" stroke-linejoin="miter" stroke-miterlimit="10" stroke-dasharray="" stroke-dashoffset="0" font-family="none" font-weight="none" font-size="none" text-anchor="none" style="mix-blend-mode: normal">
        <path d="M80,64l352,0c9,0 16,7 16,16l0,416c0,9 -7,16 -16,16l-352,0c-9,0 -16,-7 -16,-16l0,-416c0,-9 7,-16 16,-16z" id="curve5" fill="url(#color-1)"/>
        <path d="M96,96l320,0l0,384l-320,0z" id="curve4" fill="url(#color-2)"/>
        <path d="M128,144l0,-64l256,0l0,64z" id="curve3" fill="url(#color-3)"/>
        <path d="M256,0c28.5,0 54,12.5 71.5,32l40.5,0c9,0 16,7 16,16l0,80l-256,0l0,-80c0,-9 7,-16 16,-16l40.5,0c17.5,-19.5 43,-32 71.5,-32z M256,16c9,0 16,7 16,16c0,9 -7,16 -16,16c-9,0 -16,-7 -16,-16c0,-9 7,-16 16,-16z" id="curve2" fill="url(#color-4)"/>
        <path d="M327.5,300.5l34,33.5l-124.5,124.5l-68,-67.5l34,-34l34,34z" id="curve1" fill="url(#color-5)"/>
        <path d="M327.5,141.5l34,34l-124.5,124.5l-68,-68l34,-34l34,34z" id="curve0" fill="url(#color-6)"/>
    </g>
</svg>