<?xml version="1.0" encoding="UTF-8"?>
<!DOCTYPE svg PUBLIC "-//W3C//DTD SVG 1.1//EN" "http://www.w3.org/Graphics/SVG/1.1/DTD/svg11.dtd">
<svg version="1.1" id="Layer_1" xmlns="http://www.w3.org/2000/svg" xmlns:xlink="http://www.w3.org/1999/xlink" x="0px" y="0px" width="24px" height="24px" viewBox="0 0 24 24" enable-background="new 0 0 24 24" xml:space="preserve">
  <g id="main">
    <g id="icon">
      <path d="M8.528,4.013L7.987,4.093L7.462,4.225L6.957,4.404L6.012,4.899L5.172,5.557L4.453,6.36L3.874,7.288L3.454,8.321L3.21,9.44L2.548,9.704L1.943,10.06L1.405,10.51L0.9434,11.03L0.5674,11.61L0.2869,12.26L0.1113,12.95L0.05078,13.68L0.08203,14.28L0.1727,14.82L0.3182,15.31L0.5141,15.75L0.7559,16.14L1.039,16.48L1.358,16.78L1.71,17.04L2.492,17.45L3.348,17.73L4.242,17.9L5.137,18L6.486,18L12.56,18L13.08,18L13.19,17.8L13.52,17.48L13.94,17.27L13.95,17.26L14.45,17.11L14.24,16.68L14.1,16.25L14.1,15.81L14.24,15.39L14.51,15.02L15.02,14.51L15.24,14.33L15.48,14.2L15.75,14.12L16.03,14.09L16.37,14.13L16.68,14.24L17.12,14.46L17.27,14.03L17.47,13.65L17.78,13.35L18.18,13.17L18.64,13.1L19.36,13.1L19.82,13.17L20.21,13.35L20.52,13.65L20.73,14.03L20.88,14.46L21.32,14.24L21.63,14.12L21.8,14.1L21.88,13.71L21.95,12.69L21.93,12.14L21.85,11.6L21.72,11.08L21.54,10.59L21.32,10.11L21.05,9.669L20.41,8.869L19.62,8.209L19.19,7.939L18.73,7.712L18.24,7.53L17.74,7.397L17.21,7.315L16.67,7.287L16.1,7.319L15.55,7.411L15.02,7.559L14.51,7.762L14.11,6.961L13.62,6.233L13.03,5.59L12.36,5.04L11.62,4.594L10.82,4.263L9.975,4.056L9.083,3.985zz" fill-rule="evenodd" fill="#5D9CEC"/>
      <path d="M7.903,18L12.56,18L13.08,18L13.19,17.8L13.52,17.48L13.94,17.27L13.95,17.26L14.45,17.11L14.24,16.68L14.1,16.25L14.1,15.81L14.24,15.39L14.51,15.02L15.02,14.51L15.24,14.33L15.48,14.2L15.75,14.12L16.03,14.09L16.37,14.13L16.68,14.24L17.12,14.46L17.27,14.03L17.47,13.65L17.78,13.35L18.18,13.17L18.64,13.1L19.36,13.1L19.82,13.17L20.21,13.35L20.52,13.65L20.73,14.03L20.88,14.46L21.32,14.24L21.63,14.12L21.8,14.1L21.88,13.71L21.95,12.69L21.93,12.14L21.85,11.6L21.72,11.08L21.54,10.59L21.32,10.11L21.05,9.669L20.41,8.869L19.63,8.209L19.19,7.939L18.73,7.712L18.24,7.53L17.74,7.397L17.21,7.315L16.67,7.287L16.1,7.319L15.55,7.411L15.02,7.559L14.51,7.762L14.15,7.033L13.72,6.364zz" fill-rule="evenodd" fill="#4B89DC"/>
    </g>
    <g id="overlay">
      <path d="M23.6938,18.2176l-1.0598,-0.3529l-0.2619,-0.6308l0.4987,-0.998c0.0855,-0.171,0.0518,-0.3775,-0.0834,-0.5127l-0.5106,-0.5105c-0.1352,-0.1352,-0.3418,-0.1687,-0.5128,-0.0832l-0.998,0.499l-0.6308,-0.2613l-0.3529,-1.0611c-0.0605,-0.1814,-0.2302,-0.3062,-0.4214,-0.3062h-0.722c-0.1912,0,-0.3609,0.1249,-0.4214,0.3062l-0.3529,1.0598l-0.6308,0.2619l-0.998,-0.4987c-0.171,-0.0855,-0.3775,-0.0518,-0.5127,0.0834l-0.5105,0.5106c-0.1352,0.1352,-0.1687,0.3418,-0.0832,0.5128l0.499,0.998l-0.2613,0.6308l-1.0611,0.3529c-0.1814,0.0605,-0.3062,0.2302,-0.3062,0.4214v0.722c0,0.1912,0.1249,0.3609,0.3062,0.4214l1.0598,0.3529l0.2619,0.6308l-0.4987,0.998c-0.0855,0.171,-0.0518,0.3775,0.0834,0.5127l0.5106,0.5105c0.1352,0.1352,0.3418,0.1687,0.5128,0.0832l0.998,-0.499l0.6308,0.2613l0.3529,1.0611c0.0605,0.1814,0.2302,0.3062,0.4214,0.3062h0.722c0.1912,0,0.3609,-0.1249,0.4214,-0.3062l0.3529,-1.0598l0.6308,-0.2619l0.998,0.4987c0.171,0.0855,0.3775,0.0518,0.5127,-0.0834l0.5105,-0.5106c0.1352,-0.1352,0.1687,-0.3418,0.0832,-0.5128l-0.499,-0.998l0.2613,-0.6308l1.0611,-0.3529c0.1814,-0.0605,0.3062,-0.2302,0.3062,-0.4214v-0.722C24,18.4478,23.8751,18.2781,23.6938,18.2176zM19,20c-0.5523,0,-1,-0.4477,-1,-1c0,-0.5523,0.4477,-1,1,-1s1,0.4477,1,1C20,19.5523,19.5523,20,19,20z" fill="#AAB2BD"/>
      <path d="M19,16.0909c-1.6066,0,-2.9091,1.3024,-2.9091,2.9091s1.3024,2.9091,2.9091,2.9091s2.9091,-1.3024,2.9091,-2.9091S20.6066,16.0909,19,16.0909zM19,20.8182c-1.0042,0,-1.8182,-0.814,-1.8182,-1.8182c0,-1.0042,0.814,-1.8182,1.8182,-1.8182s1.8182,0.814,1.8182,1.8182C20.8182,20.0042,20.0042,20.8182,19,20.8182z" fill="#8E949C"/>
      <path d="M23.6938,18.2176l-1.0598,-0.3529l-0.2619,-0.6308l0.4987,-0.998c0.0855,-0.171,0.0518,-0.3775,-0.0834,-0.5127l-0.2554,-0.2553l-2.8249,2.8249c0.181,0.181,0.2929,0.431,0.2929,0.7071c0,0.5523,-0.4477,1,-1,1c-0.2761,0,-0.5261,-0.1119,-0.7071,-0.2929L15.468,22.532l0.2552,0.2552c0.1352,0.1352,0.3418,0.1687,0.5128,0.0832l0.998,-0.499l0.6308,0.2613l0.3529,1.0611c0.0605,0.1814,0.2302,0.3062,0.4214,0.3062h0.722c0.1912,0,0.3609,-0.1249,0.4214,-0.3062l0.3529,-1.0598l0.6308,-0.2619l0.998,0.4987c0.171,0.0855,0.3775,0.0518,0.5127,-0.0834l0.5105,-0.5106c0.1352,-0.1352,0.1687,-0.3418,0.0832,-0.5128l-0.499,-0.998l0.2613,-0.6308l1.0611,-0.3529c0.1814,-0.0605,0.3062,-0.2302,0.3062,-0.4214v-0.722C24,18.4478,23.8751,18.2781,23.6938,18.2176z" fill="#231F20" opacity="0.06"/>
    </g>
  </g>
</svg>
