<?xml version="1.0" encoding="UTF-8"?>
<!DOCTYPE svg PUBLIC "-//W3C//DTD SVG 1.1//EN" "http://www.w3.org/Graphics/SVG/1.1/DTD/svg11.dtd">
<svg version="1.1" id="Layer_1" xmlns="http://www.w3.org/2000/svg" xmlns:xlink="http://www.w3.org/1999/xlink" x="0px" y="0px" width="24px" height="24px" viewBox="0 0 24 24" enable-background="new 0 0 24 24" xml:space="preserve">
  <g id="icon">
    <path d="M17.6726,4.2873c-0.7705,0,-1.5017,0.1704,-2.1618,0.4743c-0.9199,-2.2236,-3.0032,-3.7763,-5.4275,-3.7763c-2.9978,0,-5.4746,2.3734,-5.8737,5.4549c-1.8313,0.5695,-3.1587,2.2503,-3.1587,4.2356c0,3.3721,2.7298,4.1586,5.0857,4.3242h0.2197l4.5907,-4.5906c0.2639,-0.264,0.6156,-0.4094,0.9901,-0.4094c0.3744,0,0.7261,0.1454,0.9901,0.4093L17.5202,15h0.6652h0.698c2.5746,-0.2822,4.07,-2.518,4.07,-5.3088C22.9534,6.7039,20.5891,4.2873,17.6726,4.2873z" fill-rule="evenodd" fill="#5D9CEC"/>
    <path d="M17.6726,4.2873c-0.7705,0,-1.5017,0.1704,-2.1618,0.4743c-0.2084,-0.5039,-0.4772,-0.9728,-0.7955,-1.3975l-3.3839,6.7743c0.1866,-0.0896,0.392,-0.1383,0.6055,-0.1383c0.3744,0,0.7261,0.1454,0.9901,0.4093L17.5202,15h0.6652h0.698c2.5746,-0.2822,4.07,-2.518,4.07,-5.3088C22.9534,6.7039,20.5891,4.2873,17.6726,4.2873z" fill-rule="evenodd" fill="#4B89DC"/>
    <path d="M11.6539,11.1166L6.4614,16.309c-0.1554,0.1554,-0.1554,0.4097,0,0.5651l0.8477,0.8477c0.1554,0.1554,0.4399,0.1554,0.5953,0L11,14.6564v7.9439c0,0.2198,0.1195,0.3997,0.3393,0.3997h1.1988c0.2198,0,0.4619,-0.1799,0.4619,-0.3997v-7.9395l3.0299,3.061c0.1554,0.1554,0.3941,0.1554,0.5495,0l0.8399,-0.8477c0.1554,-0.1554,0.1515,-0.4097,-0.0039,-0.5651l-4.3467,-4.3448l-0.8487,-0.8477C12.0646,10.9611,11.8093,10.9611,11.6539,11.1166z" fill="#DB4453"/>
  </g>
</svg>
