<?xml version="1.0" encoding="UTF-8"?>
<!DOCTYPE svg PUBLIC "-//W3C//DTD SVG 1.1//EN" "http://www.w3.org/Graphics/SVG/1.1/DTD/svg11.dtd">
<svg version="1.1" id="Layer_1" xmlns="http://www.w3.org/2000/svg" xmlns:xlink="http://www.w3.org/1999/xlink" x="0px" y="0px" width="24px" height="24px" viewBox="0 0 24 24" enable-background="new 0 0 24 24" xml:space="preserve">
  <g id="icon">
    <path d="M6.1365,19h1.3498h6.072h1.1765h3.4505h0.698c2.5746,-0.2822,4.07,-2.518,4.07,-5.3087c0,-2.9874,-2.3643,-5.404,-5.2808,-5.404c-0.7705,0,-1.5017,0.1704,-2.1618,0.4743c-0.9199,-2.2236,-3.0032,-3.7763,-5.4275,-3.7763c-2.9978,0,-5.4746,2.3734,-5.8737,5.455c-1.8313,0.5695,-3.1587,2.2503,-3.1587,4.2356C1.0508,18.0479,3.7807,18.8344,6.1365,19z" fill-rule="evenodd" fill="#5D9CEC"/>
    <path d="M17.6726,8.2873c-0.7705,0,-1.5017,0.1704,-2.1618,0.4743c-0.2084,-0.5039,-0.4772,-0.9728,-0.7955,-1.3975L8.9029,19h4.6555h1.1765h3.4505h0.698c2.5746,-0.2822,4.07,-2.518,4.07,-5.3087C22.9534,10.7039,20.5891,8.2873,17.6726,8.2873z" fill-rule="evenodd" fill="#4B89DC"/>
  </g>
</svg>
