<?xml version="1.0" encoding="UTF-8"?>
<!DOCTYPE svg PUBLIC "-//W3C//DTD SVG 1.1//EN" "http://www.w3.org/Graphics/SVG/1.1/DTD/svg11.dtd">
<svg version="1.1" id="Layer_1" xmlns="http://www.w3.org/2000/svg" xmlns:xlink="http://www.w3.org/1999/xlink" x="0px" y="0px" width="24px" height="24px" viewBox="0 0 24 24" enable-background="new 0 0 24 24" xml:space="preserve">
  <g id="main">
    <g id="icon">
      <path d="M8.528,4.013L7.987,4.093L7.462,4.225L6.957,4.404L6.012,4.899L5.172,5.557L4.453,6.36L3.874,7.288L3.454,8.321L3.21,9.44L2.548,9.704L1.943,10.06L1.405,10.51L0.9434,11.03L0.5674,11.61L0.2869,12.26L0.1113,12.95L0.05078,13.68L0.08203,14.28L0.1727,14.82L0.3182,15.31L0.5141,15.75L0.7559,16.14L1.039,16.48L1.358,16.78L1.71,17.04L2.492,17.45L3.348,17.73L4.242,17.9L5.137,18L6.486,18L12.56,18L13.73,18L13.91,18L13.93,17.87L14,17.67L14,16.35L14.03,16.09L14.11,15.83L14.24,15.6L14.42,15.4L14.63,15.23L14.86,15.11L15.13,15.03L15.4,15L18.04,15L18.35,15.03L18.64,15.12L18.91,15.26L19.16,15.46L19.25,15.57L19.57,16L21.06,16L21.34,15.52L21.68,14.66L21.88,13.71L21.95,12.69L21.93,12.14L21.85,11.6L21.72,11.08L21.54,10.59L21.32,10.11L21.05,9.669L20.41,8.869L19.62,8.209L19.19,7.939L18.73,7.712L18.24,7.53L17.74,7.397L17.21,7.315L16.67,7.287L16.1,7.319L15.55,7.411L15.02,7.559L14.51,7.762L14.11,6.961L13.62,6.233L13.03,5.59L12.36,5.04L11.62,4.594L10.82,4.263L9.975,4.056L9.083,3.985zz" fill-rule="evenodd" fill="#5D9CEC"/>
      <path d="M7.903,18L12.56,18L13.73,18L13.91,18L13.93,17.87L14,17.67L14,16.35L14.03,16.09L14.11,15.83L14.24,15.6L14.42,15.4L14.63,15.23L14.86,15.11L15.13,15.03L15.4,15L18.04,15L18.35,15.03L18.64,15.12L18.91,15.26L19.16,15.46L19.25,15.57L19.57,16L21.06,16L21.34,15.52L21.68,14.66L21.88,13.71L21.95,12.69L21.93,12.14L21.85,11.6L21.72,11.08L21.54,10.59L21.32,10.11L21.05,9.669L20.41,8.869L19.63,8.209L19.19,7.939L18.73,7.712L18.24,7.53L17.74,7.397L17.21,7.315L16.67,7.287L16.1,7.319L15.55,7.411L15.02,7.559L14.51,7.762L14.15,7.033L13.72,6.364zz" fill-rule="evenodd" fill="#4B89DC"/>
    </g>
    <g id="overlay">
      <path d="M15,18v5.508c0,0.2706,0.2214,0.492,0.492,0.492h8.036c0.2706,0,0.472,-0.2214,0.472,-0.492V18H15z" fill="#F6BB43"/>
      <path d="M18.9478,16.8378l-0.5,-0.67c-0.1075,-0.1075,-0.2532,-0.1678,-0.4052,-0.1678h-2.6378c-0.2236,0,-0.4049,0.1813,-0.4049,0.3549V18h9v-0.6c0,-0.2264,-0.1636,-0.4,-0.39,-0.4h-4.2948C19.1774,17,19.0452,16.9353,18.9478,16.8378z" fill="#C18F36"/>
      <path d="M24,23.5166v-6.1499c0,-0.2025,-0.1642,-0.3667,-0.3667,-0.3667H22.7l-3.8571,7h4.6736C23.7824,24,24,23.7824,24,23.5166z" fill="#C18F36" opacity="0.21"/>
    </g>
  </g>
</svg>
