<?xml version="1.0" encoding="UTF-8"?>
<!DOCTYPE svg PUBLIC "-//W3C//DTD SVG 1.1//EN" "http://www.w3.org/Graphics/SVG/1.1/DTD/svg11.dtd">
<svg version="1.1" id="Layer_1" xmlns="http://www.w3.org/2000/svg" xmlns:xlink="http://www.w3.org/1999/xlink" x="0px" y="0px" width="24px" height="24px" viewBox="0 0 24 24" enable-background="new 0 0 24 24" xml:space="preserve">
  <g id="icon">
    <path d="M17.6726,4.2873c-0.7705,0,-1.5017,0.1704,-2.1618,0.4743c-0.9199,-2.2236,-3.0032,-3.7763,-5.4275,-3.7763c-2.9978,0,-5.4746,2.3734,-5.8737,5.4549c-1.8313,0.5695,-3.1587,2.2503,-3.1587,4.2356c0,3.3721,2.7298,4.1586,5.0857,4.3242h1.3498H10v-3.601c0,-0.7583,0.6587,-1.399,1.4385,-1.399h1.1988c0.7642,0,1.3627,0.6145,1.3627,1.399V15h0.7349h3.4505h0.698c2.5746,-0.2822,4.07,-2.518,4.07,-5.3088C22.9534,6.7039,20.5891,4.2873,17.6726,4.2873z" fill-rule="evenodd" fill="#5D9CEC"/>
    <path d="M10,15H8.9029L10,12.8036V15zM17.6726,4.2873c-0.7705,0,-1.5017,0.1704,-2.1618,0.4743c-0.2084,-0.5039,-0.4772,-0.9728,-0.7955,-1.3975L11.9,10h0.7373c0.7642,0,1.3627,0.6145,1.3627,1.399V15h0.7349h3.4505h0.698c2.5746,-0.2822,4.07,-2.518,4.07,-5.3088C22.9534,6.7039,20.5891,4.2873,17.6726,4.2873z" fill-rule="evenodd" fill="#4B89DC"/>
    <path d="M12.3227,22.8828l5.1925,-5.1925c0.1554,-0.1554,0.1554,-0.4097,0,-0.5651l-0.8477,-0.8477c-0.1554,-0.1554,-0.4282,-0.1554,-0.5836,0L13,19.3429V11.399c0,-0.2198,-0.1429,-0.399,-0.3627,-0.399h-1.1988c-0.2198,0,-0.4385,0.1792,-0.4385,0.399v7.9395l-3.0416,-3.061c-0.1554,-0.1554,-0.4,-0.1554,-0.5554,0l-0.8428,0.8477c-0.1554,0.1554,-0.153,0.4097,0.0024,0.5651l4.346,4.3448l0.8483,0.8477C11.9123,23.0382,12.1672,23.0382,12.3227,22.8828z" fill="#36BC9B"/>
  </g>
</svg>
