<?xml version="1.0" encoding="UTF-8" standalone="no"?>
<!DOCTYPE svg PUBLIC "-//W3C//DTD SVG 1.1//EN" "http://www.w3.org/Graphics/SVG/1.1/DTD/svg11.dtd">
<svg width="100%" height="100%" viewBox="0 0 512 512" version="1.1" xmlns="http://www.w3.org/2000/svg" xmlns:xlink="http://www.w3.org/1999/xlink" xml:space="preserve" xmlns:serif="http://www.serif.com/" style="fill-rule:evenodd;clip-rule:evenodd;stroke-linejoin:round;stroke-miterlimit:2;">
    <g>
        <g>
            <rect id="curve1" x="64" y="0" width="384" height="512" style="fill:url(#_Linear1);"/>
            <g id="curve0" transform="matrix(1,0,0,1,-8,-8)">
                <path d="M112,48L224,48L224,64L112,64L112,48ZM112,336L224,336L224,352L112,352L112,336ZM112,464L336,464L336,480L112,480L112,464ZM112,432L224,432L224,448L112,448L112,432ZM160,400L304,400L304,416L160,416L160,400ZM160,368L400,368L400,384L160,384L160,368ZM112,304L272,304L272,320L112,320L112,304ZM160,208L272,208L272,224L160,224L160,208ZM112,272L224,272L224,288L112,288L112,272ZM160,240L352,240L352,256L160,256L160,240ZM160,176L304,176L304,192L160,192L160,176ZM224,144L336,144L336,160L224,160L224,144ZM224,112L416,112L416,128L224,128L224,112ZM160,80L336,80L336,96L160,96L160,80Z" style="fill:url(#_Linear2);"/>
            </g>
        </g>
        <g id="CSharp---Text" serif:id="CSharp - Text" transform="matrix(1.33333,0,0,1.45455,-85.3333,-360.727)">
            <rect x="64" y="336" width="384" height="176" style="fill:rgb(96,175,31);"/>
        </g>
        <g id="CSharp---Text1" serif:id="CSharp - Text" transform="matrix(0.976647,0,0,0.964333,-24.332,-70.1096)">
            <g transform="matrix(237.547,0,0,240.581,139.206,423.69)">
                <path d="M0.603,-0.24L0.604,-0.237C0.605,-0.156 0.582,-0.094 0.535,-0.052C0.488,-0.011 0.421,0.01 0.335,0.01C0.247,0.01 0.177,-0.017 0.123,-0.07C0.07,-0.124 0.043,-0.194 0.043,-0.281L0.043,-0.43C0.043,-0.516 0.069,-0.587 0.12,-0.64C0.172,-0.694 0.239,-0.721 0.324,-0.721C0.414,-0.721 0.484,-0.7 0.533,-0.658C0.582,-0.616 0.606,-0.555 0.605,-0.475L0.604,-0.472L0.443,-0.472C0.443,-0.516 0.434,-0.547 0.415,-0.566C0.396,-0.585 0.366,-0.594 0.324,-0.594C0.287,-0.594 0.258,-0.579 0.238,-0.55C0.218,-0.52 0.208,-0.48 0.208,-0.431L0.208,-0.281C0.208,-0.231 0.219,-0.192 0.241,-0.162C0.263,-0.132 0.294,-0.117 0.335,-0.117C0.373,-0.117 0.4,-0.126 0.417,-0.145C0.434,-0.164 0.442,-0.195 0.442,-0.24L0.603,-0.24Z" style="fill:white;fill-rule:nonzero;"/>
            </g>
            <g transform="matrix(237.547,0,0,240.581,290.805,423.69)">
                <path d="M0.302,-0.2L0.224,-0.2L0.191,-0L0.094,-0L0.126,-0.2L0.018,-0.2L0.018,-0.29L0.141,-0.29L0.163,-0.418L0.055,-0.418L0.055,-0.508L0.177,-0.508L0.211,-0.711L0.308,-0.711L0.274,-0.508L0.353,-0.508L0.387,-0.711L0.484,-0.711L0.45,-0.508L0.563,-0.508L0.563,-0.418L0.436,-0.418L0.414,-0.29L0.526,-0.29L0.526,-0.2L0.399,-0.2L0.367,-0L0.27,-0L0.302,-0.2ZM0.238,-0.29L0.317,-0.29L0.338,-0.418L0.26,-0.418L0.238,-0.29Z" style="fill:white;fill-rule:nonzero;"/>
            </g>
        </g>
    </g>
    <defs>
        <linearGradient id="_Linear1" x1="0" y1="0" x2="1" y2="0" gradientUnits="userSpaceOnUse" gradientTransform="matrix(310.858,512.001,-512.001,310.858,64,0)"><stop offset="0" style="stop-color:rgb(243,250,254);stop-opacity:1"/><stop offset="1" style="stop-color:rgb(199,232,251);stop-opacity:1"/></linearGradient>
        <linearGradient id="_Linear2" x1="0" y1="0" x2="1" y2="0" gradientUnits="userSpaceOnUse" gradientTransform="matrix(225.819,432.001,-432.001,225.819,112,48)"><stop offset="0" style="stop-color:rgb(135,149,165);stop-opacity:1"/><stop offset="1" style="stop-color:rgb(115,129,145);stop-opacity:1"/></linearGradient>
    </defs>
</svg>
