<?xml version="1.0" encoding="UTF-8" standalone="no"?>
<!DOCTYPE svg PUBLIC "-//W3C//DTD SVG 1.1//EN" "http://www.w3.org/Graphics/SVG/1.1/DTD/svg11.dtd">
<svg width="100%" height="100%" viewBox="0 0 512 512" version="1.1" xmlns="http://www.w3.org/2000/svg" xmlns:xlink="http://www.w3.org/1999/xlink" xml:space="preserve" xmlns:serif="http://www.serif.com/" style="fill-rule:evenodd;clip-rule:evenodd;stroke-linejoin:round;stroke-miterlimit:2;">
    <g>
        <g>
            <rect id="curve1" x="64" y="0" width="384" height="512" style="fill:url(#_Linear1);"/>
            <g transform="matrix(1,0,0,1,-8,0)">
                <rect x="112" y="464" width="224" height="16" style="fill:url(#_Linear2);"/>
            </g>
            <g transform="matrix(1,0,0,1,-8,-1)">
                <rect x="112" y="432" width="112" height="16" style="fill:url(#_Linear3);"/>
            </g>
            <g transform="matrix(1,0,0,1,-8,0)">
                <rect x="160" y="400" width="144" height="16" style="fill:url(#_Linear4);"/>
            </g>
            <g transform="matrix(1,0,0,1,-8,-16)">
                <rect x="224" y="112" width="192" height="16" style="fill:url(#_Linear5);"/>
            </g>
            <g transform="matrix(1,0,0,1,-8,-16)">
                <rect x="160" y="80" width="176" height="16" style="fill:url(#_Linear6);"/>
            </g>
            <g transform="matrix(1,0,0,1,-8,-16)">
                <rect x="112" y="48" width="112" height="16" style="fill:url(#_Linear7);"/>
            </g>
        </g>
        <g id="TS---Back" serif:id="TS - Back" transform="matrix(1.00814,0,0,1.01735,-4.17014,-6.66301)">
            <rect x="4.136" y="132.366" width="507.864" height="251.634" style="fill:rgb(47,118,196);"/>
        </g>
        <g id="TS---Text" serif:id="TS - Text" transform="matrix(0.933125,0,0,0.92136,-7.17796,-52.8601)">
            <g transform="matrix(245.739,0,0,248.877,133.445,423.69)">
                <path d="M0.599,-0.592L0.381,-0.592L0.381,-0L0.234,-0L0.234,-0.592L0.02,-0.592L0.02,-0.711L0.599,-0.711L0.599,-0.592Z" style="fill:white;fill-rule:nonzero;"/>
            </g>
            <g transform="matrix(245.739,0,0,248.877,283.527,423.69)">
                <path d="M0.432,-0.187C0.432,-0.214 0.422,-0.235 0.403,-0.25C0.383,-0.265 0.348,-0.281 0.297,-0.297C0.247,-0.314 0.206,-0.33 0.177,-0.346C0.096,-0.389 0.056,-0.448 0.056,-0.522C0.056,-0.56 0.066,-0.595 0.088,-0.625C0.11,-0.655 0.141,-0.678 0.181,-0.695C0.222,-0.712 0.267,-0.721 0.318,-0.721C0.369,-0.721 0.414,-0.712 0.454,-0.693C0.493,-0.675 0.524,-0.649 0.546,-0.615C0.568,-0.582 0.579,-0.544 0.579,-0.501L0.433,-0.501C0.433,-0.534 0.422,-0.559 0.402,-0.577C0.381,-0.595 0.353,-0.604 0.315,-0.604C0.28,-0.604 0.252,-0.596 0.232,-0.581C0.212,-0.566 0.202,-0.546 0.202,-0.521C0.202,-0.498 0.214,-0.479 0.237,-0.463C0.26,-0.448 0.295,-0.433 0.34,-0.419C0.423,-0.394 0.484,-0.363 0.522,-0.326C0.56,-0.289 0.579,-0.243 0.579,-0.188C0.579,-0.126 0.556,-0.078 0.509,-0.043C0.463,-0.008 0.4,0.01 0.321,0.01C0.267,0.01 0.217,-0 0.172,-0.02C0.127,-0.04 0.093,-0.068 0.069,-0.103C0.045,-0.137 0.034,-0.178 0.034,-0.224L0.181,-0.224C0.181,-0.145 0.228,-0.106 0.321,-0.106C0.356,-0.106 0.383,-0.113 0.403,-0.127C0.422,-0.141 0.432,-0.161 0.432,-0.187Z" style="fill:white;fill-rule:nonzero;"/>
            </g>
        </g>
        <g id="TEXT---Text" serif:id="TEXT - Text" transform="matrix(1.33333,0,0,1.45455,-85.3333,-360.727)">
            <rect x="64" y="336" width="384" height="176" style="fill:rgb(68,120,210);"/>
        </g>
        <g id="TXT---Text" serif:id="TXT - Text" transform="matrix(1.03169,0,0,1.01869,-23.3612,-94.0963)">
            <g transform="matrix(222.26,0,0,225.099,80.2624,423.69)">
                <path d="M0.21,-0.25L0.21,-0L0.063,-0L0.063,-0.711L0.341,-0.711C0.394,-0.711 0.441,-0.701 0.482,-0.682C0.522,-0.662 0.553,-0.634 0.575,-0.598C0.597,-0.562 0.608,-0.521 0.608,-0.476C0.608,-0.406 0.584,-0.351 0.536,-0.311C0.489,-0.271 0.423,-0.25 0.338,-0.25L0.21,-0.25ZM0.21,-0.369L0.341,-0.369C0.38,-0.369 0.409,-0.378 0.429,-0.396C0.45,-0.415 0.46,-0.441 0.46,-0.475C0.46,-0.509 0.45,-0.538 0.429,-0.559C0.409,-0.581 0.38,-0.592 0.344,-0.592L0.21,-0.592L0.21,-0.369Z" style="fill:white;fill-rule:nonzero;"/>
            </g>
            <g transform="matrix(222.26,0,0,225.099,223.625,423.69)">
                <path d="M0.432,-0.187C0.432,-0.214 0.422,-0.235 0.403,-0.25C0.383,-0.265 0.348,-0.281 0.297,-0.297C0.247,-0.314 0.206,-0.33 0.177,-0.346C0.096,-0.389 0.056,-0.448 0.056,-0.522C0.056,-0.56 0.066,-0.595 0.088,-0.625C0.11,-0.655 0.141,-0.678 0.181,-0.695C0.222,-0.712 0.267,-0.721 0.318,-0.721C0.369,-0.721 0.414,-0.712 0.454,-0.693C0.493,-0.675 0.524,-0.649 0.546,-0.615C0.568,-0.582 0.579,-0.544 0.579,-0.501L0.433,-0.501C0.433,-0.534 0.422,-0.559 0.402,-0.577C0.381,-0.595 0.353,-0.604 0.315,-0.604C0.28,-0.604 0.252,-0.596 0.232,-0.581C0.212,-0.566 0.202,-0.546 0.202,-0.521C0.202,-0.498 0.214,-0.479 0.237,-0.463C0.26,-0.448 0.295,-0.433 0.34,-0.419C0.423,-0.394 0.484,-0.363 0.522,-0.326C0.56,-0.289 0.579,-0.243 0.579,-0.188C0.579,-0.126 0.556,-0.078 0.509,-0.043C0.463,-0.008 0.4,0.01 0.321,0.01C0.267,0.01 0.217,-0 0.172,-0.02C0.127,-0.04 0.093,-0.068 0.069,-0.103C0.045,-0.137 0.034,-0.178 0.034,-0.224L0.181,-0.224C0.181,-0.145 0.228,-0.106 0.321,-0.106C0.356,-0.106 0.383,-0.113 0.403,-0.127C0.422,-0.141 0.432,-0.161 0.432,-0.187Z" style="fill:white;fill-rule:nonzero;"/>
            </g>
            <g transform="matrix(222.26,0,0,225.099,360.259,423.69)">
                <path d="M0.391,-0L0.25,-0L0.25,-0.545L0.082,-0.493L0.082,-0.606L0.376,-0.712L0.391,-0.712L0.391,-0Z" style="fill:white;fill-rule:nonzero;"/>
            </g>
        </g>
    </g>
    <defs>
        <linearGradient id="_Linear1" x1="0" y1="0" x2="1" y2="0" gradientUnits="userSpaceOnUse" gradientTransform="matrix(310.858,512.001,-512.001,310.858,64,0)"><stop offset="0" style="stop-color:rgb(243,250,254);stop-opacity:1"/><stop offset="1" style="stop-color:rgb(199,232,251);stop-opacity:1"/></linearGradient>
        <linearGradient id="_Linear2" x1="0" y1="0" x2="1" y2="0" gradientUnits="userSpaceOnUse" gradientTransform="matrix(225.819,432.001,-432.001,225.819,112,48)"><stop offset="0" style="stop-color:rgb(135,149,165);stop-opacity:1"/><stop offset="1" style="stop-color:rgb(115,129,145);stop-opacity:1"/></linearGradient>
        <linearGradient id="_Linear3" x1="0" y1="0" x2="1" y2="0" gradientUnits="userSpaceOnUse" gradientTransform="matrix(225.819,432.001,-432.001,225.819,112,48)"><stop offset="0" style="stop-color:rgb(135,149,165);stop-opacity:1"/><stop offset="1" style="stop-color:rgb(115,129,145);stop-opacity:1"/></linearGradient>
        <linearGradient id="_Linear4" x1="0" y1="0" x2="1" y2="0" gradientUnits="userSpaceOnUse" gradientTransform="matrix(225.819,432.001,-432.001,225.819,112,48)"><stop offset="0" style="stop-color:rgb(135,149,165);stop-opacity:1"/><stop offset="1" style="stop-color:rgb(115,129,145);stop-opacity:1"/></linearGradient>
        <linearGradient id="_Linear5" x1="0" y1="0" x2="1" y2="0" gradientUnits="userSpaceOnUse" gradientTransform="matrix(225.819,432.001,-432.001,225.819,112,48)"><stop offset="0" style="stop-color:rgb(135,149,165);stop-opacity:1"/><stop offset="1" style="stop-color:rgb(115,129,145);stop-opacity:1"/></linearGradient>
        <linearGradient id="_Linear6" x1="0" y1="0" x2="1" y2="0" gradientUnits="userSpaceOnUse" gradientTransform="matrix(225.819,432.001,-432.001,225.819,112,48)"><stop offset="0" style="stop-color:rgb(135,149,165);stop-opacity:1"/><stop offset="1" style="stop-color:rgb(115,129,145);stop-opacity:1"/></linearGradient>
        <linearGradient id="_Linear7" x1="0" y1="0" x2="1" y2="0" gradientUnits="userSpaceOnUse" gradientTransform="matrix(225.819,432.001,-432.001,225.819,112,48)"><stop offset="0" style="stop-color:rgb(135,149,165);stop-opacity:1"/><stop offset="1" style="stop-color:rgb(115,129,145);stop-opacity:1"/></linearGradient>
    </defs>
</svg>
