<?xml version="1.0" encoding="UTF-8" standalone="no"?>
<!DOCTYPE svg PUBLIC "-//W3C//DTD SVG 1.1//EN" "http://www.w3.org/Graphics/SVG/1.1/DTD/svg11.dtd">
<svg width="100%" height="100%" viewBox="0 0 512 512" version="1.1" xmlns="http://www.w3.org/2000/svg" xmlns:xlink="http://www.w3.org/1999/xlink" xml:space="preserve" xmlns:serif="http://www.serif.com/" style="fill-rule:evenodd;clip-rule:evenodd;stroke-linejoin:round;stroke-miterlimit:2;">
    <g>
        <g>
            <rect id="curve1" x="64" y="0" width="384" height="512" style="fill:url(#_Linear1);"/>
            <g id="curve0" transform="matrix(1,0,0,1,-8,-8)">
                <path d="M112,48L224,48L224,64L112,64L112,48ZM112,336L224,336L224,352L112,352L112,336ZM112,464L336,464L336,480L112,480L112,464ZM112,432L224,432L224,448L112,448L112,432ZM160,400L304,400L304,416L160,416L160,400ZM160,368L400,368L400,384L160,384L160,368ZM112,304L272,304L272,320L112,320L112,304ZM160,208L272,208L272,224L160,224L160,208ZM112,272L224,272L224,288L112,288L112,272ZM160,240L352,240L352,256L160,256L160,240ZM160,176L304,176L304,192L160,192L160,176ZM224,144L336,144L336,160L224,160L224,144ZM224,112L416,112L416,128L224,128L224,112ZM160,80L336,80L336,96L160,96L160,80Z" style="fill:url(#_Linear2);"/>
            </g>
        </g>
        <g id="LOG---Text" serif:id="LOG - Text" transform="matrix(1.20833,0,0,1.45455,-53.3333,-360.727)">
            <rect x="64" y="336" width="384" height="176" style="fill:rgb(67,67,67);"/>
        </g>
        <g id="LOG---Text1" serif:id="LOG - Text" transform="matrix(0.976647,0,0,0.964333,-22.746,-84.3283)">
            <g transform="matrix(196.591,0,0,199.101,97.4268,423.69)">
                <path d="M0.222,-0.127L0.527,-0.127L0.527,-0L0.057,-0L0.057,-0.711L0.222,-0.711L0.222,-0.127Z" style="fill:white;fill-rule:nonzero;"/>
            </g>
            <g transform="matrix(196.591,0,0,199.101,204.811,423.69)">
                <path d="M0.647,-0.292C0.647,-0.204 0.62,-0.132 0.564,-0.075C0.509,-0.018 0.436,0.01 0.347,0.01C0.257,0.01 0.183,-0.018 0.127,-0.075C0.071,-0.132 0.043,-0.204 0.043,-0.292L0.043,-0.419C0.043,-0.507 0.071,-0.579 0.127,-0.636C0.183,-0.693 0.256,-0.721 0.346,-0.721C0.435,-0.721 0.507,-0.693 0.563,-0.636C0.619,-0.579 0.647,-0.507 0.647,-0.419L0.647,-0.292ZM0.483,-0.42C0.483,-0.471 0.471,-0.513 0.447,-0.545C0.423,-0.578 0.389,-0.594 0.346,-0.594C0.301,-0.594 0.267,-0.578 0.243,-0.546C0.22,-0.513 0.208,-0.472 0.208,-0.42L0.208,-0.292C0.208,-0.24 0.22,-0.198 0.244,-0.166C0.268,-0.133 0.302,-0.117 0.347,-0.117C0.39,-0.117 0.424,-0.133 0.447,-0.166C0.471,-0.198 0.483,-0.24 0.483,-0.292L0.483,-0.42Z" style="fill:white;fill-rule:nonzero;"/>
            </g>
            <g transform="matrix(196.591,0,0,199.101,340.735,423.69)">
                <path d="M0.618,-0.098C0.593,-0.068 0.559,-0.043 0.514,-0.021C0.469,-0 0.411,0.01 0.34,0.01C0.252,0.01 0.181,-0.017 0.125,-0.071C0.07,-0.125 0.043,-0.195 0.043,-0.281L0.043,-0.43C0.043,-0.515 0.07,-0.585 0.123,-0.64C0.177,-0.694 0.246,-0.721 0.33,-0.721C0.421,-0.721 0.49,-0.701 0.536,-0.66C0.582,-0.62 0.605,-0.564 0.603,-0.494L0.602,-0.491L0.447,-0.491C0.447,-0.526 0.438,-0.552 0.419,-0.569C0.401,-0.586 0.373,-0.594 0.335,-0.594C0.297,-0.594 0.266,-0.579 0.243,-0.549C0.219,-0.519 0.208,-0.479 0.208,-0.431L0.208,-0.281C0.208,-0.232 0.219,-0.192 0.242,-0.162C0.266,-0.132 0.298,-0.117 0.34,-0.117C0.371,-0.117 0.394,-0.119 0.412,-0.124C0.429,-0.129 0.443,-0.135 0.453,-0.144L0.453,-0.271L0.327,-0.271L0.327,-0.38L0.618,-0.38L0.618,-0.098Z" style="fill:white;fill-rule:nonzero;"/>
            </g>
        </g>
    </g>
    <defs>
        <linearGradient id="_Linear1" x1="0" y1="0" x2="1" y2="0" gradientUnits="userSpaceOnUse" gradientTransform="matrix(310.858,512.001,-512.001,310.858,64,0)"><stop offset="0" style="stop-color:rgb(243,250,254);stop-opacity:1"/><stop offset="1" style="stop-color:rgb(199,232,251);stop-opacity:1"/></linearGradient>
        <linearGradient id="_Linear2" x1="0" y1="0" x2="1" y2="0" gradientUnits="userSpaceOnUse" gradientTransform="matrix(225.819,432.001,-432.001,225.819,112,48)"><stop offset="0" style="stop-color:rgb(135,149,165);stop-opacity:1"/><stop offset="1" style="stop-color:rgb(115,129,145);stop-opacity:1"/></linearGradient>
    </defs>
</svg>
