<?xml version="1.0" encoding="UTF-8" standalone="no"?>
<!DOCTYPE svg PUBLIC "-//W3C//DTD SVG 1.1//EN" "http://www.w3.org/Graphics/SVG/1.1/DTD/svg11.dtd">
<svg width="100%" height="100%" viewBox="0 0 512 512" version="1.1" xmlns="http://www.w3.org/2000/svg" xmlns:xlink="http://www.w3.org/1999/xlink" xml:space="preserve" xmlns:serif="http://www.serif.com/" style="fill-rule:evenodd;clip-rule:evenodd;stroke-linejoin:round;stroke-miterlimit:2;">
    <g>
        <g>
            <rect id="curve1" x="64" y="0" width="384" height="512" style="fill:url(#_Linear1);"/>
            <g transform="matrix(1,0,0,1,-8,0)">
                <rect x="112" y="464" width="224" height="16" style="fill:url(#_Linear2);"/>
            </g>
            <g transform="matrix(1,0,0,1,-8,-1)">
                <rect x="112" y="432" width="112" height="16" style="fill:url(#_Linear3);"/>
            </g>
            <g transform="matrix(1,0,0,1,-8,0)">
                <rect x="160" y="400" width="144" height="16" style="fill:url(#_Linear4);"/>
            </g>
            <g transform="matrix(1,0,0,1,-8,-16)">
                <rect x="224" y="112" width="192" height="16" style="fill:url(#_Linear5);"/>
            </g>
            <g transform="matrix(1,0,0,1,-8,-16)">
                <rect x="160" y="80" width="176" height="16" style="fill:url(#_Linear6);"/>
            </g>
            <g transform="matrix(1,0,0,1,-8,-16)">
                <rect x="112" y="48" width="112" height="16" style="fill:url(#_Linear7);"/>
            </g>
        </g>
        <g id="CSharp---Text" serif:id="CSharp - Text" transform="matrix(1.33333,0,0,1.45455,-85.3333,-360.727)">
            <rect x="64" y="336" width="384" height="176" style="fill:rgb(96,175,31);"/>
        </g>
        <g id="CSharp---Text1" serif:id="CSharp - Text" transform="matrix(0.933125,0,0,0.92136,-11.6006,-52.8601)">
            <g transform="matrix(245.739,0,0,248.877,130.433,423.69)">
                <path d="M0.622,-0.237C0.616,-0.16 0.588,-0.1 0.537,-0.056C0.486,-0.012 0.419,0.01 0.335,0.01C0.244,0.01 0.173,-0.021 0.12,-0.082C0.068,-0.144 0.042,-0.228 0.042,-0.335L0.042,-0.378C0.042,-0.447 0.054,-0.507 0.078,-0.559C0.102,-0.611 0.137,-0.651 0.181,-0.679C0.226,-0.707 0.278,-0.721 0.337,-0.721C0.419,-0.721 0.486,-0.699 0.536,-0.655C0.586,-0.611 0.615,-0.549 0.623,-0.47L0.476,-0.47C0.472,-0.516 0.46,-0.549 0.438,-0.57C0.416,-0.59 0.382,-0.601 0.337,-0.601C0.289,-0.601 0.252,-0.583 0.228,-0.548C0.204,-0.513 0.191,-0.459 0.19,-0.385L0.19,-0.332C0.19,-0.255 0.202,-0.199 0.225,-0.163C0.249,-0.128 0.285,-0.11 0.335,-0.11C0.381,-0.11 0.414,-0.12 0.437,-0.141C0.459,-0.162 0.472,-0.194 0.475,-0.237L0.622,-0.237Z" style="fill:white;fill-rule:nonzero;"/>
            </g>
            <g transform="matrix(245.739,0,0,248.877,291.219,423.69)">
                <path d="M0.326,-0.2L0.231,-0.2L0.196,-0L0.107,-0L0.142,-0.2L0.031,-0.2L0.031,-0.284L0.157,-0.284L0.181,-0.424L0.068,-0.424L0.068,-0.508L0.196,-0.508L0.232,-0.711L0.321,-0.711L0.285,-0.508L0.38,-0.508L0.416,-0.711L0.505,-0.711L0.469,-0.508L0.576,-0.508L0.576,-0.424L0.454,-0.424L0.43,-0.284L0.539,-0.284L0.539,-0.2L0.415,-0.2L0.38,-0L0.291,-0L0.326,-0.2ZM0.246,-0.284L0.34,-0.284L0.365,-0.424L0.27,-0.424L0.246,-0.284Z" style="fill:white;fill-rule:nonzero;"/>
            </g>
        </g>
    </g>
    <defs>
        <linearGradient id="_Linear1" x1="0" y1="0" x2="1" y2="0" gradientUnits="userSpaceOnUse" gradientTransform="matrix(310.858,512.001,-512.001,310.858,64,0)"><stop offset="0" style="stop-color:rgb(243,250,254);stop-opacity:1"/><stop offset="1" style="stop-color:rgb(199,232,251);stop-opacity:1"/></linearGradient>
        <linearGradient id="_Linear2" x1="0" y1="0" x2="1" y2="0" gradientUnits="userSpaceOnUse" gradientTransform="matrix(225.819,432.001,-432.001,225.819,112,48)"><stop offset="0" style="stop-color:rgb(135,149,165);stop-opacity:1"/><stop offset="1" style="stop-color:rgb(115,129,145);stop-opacity:1"/></linearGradient>
        <linearGradient id="_Linear3" x1="0" y1="0" x2="1" y2="0" gradientUnits="userSpaceOnUse" gradientTransform="matrix(225.819,432.001,-432.001,225.819,112,48)"><stop offset="0" style="stop-color:rgb(135,149,165);stop-opacity:1"/><stop offset="1" style="stop-color:rgb(115,129,145);stop-opacity:1"/></linearGradient>
        <linearGradient id="_Linear4" x1="0" y1="0" x2="1" y2="0" gradientUnits="userSpaceOnUse" gradientTransform="matrix(225.819,432.001,-432.001,225.819,112,48)"><stop offset="0" style="stop-color:rgb(135,149,165);stop-opacity:1"/><stop offset="1" style="stop-color:rgb(115,129,145);stop-opacity:1"/></linearGradient>
        <linearGradient id="_Linear5" x1="0" y1="0" x2="1" y2="0" gradientUnits="userSpaceOnUse" gradientTransform="matrix(225.819,432.001,-432.001,225.819,112,48)"><stop offset="0" style="stop-color:rgb(135,149,165);stop-opacity:1"/><stop offset="1" style="stop-color:rgb(115,129,145);stop-opacity:1"/></linearGradient>
        <linearGradient id="_Linear6" x1="0" y1="0" x2="1" y2="0" gradientUnits="userSpaceOnUse" gradientTransform="matrix(225.819,432.001,-432.001,225.819,112,48)"><stop offset="0" style="stop-color:rgb(135,149,165);stop-opacity:1"/><stop offset="1" style="stop-color:rgb(115,129,145);stop-opacity:1"/></linearGradient>
        <linearGradient id="_Linear7" x1="0" y1="0" x2="1" y2="0" gradientUnits="userSpaceOnUse" gradientTransform="matrix(225.819,432.001,-432.001,225.819,112,48)"><stop offset="0" style="stop-color:rgb(135,149,165);stop-opacity:1"/><stop offset="1" style="stop-color:rgb(115,129,145);stop-opacity:1"/></linearGradient>
    </defs>
</svg>
