<?xml version="1.0" encoding="UTF-8" standalone="no"?>
<!DOCTYPE svg PUBLIC "-//W3C//DTD SVG 1.1//EN" "http://www.w3.org/Graphics/SVG/1.1/DTD/svg11.dtd">
<svg width="100%" height="100%" viewBox="0 0 512 512" version="1.1" xmlns="http://www.w3.org/2000/svg" xmlns:xlink="http://www.w3.org/1999/xlink" xml:space="preserve" xmlns:serif="http://www.serif.com/" style="fill-rule:evenodd;clip-rule:evenodd;stroke-linejoin:round;stroke-miterlimit:2;">
    <g>
        <g>
            <rect id="curve1" x="64" y="0" width="384" height="512" style="fill:url(#_Linear1);"/>
            <g transform="matrix(1,0,0,1,-8,0)">
                <rect x="112" y="464" width="224" height="16" style="fill:url(#_Linear2);"/>
            </g>
            <g transform="matrix(1,0,0,1,-8,-1)">
                <rect x="112" y="432" width="112" height="16" style="fill:url(#_Linear3);"/>
            </g>
            <g transform="matrix(1,0,0,1,-8,0)">
                <rect x="160" y="400" width="144" height="16" style="fill:url(#_Linear4);"/>
            </g>
            <g transform="matrix(1,0,0,1,-8,-16)">
                <rect x="224" y="112" width="192" height="16" style="fill:url(#_Linear5);"/>
            </g>
            <g transform="matrix(1,0,0,1,-8,-16)">
                <rect x="160" y="80" width="176" height="16" style="fill:url(#_Linear6);"/>
            </g>
            <g transform="matrix(1,0,0,1,-8,-16)">
                <rect x="112" y="48" width="112" height="16" style="fill:url(#_Linear7);"/>
            </g>
        </g>
        <g id="TEXT---Text" serif:id="TEXT - Text" transform="matrix(1.33333,0,0,1.45455,-85.3333,-360.727)">
            <rect x="64" y="336" width="384" height="176" style="fill:rgb(82,186,216);"/>
        </g>
        <g id="TXT---Text" serif:id="TXT - Text" transform="matrix(1.06004,0,0,1.04667,-45.0135,-103.714)">
            <g transform="matrix(222.26,0,0,225.099,75.9214,423.69)">
                <path d="M0.599,-0.592L0.381,-0.592L0.381,-0L0.234,-0L0.234,-0.592L0.02,-0.592L0.02,-0.711L0.599,-0.711L0.599,-0.592Z" style="fill:white;fill-rule:nonzero;"/>
            </g>
            <g transform="matrix(222.26,0,0,225.099,213.423,423.69)">
                <path d="M0.318,-0.466L0.451,-0.711L0.62,-0.711L0.413,-0.358L0.625,-0L0.455,-0L0.318,-0.249L0.181,-0L0.011,-0L0.223,-0.358L0.016,-0.711L0.185,-0.711L0.318,-0.466Z" style="fill:white;fill-rule:nonzero;"/>
            </g>
            <g transform="matrix(222.26,0,0,225.099,354.615,423.69)">
                <path d="M0.599,-0.592L0.381,-0.592L0.381,-0L0.234,-0L0.234,-0.592L0.02,-0.592L0.02,-0.711L0.599,-0.711L0.599,-0.592Z" style="fill:white;fill-rule:nonzero;"/>
            </g>
        </g>
    </g>
    <defs>
        <linearGradient id="_Linear1" x1="0" y1="0" x2="1" y2="0" gradientUnits="userSpaceOnUse" gradientTransform="matrix(310.858,512.001,-512.001,310.858,64,0)"><stop offset="0" style="stop-color:rgb(243,250,254);stop-opacity:1"/><stop offset="1" style="stop-color:rgb(199,232,251);stop-opacity:1"/></linearGradient>
        <linearGradient id="_Linear2" x1="0" y1="0" x2="1" y2="0" gradientUnits="userSpaceOnUse" gradientTransform="matrix(225.819,432.001,-432.001,225.819,112,48)"><stop offset="0" style="stop-color:rgb(135,149,165);stop-opacity:1"/><stop offset="1" style="stop-color:rgb(115,129,145);stop-opacity:1"/></linearGradient>
        <linearGradient id="_Linear3" x1="0" y1="0" x2="1" y2="0" gradientUnits="userSpaceOnUse" gradientTransform="matrix(225.819,432.001,-432.001,225.819,112,48)"><stop offset="0" style="stop-color:rgb(135,149,165);stop-opacity:1"/><stop offset="1" style="stop-color:rgb(115,129,145);stop-opacity:1"/></linearGradient>
        <linearGradient id="_Linear4" x1="0" y1="0" x2="1" y2="0" gradientUnits="userSpaceOnUse" gradientTransform="matrix(225.819,432.001,-432.001,225.819,112,48)"><stop offset="0" style="stop-color:rgb(135,149,165);stop-opacity:1"/><stop offset="1" style="stop-color:rgb(115,129,145);stop-opacity:1"/></linearGradient>
        <linearGradient id="_Linear5" x1="0" y1="0" x2="1" y2="0" gradientUnits="userSpaceOnUse" gradientTransform="matrix(225.819,432.001,-432.001,225.819,112,48)"><stop offset="0" style="stop-color:rgb(135,149,165);stop-opacity:1"/><stop offset="1" style="stop-color:rgb(115,129,145);stop-opacity:1"/></linearGradient>
        <linearGradient id="_Linear6" x1="0" y1="0" x2="1" y2="0" gradientUnits="userSpaceOnUse" gradientTransform="matrix(225.819,432.001,-432.001,225.819,112,48)"><stop offset="0" style="stop-color:rgb(135,149,165);stop-opacity:1"/><stop offset="1" style="stop-color:rgb(115,129,145);stop-opacity:1"/></linearGradient>
        <linearGradient id="_Linear7" x1="0" y1="0" x2="1" y2="0" gradientUnits="userSpaceOnUse" gradientTransform="matrix(225.819,432.001,-432.001,225.819,112,48)"><stop offset="0" style="stop-color:rgb(135,149,165);stop-opacity:1"/><stop offset="1" style="stop-color:rgb(115,129,145);stop-opacity:1"/></linearGradient>
    </defs>
</svg>
