<?xml version="1.0" encoding="UTF-8" standalone="no"?><!DOCTYPE svg PUBLIC "-//W3C//DTD SVG 1.1//EN" "http://www.w3.org/Graphics/SVG/1.1/DTD/svg11.dtd"><svg width="100%" height="100%" viewBox="0 0 512 512" version="1.1" xmlns="http://www.w3.org/2000/svg" xmlns:xlink="http://www.w3.org/1999/xlink" xml:space="preserve" xmlns:serif="http://www.serif.com/" style="fill-rule:evenodd;clip-rule:evenodd;stroke-linejoin:round;stroke-miterlimit:2;"><g><g><g><rect id="curve1" x="64" y="0" width="384" height="512" style="fill:url(#_Linear1);"/><rect x="104" y="464" width="224" height="16" style="fill:url(#_Linear2);"/><rect x="104" y="431" width="112" height="16" style="fill:url(#_Linear3);"/><rect x="152" y="400" width="144" height="16" style="fill:url(#_Linear4);"/><rect x="216" y="96" width="192" height="16" style="fill:url(#_Linear5);"/><rect x="152" y="64" width="176" height="16" style="fill:url(#_Linear6);"/><rect x="104" y="32" width="112" height="16" style="fill:url(#_Linear7);"/><rect id="TEXT---Text" serif:id="TEXT - Text" x="-0" y="128" width="512" height="256" style="fill:#4478d2;"/><path id="TXT---Text" serif:id="TXT - Text" d="M156.519,280.073l-0,57.438l-33.59,-0l0,-163.022l63.597,0c12.241,0 23.008,2.24 32.302,6.718c9.293,4.479 16.44,10.842 21.441,19.09c5.001,8.248 7.502,17.635 7.502,28.16c-0,15.973 -5.468,28.569 -16.403,37.788c-10.936,9.218 -26.07,13.828 -45.402,13.828l-29.447,-0Zm-0,-27.208l30.007,-0c8.882,-0 15.656,-2.09 20.321,-6.27c4.665,-4.18 6.998,-10.152 6.998,-17.915c0,-7.986 -2.351,-14.443 -7.054,-19.37c-4.702,-4.926 -11.196,-7.464 -19.482,-7.613l-30.79,-0l-0,51.168Z" style="fill:#fff;fill-rule:nonzero;"/><path d="M355.369,294.74c0,-6.345 -2.239,-11.215 -6.718,-14.611c-4.478,-3.397 -12.54,-6.98 -24.184,-10.749c-11.645,-3.77 -20.863,-7.483 -27.656,-11.141c-18.511,-10.002 -27.767,-23.475 -27.767,-40.419c-0,-8.808 2.482,-16.664 7.446,-23.569c4.963,-6.904 12.092,-12.297 21.385,-16.179c9.293,-3.881 19.725,-5.822 31.294,-5.822c11.645,0 22.02,2.109 31.127,6.326c9.106,4.217 16.179,10.17 21.217,17.858c5.038,7.689 7.558,16.422 7.558,26.2l-33.59,0c0,-7.464 -2.351,-13.268 -7.054,-17.41c-4.702,-4.143 -11.308,-6.214 -19.818,-6.214c-8.21,-0 -14.592,1.735 -19.146,5.206c-4.553,3.471 -6.829,8.043 -6.829,13.716c-0,5.3 2.668,9.741 8.005,13.324c5.337,3.583 13.193,6.942 23.569,10.077c19.108,5.747 33.029,12.876 41.763,21.385c8.733,8.509 13.1,19.109 13.1,31.798c-0,14.108 -5.337,25.174 -16.011,33.198c-10.674,8.024 -25.043,12.036 -43.107,12.036c-12.54,-0 -23.961,-2.295 -34.261,-6.886c-10.301,-4.59 -18.157,-10.879 -23.569,-18.866c-5.412,-7.987 -8.117,-17.243 -8.117,-27.767l33.701,-0c0,17.989 10.749,26.983 32.246,26.983c7.987,0 14.22,-1.623 18.698,-4.87c4.479,-3.247 6.718,-7.782 6.718,-13.604Z" style="fill:#fff;fill-rule:nonzero;"/></g></g></g><defs><linearGradient id="_Linear1" x1="0" y1="0" x2="1" y2="0" gradientUnits="userSpaceOnUse" gradientTransform="matrix(310.858,512.001,-512.001,310.858,64,0)"><stop offset="0" style="stop-color:#f3fafe;stop-opacity:1"/><stop offset="1" style="stop-color:#c7e8fb;stop-opacity:1"/></linearGradient><linearGradient id="_Linear2" x1="0" y1="0" x2="1" y2="0" gradientUnits="userSpaceOnUse" gradientTransform="matrix(225.819,432.001,-432.001,225.819,104,48)"><stop offset="0" style="stop-color:#8795a5;stop-opacity:1"/><stop offset="1" style="stop-color:#738191;stop-opacity:1"/></linearGradient><linearGradient id="_Linear3" x1="0" y1="0" x2="1" y2="0" gradientUnits="userSpaceOnUse" gradientTransform="matrix(225.819,432.001,-432.001,225.819,104,47)"><stop offset="0" style="stop-color:#8795a5;stop-opacity:1"/><stop offset="1" style="stop-color:#738191;stop-opacity:1"/></linearGradient><linearGradient id="_Linear4" x1="0" y1="0" x2="1" y2="0" gradientUnits="userSpaceOnUse" gradientTransform="matrix(225.819,432.001,-432.001,225.819,104,48)"><stop offset="0" style="stop-color:#8795a5;stop-opacity:1"/><stop offset="1" style="stop-color:#738191;stop-opacity:1"/></linearGradient><linearGradient id="_Linear5" x1="0" y1="0" x2="1" y2="0" gradientUnits="userSpaceOnUse" gradientTransform="matrix(225.819,432.001,-432.001,225.819,104,32)"><stop offset="0" style="stop-color:#8795a5;stop-opacity:1"/><stop offset="1" style="stop-color:#738191;stop-opacity:1"/></linearGradient><linearGradient id="_Linear6" x1="0" y1="0" x2="1" y2="0" gradientUnits="userSpaceOnUse" gradientTransform="matrix(225.819,432.001,-432.001,225.819,104,32)"><stop offset="0" style="stop-color:#8795a5;stop-opacity:1"/><stop offset="1" style="stop-color:#738191;stop-opacity:1"/></linearGradient><linearGradient id="_Linear7" x1="0" y1="0" x2="1" y2="0" gradientUnits="userSpaceOnUse" gradientTransform="matrix(225.819,432.001,-432.001,225.819,104,32)"><stop offset="0" style="stop-color:#8795a5;stop-opacity:1"/><stop offset="1" style="stop-color:#738191;stop-opacity:1"/></linearGradient></defs></svg>