<?xml version="1.0" encoding="UTF-8" standalone="no"?>
<!DOCTYPE svg PUBLIC "-//W3C//DTD SVG 1.1//EN" "http://www.w3.org/Graphics/SVG/1.1/DTD/svg11.dtd">
<svg width="100%" height="100%" viewBox="0 0 512 512" version="1.1" xmlns="http://www.w3.org/2000/svg" xmlns:xlink="http://www.w3.org/1999/xlink" xml:space="preserve" xmlns:serif="http://www.serif.com/" style="fill-rule:evenodd;clip-rule:evenodd;stroke-linejoin:round;stroke-miterlimit:2;">
    <g>
        <g>
            <rect id="curve1" x="64" y="0" width="384" height="512" style="fill:url(#_Linear1);"/>
            <g transform="matrix(1,0,0,1,-8,0)">
                <rect x="112" y="464" width="224" height="16" style="fill:url(#_Linear2);"/>
            </g>
            <g transform="matrix(1,0,0,1,-8,-1)">
                <rect x="112" y="432" width="112" height="16" style="fill:url(#_Linear3);"/>
            </g>
            <g transform="matrix(1,0,0,1,-8,0)">
                <rect x="160" y="400" width="144" height="16" style="fill:url(#_Linear4);"/>
            </g>
            <g transform="matrix(1,0,0,1,-8,-16)">
                <rect x="224" y="112" width="192" height="16" style="fill:url(#_Linear5);"/>
            </g>
            <g transform="matrix(1,0,0,1,-8,-16)">
                <rect x="160" y="80" width="176" height="16" style="fill:url(#_Linear6);"/>
            </g>
            <g transform="matrix(1,0,0,1,-8,-16)">
                <rect x="112" y="48" width="112" height="16" style="fill:url(#_Linear7);"/>
            </g>
        </g>
        <g id="LOG---Text" serif:id="LOG - Text" transform="matrix(1.33333,0,0,1.45455,-85.3333,-360.727)">
            <rect x="64" y="336" width="384" height="176" style="fill:rgb(67,67,67);"/>
        </g>
        <g id="LOG---Text1" serif:id="LOG - Text" transform="matrix(0.835594,0,0,0.779281,17.7235,7.33734)">
            <g transform="matrix(274.421,0,0,294.252,26.1211,423.69)">
                <path d="M0.21,-0.118L0.521,-0.118L0.521,-0L0.063,-0L0.063,-0.711L0.21,-0.711L0.21,-0.118Z" style="fill:white;fill-rule:nonzero;"/>
            </g>
            <g transform="matrix(274.421,0,0,294.252,165.526,423.69)">
                <path d="M0.647,-0.339C0.647,-0.269 0.635,-0.208 0.61,-0.155C0.586,-0.103 0.55,-0.062 0.504,-0.033C0.458,-0.005 0.405,0.01 0.346,0.01C0.287,0.01 0.234,-0.004 0.188,-0.033C0.142,-0.061 0.106,-0.101 0.081,-0.154C0.055,-0.207 0.042,-0.267 0.042,-0.335L0.042,-0.371C0.042,-0.441 0.055,-0.502 0.08,-0.555C0.105,-0.609 0.141,-0.649 0.187,-0.678C0.233,-0.706 0.285,-0.721 0.345,-0.721C0.404,-0.721 0.457,-0.706 0.503,-0.678C0.549,-0.649 0.584,-0.609 0.61,-0.555C0.635,-0.502 0.647,-0.441 0.647,-0.371L0.647,-0.339ZM0.499,-0.372C0.499,-0.446 0.486,-0.503 0.459,-0.542C0.432,-0.58 0.394,-0.6 0.345,-0.6C0.296,-0.6 0.258,-0.58 0.231,-0.542C0.204,-0.504 0.191,-0.448 0.19,-0.374L0.19,-0.339C0.19,-0.267 0.204,-0.21 0.23,-0.17C0.257,-0.13 0.296,-0.11 0.346,-0.11C0.395,-0.11 0.433,-0.13 0.459,-0.168C0.485,-0.207 0.499,-0.263 0.499,-0.337L0.499,-0.372Z" style="fill:white;fill-rule:nonzero;"/>
            </g>
            <g transform="matrix(274.421,0,0,294.252,354.995,423.69)">
                <path d="M0.626,-0.09C0.6,-0.058 0.562,-0.034 0.514,-0.016C0.466,0.001 0.413,0.01 0.354,0.01C0.292,0.01 0.239,-0.004 0.192,-0.031C0.146,-0.057 0.11,-0.096 0.085,-0.147C0.059,-0.199 0.047,-0.259 0.046,-0.328L0.046,-0.376C0.046,-0.447 0.058,-0.508 0.082,-0.56C0.106,-0.612 0.14,-0.652 0.185,-0.679C0.23,-0.707 0.283,-0.721 0.344,-0.721C0.428,-0.721 0.494,-0.701 0.542,-0.66C0.589,-0.62 0.617,-0.562 0.626,-0.485L0.483,-0.485C0.477,-0.526 0.462,-0.555 0.44,-0.574C0.418,-0.593 0.387,-0.603 0.348,-0.603C0.298,-0.603 0.26,-0.584 0.234,-0.546C0.208,-0.509 0.195,-0.453 0.195,-0.379L0.195,-0.334C0.195,-0.259 0.209,-0.203 0.237,-0.165C0.266,-0.127 0.307,-0.108 0.362,-0.108C0.417,-0.108 0.456,-0.12 0.479,-0.143L0.479,-0.266L0.346,-0.266L0.346,-0.374L0.626,-0.374L0.626,-0.09Z" style="fill:white;fill-rule:nonzero;"/>
            </g>
        </g>
    </g>
    <defs>
        <linearGradient id="_Linear1" x1="0" y1="0" x2="1" y2="0" gradientUnits="userSpaceOnUse" gradientTransform="matrix(310.858,512.001,-512.001,310.858,64,0)"><stop offset="0" style="stop-color:rgb(243,250,254);stop-opacity:1"/><stop offset="1" style="stop-color:rgb(199,232,251);stop-opacity:1"/></linearGradient>
        <linearGradient id="_Linear2" x1="0" y1="0" x2="1" y2="0" gradientUnits="userSpaceOnUse" gradientTransform="matrix(225.819,432.001,-432.001,225.819,112,48)"><stop offset="0" style="stop-color:rgb(135,149,165);stop-opacity:1"/><stop offset="1" style="stop-color:rgb(115,129,145);stop-opacity:1"/></linearGradient>
        <linearGradient id="_Linear3" x1="0" y1="0" x2="1" y2="0" gradientUnits="userSpaceOnUse" gradientTransform="matrix(225.819,432.001,-432.001,225.819,112,48)"><stop offset="0" style="stop-color:rgb(135,149,165);stop-opacity:1"/><stop offset="1" style="stop-color:rgb(115,129,145);stop-opacity:1"/></linearGradient>
        <linearGradient id="_Linear4" x1="0" y1="0" x2="1" y2="0" gradientUnits="userSpaceOnUse" gradientTransform="matrix(225.819,432.001,-432.001,225.819,112,48)"><stop offset="0" style="stop-color:rgb(135,149,165);stop-opacity:1"/><stop offset="1" style="stop-color:rgb(115,129,145);stop-opacity:1"/></linearGradient>
        <linearGradient id="_Linear5" x1="0" y1="0" x2="1" y2="0" gradientUnits="userSpaceOnUse" gradientTransform="matrix(225.819,432.001,-432.001,225.819,112,48)"><stop offset="0" style="stop-color:rgb(135,149,165);stop-opacity:1"/><stop offset="1" style="stop-color:rgb(115,129,145);stop-opacity:1"/></linearGradient>
        <linearGradient id="_Linear6" x1="0" y1="0" x2="1" y2="0" gradientUnits="userSpaceOnUse" gradientTransform="matrix(225.819,432.001,-432.001,225.819,112,48)"><stop offset="0" style="stop-color:rgb(135,149,165);stop-opacity:1"/><stop offset="1" style="stop-color:rgb(115,129,145);stop-opacity:1"/></linearGradient>
        <linearGradient id="_Linear7" x1="0" y1="0" x2="1" y2="0" gradientUnits="userSpaceOnUse" gradientTransform="matrix(225.819,432.001,-432.001,225.819,112,48)"><stop offset="0" style="stop-color:rgb(135,149,165);stop-opacity:1"/><stop offset="1" style="stop-color:rgb(115,129,145);stop-opacity:1"/></linearGradient>
    </defs>
</svg>
