<?xml version="1.0" encoding="UTF-8" standalone="no"?>
<!DOCTYPE svg PUBLIC "-//W3C//DTD SVG 1.1//EN" "http://www.w3.org/Graphics/SVG/1.1/DTD/svg11.dtd">
<svg width="100%" height="100%" viewBox="0 0 512 512" version="1.1" xmlns="http://www.w3.org/2000/svg" xmlns:xlink="http://www.w3.org/1999/xlink" xml:space="preserve" xmlns:serif="http://www.serif.com/" style="fill-rule:evenodd;clip-rule:evenodd;stroke-linejoin:round;stroke-miterlimit:2;">
    <g>
        <g>
            <rect id="curve1" x="64" y="0" width="384" height="512" style="fill:url(#_Linear1);"/>
            <g transform="matrix(1,0,0,1,-8,0)">
                <rect x="112" y="464" width="224" height="16" style="fill:url(#_Linear2);"/>
            </g>
            <g transform="matrix(1,0,0,1,-8,-1)">
                <rect x="112" y="432" width="112" height="16" style="fill:url(#_Linear3);"/>
            </g>
            <g transform="matrix(1,0,0,1,-8,0)">
                <rect x="160" y="400" width="144" height="16" style="fill:url(#_Linear4);"/>
            </g>
            <g transform="matrix(1,0,0,1,-8,-16)">
                <rect x="224" y="112" width="192" height="16" style="fill:url(#_Linear5);"/>
            </g>
            <g transform="matrix(1,0,0,1,-8,-16)">
                <rect x="160" y="80" width="176" height="16" style="fill:url(#_Linear6);"/>
            </g>
            <g transform="matrix(1,0,0,1,-8,-16)">
                <rect x="112" y="48" width="112" height="16" style="fill:url(#_Linear7);"/>
            </g>
        </g>
        <g id="SQL---Text" serif:id="SQL - Text" transform="matrix(1.33333,0,0,1.45455,-85.3333,-360.727)">
            <rect x="64" y="336" width="384" height="176" style="fill:rgb(187,162,0);"/>
        </g>
        <g id="SQL---Text1" serif:id="SQL - Text" transform="matrix(0.93244,0,0,0.920683,-10.3413,-52.6985)">
            <g transform="matrix(245.739,0,0,248.877,57.119,423.69)">
                <path d="M0.432,-0.187C0.432,-0.214 0.422,-0.235 0.403,-0.25C0.383,-0.265 0.348,-0.281 0.297,-0.297C0.247,-0.314 0.206,-0.33 0.177,-0.346C0.096,-0.389 0.056,-0.448 0.056,-0.522C0.056,-0.56 0.066,-0.595 0.088,-0.625C0.11,-0.655 0.141,-0.678 0.181,-0.695C0.222,-0.712 0.267,-0.721 0.318,-0.721C0.369,-0.721 0.414,-0.712 0.454,-0.693C0.493,-0.675 0.524,-0.649 0.546,-0.615C0.568,-0.582 0.579,-0.544 0.579,-0.501L0.433,-0.501C0.433,-0.534 0.422,-0.559 0.402,-0.577C0.381,-0.595 0.353,-0.604 0.315,-0.604C0.28,-0.604 0.252,-0.596 0.232,-0.581C0.212,-0.566 0.202,-0.546 0.202,-0.521C0.202,-0.498 0.214,-0.479 0.237,-0.463C0.26,-0.448 0.295,-0.433 0.34,-0.419C0.423,-0.394 0.484,-0.363 0.522,-0.326C0.56,-0.289 0.579,-0.243 0.579,-0.188C0.579,-0.126 0.556,-0.078 0.509,-0.043C0.463,-0.008 0.4,0.01 0.321,0.01C0.267,0.01 0.217,-0 0.172,-0.02C0.127,-0.04 0.093,-0.068 0.069,-0.103C0.045,-0.137 0.034,-0.178 0.034,-0.224L0.181,-0.224C0.181,-0.145 0.228,-0.106 0.321,-0.106C0.356,-0.106 0.383,-0.113 0.403,-0.127C0.422,-0.141 0.432,-0.161 0.432,-0.187Z" style="fill:white;fill-rule:nonzero;"/>
            </g>
            <g transform="matrix(245.739,0,0,248.877,208.186,423.69)">
                <path d="M0.646,-0.339C0.646,-0.273 0.636,-0.215 0.614,-0.166C0.593,-0.117 0.563,-0.078 0.525,-0.048L0.643,0.044L0.55,0.127L0.398,0.005C0.381,0.008 0.363,0.01 0.345,0.01C0.286,0.01 0.233,-0.004 0.187,-0.033C0.141,-0.061 0.105,-0.101 0.08,-0.154C0.054,-0.207 0.041,-0.267 0.041,-0.335L0.041,-0.371C0.041,-0.441 0.054,-0.502 0.079,-0.555C0.104,-0.609 0.14,-0.649 0.186,-0.678C0.232,-0.706 0.285,-0.721 0.344,-0.721C0.403,-0.721 0.456,-0.706 0.502,-0.678C0.548,-0.649 0.583,-0.609 0.609,-0.555C0.634,-0.502 0.646,-0.441 0.646,-0.371L0.646,-0.339ZM0.498,-0.372C0.498,-0.446 0.485,-0.503 0.458,-0.542C0.431,-0.58 0.393,-0.6 0.344,-0.6C0.295,-0.6 0.257,-0.58 0.23,-0.542C0.203,-0.504 0.19,-0.448 0.189,-0.374L0.189,-0.339C0.189,-0.267 0.203,-0.21 0.229,-0.17C0.256,-0.13 0.295,-0.11 0.345,-0.11C0.394,-0.11 0.432,-0.13 0.458,-0.168C0.484,-0.207 0.498,-0.263 0.498,-0.337L0.498,-0.372Z" style="fill:white;fill-rule:nonzero;"/>
            </g>
            <g transform="matrix(245.739,0,0,248.877,377.851,423.69)">
                <path d="M0.21,-0.118L0.521,-0.118L0.521,-0L0.063,-0L0.063,-0.711L0.21,-0.711L0.21,-0.118Z" style="fill:white;fill-rule:nonzero;"/>
            </g>
        </g>
    </g>
    <defs>
        <linearGradient id="_Linear1" x1="0" y1="0" x2="1" y2="0" gradientUnits="userSpaceOnUse" gradientTransform="matrix(310.858,512.001,-512.001,310.858,64,0)"><stop offset="0" style="stop-color:rgb(243,250,254);stop-opacity:1"/><stop offset="1" style="stop-color:rgb(199,232,251);stop-opacity:1"/></linearGradient>
        <linearGradient id="_Linear2" x1="0" y1="0" x2="1" y2="0" gradientUnits="userSpaceOnUse" gradientTransform="matrix(225.819,432.001,-432.001,225.819,112,48)"><stop offset="0" style="stop-color:rgb(135,149,165);stop-opacity:1"/><stop offset="1" style="stop-color:rgb(115,129,145);stop-opacity:1"/></linearGradient>
        <linearGradient id="_Linear3" x1="0" y1="0" x2="1" y2="0" gradientUnits="userSpaceOnUse" gradientTransform="matrix(225.819,432.001,-432.001,225.819,112,48)"><stop offset="0" style="stop-color:rgb(135,149,165);stop-opacity:1"/><stop offset="1" style="stop-color:rgb(115,129,145);stop-opacity:1"/></linearGradient>
        <linearGradient id="_Linear4" x1="0" y1="0" x2="1" y2="0" gradientUnits="userSpaceOnUse" gradientTransform="matrix(225.819,432.001,-432.001,225.819,112,48)"><stop offset="0" style="stop-color:rgb(135,149,165);stop-opacity:1"/><stop offset="1" style="stop-color:rgb(115,129,145);stop-opacity:1"/></linearGradient>
        <linearGradient id="_Linear5" x1="0" y1="0" x2="1" y2="0" gradientUnits="userSpaceOnUse" gradientTransform="matrix(225.819,432.001,-432.001,225.819,112,48)"><stop offset="0" style="stop-color:rgb(135,149,165);stop-opacity:1"/><stop offset="1" style="stop-color:rgb(115,129,145);stop-opacity:1"/></linearGradient>
        <linearGradient id="_Linear6" x1="0" y1="0" x2="1" y2="0" gradientUnits="userSpaceOnUse" gradientTransform="matrix(225.819,432.001,-432.001,225.819,112,48)"><stop offset="0" style="stop-color:rgb(135,149,165);stop-opacity:1"/><stop offset="1" style="stop-color:rgb(115,129,145);stop-opacity:1"/></linearGradient>
        <linearGradient id="_Linear7" x1="0" y1="0" x2="1" y2="0" gradientUnits="userSpaceOnUse" gradientTransform="matrix(225.819,432.001,-432.001,225.819,112,48)"><stop offset="0" style="stop-color:rgb(135,149,165);stop-opacity:1"/><stop offset="1" style="stop-color:rgb(115,129,145);stop-opacity:1"/></linearGradient>
    </defs>
</svg>
