<?xml version="1.0" encoding="UTF-8" standalone="no"?>
<!DOCTYPE svg PUBLIC "-//W3C//DTD SVG 1.1//EN" "http://www.w3.org/Graphics/SVG/1.1/DTD/svg11.dtd">
<svg width="100%" height="100%" viewBox="0 0 512 512" version="1.1" xmlns="http://www.w3.org/2000/svg" xmlns:xlink="http://www.w3.org/1999/xlink" xml:space="preserve" xmlns:serif="http://www.serif.com/" style="fill-rule:evenodd;clip-rule:evenodd;stroke-linejoin:round;stroke-miterlimit:2;">
    <g>
        <g>
            <rect id="curve1" x="64" y="0" width="384" height="512" style="fill:url(#_Linear1);"/>
            <g transform="matrix(1,0,0,1,-8,0)">
                <rect x="112" y="464" width="224" height="16" style="fill:url(#_Linear2);"/>
            </g>
            <g transform="matrix(1,0,0,1,-8,-1)">
                <rect x="112" y="432" width="112" height="16" style="fill:url(#_Linear3);"/>
            </g>
            <g transform="matrix(1,0,0,1,-8,0)">
                <rect x="160" y="400" width="144" height="16" style="fill:url(#_Linear4);"/>
            </g>
            <g transform="matrix(1,0,0,1,-8,-16)">
                <rect x="224" y="112" width="192" height="16" style="fill:url(#_Linear5);"/>
            </g>
            <g transform="matrix(1,0,0,1,-8,-16)">
                <rect x="160" y="80" width="176" height="16" style="fill:url(#_Linear6);"/>
            </g>
            <g transform="matrix(1,0,0,1,-8,-16)">
                <rect x="112" y="48" width="112" height="16" style="fill:url(#_Linear7);"/>
            </g>
        </g>
        <g id="JavaScript---Back" serif:id="JavaScript - Back" transform="matrix(1.33333,0,0,1.45455,-85.3333,-360.727)">
            <rect x="64" y="336" width="384" height="176" style="fill:rgb(243,126,117);"/>
        </g>
        <g id="JavaScript---Text" serif:id="JavaScript - Text" transform="matrix(0.933125,0,0,0.92136,-7.17796,-52.8601)">
            <g transform="matrix(245.739,0,0,248.877,139.852,423.69)">
                <path d="M0.35,-0.711L0.497,-0.711L0.497,-0.219C0.497,-0.174 0.487,-0.134 0.467,-0.099C0.447,-0.064 0.418,-0.037 0.382,-0.019C0.345,0 0.304,0.01 0.258,0.01C0.183,0.01 0.125,-0.009 0.083,-0.048C0.041,-0.086 0.02,-0.14 0.02,-0.21L0.167,-0.21C0.167,-0.175 0.174,-0.149 0.189,-0.133C0.204,-0.116 0.227,-0.108 0.258,-0.108C0.286,-0.108 0.309,-0.118 0.325,-0.137C0.342,-0.156 0.35,-0.183 0.35,-0.219L0.35,-0.711Z" style="fill:white;fill-rule:nonzero;"/>
            </g>
            <g transform="matrix(245.739,0,0,248.877,277.12,423.69)">
                <path d="M0.432,-0.187C0.432,-0.214 0.422,-0.235 0.403,-0.25C0.383,-0.265 0.348,-0.281 0.297,-0.297C0.247,-0.314 0.206,-0.33 0.177,-0.346C0.096,-0.389 0.056,-0.448 0.056,-0.522C0.056,-0.56 0.066,-0.595 0.088,-0.625C0.11,-0.655 0.141,-0.678 0.181,-0.695C0.222,-0.712 0.267,-0.721 0.318,-0.721C0.369,-0.721 0.414,-0.712 0.454,-0.693C0.493,-0.675 0.524,-0.649 0.546,-0.615C0.568,-0.582 0.579,-0.544 0.579,-0.501L0.433,-0.501C0.433,-0.534 0.422,-0.559 0.402,-0.577C0.381,-0.595 0.353,-0.604 0.315,-0.604C0.28,-0.604 0.252,-0.596 0.232,-0.581C0.212,-0.566 0.202,-0.546 0.202,-0.521C0.202,-0.498 0.214,-0.479 0.237,-0.463C0.26,-0.448 0.295,-0.433 0.34,-0.419C0.423,-0.394 0.484,-0.363 0.522,-0.326C0.56,-0.289 0.579,-0.243 0.579,-0.188C0.579,-0.126 0.556,-0.078 0.509,-0.043C0.463,-0.008 0.4,0.01 0.321,0.01C0.267,0.01 0.217,-0 0.172,-0.02C0.127,-0.04 0.093,-0.068 0.069,-0.103C0.045,-0.137 0.034,-0.178 0.034,-0.224L0.181,-0.224C0.181,-0.145 0.228,-0.106 0.321,-0.106C0.356,-0.106 0.383,-0.113 0.403,-0.127C0.422,-0.141 0.432,-0.161 0.432,-0.187Z" style="fill:white;fill-rule:nonzero;"/>
            </g>
        </g>
    </g>
    <defs>
        <linearGradient id="_Linear1" x1="0" y1="0" x2="1" y2="0" gradientUnits="userSpaceOnUse" gradientTransform="matrix(310.858,512.001,-512.001,310.858,64,0)"><stop offset="0" style="stop-color:rgb(243,250,254);stop-opacity:1"/><stop offset="1" style="stop-color:rgb(199,232,251);stop-opacity:1"/></linearGradient>
        <linearGradient id="_Linear2" x1="0" y1="0" x2="1" y2="0" gradientUnits="userSpaceOnUse" gradientTransform="matrix(225.819,432.001,-432.001,225.819,112,48)"><stop offset="0" style="stop-color:rgb(135,149,165);stop-opacity:1"/><stop offset="1" style="stop-color:rgb(115,129,145);stop-opacity:1"/></linearGradient>
        <linearGradient id="_Linear3" x1="0" y1="0" x2="1" y2="0" gradientUnits="userSpaceOnUse" gradientTransform="matrix(225.819,432.001,-432.001,225.819,112,48)"><stop offset="0" style="stop-color:rgb(135,149,165);stop-opacity:1"/><stop offset="1" style="stop-color:rgb(115,129,145);stop-opacity:1"/></linearGradient>
        <linearGradient id="_Linear4" x1="0" y1="0" x2="1" y2="0" gradientUnits="userSpaceOnUse" gradientTransform="matrix(225.819,432.001,-432.001,225.819,112,48)"><stop offset="0" style="stop-color:rgb(135,149,165);stop-opacity:1"/><stop offset="1" style="stop-color:rgb(115,129,145);stop-opacity:1"/></linearGradient>
        <linearGradient id="_Linear5" x1="0" y1="0" x2="1" y2="0" gradientUnits="userSpaceOnUse" gradientTransform="matrix(225.819,432.001,-432.001,225.819,112,48)"><stop offset="0" style="stop-color:rgb(135,149,165);stop-opacity:1"/><stop offset="1" style="stop-color:rgb(115,129,145);stop-opacity:1"/></linearGradient>
        <linearGradient id="_Linear6" x1="0" y1="0" x2="1" y2="0" gradientUnits="userSpaceOnUse" gradientTransform="matrix(225.819,432.001,-432.001,225.819,112,48)"><stop offset="0" style="stop-color:rgb(135,149,165);stop-opacity:1"/><stop offset="1" style="stop-color:rgb(115,129,145);stop-opacity:1"/></linearGradient>
        <linearGradient id="_Linear7" x1="0" y1="0" x2="1" y2="0" gradientUnits="userSpaceOnUse" gradientTransform="matrix(225.819,432.001,-432.001,225.819,112,48)"><stop offset="0" style="stop-color:rgb(135,149,165);stop-opacity:1"/><stop offset="1" style="stop-color:rgb(115,129,145);stop-opacity:1"/></linearGradient>
    </defs>
</svg>
