<?xml version="1.0" encoding="UTF-8" standalone="no"?>
<!DOCTYPE svg PUBLIC "-//W3C//DTD SVG 1.1//EN" "http://www.w3.org/Graphics/SVG/1.1/DTD/svg11.dtd">
<svg width="100%" height="100%" viewBox="0 0 512 512" version="1.1" xmlns="http://www.w3.org/2000/svg" xmlns:xlink="http://www.w3.org/1999/xlink" xml:space="preserve" xmlns:serif="http://www.serif.com/" style="fill-rule:evenodd;clip-rule:evenodd;stroke-linejoin:round;stroke-miterlimit:2;">
    <g>
        <g>
            <rect id="curve1" x="64" y="0" width="384" height="512" style="fill:url(#_Linear1);"/>
            <g transform="matrix(1,0,0,1,-8,0)">
                <rect x="112" y="464" width="224" height="16" style="fill:url(#_Linear2);"/>
            </g>
            <g transform="matrix(1,0,0,1,-8,-1)">
                <rect x="112" y="432" width="112" height="16" style="fill:url(#_Linear3);"/>
            </g>
            <g transform="matrix(1,0,0,1,-8,0)">
                <rect x="160" y="400" width="144" height="16" style="fill:url(#_Linear4);"/>
            </g>
            <g transform="matrix(1,0,0,1,-8,-16)">
                <rect x="224" y="112" width="192" height="16" style="fill:url(#_Linear5);"/>
            </g>
            <g transform="matrix(1,0,0,1,-8,-16)">
                <rect x="160" y="80" width="176" height="16" style="fill:url(#_Linear6);"/>
            </g>
            <g transform="matrix(1,0,0,1,-8,-16)">
                <rect x="112" y="48" width="112" height="16" style="fill:url(#_Linear7);"/>
            </g>
        </g>
        <g id="_...---Back" serif:id="... - Back" transform="matrix(1.00814,0,0,1.01735,-4.17014,-6.66301)">
            <rect x="4.136" y="132.366" width="507.864" height="251.634" style="fill:rgb(128,128,128);"/>
        </g>
        <g id="_...---Text" serif:id="... - Text" transform="matrix(0.958801,0,0,0.946713,-16.6632,-128.949)">
            <g transform="matrix(245.739,0,0,248.877,181.608,423.69)">
                <rect x="0.072" y="-0.137" width="0.137" height="0.137" style="fill:white;fill-rule:nonzero;"/>
            </g>
            <g transform="matrix(245.739,0,0,248.877,249.882,423.69)">
                <rect x="0.072" y="-0.137" width="0.137" height="0.137" style="fill:white;fill-rule:nonzero;"/>
            </g>
            <g transform="matrix(245.739,0,0,248.877,318.156,423.69)">
                <rect x="0.072" y="-0.137" width="0.137" height="0.137" style="fill:white;fill-rule:nonzero;"/>
            </g>
        </g>
    </g>
    <defs>
        <linearGradient id="_Linear1" x1="0" y1="0" x2="1" y2="0" gradientUnits="userSpaceOnUse" gradientTransform="matrix(310.858,512.001,-512.001,310.858,64,0)"><stop offset="0" style="stop-color:rgb(243,250,254);stop-opacity:1"/><stop offset="1" style="stop-color:rgb(199,232,251);stop-opacity:1"/></linearGradient>
        <linearGradient id="_Linear2" x1="0" y1="0" x2="1" y2="0" gradientUnits="userSpaceOnUse" gradientTransform="matrix(225.819,432.001,-432.001,225.819,112,48)"><stop offset="0" style="stop-color:rgb(135,149,165);stop-opacity:1"/><stop offset="1" style="stop-color:rgb(115,129,145);stop-opacity:1"/></linearGradient>
        <linearGradient id="_Linear3" x1="0" y1="0" x2="1" y2="0" gradientUnits="userSpaceOnUse" gradientTransform="matrix(225.819,432.001,-432.001,225.819,112,48)"><stop offset="0" style="stop-color:rgb(135,149,165);stop-opacity:1"/><stop offset="1" style="stop-color:rgb(115,129,145);stop-opacity:1"/></linearGradient>
        <linearGradient id="_Linear4" x1="0" y1="0" x2="1" y2="0" gradientUnits="userSpaceOnUse" gradientTransform="matrix(225.819,432.001,-432.001,225.819,112,48)"><stop offset="0" style="stop-color:rgb(135,149,165);stop-opacity:1"/><stop offset="1" style="stop-color:rgb(115,129,145);stop-opacity:1"/></linearGradient>
        <linearGradient id="_Linear5" x1="0" y1="0" x2="1" y2="0" gradientUnits="userSpaceOnUse" gradientTransform="matrix(225.819,432.001,-432.001,225.819,112,48)"><stop offset="0" style="stop-color:rgb(135,149,165);stop-opacity:1"/><stop offset="1" style="stop-color:rgb(115,129,145);stop-opacity:1"/></linearGradient>
        <linearGradient id="_Linear6" x1="0" y1="0" x2="1" y2="0" gradientUnits="userSpaceOnUse" gradientTransform="matrix(225.819,432.001,-432.001,225.819,112,48)"><stop offset="0" style="stop-color:rgb(135,149,165);stop-opacity:1"/><stop offset="1" style="stop-color:rgb(115,129,145);stop-opacity:1"/></linearGradient>
        <linearGradient id="_Linear7" x1="0" y1="0" x2="1" y2="0" gradientUnits="userSpaceOnUse" gradientTransform="matrix(225.819,432.001,-432.001,225.819,112,48)"><stop offset="0" style="stop-color:rgb(135,149,165);stop-opacity:1"/><stop offset="1" style="stop-color:rgb(115,129,145);stop-opacity:1"/></linearGradient>
    </defs>
</svg>
