<?xml version="1.0" encoding="UTF-8"?>
<!DOCTYPE svg PUBLIC "-//W3C//DTD SVG 1.1//EN" "http://www.w3.org/Graphics/SVG/1.1/DTD/svg11.dtd">
<svg version="1.1" id="Layer_1" xmlns="http://www.w3.org/2000/svg" xmlns:xlink="http://www.w3.org/1999/xlink" x="0px" y="0px" width="24px" height="24px" viewBox="0 0 24 24" enable-background="new 0 0 24 24" xml:space="preserve">
  <g id="icon">
    <path d="M21,3H3c-1.1,0,-2,0.9,-2,2v12c0,1.1,0.9,2,2,2h0.7994l-0.7324,3.651c0,0.2736,0.301,0.4405,0.5331,0.2954L10.3018,19H21c1.1,0,2,-0.9,2,-2V5C23,3.9,22.1,3,21,3z" fill="#C7C7C7"/>
    <path d="M21,3h-3.4405l-5.4487,16H21c1.1,0,2,-0.9,2,-2V5C23,3.9,22.1,3,21,3z" fill="#BFBFBF" opacity="0.65"/>
    <path d="M8,11c0,0.8284,-0.6716,1.5,-1.5,1.5s-1.5,-0.6716,-1.5,-1.5s0.6716,-1.5,1.5,-1.5S8,10.1716,8,11zM17.5,9.5c-0.8284,0,-1.5,0.6716,-1.5,1.5s0.6716,1.5,1.5,1.5s1.5,-0.6716,1.5,-1.5S18.3284,9.5,17.5,9.5zM12,9.5c-0.8284,0,-1.5,0.6716,-1.5,1.5s0.6716,1.5,1.5,1.5s1.5,-0.6716,1.5,-1.5S12.8284,9.5,12,9.5z" fill="#F4F4F4"/>
  </g>
</svg>
