<?xml version="1.0" encoding="UTF-8"?>
<!DOCTYPE svg PUBLIC "-//W3C//DTD SVG 1.1//EN" "http://www.w3.org/Graphics/SVG/1.1/DTD/svg11.dtd">
<svg version="1.1" id="Layer_1" xmlns="http://www.w3.org/2000/svg" xmlns:xlink="http://www.w3.org/1999/xlink" x="0px" y="0px" width="24px" height="24px" viewBox="0 0 24 24" enable-background="new 0 0 24 24" xml:space="preserve">
  <g id="icon">
    <path d="M2,22.15v-4.3c0,-0.4675,0.3825,-0.85,0.85,-0.85h18.3c0.4675,0,0.85,0.3825,0.85,0.85v4.3c0,0.4675,-0.3825,0.85,-0.85,0.85h-18.3C2.3825,23,2,22.6175,2,22.15z" fill="#CCD0D9"/>
    <path d="M10,21H4v-2h6V21z" fill="#8E949C"/>
    <circle cx="12.5" cy="20" r="1" fill="#AAB2BD"/>
    <circle cx="12.5" cy="20" r="0.5" fill="#656D78"/>
    <path d="M15.35,21h-0.1c-0.1375,0,-0.25,-0.1125,-0.25,-0.25v-1.5c0,-0.1375,0.1125,-0.25,0.25,-0.25h0.1c0.1375,0,0.25,0.1125,0.25,0.25v1.5C15.6,20.8875,15.4875,21,15.35,21zM17.8,20.75v-1.5c0,-0.1375,-0.1125,-0.25,-0.25,-0.25h-0.1c-0.1375,0,-0.25,0.1125,-0.25,0.25v1.5c0,0.1375,0.1125,0.25,0.25,0.25h0.1C17.6875,21,17.8,20.8875,17.8,20.75zM16.7,20.75v-1.5c0,-0.1375,-0.1125,-0.25,-0.25,-0.25h-0.1c-0.1375,0,-0.25,0.1125,-0.25,0.25v1.5c0,0.1375,0.1125,0.25,0.25,0.25h0.1C16.5875,21,16.7,20.8875,16.7,20.75zM18.9,20.75v-1.5c0,-0.1375,-0.1125,-0.25,-0.25,-0.25h-0.1c-0.1375,0,-0.25,0.1125,-0.25,0.25v1.5c0,0.1375,0.1125,0.25,0.25,0.25h0.1C18.7875,21,18.9,20.8875,18.9,20.75zM20,20.75v-1.5c0,-0.1375,-0.1125,-0.25,-0.25,-0.25h-0.1c-0.1375,0,-0.25,0.1125,-0.25,0.25v1.5c0,0.1375,0.1125,0.25,0.25,0.25h0.1C19.8875,21,20,20.8875,20,20.75z" fill="#AAB2BD"/>
    <path d="M22,22.15l0.15,-2.15h-20L2,22.15c0,0.4675,0.3825,0.85,0.85,0.85h18.3C21.6175,23,22,22.6175,22,22.15z" fill="#231F20" opacity="0.1"/>
    <path d="M13.7426,15.5H13.6v-1.5h-3.2v1.5h-0.1426c-0.7066,0,-1.2847,0.6572,-1.2847,1.2937c0,0.1134,0.103,0.2063,0.229,0.2063h5.5966c0.1259,0,0.229,-0.0928,0.229,-0.2063C15.0273,16.1572,14.4492,15.5,13.7426,15.5z" fill="#8E949C"/>
    <path d="M21.052,1H2.848C2.3797,1,2,1.4304,2,1.8697v12.372c0,0.4393,0.3797,0.7583,0.848,0.7583h18.204c0.4683,0,0.848,-0.319,0.848,-0.7583V1.8697C21.9,1.4304,21.5203,1,21.052,1z" fill="#536880"/>
    <rect x="3.5" y="2.5" width="17" height="11" fill="#4FC0E8"/>
    <path d="M20.8824,1.1h-3.3449l-5.3393,12.9h8.6843c0.5597,0,1.0176,-0.3422,1.0176,-0.4539V2.2549C21.9,1.4456,21.4421,1.1,20.8824,1.1z" fill="#231F20" opacity="0.1"/>
  </g>
</svg>
