<?xml version="1.0" encoding="UTF-8"?>
<!DOCTYPE svg PUBLIC "-//W3C//DTD SVG 1.1//EN" "http://www.w3.org/Graphics/SVG/1.1/DTD/svg11.dtd">
<svg version="1.1" id="Layer_1" xmlns="http://www.w3.org/2000/svg" xmlns:xlink="http://www.w3.org/1999/xlink" x="0px" y="0px" width="24px" height="24px" viewBox="0 0 24 24" enable-background="new 0 0 24 24" xml:space="preserve">
  <g id="icon">
    <path d="M11.992,1C16.9469,1,21,1.9387,21,3.6573s-4.0531,2.7595,-9.008,2.7595C7.0371,6.4168,3,5.3759,3,3.6573S7.0371,1,11.992,1z" fill-rule="evenodd" fill="#FFCE55"/>
    <path d="M12.1,6.1c-0.0012,0,-0.0025,0,-0.0037,0C7.5168,6.1,3.7547,5.0914,3,3.7544c0,0.1584,0.0204,14.9066,0.0204,15.026C3.02,20.54,7.0371,22.9987,11.992,22.9987c0.0361,0,0.072,0.0018,0.108,0.0016V6.1z" fill-rule="evenodd" fill="#FFCE55"/>
    <path d="M21,3.7595c-0.5738,1.3699,-4.4013,2.3578,-8.9037,2.3578c-0.0323,0,-0.0642,-0.0003,-0.0963,-0.0005v16.8841c4.9512,-0.0018,8.96,-2.3608,9,-4.2262C21.0031,18.6307,21,4.0303,21,3.7595z" fill-rule="evenodd" fill="#F6BB43"/>
    <path d="M12.0281,17.3525c4.5024,0,8.3633,-1.6724,8.9371,-3.0423c0.0565,-0.135,-0.0015,1.1102,-0.0015,1.2541c-0.8423,1.2431,-4.0167,2.8103,-8.9716,2.8103c-4.9549,0,-8.1018,-1.7315,-8.9716,-2.9746c-0.0318,-0.0576,-0.0268,-1.0141,0.018,-1.1242C3.793,15.6128,7.4486,17.3525,12.0281,17.3525z" fill-rule="evenodd" fill="#C18F36" opacity="0.7"/>
    <path d="M12.0281,11.7314c4.5024,0,8.3633,-1.5801,8.9371,-2.7595c0.0565,-0.1162,-0.0015,1.1026,-0.0015,1.2264c-0.8423,1.0702,-4.0167,2.5551,-8.9716,2.5551c-4.9549,0,-8.1018,-1.4849,-8.9716,-2.5551c-0.0318,-0.0496,-0.0268,-1.0294,0.018,-1.1242C3.793,10.2251,7.4486,11.7314,12.0281,11.7314z" fill-rule="evenodd" fill="#C18F36" opacity="0.7"/>
    <path d="M12.0281,6.0202c4.5024,0,8.3633,-1.1304,8.9371,-2.261c0.0565,-0.1114,-0.0015,1.057,-0.0015,1.1758C20.1213,5.9609,16.9469,7,11.992,7c-4.9549,0,-8.1018,-1.1371,-8.9716,-2.163c-0.0318,-0.0475,-0.0268,-0.9869,0.018,-1.0778C3.793,4.8627,7.4486,6.0202,12.0281,6.0202z" fill-rule="evenodd" fill="#C18F36" opacity="0.7"/>
  </g>
</svg>
