<svg version="1.1"
    xmlns="http://www.w3.org/2000/svg"
    xmlns:xlink="http://www.w3.org/1999/xlink" width="512" height="512" viewBox="0 0 512 512">
    <title>dude3 icon</title>
    <desc>dude3 icon from the IconExperience.com G-Collection. Copyright by INCORS GmbH (www.incors.com).</desc>
    <defs>
        <linearGradient x1="167" y1="251" x2="344.9695" y2="251" gradientUnits="userSpaceOnUse" id="color-1">
            <stop offset="0" stop-color="#f5b44f"/>
            <stop offset="1" stop-color="#eba432"/>
        </linearGradient>
        <linearGradient x1="167" y1="297.5" x2="309.975" y2="350.176" gradientUnits="userSpaceOnUse" id="color-2">
            <stop offset="0" stop-color="#f5f6f8"/>
            <stop offset="1" stop-color="#d9e1e9"/>
        </linearGradient>
        <linearGradient x1="64" y1="311" x2="354.958" y2="418.1945" gradientUnits="userSpaceOnUse" id="color-3">
            <stop offset="0" stop-color="#59a31d"/>
            <stop offset="1" stop-color="#3b6d13"/>
        </linearGradient>
        <linearGradient x1="136.73702" y1="335.99383" x2="375.30552" y2="394.94883" gradientUnits="userSpaceOnUse" id="color-4">
            <stop offset="0" stop-color="#50931a"/>
            <stop offset="1" stop-color="#376412"/>
        </linearGradient>
        <linearGradient x1="126.04715" y1="297.72142" x2="366.04715" y2="393.72192" gradientUnits="userSpaceOnUse" id="color-5">
            <stop offset="0" stop-color="#51616f"/>
            <stop offset="1" stop-color="#36414a"/>
        </linearGradient>
        <radialGradient cx="195.06716" cy="131.40813" r="223.07254" fx="195.06716" fy="131.40813" gradientUnits="userSpaceOnUse" id="color-6">
            <stop offset="0" stop-color="#f7c371"/>
            <stop offset="1" stop-color="#f5b551"/>
        </radialGradient>
        <linearGradient x1="133.5" y1="16" x2="373.758" y2="24.58075" gradientUnits="userSpaceOnUse" id="color-7">
            <stop offset="0" stop-color="#f1b453"/>
            <stop offset="1" stop-color="#eba331"/>
        </linearGradient>
        <linearGradient x1="121.05944" y1="0" x2="316.95294" y2="163.92275" gradientUnits="userSpaceOnUse" id="color-8">
            <stop offset="0" stop-color="#51616f"/>
            <stop offset="1" stop-color="#36414a"/>
        </linearGradient>
    </defs>
    <g fill="none" fill-rule="evenodd" stroke="none" stroke-width="1" stroke-linecap="butt" stroke-linejoin="miter" stroke-miterlimit="10" stroke-dasharray="" stroke-dashoffset="0" font-family="none" font-weight="none" font-size="none" text-anchor="none" style="mix-blend-mode: normal">
        <path d="M256,512l-16,0l-73,-201c6,-4 12,-8.5 17,-13.5l-0.5,-46.5c51,0 94,0 145,0l-0.5,46.5c5,5 11,9.5 17,13.5l-73,201c-5.5,0 -11,0 -16,0z" id="curve7" fill="url(#color-1)"/>
        <path d="M256,512c5,0 10.5,0 16,0l73,-201c-6,-4 -12,-8.5 -17,-13.5c0,16 -36,31 -72,31c-36,0 -72,-15 -72,-31c-5,5 -11,9.5 -17,13.5l73,201c5.5,0 11,0 16,0z" id="curve6" fill="url(#color-2)"/>
        <path d="M272,512c78,-2 176,-18 176,-61c0,-95.5 -61,-111.5 -103,-140c-11.5,24 -45,40.5 -73,105z M167,311c-42,28.5 -103,44.5 -103,140c0,43 98,59 176,61l0,-96c-28,-64.5 -61.5,-81 -73,-105z" id="curve5" fill="url(#color-3)"/>
        <path d="M322,336.5c1,-3 26.5,8 34,15.5c9.5,9.5 14.5,18 19,28c1,3 -1,3.5 -3.5,3c-44.5,-8 -93,18 -99.5,33c0,-34 60.5,-47.5 50,-79.5z M190,336.5c-1,-3 -26.5,8 -34,15.5c-9.5,9.5 -15,18 -19,28c-1,3 1,3.5 3.5,3c44.5,-8 93,18 99.5,33c0,-34 -60.5,-47.5 -50,-79.5z" id="curve4" fill="url(#color-4)"/>
        <path d="M328,298.5c1.5,-4.5 28.5,11.5 37,22.5c10.5,14.5 16,27.5 20.5,42c1.5,4.5 -1,5 -3.5,4c-48.5,-12 -103,27 -110,49c0,-50.5 67.5,-70 56,-117.5z M184,298.5c-1.5,-4.5 -28.5,11.5 -37,22.5c-10.5,14.5 -16,27.5 -20.5,42c-1.5,4.5 1,5 3.5,4c48.5,-12 103,27 110,49c0,-50.5 -67.5,-70 -56,-117.5z" id="curve3" fill="url(#color-5)"/>
        <path d="M256,16c91.5,0 122.5,64 122.5,128c0,80 -61.5,160 -122.5,160c-61,0 -122.5,-80 -122.5,-160c0,-64 31,-128 122.5,-128z" id="curve2" fill="url(#color-6)"/>
        <path d="M375,176c-33.5,0.5 -59.5,-24.5 -70,-50.5l0,0c-9.5,16.5 -27,21 -49,29.5c-17,7 -37,16.5 -58,36.5c5,-16 14.5,-29 24.5,-40.5c-26,11 -52,23.5 -71,69c-11,-23.5 -18,-49.5 -18,-76c0,-64 31,-128 122.5,-128c91.5,0 122.5,64 122.5,128c0,10.5 -1.5,21.5 -3.5,32z" id="curve1" fill="url(#color-7)"/>
        <path d="M250.5,16c-5,-3 -11,-4.5 -20,-5.5c15.5,-5.5 27.5,-5 37,-2.5c-2,-3 -6,-5.5 -12.5,-8c12.5,0 22.5,2.5 30.5,8c10,-6.5 24.5,-11 50.5,-5.5c-12,0.5 -19.5,5.5 -24.5,12c37,-3.5 58,17.5 72.5,49.5c18.5,40.5 0,96 -7.5,107.5c-30.5,2 -60.5,-35 -71.5,-62l0,0l0,0c-16.5,29 -58.5,20.5 -107,66c5,-16 14.5,-29 24.5,-40.5c-31,12.5 -61,28.5 -80.5,96.5c-62,-152.5 25.5,-230 108.5,-215.5z" id="curve0" fill="url(#color-8)"/>
    </g>
</svg>