<?xml version="1.0" encoding="UTF-8" standalone="no"?>
<!DOCTYPE svg PUBLIC "-//W3C//DTD SVG 1.1//EN" "http://www.w3.org/Graphics/SVG/1.1/DTD/svg11.dtd">
<svg width="100%" height="100%" viewBox="0 0 24 24" version="1.1" xmlns="http://www.w3.org/2000/svg" xmlns:xlink="http://www.w3.org/1999/xlink" xml:space="preserve" xmlns:serif="http://www.serif.com/" style="fill-rule:evenodd;clip-rule:evenodd;stroke-linejoin:round;stroke-miterlimit:2;">
    <g id="icon">
        <circle cx="14" cy="10" r="8" style="fill:rgb(249,249,249);"/>
        <path d="M7.908,16.1L8.679,15.336C7.978,14.172 7.574,12.809 7.574,11.351C7.574,7.083 11.034,3.623 15.302,3.623C16.783,3.623 18.166,4.04 19.341,4.762L20.102,4.008C18.547,2.444 16.393,1.476 14.014,1.476C9.271,1.476 5.427,5.321 5.427,10.063C5.427,12.417 6.375,14.549 7.908,16.1Z" style="fill:rgb(41,41,41);fill-opacity:0.06;"/>
        <path d="M7.168,14.511L1.355,20.324C0.888,20.791 0.888,21.555 1.355,22.021L1.966,22.633C2.433,23.1 3.197,23.1 3.664,22.633L9.515,16.782C8.59,16.187 7.792,15.414 7.168,14.511Z" style="fill:rgb(165,165,165);"/>
        <path d="M8.218,15.751L1.624,22.29L1.966,22.633C2.433,23.1 3.197,23.1 3.664,22.633L9.515,16.782C9.048,16.482 8.614,16.136 8.218,15.751Z" style="fill:rgb(148,148,148);"/>
        <path d="M7.168,14.511L5.421,16.258C6.062,17.145 6.835,17.931 7.712,18.584L9.514,16.782C8.59,16.187 7.792,15.414 7.168,14.511Z" style="fill:rgb(117,117,117);fill-opacity:0.7;"/>
        <path d="M14,1C9.029,1 5,5.029 5,10C5,14.971 9.029,19 14,19C18.971,19 23,14.971 23,10C23,5.029 18.971,1 14,1ZM14,17.2C10.024,17.2 6.8,13.976 6.8,10C6.8,6.024 10.024,2.8 14,2.8C17.977,2.8 21.2,6.024 21.2,10C21.2,13.976 17.977,17.2 14,17.2Z" style="fill:rgb(149,149,149);"/>
        <path d="M20.399,3.672L19.12,4.939C20.406,6.24 21.2,8.027 21.2,10C21.2,13.976 17.976,17.2 14,17.2C12.005,17.2 10.2,16.389 8.897,15.078L7.618,16.346C9.248,17.985 11.506,19 14,19C18.971,19 23,14.971 23,10C23,7.533 22.007,5.297 20.399,3.672Z" style="fill:rgb(111,111,111);"/>
    </g>
</svg>
