<?xml version="1.0" encoding="UTF-8"?>
<!DOCTYPE svg PUBLIC "-//W3C//DTD SVG 1.1//EN" "http://www.w3.org/Graphics/SVG/1.1/DTD/svg11.dtd">
<svg version="1.1" id="Layer_1" xmlns="http://www.w3.org/2000/svg" xmlns:xlink="http://www.w3.org/1999/xlink" x="0px" y="0px" width="24px" height="24px" viewBox="0 0 24 24" enable-background="new 0 0 24 24" xml:space="preserve">
  <g id="icon">
    <circle cx="14" cy="10" r="8" fill-rule="evenodd" fill="#F6F7FB"/>
    <path d="M7.9082,16.1l0.7708,-0.7644c-0.7015,-1.1635,-1.1055,-2.5266,-1.1055,-3.9843c0,-4.2683,3.4602,-7.7285,7.7285,-7.7285c1.4807,0,2.8637,0.4171,4.0391,1.1392l0.7606,-0.7543c-1.5552,-1.5635,-3.7083,-2.5316,-6.0878,-2.5316c-4.7426,0,-8.5872,3.8446,-8.5872,8.5872C5.4267,12.417,6.3745,14.5488,7.9082,16.1z" fill-rule="evenodd" fill="#24282D" opacity="0.06"/>
    <path d="M7.1676,14.5111l-5.813,5.813c-0.4667,0.4667,-0.4667,1.2304,0,1.6971l0.6118,0.6118c0.4667,0.4667,1.2304,0.4667,1.6971,0l5.851,-5.851C8.5902,16.1868,7.7916,15.4143,7.1676,14.5111z" fill-rule="evenodd" fill="#5D9CEC"/>
    <path d="M8.2178,15.7512l-6.5939,6.5391l0.3425,0.3425c0.4667,0.4667,1.2304,0.4667,1.6971,0l5.851,-5.851C9.048,16.4816,8.6139,16.1359,8.2178,15.7512z" fill-rule="evenodd" fill="#4B89DC"/>
    <path d="M7.1676,14.5111L5.4207,16.258c0.6409,0.8873,1.414,1.6726,2.2912,2.3264l1.8025,-1.8025C8.5902,16.1868,7.7916,15.4143,7.1676,14.5111z" fill-rule="evenodd" fill="#3D73AD" opacity="0.7"/>
    <path d="M14,1c-4.9706,0,-9,4.0294,-9,9s4.0294,9,9,9s9,-4.0294,9,-9S18.9706,1,14,1zM14,17.2c-3.9765,0,-7.2,-3.2236,-7.2,-7.2c0,-3.9765,3.2235,-7.2,7.2,-7.2s7.2,3.2235,7.2,7.2C21.2,13.9764,17.9765,17.2,14,17.2z" fill-rule="evenodd" fill="#8E949C"/>
    <path d="M20.3986,3.6715l-1.2784,1.2678C20.4057,6.2398,21.2,8.0269,21.2,10c0,3.9764,-3.2235,7.2,-7.2,7.2c-1.9947,0,-3.7996,-0.8114,-5.1035,-2.1218l-1.2782,1.2676C9.2484,17.985,11.5056,19,14,19c4.9706,0,9,-4.0294,9,-9C23,7.5326,22.0067,5.2973,20.3986,3.6715z" fill-rule="evenodd" fill="#656D78"/>
  </g>
</svg>
