<?xml version="1.0" encoding="UTF-8"?>
<!DOCTYPE svg PUBLIC "-//W3C//DTD SVG 1.1//EN" "http://www.w3.org/Graphics/SVG/1.1/DTD/svg11.dtd">
<svg version="1.1" id="Layer_1" xmlns="http://www.w3.org/2000/svg" xmlns:xlink="http://www.w3.org/1999/xlink" x="0px" y="0px" width="24px" height="24px" viewBox="0 0 24 24" enable-background="new 0 0 24 24" xml:space="preserve">
  <g id="icon">
    <path d="M9.8077,3.6288L8.5883,2.4094C8.3262,2.1473,7.9707,2,7.6,2H1.9875C1.4421,2,1,2.4421,1,2.9875V21l4,-1l16,-9V5c0,-0.5523,-0.4822,-1,-1.0345,-1h-9.2616C10.3678,4,10.0454,3.8665,9.8077,3.6288z" fill="#C18F36"/>
    <rect x="3" y="6" width="16" height="11.1" fill="#F6F7FB"/>
    <path d="M3.6096,9.7083L1.0314,20.8807C0.8992,21.4533,1.3341,22,1.9218,22h17.5858c0.4255,0,0.7947,-0.2937,0.8904,-0.7083l2.5782,-11.1724C23.1083,9.5467,22.6735,9,22.0858,9H4.5C4.0745,9,3.7053,9.2937,3.6096,9.7083z" fill="#F6BB43"/>
    <path d="M22.0858,9h-3.3481l-8.485,13h9.2549c0.4255,0,0.7947,-0.2727,0.8904,-0.6577l2.5782,-11.3029C23.1083,9.5076,22.6735,9,22.0858,9z" fill="#C18F36" opacity="0.2"/>
  </g>
</svg>
