<?xml version="1.0" encoding="UTF-8"?>
<!DOCTYPE svg PUBLIC "-//W3C//DTD SVG 1.1//EN" "http://www.w3.org/Graphics/SVG/1.1/DTD/svg11.dtd">
<svg version="1.1" id="Layer_1" xmlns="http://www.w3.org/2000/svg" xmlns:xlink="http://www.w3.org/1999/xlink" x="0px" y="0px" width="24px" height="24px" viewBox="0 0 24 24" enable-background="new 0 0 24 24" xml:space="preserve">
  <g id="main">
    <g id="icon">
      <path d="M0.6031,1.078L0.2893,1.289L0.07754,1.603L0,1.988L0,20L4,19L20,10L20,4L19.92,3.611L19.69,3.293L19.36,3.079L18.97,3L9.704,3L9.219,2.904L8.808,2.629L7.588,1.409L7.375,1.235L7.135,1.106L6.874,1.027L6.6,1L0.9875,1zz" fill="#C18F36"/>
      <path d="M2,16.1L14,16.1L14,15.92L14.03,15.61L14.12,15.33L14.26,15.07L14.44,14.84L14.66,14.66L14.92,14.52L15.2,14.43L15.5,14.4L18,14.4L18,5L2,5zz" fill="#F6F7FB"/>
      <path d="M3.195,8.052L2.931,8.199L2.729,8.423L2.61,8.708L0.03145,19.88L0.03203,20.3L0.2066,20.66L0.5162,20.91L0.9219,21L14,21L14,15.92L14.03,15.61L14.12,15.33L14.26,15.07L14.44,14.84L14.66,14.66L14.92,14.52L15.2,14.43L15.5,14.4L20.76,14.4L21.98,9.119L21.98,8.703L21.8,8.345L21.49,8.094L21.09,8L3.5,8zz" fill="#F6BB43"/>
      <path d="M9.253,21L14,21L14,15.92L14.03,15.61L14.12,15.33L14.26,15.07L14.44,14.84L14.66,14.66L14.92,14.52L15.2,14.43L15.5,14.4L20.75,14.4L21.98,9.039L21.98,8.653L21.8,8.32L21.49,8.088L21.09,8L17.74,8zz" fill="#C18F36" opacity="0.2"/>
    </g>
    <g id="overlay">
      <path d="M23.4023,23.9846h-7.898c-0.2726,0,-0.5043,-0.2318,-0.5043,-0.5151v-7.5545c0,-0.2833,0.2318,-0.5151,0.5043,-0.5151h7.898c0.294,0,0.5977,0.2318,0.5977,0.5151v7.5545C24,23.7528,23.6963,23.9846,23.4023,23.9846z" fill="#E6E9EE"/>
      <path d="M19.1482,24h4.2649c0.2833,0,0.587,-0.2472,0.587,-0.5305v-7.5545c0,-0.2833,-0.3037,-0.5151,-0.587,-0.5151h-2.0188L19.1482,24z" fill="#CCD0D9" opacity="0.5"/>
      <path d="M19.5362,22.6969h-0.0299c-0.1103,0,-0.1996,-0.0894,-0.1996,-0.1996v-5.61c0,-0.1103,0.0894,-0.1996,0.1996,-0.1996h0.0299c0.1103,0,0.1996,0.0894,0.1996,0.1996v5.61C19.7358,22.6075,19.6464,22.6969,19.5362,22.6969zM22.3112,22.4973v-5.61c0,-0.1103,-0.0894,-0.1996,-0.1996,-0.1996h-0.0299c-0.1103,0,-0.1996,0.0894,-0.1996,0.1996v5.61c0,0.1103,0.0894,0.1996,0.1996,0.1996h0.0299C22.2218,22.6969,22.3112,22.6075,22.3112,22.4973zM17.1604,22.4973v-5.61c0,-0.1103,-0.0894,-0.1996,-0.1996,-0.1996h-0.0299c-0.1103,0,-0.1996,0.0894,-0.1996,0.1996v5.61c0,0.1103,0.0894,0.1996,0.1996,0.1996h0.0299C17.071,22.6969,17.1604,22.6075,17.1604,22.4973z" fill="#8E949C"/>
      <path d="M20.2068,18.8339h-1.3712c-0.214,0,-0.3875,-0.1735,-0.3875,-0.3875v-0.0835c0,-0.214,0.1735,-0.3875,0.3875,-0.3875h1.3712c0.214,0,0.3875,0.1735,0.3875,0.3875v0.0835C20.5943,18.6604,20.4208,18.8339,20.2068,18.8339zM23.1697,21.0217v-0.0835c0,-0.214,-0.1735,-0.3875,-0.3875,-0.3875H21.411c-0.214,0,-0.3875,0.1735,-0.3875,0.3875v0.0835c0,0.214,0.1735,0.3875,0.3875,0.3875h1.3712C22.9962,21.4092,23.1697,21.2357,23.1697,21.0217zM18.0189,20.1633v-0.0835c0,-0.214,-0.1735,-0.3875,-0.3875,-0.3875h-1.3712c-0.214,0,-0.3875,0.1735,-0.3875,0.3875v0.0835c0,0.214,0.1735,0.3875,0.3875,0.3875h1.3712C17.8454,20.5508,18.0189,20.3773,18.0189,20.1633z" fill="#536880"/>
    </g>
  </g>
</svg>
