<?xml version="1.0" encoding="UTF-8"?>
<!DOCTYPE svg PUBLIC "-//W3C//DTD SVG 1.1//EN" "http://www.w3.org/Graphics/SVG/1.1/DTD/svg11.dtd">
<svg version="1.1" id="Layer_1" xmlns="http://www.w3.org/2000/svg" xmlns:xlink="http://www.w3.org/1999/xlink" x="0px" y="0px" width="24px" height="24px" viewBox="0 0 24 24" enable-background="new 0 0 24 24" xml:space="preserve">
  <g id="icon">
    <path d="M10.7754,6H8.2489c-0.1564,0,-0.2955,0.0636,-0.346,0.196L2.0175,21.6197c-0.0712,0.1865,0.0838,0.3803,0.3041,0.3803h2.1811c0.1387,0,0.2618,-0.0797,0.3052,-0.1975l1.664,-4.5083h5.9872l1.6802,4.5107c0.0442,0.1167,0.1666,0.1952,0.3043,0.1952h2.259c0.2203,0,0.3752,-0.1938,0.3041,-0.3803L11.1214,6.196C11.0708,6.0636,10.9318,6,10.7754,6zM10.1251,10.8781l1.5618,4.0631H7.2174l1.5529,-4.087c0.2641,-0.6918,0.4715,-1.388,0.6657,-2.0681C9.63,9.4506,9.8437,10.1397,10.1251,10.8781z" fill="#536880"/>
    <path d="M18.6155,7.7938L16.0575,2.7c-0.1596,-0.2831,0.032,-0.7,0.3422,-0.7h5.2005c0.3102,0,0.5018,0.4169,0.3422,0.7L19.3,7.7938C19.145,8.0687,18.7705,8.0687,18.6155,7.7938z" fill="#536880"/>
  </g>
</svg>
