<?xml version="1.0" encoding="UTF-8"?>
<!DOCTYPE svg PUBLIC "-//W3C//DTD SVG 1.1//EN" "http://www.w3.org/Graphics/SVG/1.1/DTD/svg11.dtd">
<svg version="1.1" id="Layer_1" xmlns="http://www.w3.org/2000/svg" xmlns:xlink="http://www.w3.org/1999/xlink" x="0px" y="0px" width="24px" height="24px" viewBox="0 0 24 24" enable-background="new 0 0 24 24" xml:space="preserve">
  <g id="icon">
    <path d="M12.5437,2H9.488c-0.1892,0,-0.3574,0.1111,-0.4185,0.2764L1.9513,21.5342C1.8652,21.767,2.0526,22,2.319,22h2.638c0.1678,0,0.3166,-0.0905,0.3691,-0.2376l2.0126,-5.4702h7.2413l2.0322,5.4731c0.0534,0.1457,0.2015,0.2348,0.3681,0.2348h2.7322c0.2664,0,0.4538,-0.233,0.3678,-0.4658L12.9622,2.2764C12.9011,2.1111,12.7329,2,12.5437,2zM11.7572,8.1223l1.9531,5.3114H8.1937l1.925,-5.3412c0.3194,-0.8638,0.5702,-1.733,0.8051,-2.5822C11.1584,6.34,11.4169,7.2004,11.7572,8.1223z" fill="#536880"/>
    <path d="M19.6155,2.2062L17.0575,7.3c-0.1596,0.2831,0.032,0.7,0.3422,0.7h5.2005c0.3102,0,0.5018,-0.4169,0.3422,-0.7L20.3,2.2062C20.145,1.9313,19.7705,1.9313,19.6155,2.2062z" fill="#536880"/>
  </g>
</svg>
