<?xml version="1.0" encoding="UTF-8"?>
<svg version="1.1" viewBox="0 0 512 512" xmlns="http://www.w3.org/2000/svg">
<title>gearwheel icon</title>
<desc>gearwheel icon from the IconExperience.com G-Collection. Copyright by INCORS GmbH (www.incors.com).</desc>
<defs>
<linearGradient id="b" x1="23.156" x2="359.16" y1="19.557" y2="451.56" gradientUnits="userSpaceOnUse">
<stop stop-color="#4eb6f2" offset="0"/>
<stop stop-color="#129eee" offset="1"/>
</linearGradient>
<linearGradient id="a" x1="96" x2="278.19" y1="96" y2="332.25" gradientUnits="userSpaceOnUse">
<stop stop-color="#c5e7fb" offset="0"/>
<stop stop-color="#c5e7fb" offset="1"/>
</linearGradient>
</defs>
<g font-family="none" font-size="none" font-weight="none" stroke-dasharray="" stroke-miterlimit="10" text-anchor="none" style="mix-blend-mode:normal">
<path d="m255.5 67.5 22.5-42.5c1-2 3-3 5-3.5 9.5-2.5 19-2.5 28-0.5 8.5 2 17 6.5 24.5 12.5 2 1.5 3 3.5 3 6l1.5 47.5c0 5.5 2.5 10 7.5 12.5 5 3 9.5 6.5 14.5 10 4 3 9.5 3.5 14.5 1.5l44.5-17.5c2-1 4-1 6 0 9 4.5 16 10.5 21.5 17.5 5.5 7.5 9 16 11 25.5 0.5 2.5 0 4.5-1.5 6.5l-29.5 37.5c-3.5 4-4.5 9.5-2.5 14.5s3.5 11 5 16.5c1.5 5 5 9 10 10.5l45.5 15c2 1 3.5 2.5 4.5 4.5 4 9 5.5 18 5 27-0.5 9.5-3 18-8 26.5-1 2-3 3.5-5 4l-47 9.5c-5 1.5-9 4.5-11 9.5-2 5.5-4.5 11-7 16.5-2 4.5-2 10 1 14.5l25 40.5c1 2 1.5 4 1 6.5-3 9-7.5 17.5-13.5 24-6.5 6.5-14.5 11.5-23.5 15-2 1-4.5 0.5-6.5-0.5l-42-22.5c-4.5-2.5-10-2.5-14.5 0-5 3-10.5 5.5-15.5 8s-8 6.5-9 11.5l-7 47.5c0 2.5-1 4-3 5.5-8.5 5.5-17 8.5-26 9.5s-18.5 0-27.5-3c-2.5-1-4-2.5-4.5-4.5l-18-44.5c-2-5-6-8.5-11-9.5-6-1-11.5-2-17.5-4-5-1-10 0-14 3.5l-35.5 32c-2 1.5-4 2-6 2-10-1.5-18.5-4.5-26.5-9.5-7.5-5-14-11.5-19-20-1-2-1-4.5-0.5-6.5l15-45.5c1.5-5 0.5-10-2.5-14.5-4-4.5-7.5-9-10.5-14-3-4-8-6.5-13-6.5l-48 1.5c-2 0-4-0.5-6-2.5-6.5-7-11.5-15-14-23.5-2.5-9-3-18.5-1.5-28 0.5-2 2-4 3.5-5l41-25.5c4.5-2.5 7-7.5 7-12.5 0-6 0.5-12 1-17.5s-1.5-10-5.5-13.5l-38-29.5c-1.5-1.5-2.5-3.5-2.5-5.5-1-10 0.5-19 4.5-27.5 3.5-8.5 9-16 16.5-22 1.5-1.5 4-2 6-2l47.5 7c5.5 0.5 10-1 13.5-5 4-4.5 8-9 12-13 4-3.5 5.5-8.5 4.5-14l-10-47c-0.5-2 0-4 1.5-6 5.5-8 13-14 21-18s17-6 27-6c2.5-0.5 4 0.5 6 2.5l31.5 35.5c3.5 4 8.5 5.5 14 5 5.5-1 11.5-2 17.5-2 5-0.5 9.5-3.5 12-8zm0.5 122.5c-36.5 0-66 29.5-66 66s29.5 66 66 66 66-29.5 66-66-29.5-66-66-66z" fill="url(#b)"/>
<path d="m256 96c88.5 0 160 71.5 160 160s-71.5 160-160 160-160-71.5-160-160 71.5-160 160-160zm0 62c-54 0-98 44-98 98s44 98 98 98 98-44 98-98-44-98-98-98z" fill="url(#a)"/>
</g>
</svg>
