<svg version="1.1"
    xmlns="http://www.w3.org/2000/svg"
    xmlns:xlink="http://www.w3.org/1999/xlink" width="512" height="512" viewBox="0 0 512 512">
    <title>hamburger icon</title>
    <desc>hamburger icon from the IconExperience.com G-Collection. Copyright by INCORS GmbH (www.incors.com).</desc>
    <defs>
        <linearGradient x1="32" y1="32" x2="480.0003" y2="474.93335" gradientUnits="userSpaceOnUse" id="color-1">
            <stop offset="0" stop-color="#f28d34"/>
            <stop offset="1" stop-color="#c25c02"/>
        </linearGradient>
        <linearGradient x1="16" y1="192" x2="448.0002" y2="192" gradientUnits="userSpaceOnUse" id="color-2">
            <stop offset="0" stop-color="#814f1e"/>
            <stop offset="0.18824" stop-color="#9c5f24"/>
            <stop offset="0.47059" stop-color="#905822"/>
            <stop offset="1" stop-color="#674019"/>
        </linearGradient>
        <linearGradient x1="40" y1="384" x2="383.9971" y2="471.999" gradientUnits="userSpaceOnUse" id="color-3">
            <stop offset="0" stop-color="#ffc926"/>
            <stop offset="1" stop-color="#ffc106"/>
        </linearGradient>
        <linearGradient x1="0.08006" y1="254" x2="491.13556" y2="327.6585" gradientUnits="userSpaceOnUse" id="color-4">
            <stop offset="0" stop-color="#74d425"/>
            <stop offset="1" stop-color="#5daa1e"/>
        </linearGradient>
        <linearGradient x1="472" y1="176" x2="333.335" y2="239.999" gradientUnits="userSpaceOnUse" id="color-5">
            <stop offset="0" stop-color="#ec594e"/>
            <stop offset="1" stop-color="#e14e43"/>
        </linearGradient>
    </defs>
    <g fill="none" fill-rule="none" stroke="none" stroke-width="1" stroke-linecap="butt" stroke-linejoin="miter" stroke-miterlimit="10" stroke-dasharray="" stroke-dashoffset="0" font-family="none" font-weight="none" font-size="none" text-anchor="none" style="mix-blend-mode: normal">
        <path d="M47,176l17,0l0,224l-24,0c-4.5,0 -8,3.5 -8,8l0,56c0,9 7,16 16,16l416,0c9,0 16,-7 16,-16l0,-56c0,-4.5 -3.5,-8 -8,-8l-24,0l0,-224l17,0c8.5,0 15,-6.5 15,-14.5c0,-100.5 -139.5,-129.5 -224,-129.5c-84.5,0 -224,29 -224,129.5c0,8 6.5,14.5 15,14.5z" id="curve4" fill="url(#color-1)" fill-rule="evenodd"/>
        <path d="M463.5,288l0.5,0c16,0 32,21.5 32,48c0,26.5 -16,48 -32,48l-416,0c-16,0 -32,-21.5 -32,-48c0,-26 15.5,-47.5 31.5,-48c-16,-2 -31.5,-22 -31.5,-48c0,-26.5 16,-48 32,-48l416,0c16,0 32,21.5 32,48c0,26.5 -16,46 -32,48z" id="curve3" fill="url(#color-2)" fill-rule="evenodd"/>
        <path d="M224,416c0,13.5 -10.5,24 -24,24c-13.5,0 -24,-10.5 -24,-24c0,-9 -7,-16 -16,-16c-9,0 -16,7 -16,16l0,32c0,13.5 -10.5,24 -24,24c-13.5,0 -24,-10.5 -24,-24l0,-32c0,-9 -7,-16 -16,-16l-32,0c-4.5,0 -8,-3.5 -8,-8c0,-4.5 3.5,-8 8,-8l416,0c4.5,0 8,3.5 8,8c0,4.5 -3.5,8 -8,8l-224,0c-9,0 -16,7 -16,16z" id="curve2" fill="url(#color-3)" fill-rule="evenodd"/>
        <path d="M501.5,284c11,7 13.5,22 6.5,33c-7,11 -21.5,14 -32,7l-29.5,-20.5c-1.5,-1 -3,-1.5 -4.5,-1.5c-1.5,0 -3,0.5 -4,1.5l0,0l-12,8.5c-9.5,6.5 -20,9.5 -30.5,9.5c-10.5,0 -20.5,-3 -30,-9.5l0,0l0,0l-12,-8.5c-1.5,-1 -3,-1.5 -4.5,-1.5c-1.5,0 -3,0.5 -4,1.5l0,0l-12.5,8.5c-9,6.5 -19.5,9.5 -30,9.5c-10.5,0 -21,-3 -30,-9.5l0,0l0,0l-12,-8.5c-1.5,-1 -3,-1.5 -4.5,-1.5c-1.5,0 -3,0.5 -4.5,1.5l-12,8.5c-0.5,0.5 -1,0.5 -1.5,1c-9,5.5 -18.5,8.5 -28.5,8.5c-10.5,0 -21,-3 -30,-9.5l-12.5,-8.5c0,0 0,0 -0.5,-0.5c-1,-0.5 -2.5,-1 -3.5,-1c-1.5,0 -3,0.5 -4.5,1.5l-12,8.5c-0.5,0.5 -1,0.5 -1.5,1c-9,5.5 -19,8.5 -28.5,8.5c-10.5,0 -21,-3 -30.5,-9.5l-12,-8.5c0,0 -0.5,0 -0.5,-0.5c-1,-0.5 -2.5,-1 -3.5,-1c-1.5,0 -3,0.5 -4.5,1.5l-29.5,20.5c-10.5,7 -25,4 -32,-7c-7,-11 -4.5,-26 6.5,-33l29,-20.5c9.5,-6 20,-9.5 30.5,-9.5c9.5,0 19.5,3 28.5,8.5c0.5,0.5 1,1 1.5,1l12,8.5c1.5,1 3,1.5 4.5,1.5c1,0 2.5,-0.5 3.5,-1c0.5,0 0.5,-0.5 0.5,-0.5l12.5,-8.5c9,-6 19.5,-9.5 30,-9.5c9.5,0 19.5,3 28.5,8.5c0.5,0.5 1,1 1.5,1l12,8.5c1.5,1 3,1.5 4.5,1.5c1,0 2.5,-0.5 3.5,-1c0.5,0 0.5,-0.5 1,-0.5l12,-8.5c9,-6 19.5,-9.5 30,-9.5c10.5,0 21,3.5 30,9.5l12,8.5l0,0c1.5,1 3,1.5 4.5,1.5c1.5,0 3,-0.5 4.5,-1.5l12,-8.5l0,0l0,0c9.5,-6 19.5,-9.5 30,-9.5c10.5,0 21,3.5 30,9.5l12.5,8.5l0,0c1,1 2.5,1.5 4,1.5c1.5,0 3,-0.5 4.5,-1.5l12,-8.5l0,0l0,0c9.5,-6 20,-9.5 30,-9.5c10.5,0 21,3.5 30.5,9.5z" id="curve1" fill="url(#color-4)" fill-rule="nonzero"/>
        <path d="M288,208c0,13.5 10.5,24 24,24c13.5,0 24,-10.5 24,-24c0,-9 7,-16 16,-16c9,0 16,7 16,16l0,8c0,13.5 10.5,24 24,24c13.5,0 24,-10.5 24,-24l0,-8c0,-9 7,-16 16,-16l32,0c4.5,0 8,-3.5 8,-8c0,-4.5 -3.5,-8 -8,-8l-416,0c-4.5,0 -8,3.5 -8,8c0,4.5 3.5,8 8,8l224,0c9,0 16,7 16,16z" id="curve0" fill="url(#color-5)" fill-rule="evenodd"/>
    </g>
</svg>