<?xml version="1.0" encoding="UTF-8"?>
<!DOCTYPE svg PUBLIC "-//W3C//DTD SVG 1.1//EN" "http://www.w3.org/Graphics/SVG/1.1/DTD/svg11.dtd">
<svg version="1.1" id="Layer_1" xmlns="http://www.w3.org/2000/svg" xmlns:xlink="http://www.w3.org/1999/xlink" x="0px" y="0px" width="24px" height="24px" viewBox="0 0 24 24" enable-background="new 0 0 24 24" xml:space="preserve">
  <g id="icon">
    <polygon points="13,21 13,18 11,18 11,21 3,21 3,22.5 21,22.5 21,21" fill="#AAB2BD" stroke-linejoin="miter"/>
    <path d="M13.45,23h-2.9c-0.3038,0,-0.55,-0.2462,-0.55,-0.55v-1.4c0,-0.3038,0.2462,-0.55,0.55,-0.55h2.9c0.3038,0,0.55,0.2462,0.55,0.55v1.4C14,22.7538,13.7538,23,13.45,23z" fill="#F6BB43"/>
    <path d="M18.7166,17.2166c-3.6985,3.6985,-9.7348,3.6984,-13.4332,0s-3.6985,-9.7347,0,-13.4332s9.7348,-3.6984,13.4332,0S22.415,13.5181,18.7166,17.2166z" fill-rule="evenodd" fill="#5D9CEC"/>
    <path d="M20.0024,11.4649c-0.0706,0.0811,-0.1429,0.1505,-0.2127,0.2177c-0.061,0.0587,-0.1188,0.1141,-0.1657,0.1687c-0.1925,0.2238,-0.2645,0.3869,-0.2657,0.6019c-0.0035,0.6546,-0.1474,1.1983,-0.4396,1.6617c-0.0127,0.0202,-0.0203,0.0355,-0.024,0.0446c-0.0046,0.5444,-0.3095,0.9183,-0.5551,1.2195c-0.0412,0.0505,-0.0822,0.1006,-0.1212,0.1512c-0.2293,0.2968,-0.5471,0.4602,-0.8948,0.4602c-0.4254,0,-0.8332,-0.25,-1.0909,-0.6687c-0.2683,-0.436,-0.3757,-0.8976,-0.4796,-1.344c-0.0333,-0.143,-0.0646,-0.2779,-0.1011,-0.4113c-0.0606,-0.2231,0.0327,-0.4163,0.0945,-0.5443c0.0101,-0.0209,0.0202,-0.0413,0.0284,-0.061c0.0898,-0.2156,0.0623,-0.4407,-0.0816,-0.6691c-0.2172,-0.3445,-0.3181,-0.6689,-0.3121,-1.0091c-0.0918,-0.0198,-0.158,-0.063,-0.2011,-0.1007c-0.0575,-0.0504,-0.1024,-0.0605,-0.1562,-0.0605c-0.087,0,-0.1997,0.0304,-0.3189,0.0627c-0.0743,0.0201,-0.1512,0.0409,-0.2324,0.0574c-0.1761,0.036,-0.3112,0.0583,-0.44,0.0583c-0.4192,0,-0.6361,-0.2511,-0.8343,-0.5361c-0.0112,-0.0079,-0.0282,-0.0191,-0.0405,-0.0272c-0.0904,-0.0593,-0.2416,-0.1586,-0.3099,-0.3469c-0.0996,-0.2747,-0.1519,-0.553,-0.2025,-0.8222l-0.0096,-0.0511c-0.0359,-0.1895,-0.0723,-0.4109,-0.0495,-0.6369c0.0209,-0.206,0.1092,-0.4241,0.2423,-0.5986c0.1128,-0.148,0.2347,-0.2806,0.3527,-0.4088c0.0642,-0.0698,0.1285,-0.1397,0.1903,-0.2114c0.0053,-0.0089,0.0149,-0.0278,0.0221,-0.0421c0.0157,-0.0312,0.0354,-0.07,0.061,-0.111c0.0825,-0.1316,0.1659,-0.2621,0.2503,-0.392c-0.1734,-0.1331,-0.3,-0.3613,-0.1837,-0.7513c0.0043,-0.0144,0.0091,-0.0285,0.0123,-0.0423c0.0094,-0.2846,0.2543,-0.4286,0.402,-0.5153c0.0223,-0.0131,0.0442,-0.0257,0.0628,-0.0379c0.0193,-0.0126,0.0395,-0.0237,0.0605,-0.033c-0.0524,-0.081,-0.0758,-0.1787,-0.0641,-0.2765c0.0158,-0.1312,0.0928,-0.2472,0.2075,-0.3127l0.9495,-0.542c-0.0171,-0.0123,-0.0335,-0.0256,-0.0491,-0.04c-0.1874,-0.173,-0.2081,-0.3626,-0.2038,-0.4603c0.0124,-0.2789,0.221,-0.4398,0.3331,-0.5263l0.0118,-0.0091c0.1357,-0.1051,0.2727,-0.1929,0.4177,-0.2858c0.0584,-0.0374,0.1183,-0.0758,0.1796,-0.1164c0.1407,-0.0932,0.3237,-0.0924,0.4638,0.0019l0.4895,0.3301c0.1091,0.0735,0.1771,0.1941,0.1835,0.3255c0.0015,0.0298,-0.0003,0.0593,-0.0051,0.0882c0.3128,0.0089,0.5497,0.1998,0.7018,0.3443c1.2983,1.2327,2.1494,2.6882,2.5295,4.3263c0.1145,0.4931,0.2172,1.0085,0.3053,1.5318C20.6179,10.7582,20.2175,11.2179,20.0024,11.4649zM11.0692,11.8466c-0.148,-0.0685,-0.2888,-0.1342,-0.4248,-0.1978c-0.3069,-0.1434,-0.5968,-0.2788,-0.8879,-0.4067l-0.042,-0.0183c-0.0452,-0.0196,-0.1086,-0.0471,-0.1441,-0.068c0,-0.0004,0.0001,-0.0008,0.0001,-0.0013c0.0273,-0.2722,-0.1893,-0.4695,-0.3829,-0.5557c-0.1514,-0.0675,-0.3047,-0.1306,-0.453,-0.1916c-0.267,-0.1098,-0.5191,-0.2136,-0.7571,-0.3395l-0.0156,-0.0083c-0.3106,-0.1645,-0.6318,-0.3346,-1.0037,-0.3346c-0.2717,0,-0.5251,0.0937,-0.755,0.2787c-0.04,0.0075,-0.0782,0.0207,-0.1141,0.0383c-0.004,-0.0221,-0.0084,-0.0444,-0.0117,-0.0664c-0.0152,-0.0998,-0.0241,-0.205,-0.0326,-0.3067c-0.0038,-0.0459,-0.0076,-0.0902,-0.0117,-0.1322c-0.0167,-0.171,-0.1351,-0.3095,-0.2917,-0.3581l0.038,-0.0951c0.0757,-0.1891,0.0038,-0.4051,-0.17,-0.5112c-0.1188,-0.0725,-0.2398,-0.1092,-0.3598,-0.1092c-0.2425,0,-0.3964,0.1409,-0.487,0.2535c-0.002,-0.0196,-0.0026,-0.041,-0.0016,-0.0639c0.0032,-0.0678,0.0205,-0.1203,0.0384,-0.1537c0.0479,-0.0076,0.0957,-0.0154,0.1436,-0.0232c0.2045,-0.0333,0.3977,-0.0647,0.5916,-0.0845c0.0602,-0.0061,0.1181,-0.0118,0.1642,-0.0145c0.0275,0.0639,0.0622,0.1578,0.0879,0.2273c0.0633,0.1713,0.231,0.2807,0.4131,0.272c0.1824,-0.0095,0.3374,-0.1365,0.3826,-0.3135c0.0138,-0.0541,0.0247,-0.1036,0.0347,-0.1498c0.0126,-0.0577,0.0245,-0.1122,0.0359,-0.1381c0.023,-0.052,0.0447,-0.106,0.0664,-0.1603c0.0463,-0.1159,0.0942,-0.2358,0.1445,-0.287c0.3714,-0.3781,0.776,-0.7247,1.1229,-1.0139c0.0637,-0.0531,0.1372,-0.1033,0.219,-0.1549c0.1228,0.0417,0.2612,0.0248,0.3724,-0.0522c0.4003,-0.2778,0.8039,-0.5973,1.27,-1.0059c0.2005,-0.1758,0.2137,-0.4858,0.2026,-0.5805c-0.0172,-0.1463,-0.0994,-0.2682,-0.2254,-0.3347c-0.0504,-0.0266,-0.0682,-0.0625,-0.1068,-0.2821c-0.0058,-0.0331,-0.0117,-0.0663,-0.0182,-0.1c-0.0182,-0.0928,-0.0739,-0.221,-0.2362,-0.3094c-0.0482,-0.0282,-0.1012,-0.0462,-0.1557,-0.0535c-0.0233,-0.0352,-0.0521,-0.0673,-0.0863,-0.0949c-0.2214,-0.1786,-0.4158,-0.2617,-0.6118,-0.2617c-0.124,0,-0.3884,0.0396,-0.5646,0.3473c-0.17,0.0244,-0.3092,0.1513,-0.3476,0.321c-0.0219,0.0969,-0.0888,0.1729,-0.2028,0.282c-0.0247,-0.0213,-0.0509,-0.0401,-0.0785,-0.0563c-0.1064,-0.0627,-0.2129,-0.0798,-0.287,-0.0902c-0.1569,-0.1316,-0.3253,-0.1982,-0.5015,-0.1982c-0.1504,0,-0.374,0.0512,-0.5849,0.2954c-0.0791,0.0915,-0.1588,0.1826,-0.2385,0.2738c-0.3065,0.3505,-0.6234,0.7129,-0.9079,1.1004c-0.6878,0.9368,-1.1461,2.0558,-1.4009,3.4208c-0.0367,0.1966,0.0713,0.3917,0.2574,0.4649c0.1072,0.0422,0.2158,0.082,0.3245,0.1218c0.5528,0.2025,1.0301,0.3773,1.2924,0.8552c0.06,0.1093,0.1635,0.1819,0.2793,0.2065c-0.005,0.0613,-0.0103,0.1188,-0.0182,0.1667c-0.0042,0.0139,-0.0241,0.0512,-0.0387,0.0784c-0.07,0.1308,-0.2003,0.3743,-0.1004,0.688c0.0068,0.0212,0.009,0.065,0.0099,0.1101c-0.0194,0.0324,-0.0346,0.0677,-0.0447,0.1049c-0.0319,0.1173,-0.011,0.2426,0.0571,0.3434c0.0638,0.0942,0.1271,0.1888,0.1904,0.2834c0.1658,0.2476,0.3372,0.5037,0.5163,0.7524c0.1584,0.2199,0.3342,0.3562,0.5222,0.4051c0.132,0.0344,0.2104,0.0919,0.2462,0.2967c0.05,0.2868,0.088,0.601,0.1161,0.9607c0.0202,0.258,0.0354,0.5229,0.0501,0.7792c0.0207,0.3612,0.0422,0.7348,0.0781,1.1049c0.0304,0.3128,0.1015,1.0453,0.7391,1.0453c0.23,0,0.4645,-0.1095,0.746,-0.274c0.0985,-0.0575,0.1478,-0.136,0.1678,-0.1685c0.0664,-0.0899,0.094,-0.2025,0.0766,-0.3129c-0.0098,-0.0619,-0.0333,-0.1203,-0.0681,-0.1711c0.0789,-0.1191,0.0935,-0.2743,0.0291,-0.4098l-0.0196,-0.0413c0.1389,-0.1409,0.2703,-0.275,0.395,-0.4266c0.2455,-0.2986,0.4276,-0.5511,0.5731,-0.7945c0.0851,-0.1423,0.1117,-0.2882,0.1331,-0.4054c0.009,-0.0493,0.0183,-0.1002,0.029,-0.1292c0.0074,-0.02,0.0139,-0.0359,0.0194,-0.0485c0.4755,-0.1892,0.9219,-0.5063,0.8544,-1.3093c-0.012,-0.1419,0.0219,-0.2667,0.117,-0.4304c0.1191,-0.205,0.1752,-0.4272,0.2202,-0.6059c0.0151,-0.0599,0.0294,-0.1174,0.0458,-0.17C11.3548,12.1498,11.2593,11.9345,11.0692,11.8466z" fill="#48CFAE"/>
    <path d="M18.7166,3.7834L5.2834,17.2166c3.6984,3.6984,9.7347,3.6984,13.4332,0C22.415,13.5181,22.4149,7.4818,18.7166,3.7834z" fill-rule="evenodd" fill="#231F20" opacity="0.08"/>
  </g>
</svg>
