<svg version="1.1"
    xmlns="http://www.w3.org/2000/svg"
    xmlns:xlink="http://www.w3.org/1999/xlink" width="512" height="512" viewBox="0 0 512 512">
    <title>list style numbered icon</title>
    <desc>list style numbered icon from the IconExperience.com G-Collection. Copyright by INCORS GmbH (www.incors.com).</desc>
    <defs>
        <linearGradient x1="52" y1="64" x2="96.174" y2="107.341" gradientUnits="userSpaceOnUse" id="color-1">
            <stop offset="0" stop-color="#25b2f4"/>
            <stop offset="1" stop-color="#1aa7f1"/>
        </linearGradient>
        <linearGradient x1="44" y1="288" x2="111.99445" y2="354.7125" gradientUnits="userSpaceOnUse" id="color-2">
            <stop offset="0" stop-color="#25b2f4"/>
            <stop offset="1" stop-color="#18a4f0"/>
        </linearGradient>
    </defs>
    <g fill="none" fill-rule="evenodd" stroke="none" stroke-width="1" stroke-linecap="butt" stroke-linejoin="miter" stroke-miterlimit="10" stroke-dasharray="" stroke-dashoffset="0" font-family="none" font-weight="none" font-size="none" text-anchor="none" style="mix-blend-mode: normal">
        <path d="M96,160l-22.5,0l0,-70.5l-21.5,6l0,-17l42,-14.5l2,0z" id="curve2" fill="url(#color-1)"/>
        <path d="M112,384l-66,0l0,-14.5l30.5,-32c7.5,-8.5 11,-15 11,-20c0,-4 -1,-7.5 -2.5,-9.5c-2,-2 -4.5,-3 -8,-3c-3,0 -6,1.5 -8,4c-2,3 -3,6.5 -3,11l-22,0c0,-6 1.5,-11.5 4.5,-16.5c3,-4.5 7,-8.5 12,-11.5c5,-2.5 11,-4 17,-4c10.5,0 18.5,2.5 24,7c5.5,5 8,11.5 8,20.5c0,3.5 -0.5,7.5 -2,11c-1.5,3.5 -3.5,7 -6.5,11c-3,4 -7.5,9 -14,15.5l-12.5,14l37.5,0z" id="curve1" fill="url(#color-2)"/>
        <path d="M176,64l304,0l0,16l-304,0z M176,432l144,0l0,16l-144,0z M176,384l304,0l0,16l-304,0z M176,336l304,0l0,16l-304,0z M176,288l304,0l0,16l-304,0z M176,208l192,0l0,16l-192,0z M176,160l304,0l0,16l-304,0z M176,112l304,0l0,16l-304,0z" id="curve0" fill="#717f8f"/>
    </g>
</svg>