<?xml version="1.0" encoding="UTF-8"?>
<!DOCTYPE svg PUBLIC "-//W3C//DTD SVG 1.1//EN" "http://www.w3.org/Graphics/SVG/1.1/DTD/svg11.dtd">
<svg version="1.1" id="Layer_1" xmlns="http://www.w3.org/2000/svg" xmlns:xlink="http://www.w3.org/1999/xlink" x="0px" y="0px" width="24px" height="24px" viewBox="0 0 24 24" enable-background="new 0 0 24 24" xml:space="preserve">
  <g id="icon">
    <path d="M1.3075,4.3765C1.1165,4.5766,1,4.8408,1,5.1294v13.7412c0,0.3326,0.1548,0.6328,0.4,0.84c0.2127,0.1797,20.9873,0.1797,21.2,0c0.2452,-0.2072,0.4,-0.5074,0.4,-0.84V5.1294c0,-0.3326,-0.1548,-0.6328,-0.3999,-0.8399C22.3874,4.1097,1.5276,4.1457,1.3075,4.3765z" fill="#AAB2BD"/>
    <path d="M10.0571,11.5294l-8.8613,7.9564C1.4106,19.7946,1.7808,20,2.2,20h19.6c0.4192,0,0.7894,-0.2054,1.0041,-0.5142l-8.8613,-7.9564C12.8,10.6071,11.1667,10.5945,10.0571,11.5294z" fill="#CCD0D9"/>
    <path d="M12,15.3882L1.1959,4.5266c0.2148,-0.3253,21.3935,-0.3253,21.6083,0L12,15.3882z" fill="#24282D" opacity="0.21"/>
    <path d="M12,13.4118L1.1959,4.5142C1.4106,4.2054,1.7808,4,2.2,4h19.6c0.4192,0,0.7894,0.2054,1.0041,0.5142L12,13.4118z" fill="#E6E9EE"/>
  </g>
</svg>
