<svg version="1.1"
    xmlns="http://www.w3.org/2000/svg"
    xmlns:xlink="http://www.w3.org/1999/xlink" width="512" height="512" viewBox="0 0 512 512">
    <title>map location2 icon</title>
    <desc>map location2 icon from the IconExperience.com G-Collection. Copyright by INCORS GmbH (www.incors.com).</desc>
    <defs>
        <linearGradient x1="0" y1="64" x2="512" y2="449.986" gradientUnits="userSpaceOnUse" id="color-1">
            <stop offset="0" stop-color="#ebeff3"/>
            <stop offset="1" stop-color="#d8e0e8"/>
        </linearGradient>
        <linearGradient x1="0" y1="64" x2="427.9295" y2="489.844" gradientUnits="userSpaceOnUse" id="color-2">
            <stop offset="0" stop-color="#d8e0e8"/>
            <stop offset="1" stop-color="#c3ced9"/>
        </linearGradient>
        <linearGradient x1="18" y1="81.5" x2="139.21065" y2="494.7195" gradientUnits="userSpaceOnUse" id="color-3">
            <stop offset="0" stop-color="#b9e596"/>
            <stop offset="1" stop-color="#8cc65d"/>
        </linearGradient>
        <linearGradient x1="20.5" y1="81.5" x2="92.2049" y2="494.656" gradientUnits="userSpaceOnUse" id="color-4">
            <stop offset="0" stop-color="#90c961"/>
            <stop offset="0.47059" stop-color="#82bf50"/>
            <stop offset="1" stop-color="#74b53e"/>
        </linearGradient>
        <linearGradient x1="161.5" y1="256" x2="166.0425" y2="494.494" gradientUnits="userSpaceOnUse" id="color-5">
            <stop offset="0" stop-color="#6fb238"/>
            <stop offset="0.23922" stop-color="#66ac2c"/>
            <stop offset="1" stop-color="#5ca520"/>
        </linearGradient>
        <linearGradient x1="224" y1="0" x2="415.9995" y2="161.45368" gradientUnits="userSpaceOnUse" id="color-6">
            <stop offset="0" stop-color="#eb584d"/>
            <stop offset="1" stop-color="#c9362b"/>
        </linearGradient>
        <linearGradient x1="259" y1="35" x2="259" y2="148.5249" gradientUnits="userSpaceOnUse" id="color-7">
            <stop offset="0" stop-color="#99d5f8"/>
            <stop offset="1" stop-color="#ffffff"/>
        </linearGradient>
    </defs>
    <g fill="none" fill-rule="none" stroke="none" stroke-width="1" stroke-linecap="butt" stroke-linejoin="miter" stroke-miterlimit="10" stroke-dasharray="" stroke-dashoffset="0" font-family="none" font-weight="none" font-size="none" text-anchor="none" style="mix-blend-mode: normal">
        <path d="M0,144l160.5,-80l191.5,64l160,-60.5l-32,188.5l32,160l-160,96l-192,-64l-160,64l32,-192z" id="curve7" fill="url(#color-1)" fill-rule="evenodd"/>
        <path d="M176,256l-15.5,-192l191.5,64l-16,192l144,-64l32,160l-160,96l-192,-64l-160,64l32,-192z" id="curve6" fill="url(#color-2)" fill-rule="evenodd"/>
        <path d="M176,256l160,64l16,192l-192,-64z" id="curve5" fill="#b3c0cd" fill-rule="evenodd"/>
        <path d="M18,153l30,167l-27.5,166.5l139,-55.5l190.5,63.5l144,-86.5l-30.5,-152l28,-163.5l-139,52.5l-191,-63.5z" id="curve4" fill="url(#color-3)" fill-rule="evenodd"/>
        <path d="M176,256l-14,-174.5l188.5,63l-14.5,175.5l129,-57.5l29,145.5l-144,86.5l-188.5,-63l-2,-0.5l-139,55.5l27.5,-166.5l-1,-6.5z" id="curve3" fill="url(#color-4)" fill-rule="evenodd"/>
        <path d="M176,256l160,64l14.5,174l-0.5,0.5l-188.5,-63z" id="curve2" fill="url(#color-5)" fill-rule="evenodd"/>
        <path d="M320,0c53,0 96,43 96,96c0,17 -4.5,33 -12,47l-84,136.5l-84,-136.5c-7.5,-14 -12,-30 -12,-47c0,-53 43,-96 96,-96z" id="curve1" fill="url(#color-6)" fill-rule="nonzero"/>
        <path d="M320,35c33.5,0 61,27.5 61,61c0,34 -27.5,61 -61,61c-34,0 -61,-27 -61,-61c0,-33.5 27,-61 61,-61z" id="curve0" fill="url(#color-7)" fill-rule="evenodd"/>
    </g>
</svg>