<?xml version="1.0" encoding="UTF-8"?>
<!DOCTYPE svg PUBLIC "-//W3C//DTD SVG 1.1//EN" "http://www.w3.org/Graphics/SVG/1.1/DTD/svg11.dtd">
<svg version="1.1" id="Layer_1" xmlns="http://www.w3.org/2000/svg" xmlns:xlink="http://www.w3.org/1999/xlink" x="0px" y="0px" width="24px" height="24px" viewBox="0 0 24 24" enable-background="new 0 0 24 24" xml:space="preserve">
  <g id="main">
    <g id="icon">
      <path d="M2.734,0.09473L2.353,0.3525L2.095,0.734L2,1.2L2,20.8L2.095,21.27L2.353,21.65L2.734,21.91L3.2,22L12,22L12,17L12.09,16.41L12.34,15.89L12.72,15.46L13.21,15.16L13.05,14.37L13.03,14.18L13.08,13.86L13.2,13.58L13.39,13.34L13.64,13.15L13.93,13.03L14.23,13L14.53,13.05L14.81,13.17L17.92,15L20,15L20,1.2L19.91,0.734L19.65,0.3525L19.27,0.09473L18.8,0L3.2,0zz" fill="#536880"/>
      <path d="M6,10L16,10L16,1L6,1zM6,21L12,21L12,17L12.09,16.41L12.34,15.89L12.72,15.46L13.21,15.16L13.05,14.37L13.03,14.18L13.08,13.86L13.2,13.58L13.39,13.34L13.64,13.15L13.93,13.03L14.23,13L14.53,13.05L14.81,13.17L16,13.87L16,12L6,12zz" fill="#4FC0E8"/>
      <path d="M8.995,22L12,22L12,17L12.09,16.41L12.34,15.89L12.72,15.46L13.21,15.16L13.05,14.37L13.03,14.18L13.08,13.86L13.2,13.58L13.39,13.34L13.64,13.15L13.93,13.03L14.23,13L14.53,13.05L14.81,13.17L17.92,15L20,15L20,1.2L19.91,0.734L19.65,0.3525L19.27,0.09473L18.8,0L15.78,0zz" fill="#231F20" opacity="0.1"/>
      <path d="M3,4L5,4L5,2L3,2zM17,4L19,4L19,2L17,2zM3,8L5,8L5,6L3,6zM17,8L19,8L19,6L17,6zM3,12L5,12L5,10L3,10zM17,12L19,12L19,10L17,10zM3,16L5,16L5,14L3,14zM17,14.46L17.92,15L19,15L19,14L17,14zM3,20L5,20L5,18L3,18zz" fill="#CCD0D9"/>
    </g>
    <g id="overlay">
      <path d="M23,24h-9c-0.55,0,-1,-0.45,-1,-1v-6c0,-0.55,0.45,-1,1,-1h0.4l-0.366,-1.826c0,-0.137,0.151,-0.22,0.267,-0.148L17.651,16H23c0.55,0,1,0.45,1,1v6C24,23.55,23.55,24,23,24z" fill="#5D9CEC"/>
      <path d="M15.564,20.964c-0.533,0,-0.964,-0.432,-0.964,-0.964c0,-0.533,0.432,-0.964,0.964,-0.964c0.533,0,0.964,0.432,0.964,0.964C16.529,20.533,16.097,20.964,15.564,20.964zM22.4,20c0,-0.533,-0.432,-0.964,-0.964,-0.964c-0.533,0,-0.964,0.432,-0.964,0.964c0,0.533,0.432,0.964,0.964,0.964C21.968,20.964,22.4,20.533,22.4,20zM19.464,20c0,-0.533,-0.432,-0.964,-0.964,-0.964s-0.964,0.432,-0.964,0.964c0,0.533,0.432,0.964,0.964,0.964S19.464,20.533,19.464,20z" fill="#FFFFFF"/>
      <path d="M22.6,24h0.4c0.55,0,1,-0.45,1,-1v-6c0,-0.55,-0.45,-1,-1,-1h-2.193l-2.922,8h1.464H22.6z" fill="#231F20" opacity="0.08"/>
    </g>
  </g>
</svg>
