<?xml version="1.0" encoding="UTF-8"?>
<!DOCTYPE svg PUBLIC "-//W3C//DTD SVG 1.1//EN" "http://www.w3.org/Graphics/SVG/1.1/DTD/svg11.dtd">
<svg version="1.1" id="Layer_1" xmlns="http://www.w3.org/2000/svg" xmlns:xlink="http://www.w3.org/1999/xlink" x="0px" y="0px" width="24px" height="24px" viewBox="0 0 24 24" enable-background="new 0 0 24 24" xml:space="preserve">
  <g id="icon">
    <path d="M19.8,23H4.2c-0.66,0,-1.2,-0.54,-1.2,-1.2V2.2c0,-0.66,0.54,-1.2,1.2,-1.2h15.6c0.66,0,1.2,0.54,1.2,1.2v19.6C21,22.46,20.46,23,19.8,23z" fill="#EAEAEA"/>
    <path d="M6.5,19.5h11M6.5,16.5h11M6.5,13.5h11M6.5,10.5h11M6.5,7.5h11M6.5,4.5h11" fill="none" stroke="#AAAAAA" stroke-width="1" stroke-linecap="round" stroke-miterlimit="10" opacity="0.7"/>
    <path d="M19.9,1h-1.7738l-7.5377,22H19.9c0.66,0,1.1,-0.64,1.1,-1.3V2.1C21,1.44,20.56,1,19.9,1z" fill="#868686" opacity="0.06"/>
  </g>
</svg>
