<?xml version="1.0" encoding="UTF-8"?>
<!DOCTYPE svg PUBLIC "-//W3C//DTD SVG 1.1//EN" "http://www.w3.org/Graphics/SVG/1.1/DTD/svg11.dtd">
<svg version="1.1" id="Layer_1" xmlns="http://www.w3.org/2000/svg" xmlns:xlink="http://www.w3.org/1999/xlink" x="0px" y="0px" width="24px" height="24px" viewBox="0 0 24 24" enable-background="new 0 0 24 24" xml:space="preserve">
  <g id="main">
    <g id="icon">
      <path d="M1.734,1.095L1.353,1.353L1.095,1.734L1,2.2L1,19.8L1.095,20.27L1.353,20.65L1.734,20.91L2.2,21L12,21L12,17L12.09,16.41L12.34,15.89L12.72,15.46L13.21,15.16L13.05,14.37L13.03,14.18L13.08,13.86L13.2,13.58L13.39,13.34L13.64,13.15L13.93,13.03L14.23,13L14.53,13.05L14.81,13.17L17.92,15L21,15L21,2.2L20.91,1.734L20.65,1.353L20.27,1.095L19.8,1L2.2,1zz" fill="#AAB2BD"/>
      <path d="M13.84,13.07L13.93,13.03L14.23,13L14.53,13.05L14.81,13.17L17.92,15L20.9,15L20.9,2.1L20.82,1.65L20.6,1.303L20.25,1.079L19.8,1L17.17,1zM11.65,21L12,21L12,19.75zz" fill="#231F20" opacity="0.08"/>
      <path d="M2.5,17L12,17L12.09,16.41L12.34,15.89L12.72,15.46L13.21,15.16L13.05,14.37L13.03,14.18L13.08,13.86L13.2,13.58L13.39,13.34L13.64,13.15L13.93,13.03L14.23,13L14.53,13.05L14.81,13.17L17.92,15L19.5,15L19.5,5.3L19.5,2.5L2.5,2.5zz" fill="#FFFFFF"/>
      <path d="M4,13.33L4,16L12.28,16L12.34,15.89L12.72,15.46L13.21,15.16L13.05,14.37L13.03,14.18L13.08,13.86L13.2,13.58L13.39,13.34L13.64,13.15L13.93,13.03L14.23,13L14.53,13.05L14.81,13.17L16.73,14.3L13,9.3L11,12L8,8zz" fill="#36BC9B"/>
      <path d="M15.6,4.041L15.22,4.157L14.88,4.342L14.59,4.586L14.34,4.882L14.16,5.221L14.04,5.597L14,6L14.04,6.403L14.16,6.779L14.34,7.118L14.59,7.414L14.88,7.658L15.22,7.843L15.6,7.959L16,8L16.4,7.959L16.78,7.843L17.12,7.658L17.41,7.414L17.66,7.118L17.84,6.779L17.96,6.403L18,6L17.96,5.597L17.84,5.221L17.66,4.882L17.41,4.586L17.12,4.342L16.78,4.157L16.4,4.041L16,4zz" fill="#FFCE55"/>
    </g>
    <g id="overlay">
      <path d="M23,24h-9c-0.55,0,-1,-0.45,-1,-1v-6c0,-0.55,0.45,-1,1,-1h0.4l-0.366,-1.826c0,-0.137,0.151,-0.22,0.267,-0.148L17.651,16H23c0.55,0,1,0.45,1,1v6C24,23.55,23.55,24,23,24z" fill="#5D9CEC"/>
      <path d="M15.564,20.964c-0.533,0,-0.964,-0.432,-0.964,-0.964c0,-0.533,0.432,-0.964,0.964,-0.964c0.533,0,0.964,0.432,0.964,0.964C16.529,20.533,16.097,20.964,15.564,20.964zM22.4,20c0,-0.533,-0.432,-0.964,-0.964,-0.964c-0.533,0,-0.964,0.432,-0.964,0.964c0,0.533,0.432,0.964,0.964,0.964C21.968,20.964,22.4,20.533,22.4,20zM19.464,20c0,-0.533,-0.432,-0.964,-0.964,-0.964s-0.964,0.432,-0.964,0.964c0,0.533,0.432,0.964,0.964,0.964S19.464,20.533,19.464,20z" fill="#FFFFFF"/>
      <path d="M22.6,24h0.4c0.55,0,1,-0.45,1,-1v-6c0,-0.55,-0.45,-1,-1,-1h-2.193l-2.922,8h1.464H22.6z" fill="#231F20" opacity="0.08"/>
    </g>
  </g>
</svg>
