<?xml version="1.0" encoding="UTF-8"?>
<!DOCTYPE svg PUBLIC "-//W3C//DTD SVG 1.1//EN" "http://www.w3.org/Graphics/SVG/1.1/DTD/svg11.dtd">
<svg version="1.1" id="Layer_1" xmlns="http://www.w3.org/2000/svg" xmlns:xlink="http://www.w3.org/1999/xlink" x="0px" y="0px" width="24px" height="24px" viewBox="0 0 24 24" enable-background="new 0 0 24 24" xml:space="preserve">
  <g id="icon">
    <path d="M11,16l-3,6M12,16v5M13,16l3,6" fill="none" stroke="#536880" stroke-width="1" stroke-linecap="round" stroke-miterlimit="10"/>
    <path d="M20.8,18H3.2c-0.66,0,-1.2,-0.54,-1.2,-1.2V3.8c0,-0.66,0.54,-1.2,1.2,-1.2h17.6c0.66,0,1.2,0.54,1.2,1.2v13C22,17.46,21.46,18,20.8,18z" fill="#E6E9EE"/>
    <path d="M18.05,15h-1.7c-0.1933,0,-0.35,-0.1567,-0.35,-0.35v-7.3c0,-0.1933,0.1567,-0.35,0.35,-0.35h1.7c0.1933,0,0.35,0.1567,0.35,0.35v7.3C18.4,14.8433,18.2433,15,18.05,15z" fill="#4B89DC"/>
    <path d="M7.65,15h-1.7c-0.1933,0,-0.35,-0.1567,-0.35,-0.35v-3.3c0,-0.1933,0.1567,-0.35,0.4,-0.35h1.7c0.1433,0,0.3,0.1567,0.3,0.35v3.3C8,14.8433,7.8433,15,7.65,15z" fill="#4B89DC"/>
    <path d="M11.15,15h-1.7c-0.1933,0,-0.35,-0.1567,-0.35,-0.35v-5.3c0,-0.1933,0.1567,-0.35,0.35,-0.35h1.7c0.1933,0,0.35,0.1567,0.35,0.35v5.3C11.5,14.8433,11.3433,15,11.15,15z" fill="#4B89DC"/>
    <path d="M14.55,15h-1.7c-0.1933,0,-0.35,-0.1567,-0.35,-0.35v-4.3c0,-0.1933,0.1567,-0.35,0.35,-0.35h1.7c0.1933,0,0.35,0.1567,0.35,0.35v4.3C14.9,14.8433,14.7433,15,14.55,15z" fill="#4B89DC"/>
    <rect x="2" y="3.3" width="20" height="1.7" fill="#231F20" opacity="0.1"/>
    <path d="M20.8,2.7h-3.5188l-5.3666,15.3H20.8c0.66,0,1.2,-0.54,1.2,-1.2V3.9C22,3.24,21.46,2.7,20.8,2.7z" fill="#231F20" opacity="0.07"/>
    <path d="M22.425,4H1.575C1.2574,4,1,3.7426,1,3.425v-0.85c0,-0.3176,0.2574,-0.575,0.575,-0.575h20.85c0.3176,0,0.575,0.2574,0.575,0.575v0.85C23,3.7426,22.7426,4,22.425,4z" fill="#A38671"/>
    <path d="M1,3v0.425c0,0.3176,0.2574,0.575,0.575,0.575h20.85c0.3176,0,0.575,-0.2574,0.575,-0.575V3H1z" fill="#8E725E"/>
  </g>
</svg>
