<?xml version="1.0" encoding="UTF-8"?>
<!DOCTYPE svg PUBLIC "-//W3C//DTD SVG 1.1//EN" "http://www.w3.org/Graphics/SVG/1.1/DTD/svg11.dtd">
<svg version="1.1" id="Layer_1" xmlns="http://www.w3.org/2000/svg" xmlns:xlink="http://www.w3.org/1999/xlink" x="0px" y="0px" width="24px" height="24px" viewBox="0 0 24 24" enable-background="new 0 0 24 24" xml:space="preserve">
  <g id="icon">
    <path d="M20.775,22H2.2c-0.635,0,-1.175,-0.54,-1.175,-1.2V3.2c0,-0.66,0.54,-1.2,1.175,-1.2h18.575C21.46,2,22,2.54,22,3.2v17.6C22,21.46,21.46,22,20.775,22z" fill="#E6E9EE"/>
    <path d="M10.631,22H20.8c0.66,0,1.2,-0.54,1.2,-1.2V3.2c0,-0.66,-0.54,-1.2,-1.2,-1.2h-4.9363L10.631,22z" fill="#CCD0D9" opacity="0.5"/>
    <path d="M11.7375,19h-0.475c-0.145,0,-0.2625,-0.1175,-0.2625,-0.2625V5.2625c0,-0.145,0.1175,-0.2625,0.2625,-0.2625h0.475c0.145,0,0.2625,0.1175,0.2625,0.2625v13.475C12,18.8825,11.8825,19,11.7375,19zM18,18.7375V5.2625c0,-0.145,-0.1175,-0.2625,-0.2625,-0.2625h-0.475c-0.145,0,-0.2625,0.1175,-0.2625,0.2625v13.475c0,0.145,0.1175,0.2625,0.2625,0.2625h0.475C17.8825,19,18,18.8825,18,18.7375zM6,18.7375V5.2625C6,5.1175,5.8825,5,5.7375,5h-0.475C5.1175,5,5,5.1175,5,5.2625v13.475c0,0.145,0.1175,0.2625,0.2625,0.2625h0.475C5.8825,19,6,18.8825,6,18.7375z" fill="#8E949C"/>
    <path d="M13.6125,10h-4.225C9.1735,10,9,9.8265,9,9.6125v-1.225C9,8.1735,9.1735,8,9.3875,8h4.225c0.214,0,0.3875,0.1735,0.3875,0.3875v1.225C14,9.8265,13.8265,10,13.6125,10zM20,15.6125v-1.225c0,-0.214,-0.1735,-0.3875,-0.3875,-0.3875h-4.225c-0.214,0,-0.3875,0.1735,-0.3875,0.3875v1.225c0,0.214,0.1735,0.3875,0.3875,0.3875h4.225C19.8265,16,20,15.8265,20,15.6125zM8,13.6125v-1.225c0,-0.214,-0.1735,-0.3875,-0.3875,-0.3875h-4.225c-0.214,0,-0.3875,0.1735,-0.3875,0.3875v1.225c0,0.214,0.1735,0.3875,0.3875,0.3875h4.225C7.8265,14,8,13.8265,8,13.6125z" fill="#536880"/>
  </g>
</svg>
