<svg version="1.1"
    xmlns="http://www.w3.org/2000/svg"
    xmlns:xlink="http://www.w3.org/1999/xlink" width="512" height="512" viewBox="0 0 512 512">
    <title>sort az descending2 icon</title>
    <desc>sort az descending2 icon from the IconExperience.com G-Collection. Copyright by INCORS GmbH (www.incors.com).</desc>
    <defs>
        <linearGradient x1="16" y1="0" x2="208.0001" y2="447.99995" gradientUnits="userSpaceOnUse" id="color-1">
            <stop offset="0" stop-color="#129eee"/>
            <stop offset="1" stop-color="#0e76b2"/>
        </linearGradient>
    </defs>
    <g fill="none" fill-rule="evenodd" stroke="none" stroke-width="1" stroke-linecap="butt" stroke-linejoin="miter" stroke-miterlimit="10" stroke-dasharray="" stroke-dashoffset="0" font-family="none" font-weight="none" font-size="none" text-anchor="none" style="mix-blend-mode: normal">
        <path d="M16,384l80,0l0,-384l96,0l0,384l80,0l-128,128z" id="curve1" fill="url(#color-1)"/>
        <path d="M415,442l-67.5,0l-12,38l-52.5,0l75,-204l46,0l75.5,204l-53,0z M366,196l97.5,0l0,38l-159,0l0,-26l98.5,-138l-98,0l0,-38l158.5,0l0,25z M359,404l44,0l-22,-71z" id="curve0" fill="#51616f"/>
    </g>
</svg>