<?xml version="1.0" encoding="UTF-8"?>
<!DOCTYPE svg PUBLIC "-//W3C//DTD SVG 1.1//EN" "http://www.w3.org/Graphics/SVG/1.1/DTD/svg11.dtd">
<svg version="1.1" id="Layer_1" xmlns="http://www.w3.org/2000/svg" xmlns:xlink="http://www.w3.org/1999/xlink" x="0px" y="0px" width="24px" height="24px" viewBox="0 0 24 24" enable-background="new 0 0 24 24" xml:space="preserve">
  <g id="icon">
    <circle cx="12" cy="12" r="11" fill="#C5C5C5"/>
    <circle cx="12" cy="12" r="8.7556" fill="#F1F1F1"/>
    <circle cx="12" cy="12" r="6.1111" fill="#C5C5C5"/>
    <circle cx="12" cy="12" r="3.9667" fill="#F1F1F1"/>
    <circle cx="12" cy="12" r="1.7333" fill="#C5C5C5"/>
    <path d="M12,23c6.0751,0,11,-4.9249,11,-11c0,-3.0376,-1.2312,-5.7876,-3.2218,-7.7782L4.2218,19.7782C6.2124,21.7688,8.9624,23,12,23z" fill="#868686" opacity="0.1"/>
    <path d="M19.9317,3.4041L17.4572,6.126c-0.1616,0.1777,-0.4572,0.0634,-0.4572,-0.1768V3.7378c0,-0.0697,0.0277,-0.1365,0.077,-0.1858l2.4745,-2.4745C19.717,0.912,20,1.0292,20,1.2633v1.9641C20,3.2927,19.9756,3.3557,19.9317,3.4041zM20.5959,4.0683L17.874,6.5428c-0.1777,0.1616,-0.0634,0.4572,0.1768,0.4572h2.2115c0.0697,0,0.1365,-0.0277,0.1858,-0.077l2.4745,-2.4745C23.088,4.283,22.9708,4,22.7367,4h-1.9641C20.7073,4,20.6443,4.0244,20.5959,4.0683z" fill="#C0C0C0"/>
    <path d="M12.6242,11.3757c-0.2343,-0.2343,-0.6143,-0.2342,-0.8485,0c-0.2343,0.2343,-0.2343,0.6142,0,0.8485l7.7746,7.7746c0.291,-0.2748,0.5669,-0.5654,0.8266,-0.8703L12.6242,11.3757z" fill="#868686" opacity="0.15"/>
    <path d="M12.2,12.4c-0.1536,0,-0.3071,-0.0586,-0.4243,-0.1758c-0.2343,-0.2343,-0.2343,-0.6142,0,-0.8485l8.8,-8.8c0.2342,-0.2343,0.6143,-0.2343,0.8484,0c0.2344,0.2343,0.2344,0.6142,0,0.8485l-8.8,8.8C12.5071,12.3414,12.3535,12.4,12.2,12.4z" fill="#A0A0A0"/>
  </g>
</svg>
