<?xml version="1.0" encoding="UTF-8"?>
<!DOCTYPE svg PUBLIC "-//W3C//DTD SVG 1.1//EN" "http://www.w3.org/Graphics/SVG/1.1/DTD/svg11.dtd">
<svg version="1.1" id="Layer_1" xmlns="http://www.w3.org/2000/svg" xmlns:xlink="http://www.w3.org/1999/xlink" x="0px" y="0px" width="24px" height="24px" viewBox="0 0 24 24" enable-background="new 0 0 24 24" xml:space="preserve">
  <g id="icon">
    <path d="M17,5l-2,-4H4.2c-0.66,0,-1.2,0.54,-1.2,1.2v19.6c0,0.66,0.54,1.2,1.2,1.2h15.6c0.66,0,1.2,-0.54,1.2,-1.2V7L17,5z" fill="#E6E9EE"/>
    <path d="M21,21.8V7l-3.337,-1.6685L7.5958,22.7685C7.794,22.9133,8.0371,23,8.3,23h11.5C20.46,23,21,22.46,21,21.8z" fill="#CCD0D9" opacity="0.5"/>
    <path d="M15,1v4.8c0,0.66,0.54,1.2,1.2,1.2h4.8L15,1z" fill="#AAB2BD"/>
    <path d="M7,18.5h10M7,15.5h10M7,12.5h10M7,9.5h10M7,6.5h4.5" fill="none" stroke="#536880" stroke-width="1" stroke-linecap="round" stroke-miterlimit="10" opacity="0.7"/>
  </g>
</svg>
