<?xml version="1.0" encoding="UTF-8"?>
<!DOCTYPE svg PUBLIC "-//W3C//DTD SVG 1.1//EN" "http://www.w3.org/Graphics/SVG/1.1/DTD/svg11.dtd">
<svg version="1.1" id="Layer_1" xmlns="http://www.w3.org/2000/svg" xmlns:xlink="http://www.w3.org/1999/xlink" x="0px" y="0px" width="24px" height="24px" viewBox="0 0 24 24" enable-background="new 0 0 24 24" xml:space="preserve">
  <g id="main">
    <g id="icon">
      <path d="M2.734,2.095L2.353,2.353L2.095,2.734L2,3.2L2,20.8L2.095,21.27L2.353,21.65L2.734,21.91L3.2,22L14.61,22L14.37,21.48L14.17,20.85L14.04,20.19L14,19.5L14.03,18.94L14.11,18.39L14.25,17.87L14.43,17.36L14.66,16.88L14.94,16.43L15.26,16L15.61,15.61L16,15.26L16.43,14.94L16.88,14.66L17.36,14.43L17.87,14.25L18.39,14.11L18.94,14.03L19.5,14L20,14.03L20,3.2L19.91,2.734L19.65,2.353L19.27,2.095L18.8,2L12.3,2L12.27,2.262L12.2,2.506L11.92,2.919L11.51,3.198L11.26,3.274L11,3.3L10.74,3.274L10.49,3.198L10.08,2.919L9.802,2.506L9.726,2.262L9.7,2L3.2,2zz" fill="#A38671"/>
      <path d="M4,20L14.03,20L14,19.5L14.03,18.94L14.11,18.39L14.25,17.87L14.43,17.36L14.66,16.88L14.94,16.43L15.26,16L15.61,15.61L16,15.26L16.43,14.94L16.88,14.66L17.36,14.43L17.87,14.25L18,14.21L18,4L4,4zz" fill="#FFFFFF"/>
      <path d="M10.47,0.07227L9.987,0.276L9.582,0.5918L9.27,1L7.775,1L7.474,1.061L7.228,1.228L7.061,1.474L7,1.775L7,4.225L7.061,4.526L7.228,4.772L7.474,4.939L7.775,5L14.22,5L14.53,4.939L14.77,4.772L14.94,4.526L15,4.225L15,1.775L14.94,1.474L14.77,1.228L14.53,1.061L14.22,1L12.73,1L12.42,0.5918L12.01,0.276L11.53,0.07227L11,0zM11.39,1.079L11.71,1.293L11.92,1.611L12,2L11.92,2.389L11.71,2.707L11.39,2.921L11,3L10.61,2.921L10.29,2.707L10.08,2.389L10,2L10.08,1.611L10.29,1.293L10.61,1.079L11,1zz" fill="#CCD0D9"/>
      <path d="M7,4.225L7.061,4.526L7.228,4.772L7.474,4.939L7.775,5L14.22,5L14.53,4.939L14.77,4.772L14.94,4.526L15,4.225L15,3L7,3zz" fill="#AAB2BD"/>
      <path d="M15.79,8.372L15.67,8.452L9.772,14.35L6.793,11.37L6.672,11.29L6.534,11.26L6.396,11.29L6.275,11.37L5.498,12.14L5.418,12.26L5.391,12.4L5.418,12.54L5.498,12.66L9.513,16.68L9.634,16.76L9.772,16.78L9.91,16.76L10.03,16.68L10.36,16.35L10.81,15.9L16.96,9.747L17.04,9.626L17.07,9.488L17.04,9.35L16.96,9.229L16.18,8.452L16.06,8.372L15.92,8.345zz" fill="#DB4453"/>
      <path d="M9,22L14.61,22L14.37,21.48L14.17,20.85L14.04,20.19L14,19.5L14.03,18.94L14.11,18.39L14.25,17.87L14.43,17.36L14.66,16.88L14.94,16.43L15.26,16L15.61,15.61L16,15.26L16.43,14.94L16.88,14.66L17.36,14.43L17.87,14.25L18.39,14.11L18.94,14.03L19.5,14L20,14.03L20,3.2L19.91,2.734L19.65,2.353L19.27,2.095L18.8,2L16.57,2zz" fill="#231F20" opacity="0.06"/>
    </g>
    <g id="overlay">
      <circle cx="19.5" cy="19.5" r="4.4899" fill="#48CFAE"/>
      <path d="M22.6749,16.3251c-0.0061,-0.0061,-0.0124,-0.0121,-0.0186,-0.0182l-6.3493,6.3493c0.0061,0.0062,0.012,0.0125,0.0182,0.0186c1.7534,1.7534,4.5963,1.7534,6.3497,0S24.4283,18.0786,22.6749,16.3251z" fill="#36BC9B" opacity="0.7"/>
      <path d="M21.8,19h-1.8v-1.8c0,-0.1105,-0.0895,-0.2,-0.2,-0.2h-0.6c-0.1105,0,-0.2,0.0895,-0.2,0.2v1.8h-1.8c-0.1105,0,-0.2,0.0895,-0.2,0.2v0.6c0,0.1105,0.0895,0.2,0.2,0.2h1.8v1.8c0,0.1105,0.0895,0.2,0.2,0.2h0.6c0.1105,0,0.2,-0.0895,0.2,-0.2v-1.8h1.8c0.1105,0,0.2,-0.0895,0.2,-0.2v-0.6C22,19.0895,21.9105,19,21.8,19z" fill="#FFFFFF"/>
    </g>
  </g>
</svg>
