<?xml version="1.0" encoding="UTF-8"?>
<!DOCTYPE svg PUBLIC "-//W3C//DTD SVG 1.1//EN" "http://www.w3.org/Graphics/SVG/1.1/DTD/svg11.dtd">
<svg version="1.1" id="Layer_1" xmlns="http://www.w3.org/2000/svg" xmlns:xlink="http://www.w3.org/1999/xlink" x="0px" y="0px" width="24px" height="24px" viewBox="0 0 24 24" enable-background="new 0 0 24 24" xml:space="preserve">
  <g id="main">
    <g id="icon">
      <path d="M2.734,0.09473L2.353,0.3525L2.095,0.734L2,1.2L2,20.8L2.095,21.27L2.353,21.65L2.734,21.91L3.2,22L14.09,22L14.09,21.75L14.23,21.32L14.44,20.89L13.95,20.73L13.52,20.52L13.19,20.2L12.98,19.8L12.9,19.36L12.9,18.64L12.98,18.2L13.19,17.8L13.52,17.48L13.94,17.27L13.95,17.26L14.45,17.11L14.24,16.68L14.1,16.25L14.1,15.81L14.24,15.39L14.51,15.02L15.02,14.51L15.24,14.33L15.48,14.2L15.75,14.12L16.03,14.09L16.37,14.13L16.68,14.24L17.12,14.46L17.27,14.03L17.47,13.65L17.78,13.35L18.18,13.17L18.64,13.1L19.36,13.1L19.82,13.17L20,13.25L20,6L16,4L14,0L3.2,0zz" fill="#E6E9EE"/>
      <path d="M6.596,21.77L6.924,21.94L7.3,22L14.09,22L14.09,21.75L14.23,21.32L14.44,20.89L13.95,20.73L13.52,20.52L13.19,20.2L12.98,19.8L12.9,19.36L12.9,18.64L12.98,18.2L13.19,17.8L13.52,17.48L13.94,17.27L13.95,17.26L14.45,17.11L14.24,16.68L14.1,16.25L14.1,15.81L14.24,15.39L14.51,15.02L15.02,14.51L15.24,14.33L15.48,14.2L15.75,14.12L16.03,14.09L16.37,14.13L16.68,14.24L17.12,14.46L17.27,14.03L17.47,13.65L17.78,13.35L18.18,13.17L18.64,13.1L19.36,13.1L19.82,13.17L20,13.25L20,6L16.66,4.331zz" fill="#CCD0D9" opacity="0.5"/>
      <path d="M14,4.8L14.09,5.266L14.35,5.647L14.73,5.905L15.2,6L20,6L14,0zz" fill="#AAB2BD"/>
      <path d="M5.683,5.113L5.51,5.402L5.559,5.735L5.808,5.962L6,6L10.5,6L10.82,5.887L10.99,5.598L10.94,5.265L10.69,5.038L10.5,5L6,5zM5.683,8.113L5.51,8.402L5.559,8.735L5.808,8.962L6,9L16,9L16.32,8.887L16.49,8.598L16.44,8.265L16.19,8.038L16,8L6,8zM5.683,11.11L5.51,11.4L5.559,11.73L5.808,11.96L6,12L16,12L16.32,11.89L16.49,11.6L16.44,11.27L16.19,11.04L16,11L6,11zM5.683,14.11L5.51,14.4L5.559,14.73L5.808,14.96L6,15L14.52,15L15.02,14.51L15.24,14.33L15.48,14.2L15.75,14.12L16.03,14.09L16.28,14.12L16.19,14.04L16,14L6,14zM5.683,17.11L5.51,17.4L5.559,17.73L5.808,17.96L6,18L13.08,18L13.19,17.8L13.52,17.48L13.94,17.27L13.95,17.26L14.45,17.11L14.39,17L6,17zz" fill="#536880" opacity="0.7"/>
    </g>
    <g id="overlay">
      <path d="M23.6938,18.2176l-1.0598,-0.3529l-0.2619,-0.6308l0.4987,-0.998c0.0855,-0.171,0.0518,-0.3775,-0.0834,-0.5127l-0.5106,-0.5105c-0.1352,-0.1352,-0.3418,-0.1687,-0.5128,-0.0832l-0.998,0.499l-0.6308,-0.2613l-0.3529,-1.0611c-0.0605,-0.1814,-0.2302,-0.3062,-0.4214,-0.3062h-0.722c-0.1912,0,-0.3609,0.1249,-0.4214,0.3062l-0.3529,1.0598l-0.6308,0.2619l-0.998,-0.4987c-0.171,-0.0855,-0.3775,-0.0518,-0.5127,0.0834l-0.5105,0.5106c-0.1352,0.1352,-0.1687,0.3418,-0.0832,0.5128l0.499,0.998l-0.2613,0.6308l-1.0611,0.3529c-0.1814,0.0605,-0.3062,0.2302,-0.3062,0.4214v0.722c0,0.1912,0.1249,0.3609,0.3062,0.4214l1.0598,0.3529l0.2619,0.6308l-0.4987,0.998c-0.0855,0.171,-0.0518,0.3775,0.0834,0.5127l0.5106,0.5105c0.1352,0.1352,0.3418,0.1687,0.5128,0.0832l0.998,-0.499l0.6308,0.2613l0.3529,1.0611c0.0605,0.1814,0.2302,0.3062,0.4214,0.3062h0.722c0.1912,0,0.3609,-0.1249,0.4214,-0.3062l0.3529,-1.0598l0.6308,-0.2619l0.998,0.4987c0.171,0.0855,0.3775,0.0518,0.5127,-0.0834l0.5105,-0.5106c0.1352,-0.1352,0.1687,-0.3418,0.0832,-0.5128l-0.499,-0.998l0.2613,-0.6308l1.0611,-0.3529c0.1814,-0.0605,0.3062,-0.2302,0.3062,-0.4214v-0.722C24,18.4478,23.8751,18.2781,23.6938,18.2176zM19,20c-0.5523,0,-1,-0.4477,-1,-1c0,-0.5523,0.4477,-1,1,-1s1,0.4477,1,1C20,19.5523,19.5523,20,19,20z" fill="#AAB2BD"/>
      <path d="M19,16.0909c-1.6066,0,-2.9091,1.3024,-2.9091,2.9091s1.3024,2.9091,2.9091,2.9091s2.9091,-1.3024,2.9091,-2.9091S20.6066,16.0909,19,16.0909zM19,20.8182c-1.0042,0,-1.8182,-0.814,-1.8182,-1.8182c0,-1.0042,0.814,-1.8182,1.8182,-1.8182s1.8182,0.814,1.8182,1.8182C20.8182,20.0042,20.0042,20.8182,19,20.8182z" fill="#8E949C"/>
      <path d="M23.6938,18.2176l-1.0598,-0.3529l-0.2619,-0.6308l0.4987,-0.998c0.0855,-0.171,0.0518,-0.3775,-0.0834,-0.5127l-0.2554,-0.2553l-2.8249,2.8249c0.181,0.181,0.2929,0.431,0.2929,0.7071c0,0.5523,-0.4477,1,-1,1c-0.2761,0,-0.5261,-0.1119,-0.7071,-0.2929L15.468,22.532l0.2552,0.2552c0.1352,0.1352,0.3418,0.1687,0.5128,0.0832l0.998,-0.499l0.6308,0.2613l0.3529,1.0611c0.0605,0.1814,0.2302,0.3062,0.4214,0.3062h0.722c0.1912,0,0.3609,-0.1249,0.4214,-0.3062l0.3529,-1.0598l0.6308,-0.2619l0.998,0.4987c0.171,0.0855,0.3775,0.0518,0.5127,-0.0834l0.5105,-0.5106c0.1352,-0.1352,0.1687,-0.3418,0.0832,-0.5128l-0.499,-0.998l0.2613,-0.6308l1.0611,-0.3529c0.1814,-0.0605,0.3062,-0.2302,0.3062,-0.4214v-0.722C24,18.4478,23.8751,18.2781,23.6938,18.2176z" fill="#231F20" opacity="0.06"/>
    </g>
  </g>
</svg>
