<?xml version="1.0" encoding="UTF-8"?>
<!DOCTYPE svg PUBLIC "-//W3C//DTD SVG 1.1//EN" "http://www.w3.org/Graphics/SVG/1.1/DTD/svg11.dtd">
<svg version="1.1" id="Layer_1" xmlns="http://www.w3.org/2000/svg" xmlns:xlink="http://www.w3.org/1999/xlink" x="0px" y="0px" width="24px" height="24px" viewBox="0 0 24 24" enable-background="new 0 0 24 24" xml:space="preserve">
  <g id="main">
    <g id="icon">
      <path d="M2.734,2.095L2.353,2.353L2.095,2.734L2,3.2L2,20.8L2.095,21.27L2.353,21.65L2.734,21.91L3.2,22L14.61,22L14.37,21.48L14.17,20.85L14.04,20.19L14,19.5L14.03,18.94L14.11,18.39L14.25,17.87L14.43,17.36L14.66,16.88L14.94,16.43L15.26,16L15.61,15.61L16,15.26L16.43,14.94L16.88,14.66L17.36,14.43L17.87,14.25L18.39,14.11L18.94,14.03L19.5,14L20,14.03L20,3.2L19.91,2.734L19.65,2.353L19.27,2.095L18.8,2L12.3,2L12.27,2.262L12.2,2.506L11.92,2.919L11.51,3.198L11.26,3.274L11,3.3L10.74,3.274L10.49,3.198L10.08,2.919L9.802,2.506L9.726,2.262L9.7,2L3.2,2zz" fill="#A38671"/>
      <path d="M4,20L14.03,20L14,19.5L14.03,18.94L14.11,18.39L14.25,17.87L14.43,17.36L14.66,16.88L14.94,16.43L15.26,16L15.61,15.61L16,15.26L16.43,14.94L16.88,14.66L17.36,14.43L17.87,14.25L18,14.21L18,4L4,4zz" fill="#F0DEB4"/>
      <path d="M9,22L14.61,22L14.37,21.48L14.17,20.85L14.04,20.19L14,19.5L14.03,18.94L14.11,18.39L14.25,17.87L14.43,17.36L14.66,16.88L14.94,16.43L15.26,16L15.61,15.61L16,15.26L16.43,14.94L16.88,14.66L17.36,14.43L17.87,14.25L18.39,14.11L18.94,14.03L19.5,14L20,14.03L20,3.2L19.91,2.734L19.65,2.353L19.27,2.095L18.8,2L16.57,2zz" fill="#231F20" opacity="0.06"/>
      <path d="M10.47,0.07227L9.987,0.276L9.582,0.5918L9.27,1L7.775,1L7.474,1.061L7.228,1.228L7.061,1.474L7,1.775L7,4.225L7.061,4.526L7.228,4.772L7.474,4.939L7.775,5L14.22,5L14.53,4.939L14.77,4.772L14.94,4.526L15,4.225L15,1.775L14.94,1.474L14.77,1.228L14.53,1.061L14.22,1L12.73,1L12.42,0.5918L12.01,0.276L11.53,0.07227L11,0zM11.39,1.079L11.71,1.293L11.92,1.611L12,2L11.92,2.389L11.71,2.707L11.39,2.921L11,3L10.61,2.921L10.29,2.707L10.08,2.389L10,2L10.08,1.611L10.29,1.293L10.61,1.079L11,1zz" fill="#CCD0D9"/>
      <path d="M7,4.225L7.061,4.526L7.228,4.772L7.474,4.939L7.775,5L14.22,5L14.53,4.939L14.77,4.772L14.94,4.526L15,4.225L15,3L7,3zz" fill="#AAB2BD"/>
      <path d="M15.5,8.5L10.5,8.5zM15.5,12.5L10.5,12.5zz" fill="#656D78" opacity="0.8"/>
      <path d="M10.18,8.113L10.01,8.402L10.06,8.735L10.31,8.962L10.5,9L15.5,9L15.82,8.887L15.99,8.598L15.94,8.265L15.69,8.038L15.5,8L10.5,8zM10.18,12.11L10.01,12.4L10.06,12.73L10.31,12.96L10.5,13L15.5,13L15.82,12.89L15.99,12.6L15.94,12.27L15.69,12.04L15.5,12L10.5,12zM10.18,16.11L10.01,16.4L10.06,16.73L10.31,16.96L10.5,17L14.61,17L14.66,16.88L14.94,16.43L15.26,16L15.26,16L10.5,16zz" fill="#656D78" opacity="0.8"/>
      <path d="M7.215,7.037L6.939,7.119L6.68,7.255L6.446,7.446L6.255,7.68L6.119,7.939L6.037,8.215L6.01,8.5L6.037,8.785L6.119,9.061L6.255,9.32L6.446,9.554L6.68,9.745L6.939,9.881L7.215,9.963L7.5,9.99L7.785,9.963L8.061,9.881L8.32,9.745L8.554,9.554L8.745,9.32L8.881,9.061L8.963,8.785L8.99,8.5L8.963,8.215L8.881,7.939L8.745,7.68L8.554,7.446L8.32,7.255L8.061,7.119L7.785,7.037L7.5,7.01zM7.215,11.04L6.939,11.12L6.68,11.26L6.446,11.45L6.255,11.68L6.119,11.94L6.037,12.22L6.01,12.5L6.037,12.78L6.119,13.06L6.255,13.32L6.446,13.55L6.68,13.74L6.939,13.88L7.215,13.96L7.5,13.99L7.785,13.96L8.061,13.88L8.32,13.74L8.554,13.55L8.745,13.32L8.881,13.06L8.963,12.78L8.99,12.5L8.963,12.22L8.881,11.94L8.745,11.68L8.554,11.45L8.32,11.26L8.061,11.12L7.785,11.04L7.5,11.01zz" fill="#4B89DC"/>
    </g>
    <g id="overlay">
      <circle cx="19.5" cy="19.5" r="4.0909" fill="#F6F7FB"/>
      <path d="M21.0042,20.6481c-0.3938,-0.4627,-0.8467,-0.9472,-0.9305,-1.031L19.8,19.3481v-0.3368c0,-0.1183,-0.0209,-0.7778,-0.0697,-1.3837c-0.1012,-1.2579,-0.2089,-1.2579,-0.268,-1.2579c-0.0591,0,-0.178,0,-0.2792,1.2579c-0.0488,0.6059,-0.0832,1.2654,-0.0832,1.3837v0.5245c0,0.1044,0.0671,0.1985,0.1595,0.2471l0.3265,0.2968c0.0165,0.0164,1.7485,1.6203,2.0572,1.6203h0.0019c0.0287,0,0.047,0.0134,0.0565,0.0039C21.7434,21.6621,21.8221,21.6092,21.0042,20.6481z" fill="#4B89DC"/>
      <path d="M16.6073,22.3927c0.7403,0.7403,1.763,1.1982,2.8927,1.1982c2.2593,0,4.0909,-1.8316,4.0909,-4.0909c0,-1.1297,-0.4579,-2.1524,-1.1982,-2.8927L16.6073,22.3927z" fill="#231F20" opacity="0.05"/>
      <path d="M23,19.5c0,1.933,-1.567,3.5,-3.5,3.5c-0.9665,0,-1.8415,-0.3918,-2.4749,-1.0251l-0.7071,0.7071C17.1324,23.4963,18.2574,24,19.5,24c2.4853,0,4.5,-2.0147,4.5,-4.5c0,-1.2426,-0.5037,-2.3676,-1.318,-3.182l-0.7071,0.7071C22.6082,17.6585,23,18.5335,23,19.5z" fill="#656D78"/>
      <path d="M16.4716,22.8284l0.7086,-0.7086C16.4566,21.4786,16,20.5428,16,19.5c0,-1.933,1.567,-3.5,3.5,-3.5c1.0428,0,1.9786,0.4566,2.6198,1.1802l0.7086,-0.7086C22.0053,15.5675,20.819,15,19.5,15c-2.4853,0,-4.5,2.0147,-4.5,4.5C15,20.819,15.5675,22.0053,16.4716,22.8284z" fill="#8E949C"/>
    </g>
  </g>
</svg>
