<?xml version="1.0" encoding="UTF-8"?>
<!DOCTYPE svg PUBLIC "-//W3C//DTD SVG 1.1//EN" "http://www.w3.org/Graphics/SVG/1.1/DTD/svg11.dtd">
<svg version="1.1" id="Layer_1" xmlns="http://www.w3.org/2000/svg" xmlns:xlink="http://www.w3.org/1999/xlink" x="0px" y="0px" width="24px" height="24px" viewBox="0 0 24 24" enable-background="new 0 0 24 24" xml:space="preserve">
  <g id="main">
    <g id="icon">
      <path d="M2.734,2.095L2.353,2.353L2.095,2.734L2,3.2L2,20.8L2.095,21.27L2.353,21.65L2.734,21.91L3.2,22L14.61,22L14.37,21.48L14.17,20.85L14.04,20.19L14,19.5L14.03,18.94L14.11,18.39L14.25,17.87L14.43,17.36L14.66,16.88L14.94,16.43L15.26,16L15.61,15.61L16,15.26L16.43,14.94L16.88,14.66L17.36,14.43L17.87,14.25L18.39,14.11L18.94,14.03L19.5,14L20,14.03L20,3.2L19.91,2.734L19.65,2.353L19.27,2.095L18.8,2L12.3,2L12.27,2.262L12.2,2.506L11.92,2.919L11.51,3.198L11.26,3.274L11,3.3L10.74,3.274L10.49,3.198L10.08,2.919L9.802,2.506L9.726,2.262L9.7,2L3.2,2zz" fill="#A38671"/>
      <path d="M4,20L14.03,20L14,19.5L14.03,18.94L14.11,18.39L14.25,17.87L14.43,17.36L14.66,16.88L14.94,16.43L15.26,16L15.61,15.61L16,15.26L16.43,14.94L16.88,14.66L17.36,14.43L17.87,14.25L18,14.21L18,4L4,4zz" fill="#F0DEB4"/>
      <path d="M9,22L14.61,22L14.37,21.48L14.17,20.85L14.04,20.19L14,19.5L14.03,18.94L14.11,18.39L14.25,17.87L14.43,17.36L14.66,16.88L14.94,16.43L15.26,16L15.61,15.61L16,15.26L16.43,14.94L16.88,14.66L17.36,14.43L17.87,14.25L18.39,14.11L18.94,14.03L19.5,14L20,14.03L20,3.2L19.91,2.734L19.65,2.353L19.27,2.095L18.8,2L16.57,2zz" fill="#231F20" opacity="0.06"/>
      <path d="M10.47,0.07227L9.987,0.276L9.582,0.5918L9.27,1L7.775,1L7.474,1.061L7.228,1.228L7.061,1.474L7,1.775L7,4.225L7.061,4.526L7.228,4.772L7.474,4.939L7.775,5L14.22,5L14.53,4.939L14.77,4.772L14.94,4.526L15,4.225L15,1.775L14.94,1.474L14.77,1.228L14.53,1.061L14.22,1L12.73,1L12.42,0.5918L12.01,0.276L11.53,0.07227L11,0zM11.39,1.079L11.71,1.293L11.92,1.611L12,2L11.92,2.389L11.71,2.707L11.39,2.921L11,3L10.61,2.921L10.29,2.707L10.08,2.389L10,2L10.08,1.611L10.29,1.293L10.61,1.079L11,1zz" fill="#CCD0D9"/>
      <path d="M7,4.225L7.061,4.526L7.228,4.772L7.474,4.939L7.775,5L14.22,5L14.53,4.939L14.77,4.772L14.94,4.526L15,4.225L15,3L7,3zz" fill="#AAB2BD"/>
      <path d="M15.5,8.5L10.5,8.5zM15.5,12.5L10.5,12.5zz" fill="#656D78" opacity="0.8"/>
      <path d="M10.18,8.113L10.01,8.402L10.06,8.735L10.31,8.962L10.5,9L15.5,9L15.82,8.887L15.99,8.598L15.94,8.265L15.69,8.038L15.5,8L10.5,8zM10.18,12.11L10.01,12.4L10.06,12.73L10.31,12.96L10.5,13L15.5,13L15.82,12.89L15.99,12.6L15.94,12.27L15.69,12.04L15.5,12L10.5,12zM10.18,16.11L10.01,16.4L10.06,16.73L10.31,16.96L10.5,17L14.61,17L14.66,16.88L14.94,16.43L15.26,16L15.26,16L10.5,16zz" fill="#656D78" opacity="0.8"/>
      <path d="M7.215,7.037L6.939,7.119L6.68,7.255L6.446,7.446L6.255,7.68L6.119,7.939L6.037,8.215L6.01,8.5L6.037,8.785L6.119,9.061L6.255,9.32L6.446,9.554L6.68,9.745L6.939,9.881L7.215,9.963L7.5,9.99L7.785,9.963L8.061,9.881L8.32,9.745L8.554,9.554L8.745,9.32L8.881,9.061L8.963,8.785L8.99,8.5L8.963,8.215L8.881,7.939L8.745,7.68L8.554,7.446L8.32,7.255L8.061,7.119L7.785,7.037L7.5,7.01zM7.215,11.04L6.939,11.12L6.68,11.26L6.446,11.45L6.255,11.68L6.119,11.94L6.037,12.22L6.01,12.5L6.037,12.78L6.119,13.06L6.255,13.32L6.446,13.55L6.68,13.74L6.939,13.88L7.215,13.96L7.5,13.99L7.785,13.96L8.061,13.88L8.32,13.74L8.554,13.55L8.745,13.32L8.881,13.06L8.963,12.78L8.99,12.5L8.963,12.22L8.881,11.94L8.745,11.68L8.554,11.45L8.32,11.26L8.061,11.12L7.785,11.04L7.5,11.01zz" fill="#4B89DC"/>
    </g>
    <g id="overlay">
      <circle cx="19.5" cy="19.5" r="4.4899" fill="#48CFAE"/>
      <path d="M22.6749,16.3251c-0.0061,-0.0061,-0.0124,-0.0121,-0.0186,-0.0182l-6.3493,6.3493c0.0061,0.0062,0.012,0.0125,0.0182,0.0186c1.7534,1.7534,4.5963,1.7534,6.3497,0S24.4283,18.0786,22.6749,16.3251z" fill="#36BC9B" opacity="0.7"/>
      <path d="M21.8,19h-1.8v-1.8c0,-0.1105,-0.0895,-0.2,-0.2,-0.2h-0.6c-0.1105,0,-0.2,0.0895,-0.2,0.2v1.8h-1.8c-0.1105,0,-0.2,0.0895,-0.2,0.2v0.6c0,0.1105,0.0895,0.2,0.2,0.2h1.8v1.8c0,0.1105,0.0895,0.2,0.2,0.2h0.6c0.1105,0,0.2,-0.0895,0.2,-0.2v-1.8h1.8c0.1105,0,0.2,-0.0895,0.2,-0.2v-0.6C22,19.0895,21.9105,19,21.8,19z" fill="#FFFFFF"/>
    </g>
  </g>
</svg>
