<?xml version="1.0" encoding="UTF-8"?>
<!DOCTYPE svg PUBLIC "-//W3C//DTD SVG 1.1//EN" "http://www.w3.org/Graphics/SVG/1.1/DTD/svg11.dtd">
<svg version="1.1" id="Layer_1" xmlns="http://www.w3.org/2000/svg" xmlns:xlink="http://www.w3.org/1999/xlink" x="0px" y="0px" width="24px" height="24px" viewBox="0 0 24 24" enable-background="new 0 0 24 24" xml:space="preserve">
  <g id="icon">
    <path d="M21.8625,5.4165L20.552,6.727l-3.2752,-3.2752l1.3105,-1.3105c0.1806,-0.1806,0.4735,-0.1806,0.6541,0l2.6211,2.6211C22.0431,4.943,22.0431,5.2359,21.8625,5.4165z" fill="#BDBDBD"/>
    <rect x="16.3411" y="3.8395" width="1.5439" height="1.0807" fill="#DEDEDE" transform="matrix(0.7071 -0.7071 0.7071 0.7071 1.91529 13.3836)"/>
    <rect x="17.542" y="4.4228" width="1.5439" height="2.3159" fill="#EAEAEA" transform="matrix(0.7071 -0.7071 0.7071 0.7071 1.41786 14.5845)"/>
    <rect x="18.7975" y="6.2186" width="1.5439" height="1.2351" fill="#DEDEDE" transform="matrix(0.7071 -0.7071 0.7071 0.7071 0.89782 15.8399)"/>
    <polygon points="2.211,22.0111 7.5605,19.7185 4.2853,16.4434 1.9927,21.7928" fill="#E1E1E1" stroke-linejoin="miter"/>
    <polygon points="2.5822,20.4172 1.9927,21.7928 2.211,22.0111 3.5866,21.4216" fill="#ACACAC" stroke-linejoin="miter"/>
    <path d="M16.9493,5.3078c0,0,-11.438,11.438,-11.7791,11.7791c-0.3412,0.3412,-1.2145,-0.3139,-0.7642,-0.7642S16.1851,4.5436,16.1851,4.5436L16.9493,5.3078z" fill="#CACACA"/>
    <path d="M18.5869,6.9454c0,0,-11.2742,11.2742,-11.7791,11.7791s-2.0333,-1.2418,-1.6376,-1.6376c0.3957,-0.3958,11.7791,-11.7791,11.7791,-11.7791L18.5869,6.9454z" fill="#D2D2D2"/>
    <path d="M18.5869,6.9454c0,0,-11.3561,11.3834,-11.7655,11.7928c-0.4094,0.4094,0.5322,1.1872,0.8597,0.8597S19.4603,7.8188,19.4603,7.8188L18.5869,6.9454z" fill="#C3C3C3"/>
  </g>
</svg>
