<?xml version="1.0" encoding="UTF-8"?>
<!DOCTYPE svg PUBLIC "-//W3C//DTD SVG 1.1//EN" "http://www.w3.org/Graphics/SVG/1.1/DTD/svg11.dtd">
<svg version="1.1" id="Layer_1" xmlns="http://www.w3.org/2000/svg" xmlns:xlink="http://www.w3.org/1999/xlink" x="0px" y="0px" width="24px" height="24px" viewBox="0 0 24 24" enable-background="new 0 0 24 24" xml:space="preserve">
  <g id="main">
    <g id="icon">
      <path d="M7.678,4.084L6.691,4.304L6.28,4.467L5.92,4.663L5.608,4.891L5.341,5.15L5.117,5.44L4.932,5.759L4.669,6.481L4.528,7.308L4.486,8.232L4.52,8.889L4.621,9.593L4.785,10.33L5.01,11.07L5.293,11.8L5.631,12.51L6.021,13.17L6.46,13.76L6.449,14.11L6.331,14.4L6.084,14.64L5.687,14.84L3.028,15.78L2.105,16.15L1.405,16.5L0.8887,16.89L0.5184,17.36L0.2564,17.95L0.06504,18.7L-0,19.22L0,19.94L0.06484,20.35L0.2674,21.01L0.4035,21.21L0.652,21.38L1,21.52L1.435,21.65L2.517,21.82L3.798,21.93L6.554,22.01L8.904,22L11.26,22.01L14.04,21.93L14.56,21.89L14.37,21.48L14.17,20.85L14.04,20.19L14,19.5L14.03,18.94L14.11,18.39L14.25,17.87L14.43,17.36L14.66,16.88L14.94,16.43L15.26,16L15.3,15.96L14.85,15.78L12.19,14.85L11.79,14.65L11.55,14.4L11.43,14.11L11.42,13.77L11.86,13.17L12.25,12.51L12.58,11.81L12.87,11.07L13.09,10.33L13.26,9.594L13.36,8.889L13.39,8.232L13.35,7.308L13.2,6.481L12.92,5.759L12.73,5.44L12.5,5.15L12.23,4.891L11.91,4.663L11.54,4.467L11.13,4.304L10.13,4.084L8.904,4.008zz" fill-rule="evenodd" fill="#4B89DC"/>
      <path d="M7.773,4.084L6.779,4.304L6.363,4.467L5.997,4.663L5.678,4.891L5.404,5.15L5.172,5.44L4.98,5.759L4.704,6.481L4.553,7.308L4.508,8.232L4.542,8.889L4.643,9.594L4.808,10.33L5.033,11.07L5.316,11.81L5.654,12.51L6.044,13.17L6.483,13.77L6.472,14.11L6.354,14.4L6.108,14.65L5.712,14.85L3.052,15.78L2.13,16.15L1.43,16.5L0.9135,16.89L0.5434,17.36L0.2814,17.95L0.09004,18.7L0.01445,19.31L0.006641,19.82L0.0918,20.35L0.2945,21.01L0.4316,21.21L0.6824,21.38L1.034,21.53L1.474,21.65L2.568,21.82L3.862,21.93L6.642,22.01L9,22L9,4.008zz" fill-rule="evenodd" fill="#5D9CEC" opacity="0.8"/>
      <path d="M11.97,0.06035L11.1,0.2141L10.39,0.4645L9.813,0.807L9.369,1.237L9.038,1.75L8.808,2.341L8.666,3.005L8.998,3L9.004,3L10.32,3.079L11.44,3.316L11.94,3.495L12.39,3.714L12.79,3.975L13.15,4.278L13.47,4.622L13.74,5.008L13.98,5.436L14.16,5.908L14.31,6.422L14.41,6.98L14.49,8.228L14.46,8.861L14.38,9.548L14.23,10.28L14.03,11.02L13.77,11.78L13.46,12.52L13.09,13.24L12.66,13.92L13.84,14.33L15.84,15.05L16.12,15.17L16.43,14.94L16.88,14.66L17.36,14.43L17.87,14.25L18.39,14.11L18.94,14.03L19.5,14L20.19,14.04L20.85,14.17L21.48,14.37L21.87,14.55L21.72,13.95L21.46,13.36L21.09,12.89L20.57,12.5L19.87,12.15L18.95,11.78L16.29,10.85L15.89,10.65L15.65,10.4L15.53,10.11L15.52,9.768L15.96,9.174L16.35,8.515L16.68,7.808L16.97,7.072L17.19,6.328L17.36,5.594L17.46,4.889L17.49,4.232L17.45,3.308L17.3,2.481L17.02,1.759L16.83,1.44L16.6,1.15L16.33,0.891L16.01,0.6627L15.64,0.467L15.23,0.3045L14.23,0.08359L13,0.008008zz" fill-rule="evenodd" fill="#3D73AD"/>
    </g>
    <g id="overlay">
      <circle cx="19.5067" cy="19.5067" r="4.4967" fill="#FFCE55"/>
      <path d="M22.71,16.3508c-0.0062,-0.0062,0.0051,0.0055,-0.0239,-0.0234l-6.3588,6.3588c0.0289,0.029,0.0173,0.0178,0.0234,0.0239c1.7561,1.7561,4.5743,1.7271,6.3303,-0.0289S24.4661,18.1068,22.71,16.3508z" fill="#F6BB43" opacity="0.8"/>
      <path d="M22.369,20.2967c-0.2758,0.9221,-1.4262,1.8759,-2.8739,1.8759c-1.5577,0,-2.5995,-1.0099,-2.789,-1.9602c-0.0118,-0.0591,0.0043,-0.1191,0.0454,-0.1691c0.0468,-0.0571,0.1197,-0.0926,0.1901,-0.0926c0.0714,0,0.1315,0.0353,0.1651,0.0969c0.1462,0.2684,0.7505,1.144,2.3884,1.144c1.0801,0,1.9142,-0.3635,2.479,-1.0804c0.0409,-0.0519,0.1033,-0.0816,0.1711,-0.0816c0.0756,0,0.1496,0.0361,0.1929,0.0943C22.3755,20.1742,22.3868,20.2372,22.369,20.2967zM20.8204,18.7629c0.2691,0,0.4721,-0.3891,0.4721,-0.9051s-0.2029,-0.905,-0.4721,-0.905s-0.4721,0.3891,-0.4721,0.905S20.5512,18.7629,20.8204,18.7629zM18.1685,18.7629c0.2691,0,0.4721,-0.3891,0.4721,-0.9051s-0.2029,-0.905,-0.4721,-0.905s-0.4721,0.3891,-0.4721,0.905S17.8994,18.7629,18.1685,18.7629z" fill="#434A54"/>
    </g>
  </g>
</svg>
