<svg version="1.1"
    xmlns="http://www.w3.org/2000/svg"
    xmlns:xlink="http://www.w3.org/1999/xlink" width="512" height="512" viewBox="0 0 512 512">
    <title>users family2 icon</title>
    <desc>users family2 icon from the IconExperience.com G-Collection. Copyright by INCORS GmbH (www.incors.com).</desc>
    <defs>
        <linearGradient x1="5" y1="411" x2="73.6365" y2="410.3615" gradientUnits="userSpaceOnUse" id="color-1">
            <stop offset="0" stop-color="#f5a557"/>
            <stop offset="1" stop-color="#ec923a"/>
        </linearGradient>
        <linearGradient x1="0" y1="266.5" x2="246.36166" y2="393.3415" gradientUnits="userSpaceOnUse" id="color-2">
            <stop offset="0" stop-color="#4eb6f2"/>
            <stop offset="1" stop-color="#129eee"/>
        </linearGradient>
        <linearGradient x1="73" y1="256.5" x2="143.3695" y2="293.896" gradientUnits="userSpaceOnUse" id="color-3">
            <stop offset="0" stop-color="#ffffff"/>
            <stop offset="1" stop-color="#eff2f6"/>
        </linearGradient>
        <radialGradient cx="101.47885" cy="138.5449" r="244.07203" fx="101.47885" fy="138.5449" gradientUnits="userSpaceOnUse" id="color-4">
            <stop offset="0" stop-color="#f5b673"/>
            <stop offset="1" stop-color="#f5a557"/>
        </radialGradient>
        <linearGradient x1="49.5" y1="47.5" x2="222.72735" y2="85.11755" gradientUnits="userSpaceOnUse" id="color-5">
            <stop offset="0" stop-color="#f3af68"/>
            <stop offset="0.43137" stop-color="#f1a558"/>
            <stop offset="1" stop-color="#ee9b48"/>
        </linearGradient>
        <linearGradient x1="140.5" y1="44.37034" x2="178.3995" y2="99.55164" gradientUnits="userSpaceOnUse" id="color-6">
            <stop offset="0" stop-color="#61707f"/>
            <stop offset="1" stop-color="#51616f"/>
        </linearGradient>
        <linearGradient x1="39.61335" y1="32" x2="123.96325" y2="114.01835" gradientUnits="userSpaceOnUse" id="color-7">
            <stop offset="0" stop-color="#707e8e"/>
            <stop offset="1" stop-color="#51616f"/>
        </linearGradient>
        <linearGradient x1="247.5" y1="411" x2="317.2395" y2="409.0475" gradientUnits="userSpaceOnUse" id="color-8">
            <stop offset="0" stop-color="#f5a557"/>
            <stop offset="1" stop-color="#ec923a"/>
        </linearGradient>
        <linearGradient x1="247.5" y1="296.5" x2="455.742" y2="393.631" gradientUnits="userSpaceOnUse" id="color-9">
            <stop offset="0" stop-color="#ff9538"/>
            <stop offset="0.41961" stop-color="#ff871d"/>
            <stop offset="1" stop-color="#ff7901"/>
        </linearGradient>
        <linearGradient x1="300.5" y1="284" x2="387.1495" y2="341.784" gradientUnits="userSpaceOnUse" id="color-10">
            <stop offset="0" stop-color="#fefefe"/>
            <stop offset="1" stop-color="#eef1f5"/>
        </linearGradient>
        <radialGradient cx="322.00901" cy="163.04662" r="242.62962" fx="322.00901" fy="163.04662" gradientUnits="userSpaceOnUse" id="color-11">
            <stop offset="0" stop-color="#f5b673"/>
            <stop offset="1" stop-color="#f5a557"/>
        </radialGradient>
        <linearGradient x1="278.5" y1="62" x2="447.0745" y2="99.6805" gradientUnits="userSpaceOnUse" id="color-12">
            <stop offset="0" stop-color="#f3af69"/>
            <stop offset="0.43137" stop-color="#f1a559"/>
            <stop offset="1" stop-color="#ee9b48"/>
        </linearGradient>
        <linearGradient x1="213" y1="48" x2="363.984" y2="295.6835" gradientUnits="userSpaceOnUse" id="color-13">
            <stop offset="0" stop-color="#d08730"/>
            <stop offset="0.63137" stop-color="#9c5f24"/>
            <stop offset="1" stop-color="#72461b"/>
        </linearGradient>
        <linearGradient x1="84.5" y1="193" x2="211.118" y2="376.7445" gradientUnits="userSpaceOnUse" id="color-14">
            <stop offset="0" stop-color="#ffe081"/>
            <stop offset="0.21961" stop-color="#ffd143"/>
            <stop offset="1" stop-color="#ffc105"/>
        </linearGradient>
        <linearGradient x1="118" y1="492" x2="175.009" y2="490.3975" gradientUnits="userSpaceOnUse" id="color-15">
            <stop offset="0" stop-color="#f5a557"/>
            <stop offset="1" stop-color="#ec923a"/>
        </linearGradient>
        <linearGradient x1="113" y1="381" x2="211.4305" y2="496.806" gradientUnits="userSpaceOnUse" id="color-16">
            <stop offset="0" stop-color="#f3827a"/>
            <stop offset="0.5098" stop-color="#ef5c51"/>
            <stop offset="1" stop-color="#c63328"/>
        </linearGradient>
        <linearGradient x1="165" y1="373" x2="222.8535" y2="411.58" gradientUnits="userSpaceOnUse" id="color-17">
            <stop offset="0" stop-color="#fefefe"/>
            <stop offset="1" stop-color="#eef1f5"/>
        </linearGradient>
        <radialGradient cx="170.42675" cy="300.8306" r="215.1543" fx="170.42675" fy="300.8306" gradientUnits="userSpaceOnUse" id="color-18">
            <stop offset="0" stop-color="#f5b673"/>
            <stop offset="1" stop-color="#f5a557"/>
        </radialGradient>
        <linearGradient x1="137" y1="307" x2="269.2405" y2="306.905" gradientUnits="userSpaceOnUse" id="color-19">
            <stop offset="0" stop-color="#f3ad64"/>
            <stop offset="1" stop-color="#ec923a"/>
        </linearGradient>
        <radialGradient cx="169.86217" cy="233.99348" r="202.8631" fx="169.86217" fy="233.99348" gradientUnits="userSpaceOnUse" id="color-20">
            <stop offset="0" stop-color="#ffe081"/>
            <stop offset="0.65882" stop-color="#ffd041"/>
            <stop offset="1" stop-color="#ffc001"/>
        </radialGradient>
        <linearGradient x1="138.5" y1="212" x2="277.067" y2="243.977" gradientUnits="userSpaceOnUse" id="color-21">
            <stop offset="0" stop-color="#e9564b"/>
            <stop offset="0.41961" stop-color="#d74439"/>
            <stop offset="1" stop-color="#c53227"/>
        </linearGradient>
    </defs>
    <g fill="none" fill-rule="evenodd" stroke="none" stroke-width="1" stroke-linecap="butt" stroke-linejoin="miter" stroke-miterlimit="10" stroke-dasharray="" stroke-dashoffset="0" font-family="none" font-weight="none" font-size="none" text-anchor="none" style="mix-blend-mode: normal">
        <path d="M85,263.5c-7,6 -15,11 -22.5,16c-9.5,5.5 -19,11 -27.5,18.5c-23,19 -30,43.5 -30,73c0,1.5 0,3 0.5,4.5c3.5,11 19.5,18 29.5,22c18.5,6.5 39.5,9.5 59,11.5c14,1.5 28,2 42,2c14,0 28,-0.5 42,-2c19.5,-2 40.5,-5 59,-11.5c10,-4 26,-11 29.5,-22c0.5,-1.5 0.5,-3 0.5,-4.5c0,-29.5 -7,-54 -30,-73c-8.5,-7.5 -18,-13 -27.5,-18.5c-7.5,-5 -15.5,-10 -22.5,-16l0.5,-41.5c-35,0 -68,0 -103,0z" id="curve20" fill="url(#color-1)"/>
        <path d="M136,416c-56.5,0 -136,-11.5 -136,-45c0,-71.5 43,-83.5 73,-104.5l0,0c4,9 13.5,15.5 22,19.5c12.5,5.5 27.5,8 41,8c13.5,0 28.5,-2.5 41,-8c8.5,-4 18,-10.5 22,-19.5l0,0c30,21 73,33 73,104.5c0,33.5 -79.5,45 -136,45z" id="curve19" fill="url(#color-2)"/>
        <path d="M136,294c-13.5,0 -28.5,-2.5 -41,-8c-8.5,-4 -18,-10.5 -22,-19.5c4.5,-3 8.5,-6 12,-10c0,12 25.5,23 51,23c25.5,0 51,-11 51,-23c3.5,4 7.5,7 12,10c-4,9 -13.5,15.5 -22,19.5c-12.5,5.5 -27.5,8 -41,8z" id="curve18" fill="url(#color-3)"/>
        <path d="M136,47.5c65,0 86.5,46 86.5,92c0,57.5 -43,115 -86.5,115c-43.5,0 -86.5,-57.5 -86.5,-115c0,-46 21.5,-92 86.5,-92z" id="curve17" fill="url(#color-4)"/>
        <path d="M136,47.5c65,0 86.5,46 86.5,92c0,5 0,10 -1,15c-1,-19 -10,-32 -20,-37.5c-6.5,-4 -13,-5.5 -19,-9l-0.5,0c-11.5,6 -24.5,7 -37.5,7c-15,0 -29.5,-2 -44,-3c-6.5,-0.5 -15,-1 -22.5,1c-15.5,3 -26.5,13.5 -27.5,43c-0.5,-5.5 -1,-11 -1,-16.5c0,-46 21.5,-92 86.5,-92z" id="curve16" fill="url(#color-5)"/>
        <path d="M186.5,45c31.5,-8 55.5,62 35,109.5c6,-51 -22.5,-45 -39,-57.5c-14,-12 -15,-44 4,-52z M144.5,105.5c-1,0 -1.5,0 -2.5,0c1,0 1.5,0 2.5,0z M142,105.5c-0.5,0 -1,0 -1.5,0c0.5,0 1,0 1.5,0z" id="curve15" fill="url(#color-6)"/>
        <path d="M132.5,32c24,0 54,0.5 60,24.5c12,49 -35,49 -48,49c-48,0 -96,-23.5 -94,50c-26,-61.5 -8,-123.5 82,-123.5z" id="curve14" fill="url(#color-7)"/>
        <path d="M408.5,201l0,93.5c8,6 16.5,11.5 25,17.5c7.5,5 15.5,11 21.5,18c11,13.5 12.5,31.5 12.5,48c0,19 -37,26.5 -51,28.5c-19,3.5 -39.5,4.5 -59,4.5c-19,0 -39.5,-1 -58.5,-4.5c-14,-2 -44.5,-8.5 -50.5,-23.5c-0.5,-1.5 -1,-3.5 -1,-5c0,-16.5 2,-34.5 13,-48c6,-7 14,-13 21.5,-18c11.5,-7.5 22.5,-15 33,-24l1.5,-1.5l0,-85.5z" id="curve13" fill="url(#color-8)"/>
        <path d="M362.5,416c-10.5,0 -115,0 -115,-38c0,-52 19.5,-57 53,-81.5l0,0c7,26 35.5,45.5 62,45.5c26.5,0 55.5,-19.5 62.5,-45.5l0,0c33.5,24.5 52.5,29.5 52.5,81.5c0,38 -104.5,38 -115,38z" id="curve12" fill="url(#color-9)"/>
        <path d="M300.5,296.5c2.5,-1.5 16,-12.5 16,-12.5c0,15.5 23,32.5 46,32.5c23,0 46,-17 46,-32c0,-0.5 14,10.5 16.5,12c-7,26 -36,45.5 -62.5,45.5c-26.5,0 -55,-19.5 -62,-45.5z" id="curve11" fill="url(#color-10)"/>
        <path d="M362.5,62c63.5,0 84.5,46.5 84.5,93.5c0,58.5 -42,117 -84.5,117c-42,0 -84,-58.5 -84,-117c0,-47 21,-93.5 84,-93.5z" id="curve10" fill="url(#color-11)"/>
        <path d="M362.5,62c63.5,0 84.5,46.5 84.5,93.5c0,5 -0.5,10 -1,15c-14.5,-9 -22,-20.5 -31,-34c-6,-9.5 -12.5,-20 -22,-26c-9,-6 -19.5,-6.5 -30.5,-5c-11.5,0 -23,1.5 -32,8.5c-18.5,14.5 -25,39.5 -51.5,56c-0.5,-5 -0.5,-9.5 -0.5,-14.5c0,-47 21,-93.5 84,-93.5z" id="curve9" fill="url(#color-12)"/>
        <path d="M243.5,304.5c-12.5,1.5 -29.5,-13 -30.5,-26.5c7,10 33,3 37,-10c-6.5,0 -13.5,-5.5 -16.5,-11.5c10.5,1 17,-1 21.5,-11.5c-18,7.5 -26.5,-3 -30.5,-11c39.5,1.5 23,-48 23,-82.5c0,-57 45,-103.5 115,-103.5c70.5,0 115,46.5 115,103.5c0,16.5 -3.5,36 -3.5,52c0.5,18 8,44.5 27,40c-1.5,9.5 -16,14.5 -27.5,11.5c5.5,16 24.5,20.5 38.5,10.5c-4,12 -11.5,24 -25,23c4.5,6 12.5,8.5 18,6.5c-3,8.5 -12,13 -20.5,11.5c2.5,6.5 13,11.5 24,7.5c-6.5,16 -26.5,21 -39,21.5c-10.5,-20 -31.5,-27 -61,-51.5l0,-34c21,-21 36.5,-54 38.5,-88l-0.5,0c-31,-29.5 -33,-73 -84,-65.5c-51,-7.5 -53,36 -84,65.5l0,0c2,34 17.5,67 38,88l0,34c-29,24.5 -50,31.5 -61,51.5c-12,-0.5 -24,-5.5 -31,-22c11,4.5 16.5,-2 19,-9z" id="curve8" fill="url(#color-13)"/>
        <path d="M208,193c-33.5,0.5 -72.5,13.5 -85.5,47.5c-8.5,22 -1.5,57.5 -6.5,85c-4,7.5 -10.5,11 -20.5,8c0,7 3.5,12.5 9,16.5c-4.5,4 -11,6 -20,4c0,38.5 85.5,48 123.5,48c38,0 123.5,-9.5 123.5,-48c-9,2 -15.5,0 -20,-4c5.5,-4 9,-9.5 9,-16.5c-10,3 -16.5,-0.5 -20.5,-8c-5,-27.5 2,-63 -6.5,-85c-10,-25 -39.5,-47.5 -85.5,-47.5z" id="curve7" fill="url(#color-14)"/>
        <path d="M177,386.5c-30.5,12.5 -59,43 -59,77c0,6.5 4,12 10,14.5c25.5,9 53,14 80,14c27,0 54.5,-5 80,-14c6,-2.5 10,-8 10,-14.5l0,0c0,-33.5 -28,-64 -58,-76.5c-0.5,-2 -1,-4 -1.5,-6c-1,-7 -14,-12.5 -30.5,-12.5c-16.5,0 -29.5,5.5 -30.5,12.5c0,2 -0.5,4 -0.5,5.5z" id="curve6" fill="url(#color-15)"/>
        <path d="M238.5,381c35.5,13.5 64.5,47.5 64.5,82.5c0,8.5 -5,16 -13.5,19c-25,9 -52.5,14.5 -81.5,14.5c-29,0 -56.5,-5.5 -81.5,-14.5c-8.5,-3 -13.5,-10.5 -13.5,-19c0,-35 29,-69 64.5,-82.5c-6,14 19,19 30.5,19c14.5,0 39.5,-9 30.5,-19z" id="curve5" fill="url(#color-16)"/>
        <path d="M231,373c12,3.5 20,10 20,17.5c0,11.5 -19,21 -43,21c-24,0 -43,-9.5 -43,-21c0,-7.5 8,-14 20,-17.5c-4.5,2 -7.5,5.5 -7.5,8.5c0,7.5 13.5,13.5 30.5,13.5c17,0 30.5,-6 30.5,-13.5c0,-3 -3,-6.5 -7.5,-8.5z" id="curve4" fill="url(#color-17)"/>
        <path d="M208,387c-29,0 -71,-19.5 -75,-61c-5,-56.5 23.5,-104.5 75,-104.5c51.5,0 81,48 76,104.5c-4,41.5 -47,61 -76,61z" id="curve3" fill="url(#color-18)"/>
        <path d="M208,307c22.5,0 55.5,-10.5 71,-27c-22,-78 -120,-78 -142,0c15.5,16.5 49,27 71,27z" id="curve2" fill="url(#color-19)"/>
        <path d="M208,193c-57,0 -76,36.5 -76,71c0,11 38,33.5 76,33.5c12.5,0 24.5,-2.5 35.5,-6c4,-1.5 6.5,-5 7,-9.5c1,-14 2.5,-29 -4.5,-40c11,9 14,25 15.5,42c13.5,-6.5 22,-14.5 22,-20c0,-34.5 -18.5,-71 -75.5,-71z" id="curve1" fill="url(#color-20)"/>
        <path d="M138.5,250c11,-28 40.5,-38 69.5,-38c29,0 58.5,10 69.5,38c-14.5,-23 -43.5,-28.5 -69.5,-28.5c-26,0 -55,5.5 -69.5,28.5z" id="curve0" fill="url(#color-21)"/>
    </g>
</svg>