<svg version="1.1"
    xmlns="http://www.w3.org/2000/svg"
    xmlns:xlink="http://www.w3.org/1999/xlink" width="512" height="512" viewBox="0 0 512 512">
    <title>users crowd icon</title>
    <desc>users crowd icon from the IconExperience.com G-Collection. Copyright by INCORS GmbH (www.incors.com).</desc>
    <defs>
        <radialGradient cx="178.51905" cy="89.80138" r="221.50162" fx="178.51905" fy="89.80138" gradientUnits="userSpaceOnUse" id="color-1">
            <stop offset="0" stop-color="#f5b551"/>
            <stop offset="1" stop-color="#eba331"/>
        </radialGradient>
        <radialGradient cx="273.29828" cy="90.01142" r="223.07243" fx="273.29828" fy="90.01142" gradientUnits="userSpaceOnUse" id="color-2">
            <stop offset="0" stop-color="#be7228"/>
            <stop offset="1" stop-color="#ac6622"/>
        </radialGradient>
        <radialGradient cx="322.11917" cy="105.94037" r="221.50162" fx="322.11917" fy="105.94037" gradientUnits="userSpaceOnUse" id="color-3">
            <stop offset="0" stop-color="#f5b551"/>
            <stop offset="1" stop-color="#eba331"/>
        </radialGradient>
        <radialGradient cx="230.19671" cy="120.23357" r="240.65332" fx="230.19671" fy="120.23357" gradientUnits="userSpaceOnUse" id="color-4">
            <stop offset="0" stop-color="#f5b673"/>
            <stop offset="1" stop-color="#f5a557"/>
        </radialGradient>
        <radialGradient cx="294.93476" cy="130.13598" r="267.23776" fx="294.93476" fy="130.13598" gradientUnits="userSpaceOnUse" id="color-5">
            <stop offset="0" stop-color="#ac6622"/>
            <stop offset="1" stop-color="#885320"/>
        </radialGradient>
        <radialGradient cx="158.1686" cy="136.43657" r="240.65332" fx="158.1686" fy="136.43657" gradientUnits="userSpaceOnUse" id="color-6">
            <stop offset="0" stop-color="#f5a557"/>
            <stop offset="1" stop-color="#ec923a"/>
        </radialGradient>
        <radialGradient cx="221.50192" cy="144.44258" r="223.07191" fx="221.50192" fy="144.44258" gradientUnits="userSpaceOnUse" id="color-7">
            <stop offset="0" stop-color="#f7c371"/>
            <stop offset="1" stop-color="#f5b551"/>
        </radialGradient>
        <linearGradient x1="256" y1="286.5" x2="475.2185" y2="386.9775" gradientUnits="userSpaceOnUse" id="color-8">
            <stop offset="0" stop-color="#92e352"/>
            <stop offset="1" stop-color="#59a31d"/>
        </linearGradient>
        <linearGradient x1="330.5" y1="247.5" x2="421.0015" y2="247.5" gradientUnits="userSpaceOnUse" id="color-9">
            <stop offset="0" stop-color="#aa6522"/>
            <stop offset="1" stop-color="#8a5420"/>
        </linearGradient>
        <linearGradient x1="320.5" y1="277.5" x2="382.515" y2="309.967" gradientUnits="userSpaceOnUse" id="color-10">
            <stop offset="0" stop-color="#ffffff"/>
            <stop offset="1" stop-color="#eff2f6"/>
        </linearGradient>
        <radialGradient cx="337.79572" cy="168.09772" r="223.07211" fx="337.79572" fy="168.09772" gradientUnits="userSpaceOnUse" id="color-11">
            <stop offset="0" stop-color="#be7228"/>
            <stop offset="1" stop-color="#ac6622"/>
        </radialGradient>
        <linearGradient x1="16" y1="286" x2="204.9875" y2="381.2615" gradientUnits="userSpaceOnUse" id="color-12">
            <stop offset="0" stop-color="#ffc001"/>
            <stop offset="1" stop-color="#ca8d00"/>
        </linearGradient>
        <linearGradient x1="90.5" y1="247.5" x2="181.002" y2="247.5" gradientUnits="userSpaceOnUse" id="color-13">
            <stop offset="0" stop-color="#aa6522"/>
            <stop offset="1" stop-color="#8a5420"/>
        </linearGradient>
        <linearGradient x1="80.5" y1="277.5" x2="142.5155" y2="309.978" gradientUnits="userSpaceOnUse" id="color-14">
            <stop offset="0" stop-color="#ffffff"/>
            <stop offset="1" stop-color="#eff2f6"/>
        </linearGradient>
        <radialGradient cx="97.94914" cy="168.0136" r="223.07211" fx="97.94914" fy="168.0136" gradientUnits="userSpaceOnUse" id="color-15">
            <stop offset="0" stop-color="#be7228"/>
            <stop offset="1" stop-color="#ac6622"/>
        </radialGradient>
        <linearGradient x1="128" y1="342" x2="359.869" y2="459.4445" gradientUnits="userSpaceOnUse" id="color-16">
            <stop offset="0" stop-color="#4eb6f2"/>
            <stop offset="1" stop-color="#129eee"/>
        </linearGradient>
        <linearGradient x1="207.5" y1="300.5" x2="277.3195" y2="300.5" gradientUnits="userSpaceOnUse" id="color-17">
            <stop offset="0" stop-color="#f5a557"/>
            <stop offset="1" stop-color="#ec923a"/>
        </linearGradient>
        <linearGradient x1="196.5" y1="332.5" x2="262.651" y2="367.143" gradientUnits="userSpaceOnUse" id="color-18">
            <stop offset="0" stop-color="#ffffff"/>
            <stop offset="1" stop-color="#eff2f6"/>
        </linearGradient>
        <radialGradient cx="223.27459" cy="223.55209" r="244.55559" fx="223.27459" fy="223.55209" gradientUnits="userSpaceOnUse" id="color-19">
            <stop offset="0" stop-color="#f5b673"/>
            <stop offset="1" stop-color="#f5a557"/>
        </radialGradient>
    </defs>
    <g fill="none" fill-rule="evenodd" stroke="none" stroke-width="1" stroke-linecap="butt" stroke-linejoin="miter" stroke-miterlimit="10" stroke-dasharray="" stroke-dashoffset="0" font-family="none" font-weight="none" font-size="none" text-anchor="none" style="mix-blend-mode: normal">
        <path d="M208,31.5c46.5,0 62,32.5 62,65c0,40.5 -31,80.5 -62,80.5c-31,0 -62,-40 -62,-80.5c0,-32.5 15.5,-65 62,-65z" id="curve19" fill="url(#color-1)"/>
        <path d="M304,31.5c46.5,0 62,32.5 62,65c0,40.5 -31,80.5 -62,80.5c-31,0 -62,-40 -62,-80.5c0,-32.5 15.5,-65 62,-65z" id="curve18" fill="url(#color-2)"/>
        <path d="M352,47.5c46.5,0 62,32.5 62,65c0,40.5 -31,80.5 -62,80.5c-31,0 -62,-40 -62,-80.5c0,-32.5 15.5,-65 62,-65z" id="curve17" fill="url(#color-3)"/>
        <path d="M160,47.5c46.5,0 62,32.5 62,65c0,40.5 -31,80.5 -62,80.5c-31,0 -62,-40 -62,-80.5c0,-32.5 15.5,-65 62,-65z" id="curve16" fill="#cf8438"/>
        <path d="M256,48c51.5,0 68.5,35.5 68.5,71.5c0,45 -34,89.5 -68.5,89.5c-34.5,0 -68.5,-44.5 -68.5,-89.5c0,-36 17,-71.5 68.5,-71.5z" id="curve15" fill="url(#color-4)"/>
        <path d="M328,64c51.5,0 68.5,35.5 68.5,71.5c0,45 -34.5,89.5 -68.5,89.5c-34.5,0 -68.5,-44.5 -68.5,-89.5c0,-36 17,-71.5 68.5,-71.5z" id="curve14" fill="url(#color-5)"/>
        <path d="M184,64c51.5,0 68.5,35.5 68.5,71.5c0,45 -34,89.5 -68.5,89.5c-34,0 -68.5,-44.5 -68.5,-89.5c0,-36 17,-71.5 68.5,-71.5z" id="curve13" fill="url(#color-6)"/>
        <path d="M256,80c51.5,0 68.5,35.5 68.5,71.5c0,45 -34.5,89.5 -68.5,89.5c-34.5,0 -68.5,-44.5 -68.5,-89.5c0,-36 17,-71.5 68.5,-71.5z" id="curve12" fill="url(#color-7)"/>
        <path d="M376,416c-50,0 -120,-10 -120,-39c0,-62 38,-72.5 64.5,-90.5l0,0c3.5,7.5 11.5,13 19.5,16.5c11,5 24,7 36,7c12,0 25,-2 36,-7c8,-3.5 16,-9 19.5,-16.5l0,0c26.5,18 64.5,28.5 64.5,90.5c0,29 -70,39 -120,39z" id="curve11" fill="url(#color-8)"/>
        <path d="M376,310c-22.5,0 -45,-9.5 -45,-20l-0.5,-42.5c30.5,0 60.5,0 91,0l-0.5,42.5c0,10.5 -22.5,20 -45,20z" id="curve10" fill="url(#color-9)"/>
        <path d="M376,310c-12,0 -25,-2 -36,-7c-8,-3.5 -16,-9 -19.5,-16.5c3.5,-3 7,-5.5 10.5,-9c0,10.5 22.5,20 45,20c22.5,0 45,-9.5 45,-20c3.5,3.5 7,6 10.5,9c-3.5,7.5 -11.5,13 -19.5,16.5c-11,5 -24,7 -36,7z" id="curve9" fill="url(#color-10)"/>
        <path d="M376,96c57.5,0 76.5,40 76.5,80c0,50 -38.5,100 -76.5,100c-38,0 -76.5,-50 -76.5,-100c0,-40 19,-80 76.5,-80z" id="curve8" fill="url(#color-11)"/>
        <path d="M136,416c-50,0 -120,-10 -120,-39.5c0,-61.5 38,-72 64.5,-90.5c3.5,8 11.5,13.5 19.5,17c11,4.5 24,7 36,7c12,0 25,-2.5 36,-7c8,-3.5 16,-9 19.5,-17c26.5,18.5 64.5,29 64.5,90.5c0,29.5 -70,39.5 -120,39.5z" id="curve7" fill="url(#color-12)"/>
        <path d="M136,307c-22.5,0 -45,-10 -45,-20l-0.5,-39.5c30.5,0 60.5,0 91,0l-0.5,39.5c0,10 -22.5,20 -45,20z" id="curve6" fill="url(#color-13)"/>
        <path d="M136,310c-12,0 -25,-2.5 -36,-7c-8,-3.5 -16,-9 -19.5,-17c3.5,-2.5 7,-5 10.5,-8.5c0,10.5 22.5,20 45,20c22.5,0 45,-9.5 45,-20c3.5,3.5 7,6 10.5,8.5c-3.5,8 -11.5,13.5 -19.5,17c-11,4.5 -24,7 -36,7z" id="curve5" fill="url(#color-14)"/>
        <path d="M136,96c57.5,0 76.5,40 76.5,80c0,50 -38.5,100 -76.5,100c-38,0 -76.5,-50 -76.5,-100c0,-40 19,-80 76.5,-80z" id="curve4" fill="url(#color-15)"/>
        <path d="M256,480c-53.5,0 -128,-10.5 -128,-41.5c0,-66 40.5,-77 68.5,-96.5c4,8 13,14 21,17.5c12,5 25.5,8 38.5,8c13,0 26.5,-3 38.5,-8c8,-3.5 17,-9.5 21,-17.5c28,19.5 68.5,30.5 68.5,96.5c0,31 -74.5,41.5 -128,41.5z" id="curve3" fill="url(#color-16)"/>
        <path d="M256,364c-24,0 -48,-10.5 -48,-21.5l-0.5,-42c32.5,0 64.5,0 97,0l-0.5,42c0,11 -24,21.5 -48,21.5z" id="curve2" fill="url(#color-17)"/>
        <path d="M256,367.5c-13,0 -26.5,-3 -38.5,-8c-8,-3.5 -17,-9.5 -21,-17.5c4.5,-3 8,-6 11.5,-9.5c0,11 24,21.5 48,21.5c24,0 48,-10.5 48,-21.5c3.5,3.5 7,6.5 11.5,9.5c-4,8 -13,14 -21,17.5c-12,5 -25.5,8 -38.5,8z" id="curve1" fill="url(#color-18)"/>
        <path d="M256,139c61,0 81.5,42.5 81.5,85c0,53.5 -40.5,107 -81.5,107c-41,0 -81.5,-53.5 -81.5,-107c0,-42.5 20.5,-85 81.5,-85z" id="curve0" fill="url(#color-19)"/>
    </g>
</svg>