<?xml version="1.0" encoding="UTF-8"?>
<!DOCTYPE svg PUBLIC "-//W3C//DTD SVG 1.1//EN" "http://www.w3.org/Graphics/SVG/1.1/DTD/svg11.dtd">
<svg version="1.1" id="Layer_1" xmlns="http://www.w3.org/2000/svg" xmlns:xlink="http://www.w3.org/1999/xlink" x="0px" y="0px" width="24px" height="24px" viewBox="0 0 24 24" enable-background="new 0 0 24 24" xml:space="preserve">
  <g id="icon">
    <path d="M21.8,4H2.2c-0.66,0,-1.2,0.54,-1.2,1.2v14.6c0,0.66,0.54,1.2,1.2,1.2h4.8v-0.5375c0,-0.2554,-0.2071,-0.4625,-0.4625,-0.4625h-0.075c-0.2554,0,-0.4625,-0.2071,-0.4625,-0.4625v-1.075c0,-0.2554,0.2071,-0.4625,0.4625,-0.4625h3.075c0.2554,0,0.4625,0.2071,0.4625,0.4625v1.075c0,0.2554,-0.2071,0.4625,-0.4625,0.4625h-0.075c-0.2554,0,-0.4625,0.2071,-0.4625,0.4625V21h6v-0.5375c0,-0.2554,-0.2071,-0.4625,-0.4625,-0.4625h-0.075c-0.2554,0,-0.4625,-0.2071,-0.4625,-0.4625v-1.075c0,-0.2554,0.2071,-0.4625,0.4625,-0.4625h3.075c0.2554,0,0.4625,0.2071,0.4625,0.4625v1.075c0,0.2554,-0.2071,0.4625,-0.4625,0.4625h-0.075c-0.2554,0,-0.4625,0.2071,-0.4625,0.4625V21h4.8c0.66,0,1.2,-0.54,1.2,-1.2V5.2C23,4.54,22.46,4,21.8,4z" fill="#E6E9EE"/>
    <path d="M15,20.4625V21h-1.5557l0.5571,-1.4487c0.0075,0.2489,0.2104,0.4487,0.4611,0.4487h0.075C14.7929,20,15,20.2071,15,20.4625zM21.7557,4H19.982l-5.384,14h2.9395c0.2554,0,0.4625,0.2071,0.4625,0.4625v1.075c0,0.2554,-0.2071,0.4625,-0.4625,0.4625h-0.075c-0.2554,0,-0.4625,0.2071,-0.4625,0.4625V21h4.7557c0.66,0,1.2443,-0.4957,1.2443,-1.1557v-14.6C23,4.5843,22.4157,4,21.7557,4z" fill="#231F20" opacity="0.06"/>
    <path d="M12.933,14.0717c-0.251,-1.2625,-0.6975,-1.2835,-3.1389,-2.1427c-0.3565,-0.1334,-0.4571,-0.3254,-0.4304,-0.5994c0.6887,-0.8204,1.1036,-2.1475,1.1036,-3.0753c0,-1.4368,-0.492,-2.3469,-2.5071,-2.3469c-0.0083,0,0.0027,0,0,0c-2.0152,0,-2.4666,0.9101,-2.4666,2.3469c0,0.9278,0.4133,2.2523,1.102,3.0727c0.0267,0.274,-0.0748,0.4673,-0.4312,0.6007c-2.4414,0.8592,-2.8883,0.8809,-3.1393,2.1434c-0.0755,0.5074,-0.088,0.7202,0.1129,1.2825c0.2262,0.6329,3.4229,0.5501,4.8222,0.5501c0.0057,0,-0.0096,0,0,0c1.3993,0,4.6336,0.0831,4.8597,-0.5498C13.0208,14.7915,13.0084,14.5791,12.933,14.0717z" fill-rule="evenodd" fill="#4B89DC"/>
    <path d="M3.0389,14.0717c0.251,-1.2625,0.6975,-1.2835,3.1389,-2.1427c0.3565,-0.1334,0.4571,-0.3254,0.4304,-0.5994c-0.6887,-0.8204,-1.1095,-2.1475,-1.1095,-3.0753C5.4988,6.8175,6,5.9074,8,5.9074v9.9962c-1.5,0,-4.6277,0.0831,-4.8539,-0.5498C2.9452,14.7915,2.9634,14.5791,3.0389,14.0717z" fill-rule="evenodd" fill="#5D9CEC" opacity="0.8"/>
    <line x1="15" y1="7.5" x2="21" y2="7.5" fill="none" stroke="#536880" stroke-width="1" stroke-linecap="round" stroke-miterlimit="10" opacity="0.7"/>
    <line x1="15" y1="10.5" x2="21" y2="10.5" fill="none" stroke="#536880" stroke-width="1" stroke-linecap="round" stroke-miterlimit="10" opacity="0.7"/>
    <line x1="15" y1="13.5" x2="21" y2="13.5" fill="none" stroke="#536880" stroke-width="1" stroke-linecap="round" stroke-miterlimit="10" opacity="0.7"/>
  </g>
</svg>
