<?xml version="1.0" encoding="UTF-8" standalone="no"?>
<!DOCTYPE svg PUBLIC "-//W3C//DTD SVG 1.1//EN" "http://www.w3.org/Graphics/SVG/1.1/DTD/svg11.dtd">
<svg width="100%" height="100%" viewBox="0 0 96 96" version="1.1" xmlns="http://www.w3.org/2000/svg" xmlns:xlink="http://www.w3.org/1999/xlink" xml:space="preserve" xmlns:serif="http://www.serif.com/" style="fill-rule:evenodd;clip-rule:evenodd;stroke-linejoin:round;stroke-miterlimit:2;">
    <g>
        <g transform="matrix(1,0,0,1,0,-0.25)">
            <path d="M13.87,75.4C12.725,76.379 11.12,76.631 9.73,76.05L2.46,73C0.98,72.383 0.009,70.933 0,69.33L0,26.67C0.009,25.067 0.98,23.617 2.46,23L9.73,20C11.12,19.419 12.725,19.671 13.87,20.65L15.5,22C15.124,21.73 14.673,21.584 14.21,21.584C12.998,21.584 12,22.582 12,23.794C12,23.796 12,23.798 12,23.8L12,72.2C12,72.202 12,72.204 12,72.206C12,73.418 12.998,74.416 14.21,74.416C14.673,74.416 15.124,74.27 15.5,74L13.87,75.4Z" style="fill:rgb(82,33,138);fill-rule:nonzero;"/>
        </g>
        <g transform="matrix(1,0,0,1,0,-0.25)">
            <path d="M2.46,73C0.98,72.383 0.009,70.933 0,69.33L0,69C0.013,70.258 1.052,71.285 2.31,71.285C2.951,71.285 3.563,71.019 4,70.55L66,2C67.795,0.214 70.536,-0.252 72.82,0.84L92.6,10.36C94.676,11.358 96.001,13.467 96,15.77L96,16C95.998,13.922 94.288,12.213 92.21,12.213C91.335,12.213 90.487,12.516 89.81,13.07L15.5,74L13.87,75.4C12.725,76.379 11.12,76.631 9.73,76.05L2.46,73Z" style="fill:rgb(108,51,175);fill-rule:nonzero;"/>
        </g>
        <g transform="matrix(1,0,0,1,0,-0.25)">
            <path d="M2.46,23C0.98,23.617 0.009,25.067 0,26.67L0,27C0.013,25.742 1.052,24.715 2.31,24.715C2.951,24.715 3.563,24.981 4,25.45L66,94C67.795,95.786 70.536,96.252 72.82,95.16L92.6,85.64C94.676,84.642 96.001,82.533 96,80.23L96,80C95.998,82.078 94.288,83.787 92.21,83.787C91.335,83.787 90.487,83.484 89.81,82.93L15.5,22L13.87,20.6C12.715,19.638 11.111,19.406 9.73,20L2.46,23Z" style="fill:rgb(133,76,199);fill-rule:nonzero;"/>
        </g>
        <g transform="matrix(1,0,0,1,0,-0.25)">
            <path d="M72.82,95.16C70.536,96.252 67.795,95.786 66,94C66.659,94.654 67.551,95.022 68.48,95.022C70.408,95.022 71.996,93.438 72,91.51L72,4.51C72,4.506 72,4.502 72,4.498C72,2.567 70.411,0.978 68.48,0.978C67.551,0.978 66.659,1.346 66,2C67.795,0.214 70.536,-0.252 72.82,0.84L92.6,10.35C94.676,11.348 96.001,13.457 96,15.76L96,80.24C96.001,82.543 94.676,84.652 92.6,85.65L72.82,95.16Z" style="fill:rgb(177,121,241);fill-rule:nonzero;"/>
        </g>
        <g opacity="0.25">
            <g transform="matrix(1,0,0,1,0,-0.25)">
                <path d="M68.89,95.6C70.212,95.902 71.598,95.746 72.82,95.16L92.6,85.65C94.676,84.652 96.001,82.543 96,80.24L96,15.76C96.001,13.457 94.676,11.348 92.6,10.35L72.82,0.84C71.421,0.167 69.814,0.063 68.34,0.55C67.458,0.845 66.657,1.342 66,2L34.12,37.26L15.5,22L13.87,20.6C12.876,19.75 11.526,19.44 10.26,19.77C10.077,19.81 9.9,19.871 9.73,19.95L2.46,23C1.075,23.572 0.123,24.876 0,26.37L0,69.63C0.123,71.124 1.075,72.428 2.46,73L9.73,76C9.9,76.079 10.077,76.14 10.26,76.18C11.526,76.51 12.876,76.2 13.87,75.35L15.5,74L34.12,58.74L66,94C66.795,94.793 67.796,95.348 68.89,95.6ZM72,27.68L47.21,48L72,68.32L72,27.68ZM12,34.27L24.41,48L12,61.73L12,34.27Z" style="fill:url(#_Linear1);fill-rule:nonzero;"/>
            </g>
        </g>
    </g>
    <defs>
        <linearGradient id="_Linear1" x1="0" y1="0" x2="1" y2="0" gradientUnits="userSpaceOnUse" gradientTransform="matrix(5.84769e-15,95.5,-95.5,5.84769e-15,48,0.25)"><stop offset="0" style="stop-color:white;stop-opacity:1"/><stop offset="1" style="stop-color:white;stop-opacity:0"/></linearGradient>
    </defs>
</svg>
