<?xml version="1.0" encoding="UTF-8" standalone="no"?>
<!DOCTYPE svg PUBLIC "-//W3C//DTD SVG 1.1//EN" "http://www.w3.org/Graphics/SVG/1.1/DTD/svg11.dtd">
<svg width="100%" height="100%" viewBox="0 0 193 193" version="1.1" xmlns="http://www.w3.org/2000/svg" xmlns:xlink="http://www.w3.org/1999/xlink" xml:space="preserve" xmlns:serif="http://www.serif.com/" style="fill-rule:evenodd;clip-rule:evenodd;stroke-linejoin:round;stroke-miterlimit:2;">
    <g>
        <g>
            <clipPath id="_clip1">
                <rect x="8.271" y="8.271" width="176.457" height="176.457"/>
            </clipPath>
            <g clip-path="url(#_clip1)">
                <g>
                    <path d="M40.621,157.524L11.213,135.467C10.297,134.786 9.552,133.898 9.041,132.877C8.53,131.855 8.267,130.728 8.272,129.586L8.272,63.414C8.267,62.272 8.53,61.145 9.041,60.123C9.552,59.102 10.297,58.214 11.213,57.533L40.621,35.476C39.831,36.218 39.234,37.141 38.882,38.166C38.53,39.191 38.433,40.286 38.6,41.357L38.6,151.643C38.433,152.714 38.53,153.809 38.882,154.834C39.234,155.859 39.831,156.782 40.621,157.524Z" style="fill:rgb(94,67,143);fill-rule:nonzero;"/>
                    <g>
                        <path d="M181.455,38.895C180.244,38.099 178.825,37.677 177.375,37.682C176.436,37.674 175.504,37.852 174.633,38.205C173.763,38.558 172.971,39.079 172.302,39.739L171.789,40.254L140.539,70.216L113.117,96.5L80.654,127.637L50.621,156.421L50.105,156.937C49.437,157.597 48.645,158.119 47.774,158.473C46.904,158.826 45.972,159.004 45.032,158.996C43.441,158.993 41.894,158.477 40.621,157.524L11.213,135.467C12.707,136.589 14.573,137.1 16.43,136.895C18.287,136.69 19.997,135.785 21.21,134.364L37.682,115.249L53.855,96.464L80.654,65.364L127.6,10.844C128.282,10.037 129.132,9.388 130.091,8.944C131.049,8.499 132.094,8.27 133.15,8.272C134.6,8.267 136.019,8.689 137.231,9.485L181.455,38.895Z" style="fill:url(#_Linear2);fill-rule:nonzero;"/>
                    </g>
                    <g>
                        <path d="M181.455,154.105L137.341,183.516C135.841,184.496 134.037,184.901 132.261,184.658C130.485,184.415 128.857,183.54 127.675,182.192L80.654,127.637L53.855,96.464L37.682,77.716L21.21,58.598C19.986,57.191 18.275,56.3 16.421,56.102C14.566,55.905 12.706,56.416 11.213,57.533L40.621,35.476C41.894,34.524 43.441,34.007 45.032,34.004C45.972,33.996 46.904,34.174 47.774,34.528C48.645,34.881 49.437,35.403 50.105,36.064L50.621,36.579L80.654,65.364L113.117,96.5L140.578,122.823L171.789,152.746L172.302,153.262C172.971,153.921 173.763,154.442 174.633,154.795C175.504,155.148 176.436,155.326 177.375,155.318C178.825,155.323 180.244,154.901 181.455,154.105Z" style="fill:url(#_Linear3);fill-rule:nonzero;"/>
                    </g>
                    <g>
                        <path d="M184.729,45.032L184.729,147.967C184.73,149.181 184.432,150.375 183.861,151.446C183.29,152.516 182.464,153.43 181.456,154.105L137.341,183.515C138.35,182.84 139.176,181.926 139.746,180.855C140.317,179.784 140.615,178.589 140.614,177.375L140.614,15.624C140.598,14.402 140.281,13.202 139.691,12.131C139.101,11.06 138.256,10.151 137.231,9.484L181.456,38.895C182.461,39.572 183.285,40.486 183.856,41.556C184.426,42.626 184.726,43.82 184.729,45.032Z" style="fill:url(#_Linear4);fill-rule:nonzero;"/>
                    </g>
                </g>
            </g>
        </g>
    </g>
    <defs>
        <linearGradient id="_Linear2" x1="0" y1="0" x2="1" y2="0" gradientUnits="userSpaceOnUse" gradientTransform="matrix(-131.028,131.877,-131.877,-131.028,151.642,8.27149)"><stop offset="0" style="stop-color:rgb(114,82,170);stop-opacity:1"/><stop offset="1" style="stop-color:rgb(114,82,170);stop-opacity:1"/></linearGradient>
        <linearGradient id="_Linear3" x1="0" y1="0" x2="1" y2="0" gradientUnits="userSpaceOnUse" gradientTransform="matrix(123.151,137.856,-137.856,123.151,24.8145,40.4371)"><stop offset="0" style="stop-color:rgb(174,127,226);stop-opacity:1"/><stop offset="1" style="stop-color:rgb(154,112,212);stop-opacity:1"/></linearGradient>
        <linearGradient id="_Linear4" x1="0" y1="0" x2="1" y2="0" gradientUnits="userSpaceOnUse" gradientTransform="matrix(1.08645e-14,177.431,-177.431,1.08645e-14,160.457,5.93579)"><stop offset="0" style="stop-color:rgb(213,157,255);stop-opacity:1"/><stop offset="1" style="stop-color:rgb(193,142,241);stop-opacity:1"/></linearGradient>
    </defs>
</svg>
