<?xml version="1.0" encoding="UTF-8"?>
<!DOCTYPE svg PUBLIC "-//W3C//DTD SVG 1.1//EN" "http://www.w3.org/Graphics/SVG/1.1/DTD/svg11.dtd">
<svg version="1.1" id="Layer_1" xmlns="http://www.w3.org/2000/svg" xmlns:xlink="http://www.w3.org/1999/xlink" x="0px" y="0px" width="24px" height="24px" viewBox="0 0 24 24" enable-background="new 0 0 24 24" xml:space="preserve">
  <g id="icon">
    <path d="M10.5707,2.8472L1.4359,18.4394C0.7716,19.5732,1.5893,21,2.9034,21H21.173c1.3141,0,2.1318,-1.4268,1.4675,-2.5606L13.5058,2.8472C12.8488,1.7258,11.2277,1.7258,10.5707,2.8472z" fill="#FFCE55"/>
    <path d="M22.6406,18.4394L13.5057,2.8472c-0.3359,-0.5733,-0.9236,-0.8527,-1.5057,-0.8399V21h9.173C22.4871,21,23.3048,19.5732,22.6406,18.4394z" fill="#F6BB43"/>
    <path d="M12.6,14.6h-1.2c-0.22,0,-0.4,-0.18,-0.4,-0.4V7.4c0,-0.22,0.18,-0.4,0.4,-0.4h1.2c0.22,0,0.4,0.18,0.4,0.4v6.8C13,14.42,12.82,14.6,12.6,14.6zM13,17.6v-1.2c0,-0.22,-0.18,-0.4,-0.4,-0.4h-1.2c-0.22,0,-0.4,0.18,-0.4,0.4v1.2c0,0.22,0.18,0.4,0.4,0.4h1.2C12.82,18,13,17.82,13,17.6z" fill="#536880"/>
  </g>
</svg>
