<?xml version="1.0" encoding="UTF-8"?>
<!DOCTYPE svg PUBLIC "-//W3C//DTD SVG 1.1//EN" "http://www.w3.org/Graphics/SVG/1.1/DTD/svg11.dtd">
<svg version="1.1" id="Layer_1" xmlns="http://www.w3.org/2000/svg" xmlns:xlink="http://www.w3.org/1999/xlink" x="0px" y="0px" width="24px" height="24px" viewBox="0 0 24 24" enable-background="new 0 0 24 24" xml:space="preserve">
  <g id="icon">
    <path d="M23,6V3.2c0,-0.66,-0.54,-1.2,-1.2,-1.2H2.2c-0.66,0,-1.2,0.54,-1.2,1.2v2.8H23z" fill="#4B89DC"/>
    <path d="M1,6v14.8c0,0.66,0.54,1.2,1.2,1.2h19.6c0.66,0,1.2,-0.54,1.2,-1.2V6" fill="#E6E9EE"/>
    <path d="M21.8,2h-3.7738l-5.7377,20H21.8c0.66,0,1.2,-0.54,1.2,-1.2V3.2C23,2.54,22.46,2,21.8,2z" fill="#231F20" opacity="0.06"/>
    <path d="M8,6H1v14.8c0,0.66,0.54,1.2,1.2,1.2h5.8V6z" fill="#AAB2BD"/>
    <path d="M8.5465,13.6865l2.491,2.5547c0.0784,0.0784,0.2068,0.0784,0.2852,0l0.4278,-0.4278c0.0784,-0.0784,0.0784,-0.2477,0,-0.3262L10.3327,14h4.333c0.1294,0,0.2344,-0.1049,0.2344,-0.2344v-0.5031c0,-0.1444,-0.1181,-0.2625,-0.2625,-0.2625h-4.3026l1.4438,-1.5c0.0784,-0.0784,0.0784,-0.1883,0,-0.2668l-0.4278,-0.4186c-0.0784,-0.0784,-0.2068,-0.0738,-0.2852,0.0046L8.5463,13.3C8.4313,13.4125,8.425,13.5688,8.5465,13.6865z" fill="#3BAEDA"/>
  </g>
</svg>
