<?xml version="1.0" encoding="UTF-8"?>
<!DOCTYPE svg PUBLIC "-//W3C//DTD SVG 1.1//EN" "http://www.w3.org/Graphics/SVG/1.1/DTD/svg11.dtd">
<svg version="1.1" id="Layer_1" xmlns="http://www.w3.org/2000/svg" xmlns:xlink="http://www.w3.org/1999/xlink" x="0px" y="0px" width="24px" height="24px" viewBox="0 0 24 24" enable-background="new 0 0 24 24" xml:space="preserve">
  <g id="icon">
    <path d="M23,6V3.2c0,-0.66,-0.54,-1.2,-1.2,-1.2H2.2c-0.66,0,-1.2,0.54,-1.2,1.2v2.8H23z" fill="#4B89DC"/>
    <path d="M1,6v14.8c0,0.66,0.54,1.2,1.2,1.2h19.6c0.66,0,1.2,-0.54,1.2,-1.2V6" fill="#E6E9EE"/>
    <rect x="1" y="6" width="22" height="5" fill="#AAB2BD"/>
    <path d="M21.8,2h-3.7738l-5.7377,20H21.8c0.66,0,1.2,-0.54,1.2,-1.2V3.2C23,2.54,22.46,2,21.8,2z" fill="#231F20" opacity="0.06"/>
    <path d="M11.8135,11.5465l-2.5547,2.491c-0.0784,0.0784,-0.0784,0.2068,0,0.2852l0.4278,0.4278c0.0784,0.0784,0.2477,0.0784,0.3262,0L11.5,13.3327v4.333c0,0.1294,0.1049,0.2344,0.2344,0.2344h0.5031c0.1444,0,0.2625,-0.1181,0.2625,-0.2625v-4.3026l1.5,1.4438c0.0784,0.0784,0.1883,0.0784,0.2668,0l0.4186,-0.4278c0.0784,-0.0784,0.0738,-0.2068,-0.0046,-0.2852L12.2,11.5463C12.0875,11.4313,11.9313,11.425,11.8135,11.5465z" fill="#3BAEDA"/>
  </g>
</svg>
