<?xml version="1.0" encoding="UTF-8"?>
<!DOCTYPE svg PUBLIC "-//W3C//DTD SVG 1.1//EN" "http://www.w3.org/Graphics/SVG/1.1/DTD/svg11.dtd">
<svg version="1.1" id="Layer_1" xmlns="http://www.w3.org/2000/svg" xmlns:xlink="http://www.w3.org/1999/xlink" x="0px" y="0px" width="24px" height="24px" viewBox="0 0 24 24" enable-background="new 0 0 24 24" xml:space="preserve">
  <g id="icon">
    <path d="M23,6V3.2c0,-0.66,-0.54,-1.2,-1.2,-1.2H2.2c-0.66,0,-1.2,0.54,-1.2,1.2v2.8H23z" fill="#4B89DC"/>
    <path d="M1,6v14.8c0,0.66,0.54,1.2,1.2,1.2h19.6c0.66,0,1.2,-0.54,1.2,-1.2V6" fill="#E6E9EE"/>
    <path d="M21.8,2h-3.7738l-5.7377,20H21.8c0.66,0,1.2,-0.54,1.2,-1.2V3.2C23,2.54,22.46,2,21.8,2z" fill="#231F20" opacity="0.06"/>
    <rect x="3" y="8" width="18" height="12" fill="#FFFFFF"/>
    <polygon points="6.6,19 18.9276,19 14.7897,13.4414 13.1345,15.669 9,10.2 4,19" fill="#36BC9B" stroke-linejoin="miter"/>
    <circle cx="16.9724" cy="10.6966" r="1.6552" fill="#FFCE55"/>
  </g>
</svg>
